<svg width="1327" height="265" viewBox="0 0 1327 265" fill="none" xmlns="http://www.w3.org/2000/svg">
<g filter="url(#filter0_d_424_24)">
<path d="M624.365 100.837C658.081 103.926 659.021 80.6206 689.581 83.1728C706.44 83.0385 719.671 88.21 731.962 100.568C742.037 110.844 747.41 76.3222 783.007 87.3369C802.015 54.6959 813.634 37.9053 845.537 33.7412C896.112 32.5323 891.277 69.4717 911.224 64.1658C953.001 37.8381 956.628 62.5539 975.568 54.4273C1020.57 -5.54885 1095.52 23.3982 1118.96 76.7252C1119.97 94.7248 1154.29 89.4861 1160.2 97.1426C1202.72 146.977 1175.05 61.1435 1239.79 76.0536C1262.09 82.3669 1275.86 105.807 1275.46 143.082C1314.88 150.738 1314.95 201.244 1282.51 213.334C1265.79 214.073 1263.03 222.468 1251.61 231.669C1207.22 254.236 1210.58 222.468 1188.41 230.662C1134.14 246.378 1136.76 200.103 1095.79 220.99C1076.52 230.863 1015.4 215.281 985.173 229.856C910.62 265.989 892.15 215.147 876.635 227.572C856.955 238.654 835.127 244.363 807.858 243.96C758.962 245.437 739.35 205.744 711.141 194.931C684.41 184.723 654.79 193.991 631.82 173.036C577.148 180.223 550.349 93.986 624.365 100.837Z" fill="#E5EEED"/>
</g>
<g filter="url(#filter1_d_424_24)">
<path d="M276.56 156.017C278.527 153.098 279.733 146.754 281.193 143.963C286.08 134.637 288.238 129.942 293.188 124.36C308.928 104.185 329.556 96.8261 353.229 100.125C359.069 100.95 361.417 98.8562 364.4 93.5906C379.886 65.6765 400.577 45.4387 426.472 37.9527C457.508 28.944 488.354 31.9258 515.772 56.2237C520.088 60.0302 523.008 60.6012 528.212 57.1753C543.635 47.0882 559.819 46.5172 575.433 56.9216C580.891 60.6012 584.889 60.9184 590.602 56.6044C616.243 37.4451 643.344 35.415 670.826 49.3086C676.221 52.0366 678.886 50.514 681.996 45.8194C690.882 32.3698 702.179 25.201 715.825 21.9655C738.229 16.6999 765.457 33.4483 774.787 60.6012C775.295 62.1238 776.374 64.6614 776.628 65.6765C777.961 71.2593 776.31 73.7335 776.31 73.7335C800.809 89.5938 779.674 105.771 791.606 120.807C808.997 127.278 811.789 149.419 822.579 157.666C862.056 168.832 841.302 214.065 806.014 205.057C752.51 225.929 717.919 218.252 680.41 202.709C620.94 227.832 604.882 190.275 597.202 210.893C579.939 234.811 554.488 245.215 524.341 239.632C509.743 238.427 506.95 225.358 493.368 234.049C446.972 255.112 384.456 241.091 359.259 207.467C342.313 200.996 226.356 198.015 261.644 164.391C263.929 162.17 274.275 159.379 276.56 156.017Z" fill="#E5EEED"/>
</g>
<g filter="url(#filter2_d_424_24)">
<path d="M71.4405 124.786C72.0066 124.263 72.0502 123.74 72.1808 122.999C81.0202 65.9577 134.405 70.3589 151.735 112.105C152.476 113.935 153.782 117.16 154.261 115.853C154.871 114.197 154.827 114.11 155.393 112.367C165.887 79.1178 185.351 69.5745 216.137 77.3312C248.272 54.8457 279.014 64.8247 300.046 93.4109C312.63 123.784 319.118 79.7279 354.867 113.805C376.247 138.338 362.531 162.654 374.81 164.048C383.867 165.922 393.839 173.853 396.713 183.353C396.756 183.527 396.844 183.658 396.974 183.745C397.105 183.876 397.192 183.919 397.322 183.963C427.934 192.286 408.426 226.101 383.824 215.556C383.519 215.425 383.258 215.294 382.909 215.294C382.561 215.294 382.343 215.425 382.039 215.599C364.665 223.617 340.062 223.923 329.089 214.989C328.828 214.771 328.697 214.771 328.393 214.815C327.87 214.902 327.783 215.251 327.522 215.687C301.962 254.862 227.589 252.334 205.425 214.597C205.077 214.031 204.989 213.638 204.336 213.421C203.727 213.246 203.335 213.421 202.769 213.726C185.221 222.702 163.057 217.342 152.737 204.139C152.476 203.79 152.389 203.659 151.953 203.703C151.822 203.703 151.431 203.79 151.169 204.182C130.921 232.071 91.9497 230.415 73.5307 204.618C71.4841 201.524 70.918 199.171 66.3459 199.999C6.60383 203.267 4.03474 127.27 69.7424 125.396C70.4391 125.309 70.918 125.265 71.4405 124.786Z" fill="#E5EEED"/>
</g>
<defs>
<filter id="filter0_d_424_24" x="558" y="0" width="769" height="265" filterUnits="userSpaceOnUse" color-interpolation-filters="sRGB">
<feFlood flood-opacity="0" result="BackgroundImageFix"/>
<feColorMatrix in="SourceAlpha" type="matrix" values="0 0 0 0 0 0 0 0 0 0 0 0 0 0 0 0 0 0 127 0" result="hardAlpha"/>
<feOffset/>
<feGaussianBlur stdDeviation="10.5"/>
<feComposite in2="hardAlpha" operator="out"/>
<feColorMatrix type="matrix" values="0 0 0 0 0 0 0 0 0 0 0 0 0 0 0 0 0 0 0.25 0"/>
<feBlend mode="normal" in2="BackgroundImageFix" result="effect1_dropShadow_424_24"/>
<feBlend mode="normal" in="SourceGraphic" in2="effect1_dropShadow_424_24" result="shape"/>
</filter>
<filter id="filter1_d_424_24" x="234" y="0" width="631" height="265" filterUnits="userSpaceOnUse" color-interpolation-filters="sRGB">
<feFlood flood-opacity="0" result="BackgroundImageFix"/>
<feColorMatrix in="SourceAlpha" type="matrix" values="0 0 0 0 0 0 0 0 0 0 0 0 0 0 0 0 0 0 127 0" result="hardAlpha"/>
<feOffset/>
<feGaussianBlur stdDeviation="10.5"/>
<feComposite in2="hardAlpha" operator="out"/>
<feColorMatrix type="matrix" values="0 0 0 0 0 0 0 0 0 0 0 0 0 0 0 0 0 0 0.25 0"/>
<feBlend mode="normal" in2="BackgroundImageFix" result="effect1_dropShadow_424_24"/>
<feBlend mode="normal" in="SourceGraphic" in2="effect1_dropShadow_424_24" result="shape"/>
</filter>
<filter id="filter2_d_424_24" x="0" y="44" width="434" height="221" filterUnits="userSpaceOnUse" color-interpolation-filters="sRGB">
<feFlood flood-opacity="0" result="BackgroundImageFix"/>
<feColorMatrix in="SourceAlpha" type="matrix" values="0 0 0 0 0 0 0 0 0 0 0 0 0 0 0 0 0 0 127 0" result="hardAlpha"/>
<feOffset/>
<feGaussianBlur stdDeviation="10.5"/>
<feComposite in2="hardAlpha" operator="out"/>
<feColorMatrix type="matrix" values="0 0 0 0 0 0 0 0 0 0 0 0 0 0 0 0 0 0 0.25 0"/>
<feBlend mode="normal" in2="BackgroundImageFix" result="effect1_dropShadow_424_24"/>
<feBlend mode="normal" in="SourceGraphic" in2="effect1_dropShadow_424_24" result="shape"/>
</filter>
</defs>
</svg>
