<svg width="1327" height="265" viewBox="0 0 1327 265" fill="none" xmlns="http://www.w3.org/2000/svg">
<g filter="url(#filter0_d_424_23)">
<path d="M702.635 100.837C668.919 103.926 667.979 80.6206 637.419 83.1728C620.56 83.0385 607.329 88.21 595.038 100.568C584.963 110.844 579.59 76.3222 543.993 87.3369C524.985 54.6959 513.366 37.9053 481.463 33.7412C430.888 32.5323 435.723 69.4717 415.776 64.1658C373.999 37.8381 370.372 62.5539 351.432 54.4273C306.432 -5.54885 231.476 23.3982 208.036 76.7252C207.028 94.7248 172.707 89.4861 166.797 97.1426C124.281 146.977 151.953 61.1435 87.2065 76.0536C64.9079 82.3669 51.1392 105.807 51.5421 143.082C12.1165 150.738 12.0494 201.244 44.4899 213.334C61.2138 214.073 63.9676 222.468 75.3856 231.669C119.781 254.236 116.423 222.468 138.587 230.662C192.856 246.378 190.237 200.103 231.207 220.99C250.484 230.863 311.603 215.281 341.827 229.856C416.38 265.989 434.85 215.147 450.365 227.572C470.045 238.654 491.873 244.363 519.142 243.96C568.038 245.437 587.65 205.744 615.859 194.931C642.59 184.723 672.21 193.991 695.18 173.036C749.852 180.223 776.651 93.986 702.635 100.837Z" fill="#E5EEED"/>
</g>
<g filter="url(#filter1_d_424_23)">
<path d="M1050.44 156.017C1048.47 153.098 1047.27 146.754 1045.81 143.963C1040.92 134.637 1038.76 129.942 1033.81 124.36C1018.07 104.185 997.444 96.8261 973.771 100.125C967.931 100.95 965.583 98.8562 962.6 93.5906C947.114 65.6765 926.423 45.4387 900.528 37.9527C869.492 28.944 838.646 31.9258 811.228 56.2237C806.912 60.0302 803.992 60.6012 798.788 57.1753C783.365 47.0882 767.181 46.5172 751.567 56.9216C746.109 60.6012 742.111 60.9184 736.398 56.6044C710.757 37.4451 683.656 35.415 656.174 49.3086C650.779 52.0366 648.114 50.514 645.004 45.8194C636.118 32.3698 624.821 25.201 611.175 21.9655C588.771 16.6999 561.543 33.4483 552.213 60.6012C551.705 62.1238 550.626 64.6614 550.372 65.6765C549.039 71.2593 550.69 73.7335 550.69 73.7335C526.191 89.5938 547.326 105.771 535.394 120.807C518.003 127.278 515.211 149.419 504.421 157.666C464.944 168.832 485.698 214.065 520.986 205.057C574.49 225.929 609.081 218.252 646.59 202.709C706.06 227.832 722.118 190.275 729.798 210.893C747.061 234.811 772.512 245.215 802.659 239.632C817.257 238.427 820.05 225.358 833.632 234.049C880.028 255.112 942.544 241.091 967.741 207.467C984.687 200.996 1100.64 198.015 1065.36 164.391C1063.07 162.17 1052.73 159.379 1050.44 156.017Z" fill="#E5EEED"/>
</g>
<g filter="url(#filter2_d_424_23)">
<path d="M1255.56 124.786C1254.99 124.263 1254.95 123.74 1254.82 122.999C1245.98 65.9577 1192.6 70.3589 1175.26 112.105C1174.52 113.935 1173.22 117.16 1172.74 115.853C1172.13 114.197 1172.17 114.11 1171.61 112.367C1161.11 79.1178 1141.65 69.5745 1110.86 77.3312C1078.73 54.8457 1047.99 64.8247 1026.95 93.4109C1014.37 123.784 1007.88 79.7279 972.133 113.805C950.753 138.338 964.469 162.654 952.19 164.048C943.133 165.922 933.161 173.853 930.287 183.353C930.244 183.527 930.156 183.658 930.026 183.745C929.895 183.876 929.808 183.919 929.678 183.963C899.066 192.286 918.574 226.101 943.176 215.556C943.481 215.425 943.742 215.294 944.091 215.294C944.439 215.294 944.657 215.425 944.961 215.599C962.335 223.617 986.938 223.923 997.911 214.989C998.172 214.771 998.303 214.771 998.607 214.815C999.13 214.902 999.217 215.251 999.478 215.687C1025.04 254.862 1099.41 252.334 1121.58 214.597C1121.92 214.031 1122.01 213.638 1122.66 213.421C1123.27 213.246 1123.67 213.421 1124.23 213.726C1141.78 222.702 1163.94 217.342 1174.26 204.139C1174.52 203.79 1174.61 203.659 1175.05 203.703C1175.18 203.703 1175.57 203.79 1175.83 204.182C1196.08 232.071 1235.05 230.415 1253.47 204.618C1255.52 201.524 1256.08 199.171 1260.65 199.999C1320.4 203.267 1322.97 127.27 1257.26 125.396C1256.56 125.309 1256.08 125.265 1255.56 124.786Z" fill="#E5EEED"/>
</g>
<defs>
<filter id="filter0_d_424_23" x="0" y="0" width="769" height="265" filterUnits="userSpaceOnUse" color-interpolation-filters="sRGB">
<feFlood flood-opacity="0" result="BackgroundImageFix"/>
<feColorMatrix in="SourceAlpha" type="matrix" values="0 0 0 0 0 0 0 0 0 0 0 0 0 0 0 0 0 0 127 0" result="hardAlpha"/>
<feOffset/>
<feGaussianBlur stdDeviation="10.5"/>
<feComposite in2="hardAlpha" operator="out"/>
<feColorMatrix type="matrix" values="0 0 0 0 0 0 0 0 0 0 0 0 0 0 0 0 0 0 0.25 0"/>
<feBlend mode="normal" in2="BackgroundImageFix" result="effect1_dropShadow_424_23"/>
<feBlend mode="normal" in="SourceGraphic" in2="effect1_dropShadow_424_23" result="shape"/>
</filter>
<filter id="filter1_d_424_23" x="462" y="0" width="631" height="265" filterUnits="userSpaceOnUse" color-interpolation-filters="sRGB">
<feFlood flood-opacity="0" result="BackgroundImageFix"/>
<feColorMatrix in="SourceAlpha" type="matrix" values="0 0 0 0 0 0 0 0 0 0 0 0 0 0 0 0 0 0 127 0" result="hardAlpha"/>
<feOffset/>
<feGaussianBlur stdDeviation="10.5"/>
<feComposite in2="hardAlpha" operator="out"/>
<feColorMatrix type="matrix" values="0 0 0 0 0 0 0 0 0 0 0 0 0 0 0 0 0 0 0.25 0"/>
<feBlend mode="normal" in2="BackgroundImageFix" result="effect1_dropShadow_424_23"/>
<feBlend mode="normal" in="SourceGraphic" in2="effect1_dropShadow_424_23" result="shape"/>
</filter>
<filter id="filter2_d_424_23" x="893" y="44" width="434" height="221" filterUnits="userSpaceOnUse" color-interpolation-filters="sRGB">
<feFlood flood-opacity="0" result="BackgroundImageFix"/>
<feColorMatrix in="SourceAlpha" type="matrix" values="0 0 0 0 0 0 0 0 0 0 0 0 0 0 0 0 0 0 127 0" result="hardAlpha"/>
<feOffset/>
<feGaussianBlur stdDeviation="10.5"/>
<feComposite in2="hardAlpha" operator="out"/>
<feColorMatrix type="matrix" values="0 0 0 0 0 0 0 0 0 0 0 0 0 0 0 0 0 0 0.25 0"/>
<feBlend mode="normal" in2="BackgroundImageFix" result="effect1_dropShadow_424_23"/>
<feBlend mode="normal" in="SourceGraphic" in2="effect1_dropShadow_424_23" result="shape"/>
</filter>
</defs>
</svg>
