<?xml version="1.0" encoding="utf-8"?>
<!-- Generator: Adobe Illustrator 23.1.0, SVG Export Plug-In . SVG Version: 6.00 Build 0)  -->
<svg version="1.1" id="Layer_1" xmlns="http://www.w3.org/2000/svg" xmlns:xlink="http://www.w3.org/1999/xlink" x="0px" y="0px"
	 viewBox="0 0 1137.4 413.6" style="enable-background:new 0 0 1137.4 413.6;" xml:space="preserve">
<style type="text/css">
	.st0{fill:#E5EEED;}
</style>
<path class="st0" d="M1043.2,155.3c-50.2,4.6-51.6-30.1-97.1-26.3c-25.1-0.2-44.8,7.5-63.1,25.9c-15,15.3-23-36.1-76-19.7
	c-28.3-48.6-45.6-73.6-93.1-79.8c-75.3-1.8-68.1,53.2-97.8,45.3c-62.2-39.2-67.6-2.4-95.8-14.5C453.3-3.1,341.7,40,306.8,119.4
	c-1.5,26.8-52.6,19-61.4,30.4c-63.3,74.2-22.1-53.6-118.5-31.4c-33.2,9.4-53.7,44.3-53.1,99.8C15.1,229.6,15,304.8,63.3,322.8
	c24.9,1.1,29,13.6,46,27.3c66.1,33.6,61.1-13.7,94.1-1.5c80.8,23.4,76.9-45.5,137.9-14.4C370,348.9,461,325.7,506,347.4
	c111,53.8,138.5-21.9,161.6-3.4c29.3,16.5,61.8,25,102.4,24.4c72.8,2.2,102-56.9,144-73c39.8-15.2,83.9-1.4,118.1-32.6
	C1113.5,273.5,1153.4,145.1,1043.2,155.3z"/>
</svg>
