<?xml version="1.0" encoding="utf-8"?>
<!-- Generator: Adobe Illustrator 23.1.0, SVG Export Plug-In . SVG Version: 6.00 Build 0)  -->
<svg version="1.1" id="Layer_1" xmlns="http://www.w3.org/2000/svg" xmlns:xlink="http://www.w3.org/1999/xlink" x="0px" y="0px"
	 viewBox="0 0 949 489.4" style="enable-background:new 0 0 949 489.4;" xml:space="preserve">
<style type="text/css">
	.st0{fill:#E5EEED;}
</style>
<path class="st0" d="M803.9,179.5c-1.3-1.2-1.4-2.4-1.7-4.1C781.9,44.5,659.3,54.6,619.5,150.4c-1.7,4.2-4.7,11.6-5.8,8.6
	c-1.4-3.8-1.3-4-2.6-8C587,74.7,542.3,52.8,471.6,70.6C397.8,19,327.2,41.9,278.9,107.5C250,177.2,235.1,76.1,153,154.3
	c-49.1,56.3-17.6,112.1-45.8,115.3c-20.8,4.3-43.7,22.5-50.3,44.3c-0.1,0.4-0.3,0.7-0.6,0.9c-0.3,0.3-0.5,0.4-0.8,0.5
	c-70.3,19.1-25.5,96.7,31,72.5c0.7-0.3,1.3-0.6,2.1-0.6c0.8,0,1.3,0.3,2,0.7c39.9,18.4,96.4,19.1,121.6-1.4c0.6-0.5,0.9-0.5,1.6-0.4
	c1.2,0.2,1.4,1,2,2c58.7,89.9,229.5,84.1,280.4-2.5c0.8-1.3,1-2.2,2.5-2.7c1.4-0.4,2.3,0,3.6,0.7c40.3,20.6,91.2,8.3,114.9-22
	c0.6-0.8,0.8-1.1,1.8-1c0.3,0,1.2,0.2,1.8,1.1c46.5,64,136,60.2,178.3,1c4.7-7.1,6-12.5,16.5-10.6c137.2,7.5,143.1-166.9-7.8-171.2
	C806.2,180.7,805.1,180.6,803.9,179.5z"/>
</svg>
