<?xml version="1.0" encoding="utf-8"?>
<!-- Generator: Adobe Illustrator 23.1.0, SVG Export Plug-In . SVG Version: 6.00 Build 0)  -->
<svg version="1.1" id="Layer_1" xmlns="http://www.w3.org/2000/svg" xmlns:xlink="http://www.w3.org/1999/xlink" x="0px" y="0px"
	 viewBox="0 0 977 434.3" style="enable-background:new 0 0 977 434.3;" xml:space="preserve">
<style type="text/css">
	.st0{fill:#E5EEED;}
</style>
<path class="st0" d="M915,249.2c-3.1-4.6-5-14.6-7.3-19c-7.7-14.7-11.1-22.1-18.9-30.9c-24.8-31.8-57.3-43.4-94.6-38.2
	c-9.2,1.3-12.9-2-17.6-10.3c-24.4-44-57-75.9-97.8-87.7c-48.9-14.2-97.5-9.5-140.7,28.8c-6.8,6-11.4,6.9-19.6,1.5
	c-24.3-15.9-49.8-16.8-74.4-0.4c-8.6,5.8-14.9,6.3-23.9-0.5C379.8,62.3,337.1,59.1,293.8,81c-8.5,4.3-12.7,1.9-17.6-5.5
	c-14-21.2-31.8-32.5-53.3-37.6C187.6,29.6,144.7,56,130,98.8c-0.8,2.4-2.5,6.4-2.9,8c-2.1,8.8,0.5,12.7,0.5,12.7
	c-38.6,25-5.3,50.5-24.1,74.2c-27.4,10.2-31.8,45.1-48.8,58.1c-62.2,17.6-29.5,88.9,26.1,74.7c84.3,32.9,138.8,20.8,197.9-3.7
	c93.7,39.6,119-19.6,131.1,12.9c27.2,37.7,67.3,54.1,114.8,45.3c23-1.9,27.4-22.5,48.8-8.8c73.1,33.2,171.6,11.1,211.3-41.9
	c26.7-10.2,209.4-14.9,153.8-67.9C934.9,258.9,918.6,254.5,915,249.2z"/>
</svg>
