<svg width="1253" height="177" viewBox="0 0 1253 177" fill="none" xmlns="http://www.w3.org/2000/svg">
<path d="M1246.7 158.1C1235.7 154.5 1231.7 146.5 1237.7 135C1235.5 129.2 1227.8 125.8 1222.6 120.2C1218.8 117.8 1217.8 112.3 1212.5 112.2C1205.2 120 1197.8 125.4 1199.4 138C1196.9 139.8 1192.5 136 1188.2 135.4C1183.7 133 1177.8 134.3 1174.6 129.5C1190.5 122.8 1193.3 107.2 1176.2 100.5C1138.3 94.2 1152.7 134.7 1165.7 122.9C1167.8 120.4 1170 127.7 1167.5 129C1161.9 127.5 1151.7 126.8 1146.8 123.1C1147.2 117.9 1144.7 112.1 1148.6 106.9C1147.4 101.2 1138.2 97.9 1133.8 91.6C1128.3 85.6 1125.9 88.4 1120.1 95.9C1116.6 101.1 1112.1 104.7 1111.4 111.8C1111.5 114.2 1111.2 116.1 1109.4 115.9C1097.1 117.5 1103 99 1102.3 88.8C1103.8 88.3 1109 90.1 1109 86.3C1100.1 75.4 1086.7 71.6 1077 60.3C1072.1 52.5 1061.1 74 1057.1 76.5C1054 82.2 1034.3 98 1043.9 100.1C1049.5 95.7 1053.8 85.1 1060.2 82.2C1076.1 87 1070.1 96.1 1070.6 108.1C1070.6 113.1 1063.8 109.1 1059.1 109.9C1052.5 109.1 1044.2 111.4 1038.3 108.8C1036.9 55.3 1049.5 45.7 1011.4 50.6C999.6 55.9 1007.6 70.4 1004.8 81.3C997.8 95.5 982.2 67.7 979.6 61C976.3 56 983.1 42.3 974.5 44.4C975.2 58.1 972.9 72.5 960.3 81.7C959 84.3 962.5 84.2 963.4 86.6C963.4 90.1 963.4 95.7 963.4 100.8C962.7 113 967.4 114.1 953.5 115.5C951.6 110 955.7 101.4 951.1 95.4C944.8 89.9 941.4 79.9 933.2 77C926.6 82.4 923.7 93.6 916.1 98.7C915.8 91.3 914.3 80.5 919.3 74.6C910.7 65.1 907 55.5 908.4 42.1C908.9 37.5 909 26.8 903.2 32.2C903.1 41.9 905.1 51.1 901.8 61.2C890.6 82 893.7 90.7 894.3 110C895.4 131.4 878.7 100.5 871.5 98.8C865.9 102.6 863.5 110.7 856.3 114.2C850.8 111.8 847.3 99.7 841.1 99.1C829.9 106.5 806.5 145.5 809.3 110C811.2 102.5 805.8 102.5 802.7 97.8C801.2 79.5 805.3 29.5 798.6 35.4C792.9 44.3 806.3 85.2 787.7 73.9C786.6 68.9 790.4 62 784.9 58.1C740.4 54.3 748 55.9 746.5 89.5C733.9 95.1 739 108.1 738.2 119.5C735.8 140.1 745.1 167.1 730.1 164.7C727.4 164.9 724.1 166.4 725.4 161.3C727.8 154.1 723.2 142.3 726.9 137.3C728.8 140.7 738.8 141.1 732.2 134.8C697.9 120.1 730.8 89.8 705.4 92.4C698.3 93.5 701.7 102.3 700.9 108.9C702.9 127.2 695.8 126.2 684.8 136.1C681.6 140.4 681.6 141.9 674.7 140.7C660.4 144.8 672 110.9 667.7 103.3C660.7 97.7 651.6 93.1 650.6 81.9C649.4 77.8 652 74.4 648.4 70.8C646.7 70.6 643 70.6 643.7 73.5C643.3 84.2 639.3 98 626.3 101.3C623.4 104.8 627 112.1 624.8 117C622 118.5 617.1 117 614.7 121C611.4 131.5 619.7 153.5 609.7 159.1C590.2 164.5 600.4 111 597.8 101C598.7 92.6 600 87.6 593.1 84.1C593.1 84.1 586 84.2 581.6 83.2C578.9 74.8 585.5 51.3 578.1 52C574 58.9 579.9 72.2 576.1 82.2C574.5 86.5 563.6 80 561.5 87.5C560.5 87.8 560.5 92.8 562.8 90.5C568.6 86.3 585.5 89.3 593 90.3C595.1 117.3 585.1 155.9 602.2 164C633.1 171.9 611.9 126.1 621.2 123.8C633.3 125.5 629 117 629.9 108.3C635.6 101.8 645.3 98.1 646.1 86.2C649.1 91.8 651.4 98.9 656.8 103.7C658.8 104.9 661.7 103.7 662.9 107.3C661.6 110.9 666.9 126.1 659.3 122.6C661.9 118.3 661.5 115.2 653.9 118.2C650.7 117.4 632.6 115.4 642.5 122.1C640.6 122.6 637.5 122.6 636.7 120.8C630.9 109.8 656.3 118.8 661.3 114.5C660.5 109.4 652.4 115.1 651 110.2C653.5 108.6 662.6 113.6 661 106.9C652.9 105.8 642.3 104.5 633.2 108.1C631.7 111.7 633.8 118.6 632.2 123.6C635.2 130.2 651.2 125 659.2 127.3C667.4 126.4 662.2 147.5 663.7 153.6C662.7 160 666.7 169 660.3 170.1C634.3 169.3 528.8 172.5 536.8 155.5C534.6 142.7 546.9 152.2 555.1 147.2C557.4 141.7 555.2 132.6 555.9 125.5C556.6 122.9 553.9 119.1 559.4 119.9C568 121.3 577.9 118.4 586.3 121.2C586.9 128 578.8 112.4 580.8 136.5C580.8 145.1 580.9 152.2 580.8 161.9C581.6 164.2 585.1 162.5 587.8 162.9C589.4 161.5 589.4 161.5 589.3 158.6C588.5 145.9 589.7 131.9 589.5 117.6C588.4 114.3 583.2 116.3 578.2 115.8C568.6 117.3 558.4 112.6 551.7 118.1C547.6 124.4 558.4 147.6 544.2 143.8C541.8 143.3 536 145.6 536.3 140.9C537.1 128.6 536.5 113.7 536.6 100.8C536.5 98 537.1 94.4 534.1 92C532 91.4 530.1 91.5 530 88.3C530.6 81.4 525.1 84 526.8 74.1C517.4 64.9 517.6 50.3 516 37C509.6 21.6 509.8 56.8 507.4 61.3C506.5 65.7 504.1 71.2 501.4 75.7C502.7 81.5 498.6 82.1 498.8 88.5C499.7 94 490.5 89.1 492 97.7C489.7 138.7 499.4 157.7 481.4 149.9C476.5 149 479.9 136.8 479.8 132.2C480.5 130.5 485.6 129.1 481.3 126.8C470.8 122.5 466.4 109.3 457.3 103.7C427.7 146.8 426.1 118.1 420.4 84.7C419.1 80.7 422.6 71.1 417.9 69.8C413.1 85.4 415.7 110.5 406.7 126.2C403.2 120.1 411.5 109.2 403.6 103.4C380.4 86.2 382.6 71.7 368.1 88.5C334.5 117.5 366.6 119.4 331.2 110.8V98.4V94.9C333.2 25.6 338.2 33.4 305 33.2C286.2 34.9 264.4 28.5 258.1 38.6C253.4 53.4 265.7 107.3 249.2 96.4C247.9 82.9 249.5 65.5 248.3 50.6C242.1 41.3 234.6 51.9 229.6 41.6C226.1 52.6 206.8 41.5 200.6 51.9C192.8 92.7 215.1 94.3 172.8 91.6C172 90.8 171.3 89.9 171.8 87.8C171.1 79.8 178.6 20.9 170.2 25.4C165 34.9 170.8 50 168.2 61.6C170.1 64.8 164.8 67.7 163.2 64C165.6 54.3 162 41.5 166.2 31.3C164.8 29.4 162.2 30.1 160.4 28.1C159.4 25.7 157.3 21.3 154.6 25.3C154.2 28.4 148.2 33.6 145.9 27.8C141.4 22.5 145.9 16.6 143.7 9.80004C140.2 4.00543e-05 126.7 11.1 122.5 3.70003C117.6 -4.59997 118.9 8.60004 108.9 6.00004C70.5 3.90004 85.2 10 81.7 37C81.5 49.6 47.6 27.4 51.4 54.1C51.7 62.7 49 111.6 55.4 94.8C56.2 90 53.1 82.3 57.1 77.5C52.9 72.4 56.7 64.2 55.6 55.8C54.4 42.6 58.5 46.2 70.3 45.7C76 46.9 82.6 41.8 81.4 52.1C79.6 71.6 85.6 97.1 78.1 98.5C59.1 103.1 -5.40002 116.1 0.799982 127.1C237.2 31.7 465.4 185.5 635.8 175.6C732.8 178.5 792 157.5 873.5 136.5C1010.9 101.5 1135 108.9 1252.6 166.8C1252.7 162.3 1252.8 159.7 1246.7 158.1ZM1181.2 119.8C1180.3 120.1 1179.4 122.9 1176.8 122C1177.4 120.6 1178.4 119.5 1181.2 119.8ZM1176.4 105.5C1180.4 105.1 1180.9 115.7 1176.2 113.1C1176.7 110.8 1175.9 108.8 1174.7 105.8C1175.3 105.8 1175.9 105.4 1176.4 105.5ZM637.6 110C639.4 110.6 644.3 108.5 646.3 109.3C646.8 110.4 646.8 111.8 644.6 112C643.3 111.2 633 115.5 637.6 110ZM648.1 123C648.2 122.9 646.8 122.8 647.8 121.5C649.8 120.6 654.6 119.2 656.6 122.6C655 123.5 652.7 122.8 648.1 123ZM584.6 144.9C584.5 144.3 583.4 144.8 583.5 142.1C582.7 134.5 588.3 135.1 584.6 144.9ZM585.1 160.2C584.3 160.5 581.7 154.5 584.4 154C587.1 154.5 585.9 157.1 585.1 160.2ZM585.1 150.9C582.4 152.4 583.6 143.5 585.8 148C585.9 148.4 587 149.7 585.1 150.9ZM584.3 126C585.5 124.7 585.9 126.6 586.7 129.8C585.9 135.2 582.1 133.5 584.3 126ZM159.6 34.9C159 39.1 158.9 44.8 159 50.5C158 52.9 162 69.1 155.5 64.1C154.3 56.6 156.1 49.8 156 41.3C155.2 39.6 155 28.8 159.6 34.9ZM143.8 35.7C152.4 31.7 151 34.9 150.8 44.8C149.3 52 153 62.9 147.8 65.1C140.2 65.8 141.3 63.6 141.3 54.8C142.6 48.1 138.3 40 143.8 35.7ZM138.9 30.4C130.6 46.8 140.6 74.4 134.9 91.4C77.3 93.3 88.2 106.9 85.7 79.9C90.7 -1.69997 71.5 11.3 119.8 10.4C122.5 31 118.7 56.3 120.1 80.2C118.6 84.6 122.9 91.7 125.3 83.7C125.2 73.8 125.3 63.1 125.3 52.7C126.5 39.4 123.1 23.3 125.7 10.4C131.4 10.9 141.2 6.60004 139.2 16.9C139.9 20.5 137.8 23 138.3 26.5C139.2 27.9 140.8 28.6 138.9 30.4ZM167 88.7C167.2 93.9 158.2 90.7 153.7 91.5C151.2 90.9 143 92.9 140.6 90.1C141.6 83.8 140.3 75.5 141.8 69.7C173 69.4 166.4 65.2 167 88.7ZM242.1 95.9C232.7 92.1 209.1 96.6 203.7 90C207.3 54.2 193.6 50.1 226.7 51.2C241.1 52.5 245.4 45.6 243.3 64.4C242.5 69.3 247 96.7 242.1 95.9ZM261.7 41.9C262.6 33.5 324.2 39.8 325.8 38.2C328.9 53.9 326.8 75.8 326.3 93.4C306.8 94.2 286.4 92.2 265.8 93.1C257.2 99.4 311.1 99.1 326.8 98.5V109.6C314.1 106.7 294.2 102.8 263.2 98.4C258.5 82.3 263.2 59.9 261.7 41.9ZM399.1 128.2C385.7 123.8 371.7 121.9 357.2 116.7C349.5 107.6 370.6 92.4 377.8 87C385.3 94.5 396.6 101 401 110.6C399.7 114.4 403.4 126.5 399.1 128.2ZM414.8 132.2C402.5 130.1 409.8 129.7 414 123.3C417.2 117.7 414.4 107.8 418.7 104.6C424 141.2 438.6 125.1 438.3 134.5C439.4 143.7 420.9 131.9 414.8 132.2ZM471.8 147.2C463.3 144.3 453.7 144.1 444.4 140.1C438.5 129 452.2 120.3 457.8 111.4C461.4 115.7 474.5 126.3 474 131.3C472.7 134.8 476 145.3 471.8 147.2ZM509.1 74.7C512.3 71.1 510.3 63.9 513.1 58.7C514.7 64 520.5 74.1 520.8 79.8C517.7 81.2 503.6 82.2 509.1 74.7ZM518.2 158.1C511.1 156.5 504.1 155.8 496.6 152.9C495 145.2 496.6 135.4 496.1 127H496.2C496.4 117.5 495.6 106.1 497 96.4C498.5 95.6 502.4 96.9 504.7 94.1C506.5 91.7 504.2 85.8 510.7 85.1C527.9 81.8 518.6 95.8 530.2 96.3C534.7 102.8 529.6 112.7 531.9 120.8C530.2 161.5 539.7 164.5 518.2 158.1ZM698.3 141.2C696.7 148.8 700.6 167.7 695.5 169.2C687.7 168.8 677.9 170.4 668.8 169.7C667.6 166.4 668.8 162.5 668.4 157.5C667.8 147.2 667.4 143.5 678.7 146.1C678.5 147.6 678.8 151.8 682.6 150.8C686.4 148.8 686.1 142.5 690 139C695.6 134.3 700 129.3 698.3 141.2ZM702.8 126.9C707.4 124.2 705.5 119.5 706.7 114.1C706.9 111 702.4 93.9 710.7 98.2C711 108.2 708.8 118.9 713.8 129.4C712.4 128.6 701.9 131 702.8 126.9ZM721.6 165.8C716.5 167.1 707.9 168.8 701.6 167.9C702.7 156.3 701.7 145.8 701.8 133.4C715.1 130.7 723.9 130.4 721.3 149.1C720.5 153.7 722.7 161.6 721.6 165.8ZM744.1 97.4C756.7 92.5 749.6 80.2 752.8 70.4C780.3 72.4 794.6 64.9 759.5 65.2C758.6 65.6 753.9 64.4 756.9 62.2C763.9 61.6 775.1 60.3 782.3 62.7C783.1 64.7 784.2 74.4 780.6 74.8C768.9 75.8 758.4 69.5 760.8 86.4C761.8 89.4 758.1 95.9 761.9 97.6C769 99.2 762.2 80.4 766.9 79.3C795.8 74.6 774 90.5 784.9 95.5C791.6 89.3 778.2 75.3 796.5 79.6C798.1 104.2 801.8 101.2 778.7 101.1C772 100.2 738.3 102.8 744.1 97.4ZM802.8 115.2C803.8 113.3 799 105.6 799 114.2C798.6 115.8 800.4 120.6 796.8 120.7C795.1 120.1 799.6 107.4 792.3 110.4C789.9 113.5 793.9 116.7 790.7 120.9C788 120.8 792.6 105.2 785.9 111.4C785.5 112.4 787.4 121.9 783.2 119.5C784.2 117.4 783.1 103.8 779.3 112.3C778.8 113.5 781.7 131 777.2 127.4C776.6 125.7 779.5 102.3 773 111.7C772.5 113.7 774.2 125.4 769.9 118.9C769.7 117.4 772.5 113.8 770.4 110.4C768.8 108.7 765.6 110.7 766.2 114.3C766.4 115.8 768.1 120.1 764.4 120C764.5 118.5 765.1 104 759.7 112.1C758.9 113.8 762.5 121.4 757.7 120.4C756 118.9 760 104.9 753.4 111.7C751.6 112.6 756 122.6 750.5 121C748.6 118.8 753.6 105.2 745.6 111.4C747.1 119.8 743.9 131.6 747.8 138.5C753.2 136.7 749.1 130 751.1 124.4C754.2 122.1 753.9 130.4 752.8 135.3C752.1 138.4 756.7 140.2 758 135.7C755.9 131.7 758.7 130.3 757.2 125.1C762.4 115.6 758.4 135.6 761.7 137.6C763.5 138.9 764.6 134.7 767.5 137C775.9 138.8 766.7 127.5 772 124.1C775.1 125.4 771 133.6 773.6 136.9C779 138.6 775.3 133.3 778 129.3C780.7 129.9 776 141.2 783.5 135.8C783.9 134.2 781.4 128.8 784.6 128.9C786.9 130.2 784.5 133.9 785.9 136.9C789.8 138.3 790 134.8 789.3 130.4C793.7 125.6 789.5 136.5 793.1 137.2C802.8 139.2 790.4 124.7 799.1 123.7C799.2 130.9 800.5 142.9 799.7 150.2C781.4 156.1 764.7 158.7 744.9 163C739.5 164 744.8 138.6 743.3 132.3C744.7 122 739.8 109.1 744.5 105.8C764.1 105.4 783 106.2 803.2 105.9C805.3 107.9 803.8 111.1 804 115.4C804.1 115 803.7 116.1 802.8 115.2ZM791.7 126.6C791.5 127.1 791.1 127.6 790.7 128C787.2 127.1 791.3 119.7 791.7 126.6ZM785.8 125.8C785 129.4 780.5 124.9 784.9 123.8C785.5 124.1 786 124.3 785.8 125.8ZM766.7 132.6C766.7 133.1 766 133.4 765.6 133.9C764.4 131.9 763.6 126.7 765.6 123.3C767.2 124.7 766.8 128 766.7 132.6ZM820.1 144.6C814.7 145 801.7 154.8 804 142.5C804.7 136 803.2 130.4 804.8 123.9C805.9 125.5 808 129.1 811.3 129.7C814.4 131.1 820.3 126.9 821.7 130.9C820.1 133.8 822.6 141.5 820.1 144.6ZM854.7 124.3C852.5 127.5 858.8 140 847.1 136.5C848 135 848.3 131.5 844.4 132.9C841.2 134.8 848.8 137 842.7 138.9C837.6 139.2 830.7 144.6 825.8 141.7C826.2 135.9 826.2 127.6 825.5 122C828.3 119.1 832.5 114.6 836.2 110.7C838.4 109.1 840.1 104.3 843.1 107.3C845.9 112.1 856.7 117.3 854.7 124.3ZM891.1 126.8C882.8 128.8 872 130.3 862.7 133.9C859.3 135.1 859.9 130.8 860 126.9C858.8 121.7 862.5 117 866.7 112.1C869.2 109.7 870.4 103.9 874.4 108.7C879 115.2 894.6 124 891.1 126.8ZM946.1 116.5C890.5 124.7 899.1 133.6 898.9 105.6C896.2 48.7 909.7 94.7 906.7 68.9C919.1 80.5 906.2 111.6 912.9 112.1C921.4 104.3 925.8 93 934.3 83.7C939.7 91.1 950.2 97.3 948.6 108.7C948.1 111.4 950.5 116.2 946.1 116.5ZM978.4 112.1C975.5 110.7 967.1 117.6 967.8 109.9C970.5 101.8 964.3 85.7 971.6 80.7C973.3 84.3 974.3 83.4 980 84C979.4 86.7 983.3 113.2 978.4 112.1ZM1000 109C1000.9 111.3 983.9 112.8 984.9 109.6C985.4 100.8 988.7 72.4 973.2 77C980.2 56.5 983.9 93.8 998.9 91.8C1001.8 94.7 999.1 103.4 1000 109ZM1006.9 110.7C1003.7 109.4 1005.3 103.3 1005.4 99.3C1005 97.7 1004 81 1007.4 90.2C1007.4 91.1 1007.4 91.9 1007.4 94.8C1007.4 97.2 1006.5 106.1 1010.8 100.8C1011.6 87.2 1009.2 73.2 1010 58.6C1010.2 54.2 1030.7 52.8 1034.2 57.7C1033.8 74.2 1034 89.9 1033.8 107.3C1034.7 112.2 1013.4 108.4 1006.9 110.7ZM1077.8 71.7C1079.2 69.8 1082.8 73.4 1077 73.3C1077.3 72.7 1077.5 72.1 1077.8 71.7ZM1073.4 65.3C1074.1 64.3 1078.5 69.6 1074.1 68.3C1073.4 67.3 1071.6 67.1 1073.4 65.3ZM1072.8 74C1074.1 73.6 1075.6 73.5 1076.9 73.3C1076.9 74.7 1069.7 79.8 1072.8 74ZM1063.4 76.4C1064.8 76.2 1069 67.6 1070.9 71.3C1066.3 75.3 1064.2 77.3 1073.1 82.2C1085.6 69.7 1081.5 77 1073.6 86.2C1071.6 84.2 1061.7 80.4 1063.4 76.4ZM1096.8 111.8C1096.3 116 1091 111.6 1086.6 112.1C1083.2 111.2 1076.9 113.4 1074.9 109.4C1075.6 104.1 1073.2 96.2 1076.4 90.7C1080.8 89.9 1087.8 73.8 1086.6 83.6C1086.7 85.7 1090.4 87.2 1091.3 83.1C1098.9 71.7 1096.6 108.1 1096.8 111.8ZM1139.4 122C1111.6 117.7 1110.7 116 1127.8 94.6C1133.8 97.9 1143.6 104.8 1142.2 114.3C1141.6 115.3 1143.8 124.9 1139.4 122ZM1160.9 119.2C1157.9 118.8 1155.1 109.9 1159.8 108.2C1160.7 110.6 1161.2 115 1160.9 119.2ZM1172.3 117.2C1169.5 120.2 1170.9 112.8 1166.9 111.4C1166 115.9 1162.7 110.9 1162.4 107.4C1169 102.5 1173.8 107.5 1172.3 117.2ZM1226.8 149.3C1220 145.9 1213.4 142.7 1205.4 140.4C1201.5 132.1 1206.4 125 1213.7 118.8C1218.4 121.9 1222.1 128.4 1228.2 131.9C1232.5 135.1 1229.7 139.6 1230.3 144.9C1229.9 146.3 1232.9 152.8 1226.8 149.3Z" fill="white"/>
<path d="M9.29982 77.5999C18.8998 76.1999 27.1998 77.8999 37.5998 80.1999C52.1998 78.0999 36.7998 99.9999 46.1998 98.8999C52.2998 97.3999 47.1998 65.7999 48.8998 60.6999C47.7998 46.9999 53.3998 8.39988 45.3998 11.0999C38.6998 76.2999 57.9998 84.3999 23.3998 63.9999C24.4998 61.2999 26.0998 55.5999 21.1998 53.4999C27.7998 50.4999 14.9998 37.4999 15.7998 58.1999C10.9998 60.6999 17.3998 62.4999 14.8998 65.5999C9.19982 67.8999 -0.900176 70.5999 0.499824 78.9999C2.49982 79.1999 5.69982 77.6999 9.29982 77.5999ZM14.3998 71.1999C21.5998 68.5999 23.4998 73.2999 13.7998 71.8999C13.9998 71.5999 14.1998 71.1999 14.3998 71.1999Z" fill="white"/>
<path d="M175.3 83.4001C178.9 82.9001 176.7 89.1001 181.5 88.6001C186.5 83.4001 192.8 80.0001 197.9 72.9001C198.6 68.0001 189.4 68.5001 190.5 62.7001C190.2 60.6001 186.3 39.0001 183.7 49.7001C182.7 52.6001 183.1 53.8001 185.2 56.5001C179.1 58.9001 181.4 58.0001 183.5 65.1001C180.6 69.8001 170.7 77.2001 175.3 83.4001ZM179.6 78.8001C181.9 76.1001 185.9 71.3001 190.8 73.0001C187.3 74.9001 183.9 77.9001 179.8 80.4001C179.7 79.9001 179.4 79.1001 179.6 78.8001Z" fill="white"/>
<path d="M562.7 163.4C567.9 153.8 561.5 138.8 564.7 126.6C565.6 123.1 557.9 119.4 560 127.7C559 129.9 564 130.5 560.4 132.9C558.4 139.9 561.4 147.7 560.7 156.5C560.8 157.6 558.4 163 562.7 163.4Z" fill="white"/>
<path d="M567.5 157.7C567.3 158.1 566.5 163.3 569.4 163.4C571 162.4 571.2 162.9 571.2 158.9C571 146.7 571.4 137.8 571.7 125C564.4 114.2 568.2 150.9 567.5 157.7Z" fill="white"/>
<path d="M577.9 162.4C578.1 150 578.6 139.1 577.6 124.3C572.2 117.9 575.3 139.4 574.6 143.2C574.1 148.8 574.3 151.5 574.7 157.2C574.3 158.4 573.9 164.6 577.9 162.4Z" fill="white"/>
<path d="M623.7 141.9C626 144.3 621.6 145.5 623.6 149.7C625.1 152.2 628 149.4 627.5 146C624.7 144.5 631.3 127 623.9 129.3C622.1 131.2 624.1 132.6 624 136.1C623.4 138.2 621.7 139.1 623.7 141.9Z" fill="white"/>
<path d="M579 46.8999C582.1 46.7999 581.2 43.1999 581.3 39.5999C582 36.9999 580.8 27.9999 576.2 33.8999C577.2 36.6999 573.2 46.2999 579 46.8999Z" fill="white"/>
<path d="M419.9 59.3001C420 43.8001 411.3 59.3001 417.6 66.4001C420 65.7001 420.1 63.6001 419.9 59.3001Z" fill="white"/>
<path d="M39.4997 91.9999C40.3997 91.1999 40.7997 79.8999 38.6997 86.3999C38.6997 88.0999 38.5997 89.1999 35.8997 89.6999C34.7997 86.7999 38.0997 85.4999 36.4997 82.7999C34.5997 82.2999 33.8997 83.0999 32.9997 85.4999C32.4997 88.1999 36.4997 95.8999 39.4997 91.9999Z" fill="white"/>
<path d="M650.4 103.3C652.2 102.5 651.8 100.2 648.9 99C644.9 96 638.5 102 644.5 102.8C647.7 100.7 647.2 106.3 650.4 103.3Z" fill="white"/>
<path d="M906.5 25.6999C909 26.5999 909.9 20.0999 906.4 18.8999C903.7 18.3999 901.2 26.4999 906.5 25.6999Z" fill="white"/>
<path d="M6.00011 87.7999C8.40011 88.1999 8.80011 79.5999 5.20011 80.1999C3.50011 81.0999 3.30011 85.8999 6.00011 87.7999Z" fill="white"/>
<path d="M12.2995 80.3001C12.3995 81.5001 10.0995 84.9001 12.5995 86.9001C15.4995 88.6001 17.3995 75.8001 12.2995 80.3001Z" fill="white"/>
<path d="M1063 92.9C1063.4 90.1 1055.9 88.3 1057.6 93.8C1059 95.9 1061.7 95.8 1063 92.9Z" fill="white"/>
<path d="M627.4 156C627.8 155 627.2 153 625.5 152.4C621.2 151.9 623.5 161.9 627.4 156Z" fill="white"/>
<path d="M25.4998 79.1999C24.8998 80.3999 25.9998 83.3999 27.0998 85.6999C30.7998 85.6999 30.0998 78.9999 25.4998 79.1999Z" fill="white"/>
<path d="M19.8996 93.7001C24.2996 93.9001 19.6996 82.6001 18.0996 90.8001C18.1996 91.9001 17.7996 93.1001 19.8996 93.7001Z" fill="white"/>
<path d="M62.5002 48.3C59.9002 47.3 55.6002 51.4 61.3002 52.1C63.1002 52.4 65.8002 49.9 62.5002 48.3Z" fill="white"/>
<path d="M74.6002 90.3C75.0002 98.9 80.6002 87.2 75.4002 86.5C74.5002 87.3 74.4002 87.8 74.6002 90.3Z" fill="white"/>
<path d="M8.40015 91.3C7.90015 90 4.00015 88.9 4.80015 93C3.90015 96.7 9.20015 96.1 8.40015 91.3Z" fill="white"/>
<path d="M11.0998 90.9C10.3998 92.4 10.5998 93.8 12.7998 94.5C16.1998 94.6 14.8998 87.7 11.0998 90.9Z" fill="white"/>
<path d="M25.8003 91.6C26.7003 93.6 29.3003 93.8 29.8003 91.1C30.0003 89.4 23.8003 86.6 25.8003 91.6Z" fill="white"/>
<path d="M63.5002 56.4C63.0002 55 57.3002 57.3 59.1002 60.2C60.1002 59.5 64.1002 60 63.5002 56.4Z" fill="white"/>
<path d="M60.8999 96.0001C65.0999 98.0001 66.5999 89.5001 60.7999 93.3001C60.5999 93.7001 58.7999 95.1001 60.8999 96.0001Z" fill="white"/>
<path d="M61.9002 73.2C57.0002 74.2 62.4002 80.0999 64.3002 74.8999C64.2002 74.2999 63.7002 73.4 61.9002 73.2Z" fill="white"/>
<path d="M69.4004 53.3C71.1004 53.7 71.9003 47.3 68.6003 48.8C66.8003 50.1 66.9004 52.1 69.4004 53.3Z" fill="white"/>
<path d="M68.9996 61.4999C71.9996 61.5999 70.7996 54.5999 67.4996 58.0999C66.8996 59.5999 67.1996 60.8999 68.9996 61.4999Z" fill="white"/>
<path d="M13.2996 101.9C16.8996 102.7 14.3996 94.8999 11.7996 98.7999C11.0996 100.3 11.0996 101.7 13.2996 101.9Z" fill="white"/>
<path d="M69.5002 70.8999C72.8002 70.0999 68.6002 62.9999 67.2002 68.9999C67.3002 69.5999 68.0002 70.4999 69.5002 70.8999Z" fill="white"/>
<path d="M62.9999 66C60.6999 66 58.2999 71.2 63.1999 69.8C64.0999 68.8 64.9999 67.5 62.9999 66Z" fill="white"/>
<path d="M26.4001 97C24.2001 97.5 26.4001 104.3 29.1001 99.9C28.8001 99.5 28.7001 97 26.4001 97Z" fill="white"/>
<path d="M62.5003 84.8999C59.5003 85.3999 59.4003 90.1999 64.0003 88.1999C64.8003 86.8999 64.2003 85.4999 62.5003 84.8999Z" fill="white"/>
<path d="M75.1996 58.3999C74.6996 59.0999 74.2996 60.6999 75.3996 62.5999C77.4996 64.2999 78.5996 56.3999 75.1996 58.3999Z" fill="white"/>
<path d="M19.7003 105.6C22.7003 106.5 23.5003 100.6 19.4003 102.4C18.3003 103.3 17.6003 104.5 19.7003 105.6Z" fill="white"/>
<path d="M70 94.4C72.4 93 69.5 87.2 67.5 91.9C67.5 92.7 68.3 94.1 70 94.4Z" fill="white"/>
<path d="M13.5996 109.9C17.7996 108.3 13.4996 103.5 11.5996 108.3C11.6996 108.8 11.7996 109.3 13.5996 109.9Z" fill="white"/>
<path d="M69.3003 84.1001C71.6003 84.3001 71.2003 77.2001 67.3003 81.5001C67.2003 82.0001 67.7003 83.2001 69.3003 84.1001Z" fill="white"/>
<path d="M20.5996 82.5999C22.5996 80.5999 23.0996 78.2999 17.0996 79.1999C18.0996 79.9999 18.5996 82.4999 20.5996 82.5999Z" fill="white"/>
<path d="M69.0004 73.2C65.5004 73.3 68.9004 80.1 70.9004 75.3C70.8004 74.5 70.4004 73.5 69.0004 73.2Z" fill="white"/>
<path d="M4.7998 100.4C4.8998 101.2 5.29981 102.3 6.69981 102.6C10.1998 102.5 6.8998 95.7 4.7998 100.4Z" fill="white"/>
<path d="M74.5996 50.8C74.9996 50.9 74.3996 52.4 76.3996 53.3C78.9996 53.2 75.9996 44.4 74.5996 50.8Z" fill="white"/>
<path d="M75.4996 81.9999C76.5996 81.5999 76.8996 81.9999 76.7996 78.8999H76.6996C77.0996 71.6999 72.9996 79.1999 75.4996 81.9999Z" fill="white"/>
<path d="M6.80039 111.3C10.1004 111.2 7.20039 104.5 4.90039 109.6C5.00039 110.2 5.10039 110.7 6.80039 111.3Z" fill="white"/>
<path d="M63.2996 61.7C61.5996 62.5 59.5996 63 58.5996 64.8C63.2996 65.5 63.4996 65.4 63.2996 61.7Z" fill="white"/>
<path d="M34.7 96.6999C31.7 96.2999 33 103 36.3 99.0999C36.4 98.5999 36 97.4999 34.7 96.6999Z" fill="white"/>
<path d="M59.9004 81.1001C60.0004 81.7001 60.2004 82.2001 61.9004 82.7001C65.3004 82.2001 62.1004 76.5001 59.9004 81.1001Z" fill="white"/>
<path d="M75.1996 68.3001C75.3996 68.6001 74.6996 69.6001 75.7996 70.9001C78.5996 71.4001 76.4996 63.7001 75.1996 68.3001Z" fill="white"/>
<path d="M131.1 16C127.8 15 127.3 23.4 132.1 21.7C133.8 20.7 133.7 15.8 131.1 16Z" fill="white"/>
<path d="M100.2 68.7999C99.7004 69.6999 98.5004 72.1999 101.7 72.7999C104.2 73.0999 103.5 64.9999 100.2 68.7999Z" fill="white"/>
<path d="M92.1 42.3999C89.3 42.3999 87.7 48.4999 93 46.2999C93.9 45.1999 94.3 42.5999 92.1 42.3999Z" fill="white"/>
<path d="M103.2 52.9C103.6 48.1 95.2004 52.5 100.8 54.9C101.6 55 102.7 54.6 103.2 52.9Z" fill="white"/>
<path d="M98.8999 43.2C97.8999 43.5 96.9999 47.1 99.2999 47.5C100.5 47 104.8 42.5 98.8999 43.2Z" fill="white"/>
<path d="M92.7996 59C95.6996 56.2 87.6996 54.5999 88.9996 58.8999C89.5996 59.7999 90.7996 60.6 92.7996 59Z" fill="white"/>
<path d="M100.2 38.8001C100.4 38.5001 102.6 36.9001 101 34.9001C98.3998 32.4001 95.6998 39.6001 100.2 38.8001Z" fill="white"/>
<path d="M92.2004 62.2999C90.4004 62.2999 87.2004 69.5999 93.4004 65.1999C94.7004 64.3999 93.9004 62.1999 92.2004 62.2999Z" fill="white"/>
<path d="M102.1 82.9999C100.8 82.8999 98.2999 89.3999 102.9 87.7999C104.4 86.8999 104.1 84.1999 102.1 82.9999Z" fill="white"/>
<path d="M98.6002 30.2999C100.1 31.1999 100.9 29.9999 101.6 27.9999C101.1 25.1999 94.7002 27.1999 98.6002 30.2999Z" fill="white"/>
<path d="M90.9 38.5C91.9 37.9 92.7 36.8 93.9 35.7C91.7 32.1 86.9 35.6 90.9 38.5Z" fill="white"/>
<path d="M91.3004 19.6C93.9004 19.8 94.0004 13.6 90.6004 15.1C89.9004 16.5 89.2004 18.1 91.3004 19.6Z" fill="white"/>
<path d="M91.8 68.8999C88.7 68.8999 90.3 75.8999 93.5 72.1999C94 70.5999 93.7 69.2999 91.8 68.8999Z" fill="white"/>
<path d="M91.2001 30.0001C94.3001 29.9001 92.5001 22.9001 89.4001 26.7001C88.9001 28.3001 89.3001 29.5001 91.2001 30.0001Z" fill="white"/>
<path d="M115.1 51.1999C118.1 51.6999 116.8 43.7999 113.8 48.0999C113.2 49.6999 113.1 49.9999 115.1 51.1999Z" fill="white"/>
<path d="M101.6 80.2001C105.4 80.7001 102.4 72.2001 100.2 77.3001C100.2 78.3001 100 79.5001 101.6 80.2001Z" fill="white"/>
<path d="M109.8 78.7C110.9 77.7 110.9 74.8 109.2 74C107 74 106.4 79.8 109.8 78.7Z" fill="white"/>
<path d="M91.2998 86.1999C89.0998 85.4999 86.7997 90.7999 91.3997 89.7999C92.0997 89.2999 94.0998 86.8999 91.2998 86.1999Z" fill="white"/>
<path d="M109 82.2001C106.6 81.8001 107.4 89.8001 110.4 85.7001C110 84.9001 111.7 83.7001 109 82.2001Z" fill="white"/>
<path d="M91.8003 49.8C86.9003 50.8 91.2003 56.3 93.7003 51.6C93.6003 51 93.4003 50.5 91.8003 49.8Z" fill="white"/>
<path d="M113.6 68.9001C113.6 69.3001 113.6 69.7001 114.7 70.9001C118.8 72.8001 116.8 62.8001 113.6 68.9001Z" fill="white"/>
<path d="M114.9 75.1C113.3 76.4 113.1 76.9 115.1 79C116.7 80.2 118.5 73.7 114.9 75.1Z" fill="white"/>
<path d="M115.8 81.9999C113.8 81.6999 113.5 87.6999 116.7 85.6999C118 84.2999 118.3 83.2999 115.8 81.9999Z" fill="white"/>
<path d="M108.6 51.9C112 51.4 108.3 44.4 106.7 49.8C106.8 50.6 107.3 51.8 108.6 51.9Z" fill="white"/>
<path d="M115.6 59.2999C118.1 59.2999 116.4 52.1999 113.7 56.3999C113.2 57.8999 113.5 58.3999 115.6 59.2999Z" fill="white"/>
<path d="M100 18.1999C103.5 17.9999 99.9 11.2999 98 16.0999C98 16.9999 98.5 17.9999 100 18.1999Z" fill="white"/>
<path d="M108.6 59.3C112.5 58.9 109.4 52.6 106.9 57.4C106.9 58 107 58.5 108.6 59.3Z" fill="white"/>
<path d="M98.5997 23.8999C99.2997 23.4999 103.9 19.9999 98.3997 20.3999C96.9997 20.3999 96.8997 23.3999 98.5997 23.8999Z" fill="white"/>
<path d="M90.8996 75.5C87.5996 75.7 90.6996 82.3 92.8996 77.2C92.7996 76.6 92.5996 76 90.8996 75.5Z" fill="white"/>
<path d="M101.9 61.0001C100.6 60.7001 98.6003 66.0001 102.5 65.1001C103.6 64.6001 103.5 61.4001 101.9 61.0001Z" fill="white"/>
<path d="M116.4 41.5C116.8 38.2 109.8 40.1 114.4 43.1C115 43.1 115.5 43.1 116.4 41.5Z" fill="white"/>
<path d="M109.2 71.4999C112 71.3999 109.8 65.1999 107 69.4999C107.3 70.0999 107.6 70.5999 109.2 71.4999Z" fill="white"/>
<path d="M114.3 32.8999C111.2 33.1999 114.6 39.5999 116.4 34.4999C116.2 33.9999 116 33.3999 114.3 32.8999Z" fill="white"/>
<path d="M108.2 18.1001C110.6 18.5001 109.7 11.4001 106.7 15.9001C106.8 16.5001 106.8 17.1001 108.2 18.1001Z" fill="white"/>
<path d="M114.5 21.8999C116.2 22.2999 117.5 17.4999 113.7 18.4999C113.3 19.3999 112.9 21.0999 114.5 21.8999Z" fill="white"/>
<path d="M107.9 37.3C111.4 37.6 108.1 30.3 106.8 35.4C106.8 36.1 106.8 36.7 107.9 37.3Z" fill="white"/>
<path d="M108.2 30.5999C111 30.8999 109.2 23.8 106.7 28.5C106.8 29 106.8 29.5999 108.2 30.5999Z" fill="white"/>
<path d="M108.9 62.8999C106 62.9999 107.5 68.2999 110.2 65.2999C110.8 63.9999 110.9 63.2999 108.9 62.8999Z" fill="white"/>
<path d="M107.9 20.3999C107.4 20.4999 107 20.5999 106.8 21.9999C107 25.8999 112.6 22.2999 107.9 20.3999Z" fill="white"/>
<path d="M114.7 29.9C117 28.8 114.2 23.9 112.8 28.4C112.8 28.9 113.3 29.8 114.7 29.9Z" fill="white"/>
<path d="M106.9 42.2C106.8 44.8 112.1 43.9 108.2 39.7C107.6 40.8 107 41.5 106.9 42.2Z" fill="white"/>
<path d="M90.7999 83.6C91.2999 83.5 91.6999 83.6 92.0999 82.3C91.9999 79 86.4999 81.8 90.7999 83.6Z" fill="white"/>
<path d="M115.2 62.3C113.6 62.5 114.5 67.2001 116.9 64.1001C116.9 63.6001 116.4 62.7 115.2 62.3Z" fill="white"/>
<path d="M95.6996 85.9001C94.7996 85.6001 93.2996 89.5001 96.3996 88.3001C96.4996 87.3001 97.3996 87.3001 95.6996 85.9001Z" fill="white"/>
<path d="M102.6 40.9999C102.6 41.3999 103.3 41.7999 103.6 42.1999C103.8 41.9999 105.1 41.0999 103.6 39.3999C103.1 40.0999 102.6 40.5999 102.6 40.9999Z" fill="white"/>
<path d="M90.1995 21.5C90.0995 21.7 90.5995 23.1 92.5995 22.2C91.9995 21.9 91.3995 19.8 90.1995 21.5Z" fill="white"/>
<path d="M502.9 100.7C498.9 101.7 502.4 119.1 501.3 123.7C501.6 130.1 500.3 139.4 501.9 146.4C507.5 147.2 504.6 140.6 505 136.2C503.5 124 508.3 108.4 502.9 100.7Z" fill="white"/>
<path d="M512 96.5001C513.6 95.3001 514.9 94.4001 518.3 96.0001C531 90.8001 499.2 91.3001 512 96.5001Z" fill="white"/>
<path d="M529.2 101.9C529.2 101.7 529.1 101.5 529.1 101.4C528.9 101 528.5 100.5 527.3 99.7999C523.9 100.2 524.7 103.5 526.4 103.9V105.4C525.1 107.1 524.5 111.5 521.3 109.3C522.3 107.9 524.6 107.5 523.8 104C522.3 105.5 514.1 107.2 517.1 102.2C517.9 104.6 526.5 103.3 521.4 99.8999C517.2 101.5 511.6 97.7999 507.6 101.2C508.7 108.5 507.9 116.5 508.1 125.8C509.9 127.5 509.8 126.8 513.6 126.3C516.5 125.8 522.8 126.3 526.5 125.4V125.7H529.2V123.7C529.3 123.3 529.3 122.9 529.2 122.4V102.2C529.1 102.1 529.2 102 529.2 101.9ZM519.3 109C518.8 109.7 519.5 108.7 517.1 111.4C513.8 110.2 518.3 104.4 519.3 109ZM512.9 102.1C513.2 102.8 514.8 104.4 513 105.8C511.7 105.3 508.2 104.2 512.9 102.1ZM520 122.1C520.1 121.6 520.8 120.6 522.3 120.3C523.3 121.1 521.6 123.6 520 122.1ZM523 118.6C521.8 120.5 516.6 114.4 517.9 122.8C514.6 124.6 517.4 116.4 513.4 119.8C512.4 120.6 514.8 123.9 510.4 122.8C512.1 121.4 510.3 117.8 512.2 116.5C514 118.6 518.3 115.2 514.3 114.3C511.6 115.6 510 111.6 512 108.7C513.5 112.8 514.2 113.7 520.6 111.7C522 112.5 523.5 113.9 525.1 111.2C525.6 111.5 526 111.7 526.3 111.8V114.1C524.1 113.9 520.7 114.7 518.3 113.9C514.7 117.2 523.3 115.6 523 118.6ZM523.4 121.5C523.7 121.1 524 120.5 524.3 120.5C526.3 119.8 528.1 125.3 523.4 121.5ZM526.4 118.5C526.4 118.7 522.5 116.5 525.3 115.9C525.6 116.1 526 116.5 526.5 116.7L526.4 118.5C526.4 118.6 526.4 118.6 526.4 118.5Z" fill="white"/>
<path d="M511 131.9C510.1 131.9 508.9 132.3 508.7 134C508.7 137 515.1 134.5 511 131.9Z" fill="white"/>
<path d="M791.401 143.1C793.601 143.7 790.8 147.6 794.3 147.1C798.8 141.9 798.701 138.3 789.001 140.2C786.401 139.7 775.401 138.3 780.701 144.1C784.001 143 787.101 144.3 791.401 143.1Z" fill="white"/>
<path d="M761.2 144.8C762.4 145.8 765 144.1 766.2 143.1C768.8 145.6 770.7 145.5 772.5 141.4C774.5 148 783.4 140.3 774.7 139.4C772 139.8 767.8 140.5 765.1 141.4C764 137.4 756.1 141.4 761.2 144.8Z" fill="white"/>
<path d="M755.2 145.8C758.6 145.4 759.1 138.4 753.6 140.4C751.2 141.9 752.1 145.1 755.2 145.8Z" fill="white"/>
<path d="M750.4 140.9C748 138.3 745.2 140.4 745.9 144.5C747.3 147.9 752.3 144.9 750.4 140.9Z" fill="white"/>
<path d="M748.6 151.7C749.2 153.1 760.6 151.9 755.2 148.7C754 148.9 748.9 148.1 748.6 151.7Z" fill="white"/>
<path d="M763 148.7C762.2 148.6 761.9 148.6 759.7 149.7C760.2 153.6 768.7 151.6 763 148.7Z" fill="white"/>
<path d="M771.9 150.4C772.1 149.8 772.3 148.8 771.3 147.8C767.1 146.7 766.5 154.9 771.9 150.4Z" fill="white"/>
<path d="M781.8 147.3C777.5 147.4 782.2 154 783.8 148.7C783.7 147.8 783.2 147.2 781.8 147.3Z" fill="white"/>
<path d="M775.5 147.3C771.2 147.4 776.1 154.3 777.1 148.5C777 148 777 147.5 775.5 147.3Z" fill="white"/>
<path d="M786.8 146.6C784.4 147.5 788.2 151.6 788.9 148C788.8 147.2 788.6 146.5 786.8 146.6Z" fill="white"/>
<path d="M905.8 80.4999C901.1 79.9999 903.6 92.1999 908.2 85.8999C908.5 84.0999 909.1 80.5999 905.8 80.4999Z" fill="white"/>
<path d="M923.6 109.7C921.6 111.7 927.1 116.1 930 113.5C931.6 110.5 926.4 107.9 923.6 109.7Z" fill="white"/>
<path d="M903.8 91.2999C902 91.4999 901.6 99.3999 905.7 96.6999C907 95.8999 906.8 91.1999 903.8 91.2999Z" fill="white"/>
<path d="M905.6 114.8C905.9 114 905.9 112.9 904.7 111.7C899.8 109.5 901.9 122.6 905.6 114.8Z" fill="white"/>
<path d="M940.3 107.8C938.6 108.3 937 114.3 941.9 112.5C943.5 111.4 942.9 108.4 940.3 107.8Z" fill="white"/>
<path d="M903.8 101.2C901.5 101.6 902.2 108.6 905.7 104.8C906.4 104.2 906.6 101.2 903.8 101.2Z" fill="white"/>
<path d="M933 97.5C930 99 929.7 102.3 933.7 102C935 100.5 935 98.5 933 97.5Z" fill="white"/>
<path d="M1017.5 62.0001C1018.1 62.5001 1029 59.4001 1019.7 58.6001C1017.9 57.6001 1012.3 60.9001 1017.5 62.0001Z" fill="white"/>
<path d="M1020.2 95.3999C1018.4 95.3999 1010.9 98.1999 1018.8 98.8999C1018.8 98.8999 1018.8 98.8999 1018.8 98.9999C1021.2 100.2 1025.7 95.9999 1020.2 95.3999Z" fill="white"/>
<path d="M1028.9 80.6001C1025.6 81.4001 1025 86.2001 1029.7 85.3001C1031.2 84.3001 1031.4 81.1001 1028.9 80.6001Z" fill="white"/>
<path d="M1021.1 80.7C1016.5 82.1 1021.9 89.7 1023.5 83C1023.3 82.3 1022.5 81.2 1021.1 80.7Z" fill="white"/>
<path d="M1029.1 72.5C1024.3 73 1026.1 79 1030.6 76C1031.2 74.6 1031 73.1 1029.1 72.5Z" fill="white"/>
<path d="M1028.2 61.9999C1030.5 62.8999 1032.4 56.9999 1028 58.0999C1025.8 58.3999 1024.7 60.9999 1028.2 61.9999Z" fill="white"/>
<path d="M1016.1 76.9C1019.6 77.3 1018.1 69.7 1014.3 73.9C1013.4 75.4 1013.9 76.4 1016.1 76.9Z" fill="white"/>
<path d="M1030.8 90.9999C1030.7 90.2999 1030.1 89.3999 1028.4 89.3999C1023.2 90.6999 1028.7 96.2999 1030.8 90.9999Z" fill="white"/>
<path d="M1028.8 101.8C1026.3 101.8 1026.6 109.1 1030.6 105.1C1031.1 103.6 1030.8 102.2 1028.8 101.8Z" fill="white"/>
<path d="M1022.2 72.6001C1019.1 72.8001 1018.1 76.5001 1022.2 76.6001C1023.7 75.4001 1024.2 74.3001 1022.2 72.6001Z" fill="white"/>
<path d="M1021.2 101.8C1016.6 101.7 1019 109 1022.7 103.6C1022.9 102.9 1022.7 102 1021.2 101.8Z" fill="white"/>
<path d="M1029 65.0999C1024 64.8999 1029 72.2999 1030.8 66.6999C1030.8 65.9999 1030.6 65.1999 1029 65.0999Z" fill="white"/>
<path d="M1016 85.6C1018.8 85.8 1017.2 77.9 1014 82.9C1014 83.5 1014.5 84.7 1016 85.6Z" fill="white"/>
<path d="M1020.7 93.0999C1025.2 92.5999 1020.2 86.1999 1019 91.7999C1019.1 92.2999 1019.2 92.8999 1020.7 93.0999Z" fill="white"/>
<path d="M1020.8 65.5C1020.1 65.8 1019.7 66.6 1019.1 67.2C1020.4 70.2 1026.7 67.5 1020.8 65.5Z" fill="white"/>
<path d="M1029 98.9001C1032.2 98.6001 1028.5 93.3001 1027.1 97.9001C1027.3 98.5001 1027.4 99.0001 1029 98.9001Z" fill="white"/>
<path d="M1016.5 68.8001C1017.2 68.6001 1017.7 67.9001 1018.3 67.4001C1017.4 67.0001 1016.7 64.8001 1014.9 67.4001C1015.6 68.0001 1016.2 68.9001 1016.5 68.8001Z" fill="white"/>
<path d="M1015.5 91.8C1014.8 91.2 1015 91.2 1015.5 92.6C1015.5 92.3 1015.5 92.1 1015.5 91.8Z" fill="white"/>
<path d="M1015.5 91.2C1015.5 91.4 1015.5 91.6 1015.5 91.8C1015.7 92 1016 92.1999 1016.3 92.3999C1017.8 90.5999 1016.7 91.7 1015.5 91.2Z" fill="white"/>
<path d="M1016.3 92.5C1015.5 92.7 1015.5 92.6 1016.3 92.5Z" fill="white"/>
<path d="M1014.8 90.8C1015 91 1015.3 91.2 1015.5 91.3C1015.5 89.8 1015.6 89.8 1014.8 90.8Z" fill="white"/>
<path d="M773.5 85.1C775.6 86.4 774.7 90.2 774.9 94C779.7 101.3 779.9 88.4 779.1 83.2C779.6 81.1 771.9 81 768.9 81.2C767.3 85 766.6 91.9 768.8 96.3C775 97.2 771 89.8 773.5 85.1Z" fill="white"/>
<path d="M753.6 85.7C753.3 87.9 753.301 100.9 758.701 96.3C758.101 88.5 759 81.7 757.3 74.4C750.2 71.2 754.2 80.9 753.6 85.7Z" fill="white"/>
<path d="M793.9 88.8001C794.2 77.8001 786.9 81.4001 790.4 93.6001C792.9 95.5001 794.5 93.7001 793.9 88.8001Z" fill="white"/>
<path d="M397.6 108.9C399.9 102.7 382.4 105.5 377.7 104.8C373.5 105.9 355.8 101.6 359.1 109.2C371.2 111.4 384.4 109.5 397.6 108.9Z" fill="white"/>
<path d="M376.6 114.3C372.6 115.6 368.2 114.1 362.6 113.6C351.4 116.7 372.6 116.9 376 118.6C377.4 118.7 380.7 115.6 376.6 114.3Z" fill="white"/>
<path d="M396.7 115C392.9 113.3 384.3 118 394.4 118.7C396.1 119.6 401.7 117 396.7 115Z" fill="white"/>
<path d="M386.3 114.3C382.8 113.1 380.1 119.4 386.2 118.7C388.4 118.9 389.9 114.9 386.3 114.3Z" fill="white"/>
<path d="M238.7 66.1001C221.2 63.9001 186.5 69.6001 224.6 70.4001C227.3 70.2001 248.7 72.0001 238.7 66.1001Z" fill="white"/>
<path d="M238.7 59.8999C221.2 57.6999 186.5 63.3999 224.6 64.1999C227.3 63.9999 248.7 65.7999 238.7 59.8999Z" fill="white"/>
<path d="M238.7 53.7C221.2 51.5 186.5 57.2 224.6 58C227.3 57.8 248.7 59.6 238.7 53.7Z" fill="white"/>
<path d="M238.7 84.1001C221.2 81.9001 186.5 87.6001 224.6 88.4001C227.3 88.2001 248.7 90.0001 238.7 84.1001Z" fill="white"/>
<path d="M238.7 77.8999C221.2 75.6999 186.5 81.3999 224.6 82.1999C227.3 81.9999 248.7 83.7999 238.7 77.8999Z" fill="white"/>
<path d="M238.7 71.7C221.2 69.5 186.5 75.2 224.6 76C227.3 75.8 248.7 77.6 238.7 71.7Z" fill="white"/>
<path d="M266.8 51.6C269.9 51.6 273.1 51.6 276.2 51.6C280.3 51.6 285.3 51.6 290.9 51.6C293.8 51.6 297.1 51.6 301.6 51.6C304.5 51.6 307.9 51.6 312.5 51.6C360.2 49.7 248.4 44.7 266.8 51.6Z" fill="white"/>
<path d="M266.8 47.2999C269.9 47.2999 273.1 47.2999 276.2 47.2999C280.3 47.2999 285.3 47.2999 290.9 47.2999C293.8 47.2999 297.1 47.2999 301.6 47.2999C304.5 47.2999 307.9 47.2999 312.5 47.2999C360.2 45.3999 248.4 40.3999 266.8 47.2999Z" fill="white"/>
<path d="M276.2 43C280.3 43 285.3 43 290.9 43C293.8 43 297.1 43 301.6 43C304.5 43 307.9 43 312.5 43C363.4 39 224.4 38.8 276.2 43Z" fill="white"/>
<path d="M276.2 64.1C280.3 64.1 285.3 64.1 290.9 64.1C293.8 64.1 297.1 64.1 301.6 64.1C304.5 64.1 307.9 64.1 312.5 64.1C360.1 62.2 248.3 57.2 266.7 64.1C270 64.1 273.1 64.1 276.2 64.1Z" fill="white"/>
<path d="M266.8 59.8001C269.9 59.8001 273.1 59.8001 276.2 59.8001C280.3 59.8001 285.3 59.8001 290.9 59.8001C293.8 59.8001 297.1 59.8001 301.6 59.8001C304.5 59.8001 307.9 59.8001 312.5 59.8001C360.2 58.0001 248.4 52.9001 266.8 59.8001Z" fill="white"/>
<path d="M266.8 55.4999C269.9 55.4999 273.1 55.4999 276.2 55.4999C280.3 55.4999 285.3 55.4999 290.9 55.4999C293.8 55.4999 297.1 55.4999 301.6 55.4999C304.5 55.4999 307.9 55.4999 312.5 55.4999C360.2 53.6999 248.4 48.6999 266.8 55.4999Z" fill="white"/>
<path d="M266.8 77.5999C269.9 77.5999 273.1 77.5999 276.2 77.5999C280.3 77.5999 285.3 77.5999 290.9 77.5999C293.8 77.5999 297.1 77.5999 301.6 77.5999C304.5 77.5999 307.9 77.5999 312.5 77.5999C360.2 75.7999 248.4 70.6999 266.8 77.5999Z" fill="white"/>
<path d="M266.8 73.3001C269.9 73.3001 273.1 73.3001 276.2 73.3001C280.3 73.3001 285.3 73.3001 290.9 73.3001C293.8 73.3001 297.1 73.3001 301.6 73.3001C304.5 73.3001 307.9 73.3001 312.5 73.3001C360.2 71.5001 248.4 66.4001 266.8 73.3001Z" fill="white"/>
<path d="M266.8 68.7C269.9 68.7 273.1 68.7 276.2 68.7C280.3 68.7 285.3 68.7 290.9 68.7C293.8 68.7 297.1 68.7 301.6 68.7C304.5 68.7 307.9 68.7 312.5 68.7C360.2 66.9 248.4 61.8 266.8 68.7Z" fill="white"/>
<path d="M266.8 90.2001C269.9 90.2001 273.1 90.2001 276.2 90.2001C280.3 90.2001 285.3 90.2001 290.9 90.2001C293.8 90.2001 297.1 90.2001 301.6 90.2001C304.5 90.2001 307.9 90.2001 312.5 90.2001C360.2 88.3001 248.4 83.3001 266.8 90.2001Z" fill="white"/>
<path d="M266.8 85.9C269.9 85.9 273.1 85.9 276.2 85.9C280.3 85.9 285.3 85.9 290.9 85.9C293.8 85.9 297.1 85.9 301.6 85.9C304.5 85.9 307.9 85.9 312.5 85.9C360.2 84 248.4 79 266.8 85.9Z" fill="white"/>
<path d="M266.8 81.6C269.9 81.6 273.1 81.6 276.2 81.6C280.3 81.6 285.3 81.6 290.9 81.6C293.8 81.6 297.1 81.6 301.6 81.6C304.5 81.6 307.9 81.6 312.5 81.6C360.2 79.7 248.4 74.7 266.8 81.6Z" fill="white"/>
<path d="M690.6 153.8C694.6 153 690.3 148.9 686.8 151.3C684.1 152.2 681.7 167.4 687.6 164.2C690.1 161.2 685.2 155.7 690.6 153.8Z" fill="white"/>
<path d="M690.5 147.2C692.6 147 694.9 144.7 694.1 141C692.6 137.3 687.1 143.9 690.5 147.2Z" fill="white"/>
<path d="M692.3 164.1C693.8 164.1 694.6 161.8 694.2 159.9C693.7 155.5 687.4 161.8 692.3 164.1Z" fill="white"/>
<path d="M470.2 133.3C468.8 131.9 462.6 133 462.6 130.3C462.4 128.1 462.7 126.7 460.6 126C457.2 128.2 455.1 132.5 449.9 135.1C447.5 138.7 478.6 139.5 470.2 133.3Z" fill="white"/>
<path d="M842.9 123.8C841.1 124.8 839.8 124.6 835.5 124.6C834.2 125.1 827.6 122.9 828.6 127.1C829.8 127.9 829 128.4 832.3 128.2C838.1 126.5 842.8 130.4 849 127.9C851.4 125.6 846 121.8 842.9 123.8Z" fill="white"/>
<path d="M837.401 121.6C837.601 121.6 837.9 121.6 838.1 121.6C842.3 122.9 844.601 117.1 838.901 116C836.101 116 831.401 121.8 837.401 121.6Z" fill="white"/>
<path d="M835.4 132.2C832.4 131.1 824.6 137.3 833.2 137.1C835.5 138.3 839.7 133.6 835.4 132.2Z" fill="white"/>
<path d="M1089.4 87.9C1089.3 87.9 1089.2 87.9 1089 87.9C1084.9 86.8 1083.9 94.1 1090.5 92.1C1092.1 91.5 1092.6 87.3 1089.4 87.9Z" fill="white"/>
<path d="M1089.1 102.7C1087.8 102.2 1087 103.7 1087.3 106.3C1087.3 106.3 1087.3 106.3 1087.2 106.3C1086.5 113.1 1094.6 107.4 1089.1 102.7Z" fill="white"/>
<path d="M151.3 78.6C148.6 76.7 143.5 83.9 150.1 83.5C152.7 84.3 154.7 80.9 151.3 78.6Z" fill="white"/>
<path d="M716 143.9C711.7 142.1 712.8 149.9 713.4 152.2C715.8 153.8 718.7 146 716 143.9Z" fill="white"/>
<path d="M707.6 158.2C705.3 157.4 703.6 165.2 708.1 163.8C708.9 162.8 711.3 159.2 707.6 158.2Z" fill="white"/>
<path d="M712.3 139C713.7 140.7 716.5 140.1 717.6 137.8C717.6 135.4 710.5 134.4 712.3 139Z" fill="white"/>
<path d="M704.7 136.5C704.4 137.1 703.7 138.8 705.4 140.3C710 141.6 709.1 132 704.7 136.5Z" fill="white"/>
<path d="M708.2 150.4C705.2 149.6 702.5 156.8 708.4 154.6C709.6 153.5 710.6 151.7 708.2 150.4Z" fill="white"/>
<path d="M714.9 156.1C711.8 156 712.5 161.9 715.5 160.8C718 159.1 718.3 157.1 714.9 156.1Z" fill="white"/>
<path d="M707.2 143.9C703.6 144.3 703.6 149.7 709.1 147.5C710.2 146.3 709.9 144.4 707.2 143.9Z" fill="white"/>
<path d="M709.1 141.9C709.9 141.4 708.7 143.8 712.1 142.1C711.3 141.8 710.4 139.8 709.1 141.9Z" fill="white"/>
<path d="M1217.8 129.3C1218.7 123.5 1209.4 127.8 1213 132.5C1215.2 133.4 1217.8 132.6 1217.8 129.3Z" fill="white"/>
<path d="M1220.5 137.6C1217.3 138 1213.9 146.5 1221.4 142C1222.1 141.2 1223 138.9 1220.5 137.6Z" fill="white"/>
<path d="M1132.2 113.8C1128 114.6 1132.6 110.2 1132.2 108C1130.5 105.6 1128.3 103.2 1125.7 105.7C1124.4 107.5 1128.6 109 1127.3 112.1C1127.6 113.4 1125 115.4 1129 117.7C1131.3 119.3 1137.3 114.7 1132.2 113.8Z" fill="white"/>
<path d="M1120.5 112C1120.2 112.2 1119 113.4 1118.1 115.3C1123 119.2 1127.3 107.7 1120.5 112Z" fill="white"/>
<path d="M869.1 118C868.2 120.3 862.8 121.9 865 125.8C866.1 126.9 867.2 127.5 868.7 125.3C870 124.2 870.9 123.4 871.4 122.9C872.5 136.4 882.7 113.9 869.1 118ZM872.3 121.5C872.2 121.6 872.1 121.7 871.9 121.8C871.6 120.6 871.6 120.7 872.3 121.5ZM871.3 120.5C871.3 121.2 871.3 121.8 871.4 122.3C869.5 123.7 868.7 122.7 871.3 120.5ZM872.1 122.3C872.4 122.2 872.3 122.5 872.4 123.4C872.2 123 872.2 122.6 872.1 122.3Z" fill="white"/>
<path d="M884.6 122.5C881.8 119.9 877.4 126.4 883.3 126.8C885.8 126.9 888.6 124.4 884.6 122.5Z" fill="white"/>
<path d="M417.1 128.3C414.1 127.9 414.5 132.4 418.8 129.9C418.1 129.2 417.7 128.6 417.1 128.3Z" fill="white"/>
<path d="M972.1 95.8999C970.6 102.3 978.5 102.2 975.1 92.3999C974 90.3999 971.4 91.9999 972.1 95.8999Z" fill="white"/>
<path d="M973.6 104.9C970.8 105.5 972.1 112.7 975.5 109C976.2 107.2 975.9 105.5 973.6 104.9Z" fill="white"/>
</svg>
