<svg width="1253" height="176" viewBox="0 0 1253 176" fill="none" xmlns="http://www.w3.org/2000/svg">
<path d="M5.92505 157.177C16.925 153.577 20.925 145.577 14.925 134.077C17.125 128.277 24.825 124.877 30.025 119.277C33.825 116.877 34.825 111.377 40.125 111.277C47.425 119.077 54.825 124.477 53.225 137.077C55.725 138.877 60.125 135.077 64.425 134.477C68.925 132.077 74.825 133.377 78.025 128.577C62.125 121.877 59.325 106.277 76.425 99.5774C114.325 93.2774 99.925 133.777 86.925 121.977C84.825 119.477 82.625 126.777 85.125 128.077C90.725 126.577 100.925 125.877 105.825 122.177C105.425 116.977 107.925 111.177 104.025 105.977C105.225 100.277 114.425 96.9774 118.825 90.6774C124.325 84.6774 126.725 87.4774 132.525 94.9774C136.025 100.177 140.525 103.777 141.225 110.877C141.125 113.277 141.425 115.177 143.225 114.977C155.525 116.577 149.625 98.0774 150.325 87.8774C148.825 87.3774 143.625 89.1774 143.625 85.3774C152.525 74.4774 165.925 70.6774 175.625 59.3774C180.525 51.5774 191.525 73.0774 195.525 75.5774C198.625 81.2774 218.325 97.0774 208.725 99.1774C203.125 94.7774 198.825 84.1774 192.425 81.2774C176.525 86.0774 182.525 95.1774 182.025 107.177C182.025 112.177 188.825 108.177 193.525 108.977C200.125 108.177 208.425 110.477 214.325 107.877C215.725 54.3774 203.125 44.7774 241.225 49.6774C253.025 54.9774 245.025 69.4774 247.825 80.3774C254.825 94.5774 270.425 66.7774 273.025 60.0774C276.325 55.0774 269.525 41.3774 278.125 43.4774C277.425 57.1774 279.725 71.5774 292.325 80.7774C293.625 83.3774 290.125 83.2774 289.225 85.6774C289.225 89.1774 289.225 94.7774 289.225 99.8774C289.925 112.077 285.225 113.177 299.125 114.577C301.025 109.077 296.925 100.477 301.525 94.4774C307.825 88.9774 311.225 78.9774 319.425 76.0774C326.025 81.4774 328.925 92.6774 336.525 97.7774C336.825 90.3774 338.325 79.5774 333.325 73.6774C341.925 64.1774 345.625 54.5774 344.225 41.1774C343.725 36.5774 343.625 25.8774 349.425 31.2774C349.525 40.9774 347.525 50.1774 350.825 60.2774C362.025 81.0774 358.925 89.7774 358.325 109.077C357.225 130.477 373.925 99.5774 381.125 97.8774C386.725 101.677 389.125 109.777 396.325 113.277C401.825 110.877 405.325 98.7774 411.525 98.1774C422.725 105.577 446.125 144.577 443.325 109.077C441.425 101.577 446.825 101.577 449.925 96.8774C451.425 78.5774 447.325 28.5774 454.025 34.4774C459.725 43.3774 446.325 84.2774 464.925 72.9774C466.025 67.9774 462.225 61.0774 467.725 57.1774C512.225 53.3774 504.625 54.9774 506.125 88.5774C518.725 94.1774 513.625 107.177 514.425 118.577C516.825 139.177 507.525 166.177 522.525 163.777C525.225 163.977 528.525 165.477 527.225 160.377C524.825 153.177 529.425 141.377 525.725 136.377C523.825 139.777 513.825 140.177 520.425 133.877C554.725 119.177 521.825 88.8774 547.225 91.4774C554.325 92.5774 550.925 101.377 551.725 107.977C549.725 126.277 556.825 125.277 567.825 135.177C571.025 139.477 571.025 140.977 577.925 139.777C592.225 143.877 580.625 109.977 584.925 102.377C591.925 96.7774 601.025 92.1774 602.025 80.9774C603.225 76.8774 600.625 73.4774 604.225 69.8774C605.925 69.6774 609.625 69.6774 608.925 72.5774C609.325 83.2774 613.325 97.0774 626.325 100.377C629.225 103.877 625.625 111.177 627.825 116.077C630.625 117.577 635.525 116.077 637.925 120.077C641.225 130.577 632.925 152.577 642.925 158.177C662.425 163.577 652.225 110.077 654.825 100.077C653.925 91.6774 652.625 86.6774 659.525 83.1774C659.525 83.1774 666.625 83.2774 671.025 82.2774C673.725 73.8774 667.125 50.3774 674.525 51.0774C678.625 57.9774 672.725 71.2774 676.525 81.2774C678.125 85.5774 689.025 79.0774 691.125 86.5774C692.125 86.8774 692.125 91.8774 689.825 89.5774C684.025 85.3774 667.125 88.3774 659.625 89.3774C657.525 116.377 667.525 154.977 650.425 163.077C619.525 170.977 640.725 125.177 631.425 122.877C619.325 124.577 623.625 116.077 622.725 107.377C617.025 100.877 607.325 97.1774 606.525 85.2774C603.525 90.8774 601.225 97.9774 595.825 102.777C593.825 103.977 590.925 102.777 589.725 106.377C591.025 109.977 585.725 125.177 593.325 121.677C590.725 117.377 591.125 114.277 598.725 117.277C601.925 116.477 620.025 114.477 610.125 121.177C612.025 121.677 615.125 121.677 615.925 119.877C621.725 108.877 596.325 117.877 591.325 113.577C592.125 108.477 600.225 114.177 601.625 109.277C599.125 107.677 590.025 112.677 591.625 105.977C599.725 104.877 610.325 103.577 619.425 107.177C620.925 110.777 618.825 117.677 620.425 122.677C617.425 129.277 601.425 124.077 593.425 126.377C585.225 125.477 590.425 146.577 588.925 152.677C589.925 159.077 585.925 168.077 592.325 169.177C618.325 168.377 723.825 171.577 715.825 154.577C718.025 141.777 705.725 151.277 697.525 146.277C695.225 140.777 697.425 131.677 696.725 124.577C696.025 121.977 698.725 118.177 693.225 118.977C684.625 120.377 674.725 117.477 666.325 120.277C665.725 127.077 673.825 111.477 671.825 135.577C671.825 144.177 671.725 151.277 671.825 160.977C671.025 163.277 667.525 161.577 664.825 161.977C663.225 160.577 663.225 160.577 663.325 157.677C664.125 144.977 662.925 130.977 663.125 116.677C664.225 113.377 669.425 115.377 674.425 114.877C684.025 116.377 694.225 111.677 700.925 117.177C705.025 123.477 694.225 146.677 708.425 142.877C710.825 142.377 716.625 144.677 716.325 139.977C715.525 127.677 716.125 112.777 716.025 99.8774C716.125 97.0774 715.525 93.4774 718.525 91.0774C720.625 90.4774 722.525 90.5774 722.625 87.3774C722.025 80.4774 727.525 83.0774 725.825 73.1774C735.225 63.9774 735.025 49.3774 736.625 36.0774C743.025 20.6774 742.825 55.8774 745.225 60.3774C746.125 64.7774 748.525 70.2774 751.225 74.7774C749.925 80.5774 754.025 81.1774 753.825 87.5774C752.925 93.0774 762.125 88.1774 760.625 96.7774C762.925 137.777 753.225 156.777 771.225 148.977C776.125 148.077 772.725 135.877 772.825 131.277C772.125 129.577 767.025 128.177 771.325 125.877C781.825 121.577 786.225 108.377 795.325 102.777C824.925 145.877 826.525 117.177 832.225 83.7774C833.525 79.7774 830.025 70.1774 834.725 68.8774C839.525 84.4774 836.925 109.577 845.925 125.277C849.425 119.177 841.125 108.277 849.025 102.477C872.225 85.2774 870.025 70.7774 884.525 87.5774C918.125 116.577 886.025 118.477 921.425 109.877V97.4774V93.9774C919.425 24.6774 914.425 32.4774 947.625 32.2774C966.425 33.9774 988.225 27.5774 994.525 37.6774C999.225 52.4774 986.925 106.377 1003.43 95.4774C1004.73 81.9774 1003.13 64.5774 1004.33 49.6774C1010.53 40.3774 1018.03 50.9774 1023.03 40.6774C1026.53 51.6774 1045.83 40.5774 1052.03 50.9774C1059.83 91.7774 1037.53 93.3774 1079.83 90.6774C1080.63 89.8774 1081.33 88.9774 1080.83 86.8774C1081.53 78.8774 1074.03 19.9774 1082.43 24.4774C1087.63 33.9774 1081.83 49.0774 1084.43 60.6774C1082.53 63.8774 1087.83 66.7774 1089.43 63.0774C1087.03 53.3774 1090.63 40.5774 1086.43 30.3774C1087.83 28.4774 1090.43 29.1774 1092.23 27.1774C1093.23 24.7774 1095.33 20.3774 1098.03 24.3774C1098.43 27.4774 1104.43 32.6774 1106.73 26.8774C1111.23 21.5774 1106.73 15.6774 1108.93 8.87743C1112.43 -0.922567 1125.93 10.1774 1130.13 2.77743C1135.03 -5.52257 1133.73 7.67743 1143.73 5.07743C1182.13 2.97743 1167.43 9.07743 1170.93 36.0774C1171.13 48.6774 1205.03 26.4774 1201.23 53.1774C1200.93 61.7774 1203.63 110.677 1197.23 93.8774C1196.43 89.0774 1199.53 81.3774 1195.53 76.5774C1199.73 71.4774 1195.93 63.2774 1197.03 54.8774C1198.23 41.6774 1194.13 45.2774 1182.33 44.7774C1176.63 45.9774 1170.03 40.8774 1171.23 51.1774C1173.03 70.6774 1167.03 96.1774 1174.53 97.5774C1193.53 102.177 1258.03 115.177 1251.83 126.177C1015.43 30.7774 787.225 184.577 616.825 174.677C519.825 177.577 460.625 156.577 379.125 135.577C241.725 100.577 117.625 107.977 0.0250244 165.877C-0.0749756 161.377 -0.174951 158.777 5.92505 157.177ZM71.425 118.877C72.325 119.177 73.225 121.977 75.825 121.077C75.225 119.677 74.225 118.577 71.425 118.877ZM76.225 104.577C72.225 104.177 71.725 114.777 76.425 112.177C75.925 109.877 76.725 107.877 77.925 104.877C77.325 104.877 76.725 104.477 76.225 104.577ZM615.025 109.077C613.225 109.677 608.325 107.577 606.325 108.377C605.825 109.477 605.825 110.877 608.025 111.077C609.325 110.277 619.625 114.577 615.025 109.077ZM604.525 122.077C604.425 121.977 605.825 121.877 604.825 120.577C602.825 119.677 598.025 118.277 596.025 121.677C597.625 122.577 599.925 121.877 604.525 122.077ZM668.025 143.977C668.125 143.377 669.225 143.877 669.125 141.177C669.925 133.577 664.325 134.177 668.025 143.977ZM667.525 159.277C668.325 159.577 670.925 153.577 668.225 153.077C665.525 153.577 666.725 156.177 667.525 159.277ZM667.525 149.977C670.225 151.477 669.025 142.577 666.825 147.077C666.725 147.477 665.625 148.777 667.525 149.977ZM668.325 125.077C667.125 123.777 666.725 125.677 665.925 128.877C666.725 134.277 670.525 132.577 668.325 125.077ZM1093.03 33.9774C1093.63 38.1774 1093.73 43.8774 1093.63 49.5774C1094.63 51.9774 1090.63 68.1774 1097.13 63.1774C1098.33 55.6774 1096.53 48.8774 1096.63 40.3774C1097.43 38.6774 1097.63 27.8774 1093.03 33.9774ZM1108.83 34.7774C1100.23 30.7774 1101.63 33.9774 1101.83 43.8774C1103.33 51.0774 1099.63 61.9774 1104.83 64.1774C1112.43 64.8774 1111.33 62.6774 1111.33 53.8774C1110.03 47.1774 1114.33 39.0774 1108.83 34.7774ZM1113.73 29.4774C1122.03 45.8774 1112.03 73.4774 1117.73 90.4774C1175.33 92.3774 1164.43 105.977 1166.93 78.9774C1161.93 -2.62257 1181.13 10.3774 1132.83 9.47743C1130.13 30.0774 1133.93 55.3774 1132.53 79.2774C1134.03 83.6774 1129.73 90.7774 1127.33 82.7774C1127.43 72.8774 1127.33 62.1774 1127.33 51.7774C1126.13 38.4774 1129.53 22.3774 1126.93 9.47743C1121.23 9.97743 1111.43 5.67743 1113.43 15.9774C1112.73 19.5774 1114.83 22.0774 1114.33 25.5774C1113.43 26.9774 1111.83 27.6774 1113.73 29.4774ZM1085.63 87.7774C1085.43 92.9774 1094.43 89.7774 1098.93 90.5774C1101.43 89.9774 1109.63 91.9774 1112.03 89.1774C1111.03 82.8774 1112.33 74.5774 1110.83 68.7774C1079.63 68.4774 1086.23 64.2774 1085.63 87.7774ZM1010.53 94.9774C1019.93 91.1774 1043.53 95.6774 1048.93 89.0774C1045.33 53.2774 1059.03 49.1774 1025.93 50.2774C1011.53 51.5774 1007.23 44.6774 1009.33 63.4774C1010.13 68.3774 1005.63 95.7774 1010.53 94.9774ZM990.925 40.9774C990.025 32.5774 928.425 38.8774 926.825 37.2774C923.725 52.9774 925.825 74.8774 926.325 92.4774C945.825 93.2774 966.225 91.2774 986.825 92.1774C995.425 98.4774 941.525 98.1774 925.825 97.5774V108.677C938.525 105.777 958.425 101.877 989.425 97.4774C994.125 81.3774 989.425 58.9774 990.925 40.9774ZM853.525 127.277C866.925 122.877 880.925 120.977 895.425 115.777C903.125 106.677 882.025 91.4774 874.825 86.0774C867.325 93.5774 856.025 100.077 851.625 109.677C852.925 113.477 849.225 125.577 853.525 127.277ZM837.825 131.277C850.125 129.177 842.825 128.777 838.625 122.377C835.425 116.777 838.225 106.877 833.925 103.677C828.625 140.277 814.025 124.177 814.325 133.577C813.225 142.777 831.725 130.977 837.825 131.277ZM780.825 146.277C789.325 143.377 798.925 143.177 808.225 139.177C814.125 128.077 800.425 119.377 794.825 110.477C791.225 114.777 778.125 125.377 778.625 130.377C779.925 133.877 776.625 144.377 780.825 146.277ZM743.525 73.7774C740.325 70.1774 742.325 62.9774 739.525 57.7774C737.925 63.0774 732.125 73.1774 731.825 78.8774C734.925 80.2774 749.025 81.2774 743.525 73.7774ZM734.425 157.177C741.525 155.577 748.525 154.877 756.025 151.977C757.625 144.277 756.025 134.477 756.525 126.077H756.425C756.225 116.577 757.025 105.177 755.625 95.4774C754.125 94.6774 750.225 95.9774 747.925 93.1774C746.125 90.7774 748.425 84.8774 741.925 84.1774C724.725 80.8774 734.025 94.8774 722.425 95.3774C717.925 101.877 723.025 111.777 720.725 119.877C722.425 160.577 712.925 163.577 734.425 157.177ZM554.325 140.277C555.925 147.877 552.025 166.777 557.125 168.277C564.925 167.877 574.725 169.477 583.825 168.777C585.025 165.477 583.825 161.577 584.225 156.577C584.825 146.277 585.225 142.577 573.925 145.177C574.125 146.677 573.825 150.877 570.025 149.877C566.225 147.877 566.525 141.577 562.625 138.077C557.025 133.377 552.625 128.377 554.325 140.277ZM549.825 125.977C545.225 123.277 547.125 118.577 545.925 113.177C545.725 110.077 550.225 92.9774 541.925 97.2774C541.625 107.277 543.825 117.977 538.825 128.477C540.225 127.677 550.725 130.077 549.825 125.977ZM531.025 164.877C536.125 166.177 544.725 167.877 551.025 166.977C549.925 155.377 550.925 144.877 550.825 132.477C537.525 129.777 528.725 129.477 531.325 148.177C532.125 152.777 529.925 160.677 531.025 164.877ZM508.525 96.4774C495.925 91.5774 503.025 79.2774 499.825 69.4774C472.325 71.4774 458.025 63.9774 493.125 64.2774C494.025 64.6774 498.725 63.4774 495.725 61.2774C488.725 60.6774 477.525 59.3774 470.325 61.7774C469.525 63.7774 468.425 73.4774 472.025 73.8774C483.725 74.8774 494.225 68.5774 491.825 85.4774C490.825 88.4774 494.525 94.9774 490.725 96.6774C483.625 98.2774 490.425 79.4774 485.725 78.3774C456.825 73.6774 478.625 89.5774 467.725 94.5774C461.025 88.3774 474.425 74.3774 456.125 78.6774C454.525 103.277 450.825 100.277 473.925 100.177C480.625 99.2774 514.325 101.877 508.525 96.4774ZM449.825 114.277C448.825 112.377 453.625 104.677 453.625 113.277C454.025 114.877 452.225 119.677 455.825 119.777C457.525 119.177 453.025 106.477 460.325 109.477C462.725 112.577 458.725 115.777 461.925 119.977C464.625 119.877 460.025 104.277 466.725 110.477C467.125 111.477 465.225 120.977 469.425 118.577C468.425 116.477 469.525 102.877 473.325 111.377C473.825 112.577 470.925 130.077 475.425 126.477C476.025 124.777 473.125 101.377 479.625 110.777C480.125 112.777 478.425 124.477 482.725 117.977C482.925 116.477 480.125 112.877 482.225 109.477C483.825 107.777 487.025 109.777 486.425 113.377C486.225 114.877 484.525 119.177 488.225 119.077C488.125 117.577 487.525 103.077 492.925 111.177C493.725 112.877 490.125 120.477 494.925 119.477C496.625 117.977 492.625 103.977 499.225 110.777C501.025 111.677 496.625 121.677 502.125 120.077C504.025 117.877 499.025 104.277 507.025 110.477C505.525 118.877 508.725 130.677 504.825 137.577C499.425 135.777 503.525 129.077 501.525 123.477C498.425 121.177 498.725 129.477 499.825 134.377C500.525 137.477 495.925 139.277 494.625 134.777C496.725 130.777 493.925 129.377 495.425 124.177C490.225 114.677 494.225 134.677 490.925 136.677C489.125 137.977 488.025 133.777 485.125 136.077C476.725 137.877 485.925 126.577 480.625 123.177C477.525 124.477 481.625 132.677 479.025 135.977C473.625 137.677 477.325 132.377 474.625 128.377C471.925 128.977 476.625 140.277 469.125 134.877C468.725 133.277 471.225 127.877 468.025 127.977C465.725 129.277 468.125 132.977 466.725 135.977C462.825 137.377 462.625 133.877 463.325 129.477C458.925 124.677 463.125 135.577 459.525 136.277C449.825 138.277 462.225 123.777 453.525 122.777C453.425 129.977 452.125 141.977 452.925 149.277C471.225 155.177 487.925 157.777 507.725 162.077C513.125 163.077 507.825 137.677 509.325 131.377C507.925 121.077 512.825 108.177 508.125 104.877C488.525 104.477 469.625 105.277 449.425 104.977C447.325 106.977 448.825 110.177 448.625 114.477C448.525 114.077 448.925 115.177 449.825 114.277ZM460.925 125.677C461.125 126.177 461.525 126.677 461.925 127.077C465.425 126.177 461.325 118.777 460.925 125.677ZM466.825 124.877C467.625 128.477 472.125 123.977 467.725 122.877C467.125 123.177 466.625 123.377 466.825 124.877ZM485.925 131.677C485.925 132.177 486.625 132.477 487.025 132.977C488.225 130.977 489.025 125.777 487.025 122.377C485.425 123.777 485.825 127.077 485.925 131.677ZM432.525 143.677C437.925 144.077 450.925 153.877 448.625 141.577C447.925 135.077 449.425 129.477 447.825 122.977C446.725 124.577 444.625 128.177 441.325 128.777C438.225 130.177 432.325 125.977 430.925 129.977C432.525 132.877 430.025 140.577 432.525 143.677ZM397.925 123.377C400.125 126.577 393.825 139.077 405.525 135.577C404.625 134.077 404.325 130.577 408.225 131.977C411.425 133.877 403.825 136.077 409.925 137.977C415.025 138.277 421.925 143.677 426.825 140.777C426.425 134.977 426.425 126.677 427.125 121.077C424.325 118.177 420.125 113.677 416.425 109.777C414.225 108.177 412.525 103.377 409.525 106.377C406.725 111.177 395.925 116.377 397.925 123.377ZM361.525 125.877C369.825 127.877 380.625 129.377 389.925 132.977C393.325 134.177 392.725 129.877 392.625 125.977C393.825 120.777 390.125 116.077 385.925 111.177C383.425 108.777 382.225 102.977 378.225 107.777C373.625 114.277 358.025 123.077 361.525 125.877ZM306.525 115.577C362.125 123.777 353.525 132.677 353.725 104.677C356.425 47.7774 342.925 93.7774 345.925 67.9774C333.525 79.5774 346.425 110.677 339.725 111.177C331.225 103.377 326.825 92.0774 318.325 82.7774C312.925 90.1774 302.425 96.3774 304.025 107.777C304.525 110.477 302.125 115.277 306.525 115.577ZM274.225 111.177C277.125 109.777 285.525 116.677 284.825 108.977C282.125 100.877 288.325 84.7774 281.025 79.7774C279.325 83.3774 278.325 82.4774 272.625 83.0774C273.225 85.7774 269.325 112.277 274.225 111.177ZM252.625 108.077C251.725 110.377 268.725 111.877 267.725 108.677C267.225 99.8774 263.925 71.4774 279.425 76.0774C272.425 55.5774 268.725 92.8774 253.725 90.8774C250.825 93.7774 253.525 102.477 252.625 108.077ZM245.725 109.777C248.925 108.477 247.325 102.377 247.225 98.3774C247.625 96.7774 248.625 80.0774 245.225 89.2774C245.225 90.1774 245.225 90.9774 245.225 93.8774C245.225 96.2774 246.125 105.177 241.825 99.8774C241.025 86.2774 243.425 72.2774 242.625 57.6774C242.425 53.2774 221.925 51.8774 218.425 56.7774C218.825 73.2774 218.625 88.9774 218.825 106.377C217.925 111.277 239.225 107.477 245.725 109.777ZM174.825 70.7774C173.425 68.8774 169.825 72.4774 175.625 72.3774C175.325 71.7774 175.125 71.1774 174.825 70.7774ZM179.225 64.3774C178.525 63.3774 174.125 68.6774 178.525 67.3774C179.225 66.3774 181.025 66.1774 179.225 64.3774ZM179.825 73.0774C178.525 72.6774 177.025 72.5774 175.725 72.3774C175.725 73.7774 182.925 78.8774 179.825 73.0774ZM189.225 75.4774C187.825 75.2774 183.625 66.6774 181.725 70.3774C186.325 74.3774 188.425 76.3774 179.525 81.2774C167.025 68.7774 171.125 76.0774 179.025 85.2774C181.025 83.2774 190.925 79.4774 189.225 75.4774ZM155.825 110.877C156.325 115.077 161.625 110.677 166.025 111.177C169.425 110.277 175.725 112.477 177.725 108.477C177.025 103.177 179.425 95.2774 176.225 89.7774C171.825 88.9774 164.825 72.8774 166.025 82.6774C165.925 84.7774 162.225 86.2774 161.325 82.1774C153.725 70.7774 156.025 107.177 155.825 110.877ZM113.225 121.077C141.025 116.777 141.925 115.077 124.825 93.6774C118.825 96.9774 109.025 103.877 110.425 113.377C111.025 114.377 108.825 123.977 113.225 121.077ZM91.725 118.277C94.725 117.877 97.525 108.977 92.825 107.277C91.925 109.677 91.425 114.077 91.725 118.277ZM80.325 116.277C83.125 119.277 81.725 111.877 85.725 110.477C86.625 114.977 89.925 109.977 90.225 106.477C83.625 101.577 78.825 106.577 80.325 116.277ZM25.825 148.377C32.625 144.977 39.225 141.777 47.225 139.477C51.125 131.177 46.225 124.077 38.925 117.877C34.225 120.977 30.525 127.477 24.425 130.977C20.125 134.177 22.925 138.677 22.325 143.977C22.725 145.377 19.725 151.877 25.825 148.377Z" fill="white"/>
<path d="M1243.33 76.6773C1233.73 75.2773 1225.43 76.9773 1215.03 79.2773C1200.43 77.1773 1215.83 99.0773 1206.43 97.9773C1200.33 96.4773 1205.43 64.8773 1203.73 59.7773C1204.83 46.0773 1199.23 7.47727 1207.23 10.1773C1213.93 75.3773 1194.63 83.4773 1229.23 63.0773C1228.13 60.3773 1226.53 54.6773 1231.43 52.5773C1224.83 49.5773 1237.63 36.5773 1236.83 57.2773C1241.63 59.7773 1235.23 61.5773 1237.73 64.6773C1243.43 66.9773 1253.53 69.6773 1252.13 78.0773C1250.13 78.2773 1246.93 76.7773 1243.33 76.6773ZM1238.23 70.2773C1231.03 67.6773 1229.13 72.3773 1238.83 70.9773C1238.63 70.6773 1238.43 70.2773 1238.23 70.2773Z" fill="white"/>
<path d="M1077.32 82.4775C1073.72 81.9775 1075.92 88.1775 1071.12 87.6775C1066.12 82.4775 1059.82 79.0775 1054.72 71.9775C1054.02 67.0775 1063.22 67.5775 1062.12 61.7775C1062.42 59.6775 1066.32 38.0775 1068.92 48.7775C1069.92 51.6775 1069.52 52.8775 1067.42 55.5775C1073.52 57.9775 1071.22 57.0775 1069.12 64.1775C1072.02 68.8775 1081.92 76.2775 1077.32 82.4775ZM1073.02 77.8775C1070.72 75.1775 1066.72 70.3775 1061.82 72.0775C1065.32 73.9775 1068.72 76.9775 1072.82 79.4775C1072.92 78.9775 1073.22 78.1775 1073.02 77.8775Z" fill="white"/>
<path d="M689.925 162.477C684.725 152.877 691.125 137.877 687.925 125.677C687.025 122.177 694.725 118.477 692.625 126.777C693.625 128.977 688.625 129.577 692.225 131.977C694.225 138.977 691.225 146.777 691.925 155.577C691.825 156.677 694.225 162.077 689.925 162.477Z" fill="white"/>
<path d="M685.125 156.778C685.325 157.178 686.125 162.378 683.225 162.478C681.625 161.478 681.425 161.978 681.425 157.978C681.625 145.778 681.225 136.878 680.925 124.078C688.225 113.278 684.425 149.978 685.125 156.778Z" fill="white"/>
<path d="M674.725 161.477C674.525 149.077 674.025 138.177 675.025 123.377C680.425 116.977 677.325 138.477 678.025 142.277C678.525 147.877 678.325 150.577 677.925 156.277C678.325 157.477 678.725 163.677 674.725 161.477Z" fill="white"/>
<path d="M628.925 140.977C626.625 143.377 631.025 144.577 629.025 148.777C627.525 151.277 624.625 148.477 625.125 145.077C627.925 143.577 621.325 126.077 628.725 128.377C630.525 130.277 628.525 131.677 628.625 135.177C629.225 137.277 630.925 138.177 628.925 140.977Z" fill="white"/>
<path d="M673.625 45.9775C670.525 45.8775 671.425 42.2775 671.325 38.6775C670.625 36.0775 671.825 27.0775 676.425 32.9775C675.425 35.7775 679.425 45.3775 673.625 45.9775Z" fill="white"/>
<path d="M832.725 58.3772C832.625 42.8772 841.325 58.3772 835.025 65.4772C832.625 64.7772 832.525 62.6772 832.725 58.3772Z" fill="white"/>
<path d="M1213.13 91.0775C1212.23 90.2775 1211.83 78.9775 1213.93 85.4775C1213.93 87.1775 1214.03 88.2775 1216.73 88.7775C1217.83 85.8775 1214.53 84.5775 1216.13 81.8775C1218.03 81.3775 1218.73 82.1775 1219.63 84.5775C1220.13 87.2775 1216.13 94.9775 1213.13 91.0775Z" fill="white"/>
<path d="M602.225 102.377C600.425 101.577 600.825 99.2774 603.725 98.0774C607.725 95.0774 614.125 101.077 608.125 101.877C604.925 99.7774 605.425 105.377 602.225 102.377Z" fill="white"/>
<path d="M346.125 24.7773C343.625 25.6773 342.725 19.1773 346.225 17.9773C348.925 17.4773 351.425 25.5773 346.125 24.7773Z" fill="white"/>
<path d="M1246.62 86.8771C1244.22 87.2771 1243.82 78.6771 1247.42 79.2771C1249.12 80.1771 1249.32 84.9771 1246.62 86.8771Z" fill="white"/>
<path d="M1240.33 79.3777C1240.23 80.5777 1242.53 83.9777 1240.03 85.9777C1237.13 87.6777 1235.23 74.8777 1240.33 79.3777Z" fill="white"/>
<path d="M189.625 91.9772C189.225 89.1772 196.725 87.3772 195.025 92.8772C193.625 94.9772 190.925 94.8772 189.625 91.9772Z" fill="white"/>
<path d="M625.225 155.077C624.825 154.077 625.425 152.077 627.125 151.477C631.425 150.977 629.125 160.977 625.225 155.077Z" fill="white"/>
<path d="M1227.13 78.2773C1227.73 79.4773 1226.63 82.4773 1225.53 84.7773C1221.83 84.7773 1222.53 78.0773 1227.13 78.2773Z" fill="white"/>
<path d="M1232.73 92.7775C1228.33 92.9775 1232.93 81.6775 1234.53 89.8775C1234.43 90.9775 1234.83 92.1775 1232.73 92.7775Z" fill="white"/>
<path d="M1190.12 47.3774C1192.72 46.3774 1197.02 50.4774 1191.32 51.1774C1189.52 51.4774 1186.82 48.9774 1190.12 47.3774Z" fill="white"/>
<path d="M1178.02 89.3772C1177.62 97.9772 1172.02 86.2771 1177.22 85.5771C1178.12 86.3771 1178.22 86.8772 1178.02 89.3772Z" fill="white"/>
<path d="M1244.22 90.3777C1244.72 89.0777 1248.62 87.9776 1247.82 92.0776C1248.72 95.7776 1243.42 95.1777 1244.22 90.3777Z" fill="white"/>
<path d="M1241.53 89.9774C1242.23 91.4774 1242.03 92.8774 1239.83 93.5774C1236.43 93.6774 1237.73 86.7774 1241.53 89.9774Z" fill="white"/>
<path d="M1226.82 90.6774C1225.92 92.6774 1223.32 92.8774 1222.82 90.1774C1222.62 88.4774 1228.82 85.6774 1226.82 90.6774Z" fill="white"/>
<path d="M1189.12 55.4774C1189.62 54.0774 1195.32 56.3774 1193.52 59.2774C1192.52 58.5774 1188.52 59.0774 1189.12 55.4774Z" fill="white"/>
<path d="M1191.73 95.0773C1187.53 97.0773 1186.03 88.5773 1191.83 92.3773C1192.03 92.7773 1193.83 94.1773 1191.73 95.0773Z" fill="white"/>
<path d="M1190.72 72.2773C1195.62 73.2773 1190.22 79.1773 1188.32 73.9773C1188.42 73.3773 1188.92 72.4773 1190.72 72.2773Z" fill="white"/>
<path d="M1183.22 52.3776C1181.52 52.7776 1180.72 46.3776 1184.02 47.8776C1185.82 49.1776 1185.72 51.1776 1183.22 52.3776Z" fill="white"/>
<path d="M1183.63 60.5771C1180.63 60.6771 1181.83 53.6771 1185.13 57.1771C1185.73 58.6771 1185.43 59.9771 1183.63 60.5771Z" fill="white"/>
<path d="M1239.33 100.977C1235.73 101.777 1238.23 93.9773 1240.83 97.8773C1241.53 99.3773 1241.53 100.777 1239.33 100.977Z" fill="white"/>
<path d="M1183.12 69.9776C1179.82 69.1776 1184.02 62.0776 1185.42 68.0776C1185.32 68.6776 1184.62 69.5776 1183.12 69.9776Z" fill="white"/>
<path d="M1189.63 65.0771C1191.93 65.0771 1194.33 70.2772 1189.43 68.8772C1188.53 67.8772 1187.63 66.5771 1189.63 65.0771Z" fill="white"/>
<path d="M1226.22 96.0771C1228.42 96.5771 1226.22 103.377 1223.52 98.9771C1223.82 98.5771 1223.92 96.0771 1226.22 96.0771Z" fill="white"/>
<path d="M1190.12 83.9775C1193.12 84.4775 1193.22 89.2775 1188.62 87.2775C1187.82 85.9775 1188.42 84.5775 1190.12 83.9775Z" fill="white"/>
<path d="M1177.43 57.4773C1177.93 58.1773 1178.33 59.7773 1177.23 61.6773C1175.13 63.3773 1174.03 55.4773 1177.43 57.4773Z" fill="white"/>
<path d="M1232.92 104.678C1229.92 105.578 1229.12 99.6775 1233.22 101.477C1234.32 102.377 1235.02 103.578 1232.92 104.678Z" fill="white"/>
<path d="M1182.62 93.4774C1180.22 92.0774 1183.12 86.2774 1185.12 90.9774C1185.12 91.7774 1184.33 93.1774 1182.62 93.4774Z" fill="white"/>
<path d="M1239.03 108.977C1234.83 107.377 1239.13 102.577 1241.03 107.377C1240.93 107.877 1240.83 108.377 1239.03 108.977Z" fill="white"/>
<path d="M1183.32 83.1775C1181.02 83.3775 1181.42 76.2775 1185.32 80.5775C1185.42 81.0775 1184.92 82.2775 1183.32 83.1775Z" fill="white"/>
<path d="M1232.03 81.6771C1230.03 79.6771 1229.53 77.3771 1235.53 78.2771C1234.53 79.0771 1234.03 81.5771 1232.03 81.6771Z" fill="white"/>
<path d="M1183.62 72.2773C1187.12 72.3773 1183.72 79.1774 1181.72 74.3773C1181.82 73.5773 1182.22 72.5773 1183.62 72.2773Z" fill="white"/>
<path d="M1247.83 99.4772C1247.73 100.277 1247.33 101.377 1245.93 101.677C1242.43 101.577 1245.73 94.7772 1247.83 99.4772Z" fill="white"/>
<path d="M1178.03 49.8774C1177.63 49.9774 1178.23 51.4774 1176.23 52.3774C1173.63 52.2774 1176.63 43.4774 1178.03 49.8774Z" fill="white"/>
<path d="M1177.13 81.0776C1176.03 80.6776 1175.73 81.0776 1175.83 77.9776H1175.93C1175.53 70.7776 1179.63 78.2776 1177.13 81.0776Z" fill="white"/>
<path d="M1245.82 110.378C1242.52 110.278 1245.42 103.578 1247.72 108.678C1247.62 109.278 1247.52 109.778 1245.82 110.378Z" fill="white"/>
<path d="M1189.33 60.7773C1191.03 61.5773 1193.03 62.0773 1194.03 63.8773C1189.33 64.5773 1189.13 64.4773 1189.33 60.7773Z" fill="white"/>
<path d="M1217.93 95.7771C1220.93 95.3771 1219.63 102.077 1216.33 98.1771C1216.23 97.6771 1216.63 96.5771 1217.93 95.7771Z" fill="white"/>
<path d="M1192.72 80.1775C1192.62 80.7775 1192.42 81.2775 1190.72 81.7775C1187.32 81.2775 1190.52 75.5775 1192.72 80.1775Z" fill="white"/>
<path d="M1177.43 67.3777C1177.23 67.6777 1177.93 68.6777 1176.83 69.9777C1174.03 70.4777 1176.13 62.7777 1177.43 67.3777Z" fill="white"/>
<path d="M1121.53 15.0771C1124.83 14.0771 1125.33 22.4771 1120.53 20.7771C1118.83 19.7771 1118.93 14.8771 1121.53 15.0771Z" fill="white"/>
<path d="M1152.42 67.8773C1152.92 68.7773 1154.12 71.2773 1150.92 71.8773C1148.42 72.1773 1149.12 64.0773 1152.42 67.8773Z" fill="white"/>
<path d="M1160.53 41.4775C1163.33 41.4775 1164.93 47.5775 1159.63 45.3775C1158.73 44.2775 1158.33 41.6775 1160.53 41.4775Z" fill="white"/>
<path d="M1149.42 51.9774C1149.02 47.1774 1157.42 51.5774 1151.82 53.9774C1151.02 54.0774 1149.92 53.6774 1149.42 51.9774Z" fill="white"/>
<path d="M1153.73 42.2774C1154.73 42.5774 1155.63 46.1774 1153.33 46.5774C1152.13 46.0774 1147.83 41.5774 1153.73 42.2774Z" fill="white"/>
<path d="M1159.83 58.0773C1156.93 55.2773 1164.93 53.6773 1163.63 57.9773C1163.03 58.8773 1161.83 59.6773 1159.83 58.0773Z" fill="white"/>
<path d="M1152.43 37.8773C1152.23 37.5773 1150.03 35.9773 1151.63 33.9773C1154.23 31.4773 1156.93 38.6773 1152.43 37.8773Z" fill="white"/>
<path d="M1160.42 61.3773C1162.22 61.3773 1165.42 68.6773 1159.22 64.2773C1157.92 63.4773 1158.72 61.2773 1160.42 61.3773Z" fill="white"/>
<path d="M1150.53 82.0773C1151.83 81.9773 1154.33 88.4773 1149.73 86.8773C1148.23 85.9773 1148.53 83.2773 1150.53 82.0773Z" fill="white"/>
<path d="M1154.02 29.3773C1152.52 30.2773 1151.72 29.0773 1151.02 27.0773C1151.52 24.2773 1157.92 26.2773 1154.02 29.3773Z" fill="white"/>
<path d="M1161.72 37.5772C1160.72 36.9772 1159.92 35.8772 1158.72 34.7772C1160.92 31.1772 1165.72 34.6772 1161.72 37.5772Z" fill="white"/>
<path d="M1161.32 18.6777C1158.72 18.8777 1158.62 12.6777 1162.02 14.1777C1162.72 15.5777 1163.42 17.1777 1161.32 18.6777Z" fill="white"/>
<path d="M1160.82 67.9775C1163.92 67.9775 1162.32 74.9775 1159.12 71.2775C1158.62 69.6775 1158.92 68.3775 1160.82 67.9775Z" fill="white"/>
<path d="M1161.42 29.0777C1158.32 28.9777 1160.12 21.9777 1163.22 25.7777C1163.72 27.3777 1163.32 28.5777 1161.42 29.0777Z" fill="white"/>
<path d="M1137.53 50.277C1134.53 50.777 1135.83 42.877 1138.83 47.177C1139.43 48.777 1139.53 49.077 1137.53 50.277Z" fill="white"/>
<path d="M1151.02 79.2775C1147.22 79.7775 1150.22 71.2775 1152.42 76.3775C1152.42 77.3775 1152.62 78.5775 1151.02 79.2775Z" fill="white"/>
<path d="M1142.82 77.7771C1141.72 76.7771 1141.72 73.8771 1143.42 73.0771C1145.62 73.0771 1146.22 78.8771 1142.82 77.7771Z" fill="white"/>
<path d="M1161.33 85.2773C1163.53 84.5773 1165.83 89.8773 1161.23 88.8773C1160.53 88.3773 1158.53 85.9773 1161.33 85.2773Z" fill="white"/>
<path d="M1143.63 81.2773C1146.03 80.8773 1145.23 88.8773 1142.23 84.7773C1142.63 83.9773 1140.93 82.7773 1143.63 81.2773Z" fill="white"/>
<path d="M1160.82 48.8774C1165.72 49.8774 1161.42 55.3774 1158.92 50.6774C1159.02 50.0774 1159.22 49.5774 1160.82 48.8774Z" fill="white"/>
<path d="M1139.03 67.9775C1139.03 68.3775 1139.03 68.7775 1137.93 69.9775C1133.83 71.8775 1135.83 61.8775 1139.03 67.9775Z" fill="white"/>
<path d="M1137.72 74.1772C1139.32 75.4772 1139.52 75.9772 1137.52 78.0772C1135.92 79.2772 1134.12 72.7772 1137.72 74.1772Z" fill="white"/>
<path d="M1136.82 81.0773C1138.82 80.7773 1139.12 86.7773 1135.92 84.7773C1134.62 83.3773 1134.32 82.3773 1136.82 81.0773Z" fill="white"/>
<path d="M1144.02 50.9776C1140.62 50.4776 1144.32 43.4776 1145.92 48.8776C1145.82 49.6776 1145.32 50.8776 1144.02 50.9776Z" fill="white"/>
<path d="M1137.03 58.3771C1134.53 58.3771 1136.23 51.2771 1138.93 55.4771C1139.43 56.9771 1139.13 57.4771 1137.03 58.3771Z" fill="white"/>
<path d="M1152.62 17.2775C1149.12 17.0775 1152.73 10.3775 1154.62 15.1775C1154.62 16.0775 1154.12 17.0775 1152.62 17.2775Z" fill="white"/>
<path d="M1144.02 58.3774C1140.12 57.9774 1143.22 51.6774 1145.72 56.4774C1145.72 57.0774 1145.62 57.5774 1144.02 58.3774Z" fill="white"/>
<path d="M1154.03 22.9771C1153.33 22.5771 1148.73 19.0771 1154.23 19.4771C1155.63 19.4771 1155.73 22.4771 1154.03 22.9771Z" fill="white"/>
<path d="M1161.73 74.5771C1165.03 74.7771 1161.93 81.3771 1159.73 76.2771C1159.83 75.6771 1160.03 75.0771 1161.73 74.5771Z" fill="white"/>
<path d="M1150.72 60.0777C1152.02 59.7777 1154.02 65.0777 1150.12 64.1777C1149.02 63.6777 1149.12 60.4777 1150.72 60.0777Z" fill="white"/>
<path d="M1136.22 40.5774C1135.82 37.2774 1142.82 39.1774 1138.22 42.1774C1137.62 42.1774 1137.12 42.1774 1136.22 40.5774Z" fill="white"/>
<path d="M1143.43 70.5771C1140.63 70.4771 1142.83 64.2771 1145.62 68.5771C1145.32 69.1771 1145.03 69.6771 1143.43 70.5771Z" fill="white"/>
<path d="M1138.33 31.9775C1141.43 32.2775 1138.03 38.6775 1136.23 33.5775C1136.43 33.0775 1136.63 32.4775 1138.33 31.9775Z" fill="white"/>
<path d="M1144.42 17.1772C1142.02 17.5772 1142.92 10.4772 1145.92 14.9772C1145.82 15.5772 1145.82 16.1772 1144.42 17.1772Z" fill="white"/>
<path d="M1138.13 20.9773C1136.43 21.3773 1135.13 16.5773 1138.93 17.5773C1139.33 18.4773 1139.73 20.1773 1138.13 20.9773Z" fill="white"/>
<path d="M1144.73 36.3774C1141.23 36.6774 1144.53 29.3774 1145.83 34.4774C1145.83 35.1774 1145.83 35.7774 1144.73 36.3774Z" fill="white"/>
<path d="M1144.42 29.6773C1141.62 29.9773 1143.42 22.8773 1145.92 27.5773C1145.82 28.0773 1145.82 28.6773 1144.42 29.6773Z" fill="white"/>
<path d="M1143.73 61.9775C1146.63 62.0775 1145.13 67.3775 1142.43 64.3775C1141.83 63.0775 1141.73 62.3775 1143.73 61.9775Z" fill="white"/>
<path d="M1144.73 19.4775C1145.23 19.5775 1145.63 19.6775 1145.83 21.0775C1145.63 24.9775 1140.03 21.3775 1144.73 19.4775Z" fill="white"/>
<path d="M1137.93 28.9771C1135.63 27.8771 1138.43 22.9771 1139.83 27.4771C1139.83 27.9771 1139.33 28.8771 1137.93 28.9771Z" fill="white"/>
<path d="M1145.73 41.2773C1145.83 43.8773 1140.53 42.9773 1144.43 38.7773C1145.03 39.8773 1145.63 40.5773 1145.73 41.2773Z" fill="white"/>
<path d="M1161.83 82.6774C1161.33 82.5774 1160.93 82.6774 1160.53 81.3774C1160.63 78.0774 1166.13 80.8774 1161.83 82.6774Z" fill="white"/>
<path d="M1137.43 61.3774C1139.03 61.5774 1138.13 66.2774 1135.73 63.1774C1135.73 62.6774 1136.23 61.7774 1137.43 61.3774Z" fill="white"/>
<path d="M1156.93 84.9775C1157.83 84.6775 1159.33 88.5775 1156.23 87.3775C1156.13 86.3775 1155.23 86.3775 1156.93 84.9775Z" fill="white"/>
<path d="M1150.03 40.0775C1150.03 40.4775 1149.33 40.8775 1149.03 41.2775C1148.83 41.0775 1147.53 40.1775 1149.03 38.4775C1149.53 39.1775 1150.03 39.6775 1150.03 40.0775Z" fill="white"/>
<path d="M1162.43 20.5771C1162.53 20.7771 1162.03 22.1771 1160.03 21.2771C1160.63 20.9771 1161.23 18.8771 1162.43 20.5771Z" fill="white"/>
<path d="M749.725 99.7773C753.725 100.777 750.225 118.177 751.325 122.777C751.025 129.177 752.325 138.477 750.725 145.477C745.125 146.277 748.025 139.677 747.625 135.277C749.125 123.077 744.325 107.477 749.725 99.7773Z" fill="white"/>
<path d="M740.625 95.5775C739.025 94.3775 737.725 93.4775 734.325 95.0775C721.625 89.8775 753.425 90.3775 740.625 95.5775Z" fill="white"/>
<path d="M723.425 100.977C723.425 100.777 723.525 100.577 723.525 100.477C723.725 100.077 724.125 99.5773 725.325 98.8773C728.725 99.2773 727.925 102.577 726.225 102.977V104.477C727.525 106.177 728.125 110.577 731.325 108.377C730.325 106.977 728.025 106.577 728.825 103.077C730.325 104.577 738.525 106.277 735.525 101.277C734.725 103.677 726.125 102.377 731.225 98.9773C735.425 100.577 741.025 96.8773 745.025 100.277C743.925 107.577 744.725 115.577 744.525 124.877C742.725 126.577 742.825 125.877 739.025 125.377C736.125 124.877 729.825 125.377 726.125 124.477V124.777H723.425V122.777C723.325 122.377 723.325 121.977 723.425 121.477V101.277C723.525 101.177 723.425 101.077 723.425 100.977ZM733.325 108.077C733.825 108.777 733.125 107.777 735.525 110.477C738.825 109.277 734.325 103.477 733.325 108.077ZM739.725 101.177C739.425 101.877 737.825 103.477 739.625 104.877C740.925 104.377 744.425 103.277 739.725 101.177ZM732.625 121.177C732.525 120.677 731.825 119.677 730.325 119.377C729.325 120.177 731.025 122.677 732.625 121.177ZM729.625 117.677C730.825 119.577 736.025 113.477 734.725 121.877C738.025 123.677 735.225 115.477 739.225 118.877C740.225 119.677 737.825 122.977 742.225 121.877C740.525 120.477 742.325 116.877 740.425 115.577C738.625 117.677 734.325 114.277 738.325 113.377C741.025 114.677 742.625 110.677 740.625 107.777C739.125 111.877 738.425 112.777 732.025 110.777C730.625 111.577 729.125 112.977 727.525 110.277C727.025 110.577 726.625 110.777 726.325 110.877V113.177C728.525 112.977 731.925 113.777 734.325 112.977C737.925 116.277 729.325 114.677 729.625 117.677ZM729.225 120.577C728.925 120.177 728.625 119.577 728.325 119.577C726.325 118.877 724.525 124.377 729.225 120.577ZM726.225 117.577C726.225 117.777 730.125 115.577 727.325 114.977C727.025 115.177 726.625 115.577 726.125 115.777L726.225 117.577C726.225 117.677 726.225 117.677 726.225 117.577Z" fill="white"/>
<path d="M741.625 130.978C742.525 130.978 743.725 131.378 743.925 133.078C743.925 136.078 737.525 133.578 741.625 130.978Z" fill="white"/>
<path d="M461.224 142.177C459.024 142.777 461.825 146.677 458.325 146.177C453.825 140.977 453.924 137.377 463.624 139.277C466.224 138.777 477.224 137.377 471.924 143.177C468.624 142.077 465.524 143.377 461.224 142.177Z" fill="white"/>
<path d="M491.425 143.878C490.225 144.878 487.625 143.178 486.425 142.178C483.825 144.678 481.925 144.578 480.125 140.478C478.125 147.078 469.225 139.378 477.925 138.478C480.625 138.878 484.825 139.578 487.525 140.478C488.625 136.478 496.525 140.478 491.425 143.878Z" fill="white"/>
<path d="M497.425 144.878C494.025 144.478 493.525 137.478 499.025 139.478C501.425 140.978 500.525 144.178 497.425 144.878Z" fill="white"/>
<path d="M502.225 139.977C504.625 137.377 507.425 139.478 506.725 143.578C505.325 146.978 500.325 143.977 502.225 139.977Z" fill="white"/>
<path d="M504.025 150.777C503.425 152.177 492.025 150.977 497.425 147.777C498.625 147.977 503.725 147.177 504.025 150.777Z" fill="white"/>
<path d="M489.625 147.777C490.425 147.677 490.725 147.677 492.925 148.777C492.425 152.677 483.925 150.677 489.625 147.777Z" fill="white"/>
<path d="M480.725 149.477C480.525 148.877 480.325 147.877 481.325 146.877C485.525 145.777 486.125 153.977 480.725 149.477Z" fill="white"/>
<path d="M470.825 146.377C475.125 146.477 470.425 153.077 468.825 147.777C468.925 146.877 469.425 146.277 470.825 146.377Z" fill="white"/>
<path d="M477.125 146.377C481.425 146.477 476.525 153.377 475.525 147.577C475.625 147.077 475.625 146.577 477.125 146.377Z" fill="white"/>
<path d="M465.825 145.678C468.225 146.578 464.425 150.678 463.725 147.078C463.825 146.278 464.025 145.578 465.825 145.678Z" fill="white"/>
<path d="M346.825 79.5775C351.525 79.0775 349.025 91.2775 344.425 84.9775C344.125 83.1775 343.525 79.6775 346.825 79.5775Z" fill="white"/>
<path d="M329.025 108.777C331.025 110.777 325.525 115.177 322.625 112.577C321.025 109.577 326.225 106.977 329.025 108.777Z" fill="white"/>
<path d="M348.825 90.3775C350.625 90.5775 351.025 98.4775 346.925 95.7775C345.625 94.9775 345.825 90.2775 348.825 90.3775Z" fill="white"/>
<path d="M347.025 113.877C346.725 113.077 346.725 111.977 347.925 110.777C352.825 108.577 350.725 121.677 347.025 113.877Z" fill="white"/>
<path d="M312.325 106.877C314.025 107.377 315.625 113.377 310.725 111.577C309.125 110.477 309.725 107.477 312.325 106.877Z" fill="white"/>
<path d="M348.825 100.277C351.125 100.677 350.425 107.677 346.925 103.877C346.225 103.277 346.025 100.277 348.825 100.277Z" fill="white"/>
<path d="M319.625 96.5771C322.625 98.0771 322.925 101.377 318.925 101.077C317.625 99.5771 317.625 97.5771 319.625 96.5771Z" fill="white"/>
<path d="M235.125 61.0775C234.525 61.5775 223.625 58.4775 232.925 57.6775C234.725 56.6775 240.325 59.9775 235.125 61.0775Z" fill="white"/>
<path d="M232.425 94.4775C234.225 94.4775 241.725 97.2775 233.825 97.9775C233.825 97.9775 233.825 97.9775 233.825 98.0775C231.425 99.2775 226.925 95.0775 232.425 94.4775Z" fill="white"/>
<path d="M223.725 79.6777C227.025 80.4777 227.625 85.2777 222.925 84.3777C221.425 83.3777 221.225 80.1777 223.725 79.6777Z" fill="white"/>
<path d="M231.525 79.7773C236.125 81.1773 230.725 88.7773 229.125 82.0773C229.325 81.3773 230.125 80.2773 231.525 79.7773Z" fill="white"/>
<path d="M223.525 71.5771C228.325 72.0771 226.525 78.0771 222.025 75.0771C221.425 73.6771 221.625 72.1771 223.525 71.5771Z" fill="white"/>
<path d="M224.425 61.0773C222.125 61.9773 220.225 56.0773 224.625 57.1773C226.825 57.4773 227.925 60.0773 224.425 61.0773Z" fill="white"/>
<path d="M236.525 75.9776C233.025 76.3776 234.525 68.7776 238.325 72.9776C239.225 74.4776 238.725 75.4776 236.525 75.9776Z" fill="white"/>
<path d="M221.824 90.0775C221.924 89.3775 222.525 88.4775 224.225 88.4775C229.425 89.7775 223.924 95.3775 221.824 90.0775Z" fill="white"/>
<path d="M223.825 100.877C226.325 100.877 226.025 108.177 222.025 104.177C221.525 102.677 221.825 101.277 223.825 100.877Z" fill="white"/>
<path d="M230.425 71.6777C233.525 71.8777 234.525 75.5777 230.425 75.6777C228.925 74.4777 228.425 73.3777 230.425 71.6777Z" fill="white"/>
<path d="M231.425 100.877C236.025 100.777 233.625 108.077 229.925 102.677C229.725 101.977 229.925 101.077 231.425 100.877Z" fill="white"/>
<path d="M223.625 64.1773C228.625 63.9773 223.625 71.3773 221.825 65.7773C221.825 65.0773 222.025 64.2773 223.625 64.1773Z" fill="white"/>
<path d="M236.625 84.6776C233.825 84.8776 235.425 76.9776 238.625 81.9776C238.625 82.5776 238.125 83.7776 236.625 84.6776Z" fill="white"/>
<path d="M231.925 92.1771C227.425 91.6771 232.425 85.2771 233.625 90.8771C233.525 91.3771 233.425 91.9771 231.925 92.1771Z" fill="white"/>
<path d="M231.825 64.5771C232.525 64.8771 232.925 65.6771 233.525 66.2771C232.225 69.2771 225.925 66.5771 231.825 64.5771Z" fill="white"/>
<path d="M223.625 97.9777C220.425 97.6777 224.125 92.3777 225.525 96.9777C225.325 97.5777 225.225 98.0777 223.625 97.9777Z" fill="white"/>
<path d="M236.125 67.8772C235.425 67.6772 234.925 66.9772 234.325 66.4772C235.225 66.0772 235.925 63.8772 237.725 66.4772C237.025 67.0772 236.425 67.9772 236.125 67.8772Z" fill="white"/>
<path d="M237.125 90.8774C237.825 90.2774 237.625 90.2774 237.125 91.6774C237.125 91.3774 237.125 91.1774 237.125 90.8774Z" fill="white"/>
<path d="M237.125 90.2773C237.125 90.4773 237.125 90.6773 237.125 90.8773C236.925 91.0773 236.625 91.2773 236.325 91.4773C234.825 89.6773 235.925 90.7773 237.125 90.2773Z" fill="white"/>
<path d="M236.325 91.5771C237.125 91.7771 237.125 91.6771 236.325 91.5771Z" fill="white"/>
<path d="M237.825 89.8776C237.625 90.0776 237.325 90.2776 237.125 90.3776C237.125 88.8776 237.025 88.8776 237.825 89.8776Z" fill="white"/>
<path d="M479.125 84.1776C477.025 85.4776 477.925 89.2776 477.725 93.0776C472.925 100.378 472.725 87.4776 473.525 82.2776C473.025 80.1776 480.725 80.0776 483.725 80.2776C485.325 84.0776 486.025 90.9776 483.825 95.3776C477.625 96.2776 481.625 88.8776 479.125 84.1776Z" fill="white"/>
<path d="M499.025 84.7774C499.325 86.9774 499.324 99.9774 493.924 95.3774C494.524 87.5774 493.625 80.7774 495.325 73.4774C502.425 70.2774 498.425 79.9774 499.025 84.7774Z" fill="white"/>
<path d="M458.725 87.8777C458.425 76.8777 465.725 80.4777 462.225 92.6777C459.725 94.5777 458.125 92.7777 458.725 87.8777Z" fill="white"/>
<path d="M855.025 107.977C852.725 101.777 870.225 104.577 874.925 103.877C879.125 104.977 896.825 100.677 893.525 108.277C881.425 110.477 868.225 108.577 855.025 107.977Z" fill="white"/>
<path d="M876.025 113.378C880.025 114.678 884.425 113.178 890.025 112.678C901.225 115.778 880.025 115.978 876.625 117.678C875.225 117.778 871.925 114.678 876.025 113.378Z" fill="white"/>
<path d="M855.925 114.077C859.725 112.377 868.325 117.077 858.225 117.777C856.525 118.677 850.925 116.077 855.925 114.077Z" fill="white"/>
<path d="M866.325 113.377C869.825 112.177 872.525 118.477 866.425 117.777C864.225 117.977 862.725 113.977 866.325 113.377Z" fill="white"/>
<path d="M1013.93 65.1775C1031.43 62.9775 1066.13 68.6775 1028.03 69.4775C1025.33 69.2775 1003.93 71.0775 1013.93 65.1775Z" fill="white"/>
<path d="M1013.93 58.9773C1031.43 56.7773 1066.13 62.4773 1028.03 63.2773C1025.33 63.0773 1003.93 64.8773 1013.93 58.9773Z" fill="white"/>
<path d="M1013.93 52.7771C1031.43 50.5771 1066.13 56.2771 1028.03 57.0771C1025.33 56.8771 1003.93 58.6771 1013.93 52.7771Z" fill="white"/>
<path d="M1013.93 83.1775C1031.43 80.9775 1066.13 86.6775 1028.03 87.4775C1025.33 87.2775 1003.93 89.0775 1013.93 83.1775Z" fill="white"/>
<path d="M1013.93 76.9773C1031.43 74.7773 1066.13 80.4773 1028.03 81.2773C1025.33 81.0773 1003.93 82.8773 1013.93 76.9773Z" fill="white"/>
<path d="M1013.93 70.7771C1031.43 68.5771 1066.13 74.2771 1028.03 75.0771C1025.33 74.8771 1003.93 76.6771 1013.93 70.7771Z" fill="white"/>
<path d="M985.825 50.6776C982.725 50.6776 979.525 50.6776 976.425 50.6776C972.325 50.6776 967.325 50.6776 961.725 50.6776C958.825 50.6776 955.525 50.6776 951.025 50.6776C948.125 50.6776 944.725 50.6776 940.125 50.6776C892.425 48.7776 1004.22 43.7776 985.825 50.6776Z" fill="white"/>
<path d="M985.825 46.3773C982.725 46.3773 979.525 46.3773 976.425 46.3773C972.325 46.3773 967.325 46.3773 961.725 46.3773C958.825 46.3773 955.525 46.3773 951.025 46.3773C948.125 46.3773 944.725 46.3773 940.125 46.3773C892.425 44.4773 1004.22 39.4773 985.825 46.3773Z" fill="white"/>
<path d="M976.425 42.0774C972.325 42.0774 967.325 42.0774 961.725 42.0774C958.825 42.0774 955.525 42.0774 951.025 42.0774C948.125 42.0774 944.725 42.0774 940.125 42.0774C889.225 38.0774 1028.22 37.8774 976.425 42.0774Z" fill="white"/>
<path d="M976.425 63.1776C972.325 63.1776 967.325 63.1776 961.725 63.1776C958.825 63.1776 955.525 63.1776 951.025 63.1776C948.125 63.1776 944.725 63.1776 940.125 63.1776C892.525 61.2776 1004.33 56.2776 985.925 63.1776C982.625 63.1776 979.525 63.1776 976.425 63.1776Z" fill="white"/>
<path d="M985.825 58.8773C982.725 58.8773 979.525 58.8773 976.425 58.8773C972.325 58.8773 967.325 58.8773 961.725 58.8773C958.825 58.8773 955.525 58.8773 951.025 58.8773C948.125 58.8773 944.725 58.8773 940.125 58.8773C892.425 57.0773 1004.22 51.9773 985.825 58.8773Z" fill="white"/>
<path d="M985.825 54.5776C982.725 54.5776 979.525 54.5776 976.425 54.5776C972.325 54.5776 967.325 54.5776 961.725 54.5776C958.825 54.5776 955.525 54.5776 951.025 54.5776C948.125 54.5776 944.725 54.5776 940.125 54.5776C892.425 52.7776 1004.22 47.7776 985.825 54.5776Z" fill="white"/>
<path d="M985.825 76.6771C982.725 76.6771 979.525 76.6771 976.425 76.6771C972.325 76.6771 967.325 76.6771 961.725 76.6771C958.825 76.6771 955.525 76.6771 951.025 76.6771C948.125 76.6771 944.725 76.6771 940.125 76.6771C892.425 74.8771 1004.22 69.7771 985.825 76.6771Z" fill="white"/>
<path d="M985.825 72.3773C982.725 72.3773 979.525 72.3773 976.425 72.3773C972.325 72.3773 967.325 72.3773 961.725 72.3773C958.825 72.3773 955.525 72.3773 951.025 72.3773C948.125 72.3773 944.725 72.3773 940.125 72.3773C892.425 70.5773 1004.22 65.4773 985.825 72.3773Z" fill="white"/>
<path d="M985.825 67.7777C982.725 67.7777 979.525 67.7777 976.425 67.7777C972.325 67.7777 967.325 67.7777 961.725 67.7777C958.825 67.7777 955.525 67.7777 951.025 67.7777C948.125 67.7777 944.725 67.7777 940.125 67.7777C892.425 65.9777 1004.22 60.8777 985.825 67.7777Z" fill="white"/>
<path d="M985.825 89.2772C982.725 89.2772 979.525 89.2772 976.425 89.2772C972.325 89.2772 967.325 89.2772 961.725 89.2772C958.825 89.2772 955.525 89.2772 951.025 89.2772C948.125 89.2772 944.725 89.2772 940.125 89.2772C892.425 87.3772 1004.22 82.3772 985.825 89.2772Z" fill="white"/>
<path d="M985.825 84.9774C982.725 84.9774 979.525 84.9774 976.425 84.9774C972.325 84.9774 967.325 84.9774 961.725 84.9774C958.825 84.9774 955.525 84.9774 951.025 84.9774C948.125 84.9774 944.725 84.9774 940.125 84.9774C892.425 83.0774 1004.22 78.0774 985.825 84.9774Z" fill="white"/>
<path d="M985.825 80.6776C982.725 80.6776 979.525 80.6776 976.425 80.6776C972.325 80.6776 967.325 80.6776 961.725 80.6776C958.825 80.6776 955.525 80.6776 951.025 80.6776C948.125 80.6776 944.725 80.6776 940.125 80.6776C892.425 78.7776 1004.22 73.7776 985.825 80.6776Z" fill="white"/>
<path d="M562.025 152.877C558.025 152.077 562.325 147.977 565.825 150.377C568.525 151.277 570.925 166.477 565.025 163.277C562.525 160.277 567.425 154.777 562.025 152.877Z" fill="white"/>
<path d="M562.125 146.278C560.025 146.078 557.725 143.778 558.525 140.078C560.025 136.378 565.525 142.978 562.125 146.278Z" fill="white"/>
<path d="M560.325 163.178C558.825 163.178 558.025 160.878 558.425 158.978C558.925 154.578 565.225 160.878 560.325 163.178Z" fill="white"/>
<path d="M782.425 132.377C783.825 130.977 790.025 132.077 790.025 129.377C790.225 127.177 789.925 125.777 792.025 125.077C795.425 127.277 797.525 131.577 802.725 134.177C805.125 137.777 774.025 138.577 782.425 132.377Z" fill="white"/>
<path d="M409.725 122.877C411.525 123.877 412.825 123.677 417.125 123.677C418.425 124.177 425.025 121.977 424.025 126.177C422.825 126.977 423.625 127.477 420.325 127.277C414.525 125.577 409.825 129.477 403.625 126.977C401.225 124.677 406.625 120.877 409.725 122.877Z" fill="white"/>
<path d="M415.224 120.677C415.024 120.677 414.725 120.677 414.525 120.677C410.325 121.977 408.024 116.177 413.724 115.077C416.524 115.077 421.224 120.877 415.224 120.677Z" fill="white"/>
<path d="M417.225 131.277C420.225 130.177 428.025 136.377 419.425 136.177C417.125 137.377 412.925 132.677 417.225 131.277Z" fill="white"/>
<path d="M163.225 86.9774C163.325 86.9774 163.425 86.9774 163.625 86.9774C167.725 85.8774 168.725 93.1774 162.125 91.1774C160.525 90.5774 160.025 86.3774 163.225 86.9774Z" fill="white"/>
<path d="M163.525 101.777C164.825 101.277 165.625 102.777 165.325 105.377C165.325 105.377 165.325 105.377 165.425 105.377C166.125 112.177 158.025 106.477 163.525 101.777Z" fill="white"/>
<path d="M1101.32 77.6774C1104.02 75.7774 1109.12 82.9774 1102.52 82.5774C1099.92 83.3774 1097.92 79.9774 1101.32 77.6774Z" fill="white"/>
<path d="M536.625 142.977C540.925 141.177 539.825 148.977 539.225 151.277C536.825 152.877 533.925 145.077 536.625 142.977Z" fill="white"/>
<path d="M545.025 157.277C547.325 156.477 549.025 164.277 544.525 162.877C543.725 161.877 541.325 158.277 545.025 157.277Z" fill="white"/>
<path d="M540.325 138.077C538.925 139.777 536.125 139.177 535.025 136.877C535.025 134.477 542.125 133.477 540.325 138.077Z" fill="white"/>
<path d="M547.925 135.577C548.225 136.177 548.925 137.877 547.225 139.377C542.625 140.677 543.525 131.077 547.925 135.577Z" fill="white"/>
<path d="M544.425 149.477C547.425 148.677 550.125 155.877 544.225 153.677C543.025 152.577 542.025 150.777 544.425 149.477Z" fill="white"/>
<path d="M537.725 155.177C540.825 155.077 540.125 160.977 537.125 159.877C534.625 158.177 534.325 156.177 537.725 155.177Z" fill="white"/>
<path d="M545.425 142.978C549.025 143.378 549.025 148.778 543.525 146.578C542.425 145.378 542.725 143.478 545.425 142.978Z" fill="white"/>
<path d="M543.525 140.977C542.725 140.477 543.925 142.877 540.525 141.177C541.325 140.877 542.225 138.877 543.525 140.977Z" fill="white"/>
<path d="M34.8248 128.377C33.9248 122.577 43.2248 126.877 39.6248 131.577C37.4248 132.477 34.8248 131.677 34.8248 128.377Z" fill="white"/>
<path d="M32.125 136.678C35.325 137.078 38.725 145.578 31.225 141.078C30.525 140.278 29.625 137.978 32.125 136.678Z" fill="white"/>
<path d="M120.425 112.877C124.625 113.677 120.025 109.277 120.425 107.077C122.125 104.677 124.325 102.277 126.925 104.777C128.225 106.577 124.025 108.077 125.325 111.177C125.025 112.477 127.625 114.477 123.625 116.777C121.325 118.377 115.325 113.777 120.425 112.877Z" fill="white"/>
<path d="M132.125 111.077C132.425 111.277 133.625 112.477 134.525 114.377C129.625 118.277 125.325 106.777 132.125 111.077Z" fill="white"/>
<path d="M383.525 117.078C384.425 119.378 389.825 120.978 387.625 124.878C386.525 125.978 385.425 126.578 383.925 124.378C382.625 123.278 381.725 122.478 381.225 121.978C380.125 135.478 369.925 112.978 383.525 117.078ZM380.325 120.578C380.425 120.678 380.525 120.778 380.725 120.878C381.025 119.678 381.025 119.778 380.325 120.578ZM381.325 119.578C381.325 120.278 381.325 120.878 381.225 121.378C383.125 122.778 383.925 121.778 381.325 119.578ZM380.525 121.378C380.225 121.278 380.325 121.578 380.225 122.478C380.425 122.078 380.425 121.678 380.525 121.378Z" fill="white"/>
<path d="M368.025 121.577C370.825 118.977 375.225 125.477 369.325 125.877C366.825 125.977 364.025 123.477 368.025 121.577Z" fill="white"/>
<path d="M835.525 127.377C838.525 126.977 838.125 131.477 833.825 128.977C834.525 128.277 834.925 127.677 835.525 127.377Z" fill="white"/>
<path d="M280.525 94.9773C282.025 101.377 274.125 101.277 277.525 91.4773C278.625 89.4773 281.225 91.0773 280.525 94.9773Z" fill="white"/>
<path d="M279.025 103.978C281.825 104.578 280.525 111.778 277.125 108.078C276.425 106.278 276.725 104.578 279.025 103.978Z" fill="white"/>
</svg>
