<svg width="121" height="90" viewBox="0 0 121 90" fill="none" xmlns="http://www.w3.org/2000/svg">
<g clip-path="url(#clip0_444_125)">
<path d="M16.9597 81.6754C17.4143 81.3755 18.063 81.2506 18.6564 81.1468" stroke="white" stroke-width="2" stroke-miterlimit="10" stroke-linecap="round"/>
<path d="M22.2063 81.1529C25.2308 81.1116 28.2002 81.0915 31.217 80.8659C40.2544 80.3191 49.5674 77.8562 57.4078 73.2143C62.7128 70.0481 68.4436 64.5335 67.4994 57.9694C67.0445 54.6496 65.8325 51.9958 63.5991 49.4857C61.1297 46.6919 58.7155 43.8769 56.2462 41.0832C52.3272 36.6633 48.9847 33.0824 48.9327 26.8613C48.9094 22.6888 52.103 19.9611 56.0633 19.0602C69.9168 15.7226 83.1702 23.1635 96.0847 26.9279" stroke="white" stroke-width="2" stroke-miterlimit="10" stroke-linecap="round" stroke-dasharray="5.98 5.98"/>
<path d="M97.73 27.4177C98.2969 27.5739 98.8637 27.7301 99.4097 27.8319" stroke="white" stroke-width="2" stroke-miterlimit="10" stroke-linecap="round"/>
<path d="M85.3297 33.3785C85.8604 33.1117 86.412 32.8993 87.0055 32.7956" stroke="white" stroke-width="2" stroke-miterlimit="10" stroke-linecap="round"/>
<path d="M90.464 32.4001C90.6504 32.3908 90.8368 32.3814 91.0232 32.372C93.6463 32.1108 96.298 32.0883 98.9002 31.7727C101.261 31.4878 103.585 30.7799 105.896 30.202C106.414 30.0652 107.002 30.2757 107.241 29.7466C107.913 28.3646 100.533 23.8417 99.6051 23.0758C98.1574 21.9482 96.9303 20.7356 95.6272 19.49" stroke="white" stroke-width="2" stroke-miterlimit="10" stroke-linecap="round" stroke-dasharray="5.89 5.89"/>
<path d="M94.4342 18.2019C94.0042 17.7434 93.4297 17.4029 92.8439 17.6909" stroke="white" stroke-width="2" stroke-miterlimit="10" stroke-linecap="round"/>
</g>
<defs>
<clipPath id="clip0_444_125">
<rect width="109" height="53" fill="white" transform="translate(0.208496 39.8198) rotate(-21.0608)"/>
</clipPath>
</defs>
</svg>
