<svg width="121" height="121" viewBox="0 0 121 121" fill="none" xmlns="http://www.w3.org/2000/svg">
<path d="M108 54C108 24.2 83.8 0 54 0C24.2 0 0 24.2 0 54C0 83.8 24.2 108 54 108C67.5 108 79.8 103 89.2 94.9L114.6 120.3L120.3 114.6L94.9 89.2C103 79.8 108 67.5 108 54ZM54 100C28.6 100 8 79.4 8 54C8 28.6 28.6 8 54 8C79.4 8 100 28.6 100 54C100 79.4 79.4 100 54 100Z" fill="black"/>
<path d="M24.6001 29.9L30.8001 35C36.5001 28 45.0001 24 54.0001 24V16C42.6001 16 31.9001 21.1 24.6001 29.9Z" fill="black"/>
<path d="M16 53.9998H24C24 51.8998 24.2 49.8998 24.6 47.8998L16.8 46.2998C16.3 48.7998 16 51.3998 16 53.9998Z" fill="black"/>
</svg>
