<svg width="67" height="67" viewBox="0 0 67 67" fill="none" xmlns="http://www.w3.org/2000/svg">
<path d="M19.2189 0.900911C17.4983 1.97369 16.0692 3.13712 14.8735 4.43653C13.6194 5.8115 13.3132 6.53676 13.4153 7.98727C13.459 8.54632 13.5319 9.09026 13.5903 9.19603C13.6632 9.30179 14.2756 8.80318 15.3255 7.77573C17.2212 5.91727 18.4461 4.49697 19.1898 3.31843C19.7585 2.41186 20.5751 0.523173 20.5022 0.281422C20.473 0.205874 19.9043 0.477845 19.2189 0.900911Z" fill="#FFDE00"/>
<path d="M46.4873 0.326374C46.5019 0.74944 47.3622 2.57769 48.033 3.63536C48.9371 5.05565 53.1805 9.4374 53.3992 9.21076C53.6617 8.93879 53.5888 6.49105 53.3117 5.94711C52.6993 4.78368 50.4828 2.66835 48.4559 1.3236C47.0123 0.356593 46.4873 0.0846224 46.4873 0.326374Z" fill="#FFDE00"/>
<path d="M11.0384 6.44562C9.36151 8.36453 7.85956 10.8123 7.39293 12.4139C7.13045 13.2902 7.11587 13.5471 7.24711 14.2119C7.39293 14.9221 8.12203 16.5388 8.23869 16.4179C8.39909 16.2366 10.2656 12.5952 10.6739 11.6433C11.3009 10.1777 11.5634 9.36176 11.7675 8.22854C11.9717 7.08022 12.0446 5.58438 11.9134 5.58438C11.855 5.58438 11.4613 5.97723 11.0384 6.44562Z" fill="#FFDE00"/>
<path d="M55.0179 6.44581C55.2949 9.3015 55.7761 10.7369 57.6135 14.2423L58.78 16.4785L59.1883 15.7533C60.2966 13.8041 59.9903 12.2176 57.8759 8.96909C56.9864 7.59413 55.3241 5.58456 55.0762 5.58456C55.0033 5.58456 54.9741 5.9623 55.0179 6.44581Z" fill="#FFDE00"/>
<path d="M18.7378 6.88414C18.2566 7.00501 17.3817 7.36764 16.7692 7.70005C15.6756 8.28932 13.9695 9.49808 13.9695 9.67939C13.9695 9.89093 15.7047 10.3291 16.5213 10.3291C17.2359 10.314 17.8046 10.1478 19.5836 9.40742C20.7939 8.90881 22.2083 8.34976 22.7625 8.15333C23.302 7.97202 23.7394 7.80581 23.7394 7.76049C23.7394 7.63961 22.4562 7.03523 21.7709 6.85392C20.8522 6.59705 19.8315 6.61216 18.7378 6.88414Z" fill="#FFDE00"/>
<path d="M45.175 6.85372C44.5334 7.03503 43.2793 7.63941 43.2793 7.76029C43.2793 7.80562 43.7168 7.97182 44.2709 8.16825C44.8104 8.34956 46.2395 8.90861 47.4352 9.40722C49.9287 10.4347 50.6432 10.5253 52.1452 10.0569C53.0347 9.76985 53.0493 9.75474 52.8014 9.46766C52.3785 8.99927 50.9203 8.01715 49.7975 7.4581C48.1643 6.65729 46.5748 6.44576 45.175 6.85372Z" fill="#FFDE00"/>
<path d="M14.2611 11.7795C13.2112 12.0061 11.8405 12.7918 10.9072 13.6984C9.95937 14.6049 8.54491 16.4483 8.66157 16.6447C8.70531 16.7052 9.27401 16.7354 9.94479 16.7203C11.5051 16.6598 11.9279 16.4332 14.4798 14.3481C15.6026 13.4264 16.6963 12.55 16.9296 12.4141C17.1483 12.2781 17.3233 12.127 17.3233 12.0665C17.3233 11.7795 15.1943 11.583 14.2611 11.7795Z" fill="#FFDE00"/>
<path d="M50.439 11.7946C49.8266 11.9155 49.5787 12.0364 49.7099 12.127C50.0307 12.3688 53.3263 14.9827 54.0408 15.5569C54.5657 15.9951 55.2657 16.403 55.7031 16.539C56.4906 16.7808 58.2258 16.8563 58.3571 16.6448C58.4737 16.4483 56.928 14.4539 56.0094 13.6078C55.0178 12.6861 53.7346 11.991 52.6263 11.7795C51.7368 11.6133 51.3431 11.6133 50.439 11.7946Z" fill="#FFDE00"/>
<path d="M4.68073 14.4994C3.86414 16.2672 3.22253 18.4429 3.0038 20.0748C2.77049 21.9181 3.01838 22.7492 4.12661 23.9881C4.54949 24.4565 4.94321 24.804 4.98695 24.7587C5.14736 24.6076 5.78897 21.0267 5.96395 19.2891C6.1681 17.4608 6.02228 15.693 5.52649 14.1065L5.26401 13.2151L4.68073 14.4994Z" fill="#FFDE00"/>
<path d="M61.3756 14.4843C60.7632 16.8262 60.8215 18.8962 61.5944 22.87C61.7839 23.8673 61.9881 24.7134 62.0318 24.7587C62.0756 24.8041 62.4693 24.4565 62.9068 23.973C63.9858 22.7643 64.2337 21.8879 64.0004 20.0446C63.7963 18.3976 63.1255 16.1765 62.3526 14.5749C62.0318 13.9101 61.7548 13.351 61.7256 13.3208C61.711 13.2906 61.5506 13.8194 61.3756 14.4843Z" fill="#FFDE00"/>
<path d="M10.9072 18.1861C8.99697 18.6243 7.40753 20.0597 6.38678 22.2808C5.81808 23.5198 5.40979 24.7285 5.52644 24.8494C5.62852 24.9552 7.26171 24.4717 7.84499 24.1695C8.53034 23.8069 9.23028 23.006 10.251 21.4498C10.7176 20.7396 11.4176 19.7122 11.8113 19.1682C12.1904 18.6092 12.5112 18.1257 12.5112 18.0652C12.5112 17.9293 11.8113 17.9746 10.9072 18.1861Z" fill="#FFDE00"/>
<path d="M54.5076 18.0501C54.5076 18.0955 54.7555 18.4883 55.0617 18.9265C55.3679 19.3647 56.0678 20.3921 56.6074 21.2231C57.7739 22.9909 58.4593 23.7917 59.1738 24.1695C59.7571 24.4717 61.3903 24.9552 61.4924 24.8494C61.609 24.7134 61.2007 23.5047 60.6174 22.2506C59.5821 20.0144 57.8614 18.5034 55.9074 18.1408C54.945 17.9595 54.5076 17.9293 54.5076 18.0501Z" fill="#FFDE00"/>
<path d="M1.07885 23.2173C0.685137 24.5167 0.597645 27.9768 0.903868 29.7748C1.15176 31.1951 1.5309 31.9959 2.30374 32.6759C2.9891 33.2802 4.34523 33.9299 4.34523 33.6429C4.34523 33.5371 4.24315 32.5399 4.1265 31.4218C3.74737 27.9164 3.16408 26.0126 1.83712 23.8972C1.51631 23.3835 1.22467 22.9604 1.19551 22.9604C1.18093 22.9604 1.1226 23.0813 1.07885 23.2173Z" fill="#FFDE00"/>
<path d="M65.269 23.7613C63.7379 26.1335 63.1254 28.3244 62.7463 32.7363L62.6588 33.8242L63.3879 33.522C64.2628 33.1443 65.2253 32.3284 65.5461 31.6636C66.2022 30.349 66.4793 27.312 66.1877 24.7887C65.9544 22.8396 65.896 22.7792 65.269 23.7613Z" fill="#FFDE00"/>
<path d="M8.45743 25.6803C6.22638 26.7681 5.01607 28.9741 4.82651 32.2982L4.73901 33.8545L5.52644 33.3559C7.37836 32.1924 7.67 31.7694 8.57409 28.8835C8.98239 27.584 9.40527 26.2242 9.52192 25.8616C9.76982 25.0759 9.69691 25.0759 8.45743 25.6803Z" fill="#FFDE00"/>
<path d="M57.8614 27.0705C59.0425 31.0594 59.2175 31.4523 59.9612 32.238C60.4278 32.7064 61.9006 33.6885 62.1631 33.6885C62.3526 33.6885 62.1193 30.8026 61.8569 29.9111C61.2736 27.9015 60.1508 26.451 58.5613 25.6804C58.0509 25.4236 57.5697 25.2272 57.4822 25.2272C57.3802 25.2272 57.526 25.9222 57.8614 27.0705Z" fill="#FFDE00"/>
<path d="M8.23858 33.5069C7.27617 34.2926 6.57623 35.3805 6.21168 36.6194C5.96378 37.4807 5.92004 37.8886 5.99295 39.037C6.08044 40.3515 6.43041 42.0891 6.66372 42.3459C6.79496 42.4819 8.34066 40.6235 8.66146 39.9133C8.7927 39.6262 8.9531 38.7348 9.02601 37.934C9.17183 36.1208 9.201 32.9327 9.05518 32.9327C8.98227 32.9327 8.61772 33.1896 8.23858 33.5069Z" fill="#FFDE00"/>
<path d="M57.8613 34.8514C57.8613 37.5258 58.0655 39.3239 58.4446 40.0793C58.7363 40.6535 60.1361 42.376 60.3111 42.376C60.3549 42.376 60.5153 41.9378 60.6757 41.3939C60.8798 40.6837 60.9673 39.9282 60.9819 38.6741C60.9965 36.3322 60.7048 35.5616 59.2466 34.0204C58.6633 33.4312 58.1092 32.9325 58.0217 32.9325C57.9197 32.9325 57.8613 33.5369 57.8613 34.8514Z" fill="#FFDE00"/>
<path d="M0.0435769 34.2474C0.451874 37.6924 1.92466 41.092 3.39745 41.9532C3.96615 42.2705 5.74515 42.7087 6.06596 42.5878C6.16803 42.5425 5.96388 41.8777 5.54101 40.8654C4.19946 37.6168 3.1058 35.9245 1.44345 34.5043C-0.0584974 33.1897 -0.0730794 33.1897 0.0435769 34.2474Z" fill="#FFDE00"/>
<path d="M65.7211 34.3529C63.8401 35.9999 62.9797 37.2842 61.5507 40.714L60.7778 42.5272L61.1424 42.5725C61.6965 42.648 63.2714 42.1796 63.8692 41.7566C64.9191 41.0464 66.0274 38.7951 66.5961 36.2265C66.9315 34.6853 67.0919 33.3859 66.946 33.3859C66.8877 33.401 66.3336 33.8241 65.7211 34.3529Z" fill="#FFDE00"/>
<path d="M10.0615 41.213C9.14281 42.6786 8.95325 43.3283 8.95325 44.794C8.95325 46.4258 9.24489 47.3626 10.2802 49.0699L10.9656 50.2183L11.5488 48.9491C12.205 47.4834 12.3363 46.5164 12.0884 45.1566C11.8405 43.9025 10.776 40.4877 10.6302 40.4877C10.5573 40.4877 10.2948 40.805 10.0615 41.213Z" fill="#FFDE00"/>
<path d="M55.7616 42.1045C54.5513 46.0027 54.5221 46.8942 55.47 48.9491L56.0532 50.2183L56.7386 49.0699C57.7739 47.3626 58.0656 46.4258 58.0656 44.794C58.0656 43.7061 58.0072 43.283 57.7448 42.6786C57.3802 41.8476 56.5345 40.4877 56.3741 40.4877C56.3157 40.4877 56.0387 41.213 55.7616 42.1045Z" fill="#FFDE00"/>
<path d="M2.01221 43.9626C2.01221 44.2648 3.22252 46.6219 3.83496 47.5134C4.63697 48.6768 6.00768 50.0215 6.82428 50.4597C7.40756 50.777 7.61171 50.7921 8.90951 50.7166C9.69694 50.6561 10.3969 50.5806 10.4698 50.5353C10.6302 50.4295 8.69078 48.0422 7.50963 46.8788C6.4014 45.7909 5.13276 44.975 3.57248 44.3404C2.11428 43.7662 2.01221 43.736 2.01221 43.9626Z" fill="#FFDE00"/>
<path d="M63.4463 44.325C61.8131 45.005 60.7923 45.6698 59.582 46.8332C58.5029 47.8456 56.549 50.1875 56.549 50.4444C56.549 50.6408 58.2988 50.8221 59.2466 50.7164C60.209 50.6106 60.8944 50.1724 62.0172 48.9334C63.038 47.8002 63.7379 46.7426 64.4816 45.2165C65.269 43.5696 65.2544 43.5696 63.4463 44.325Z" fill="#FFDE00"/>
<path d="M14.1882 47.3168C13.3862 49.9912 13.3862 51.1244 14.2028 52.8469C14.5673 53.6175 15.9235 55.204 16.813 55.8839L17.2504 56.2314L17.4254 55.1133C17.7462 53.0584 17.6879 52.4239 17.0463 51.1547C16.4047 49.8552 14.6111 47.1355 14.3923 47.1355C14.3194 47.1355 14.2319 47.2262 14.1882 47.3168Z" fill="#FFDE00"/>
<path d="M51.9265 47.9217C51.0807 49.1003 50.2933 50.4148 49.8121 51.4422C49.3455 52.4697 49.3017 53.4065 49.5933 55.2045L49.7683 56.2471L50.8182 55.3103C51.9265 54.3282 52.7722 53.1496 53.1368 52.092C53.4138 51.2912 53.4576 49.3874 53.2097 48.5714C52.9035 47.5742 52.7285 47.136 52.6118 47.136C52.5535 47.136 52.2473 47.4987 51.9265 47.9217Z" fill="#FFDE00"/>
<path d="M19.7439 52.2274C19.5835 52.3936 19.6564 54.4485 19.8606 55.3098C20.2543 57.1078 21.3625 58.377 23.3894 59.3893C24.6435 60.0239 24.9059 60.0844 24.9059 59.7822C24.9059 59.0116 24.4539 56.7603 24.206 56.2617C23.7102 55.2493 20.0355 51.9252 19.7439 52.2274Z" fill="#FFDE00"/>
<path d="M45.8166 53.1496C44.3001 54.3282 43.0752 55.6578 42.7106 56.5039C42.5502 56.8817 42.3607 57.7429 42.2732 58.4379C42.1857 59.133 42.0836 59.7525 42.0398 59.8431C41.8649 60.1302 42.4773 59.964 43.6585 59.3898C45.2625 58.6041 46.4436 57.4256 46.9102 56.1262C47.2894 55.1138 47.4352 52.4244 47.129 52.3186C47.0415 52.2884 46.4436 52.6661 45.8166 53.1496Z" fill="#FFDE00"/>
<path d="M6.82422 53.134C6.82422 53.4513 9.21567 55.7932 10.2656 56.5034C12.5112 58.0295 13.8382 58.2108 15.8359 57.2589C16.4046 56.9869 16.8858 56.73 16.8858 56.6696C16.8858 56.5034 13.8528 54.5392 12.9924 54.1463C12.5258 53.9197 11.68 53.6326 11.0968 53.4815C9.85728 53.1491 6.82422 52.9073 6.82422 53.134Z" fill="#FFDE00"/>
<path d="M57.3801 53.1946C56.2427 53.3306 54.5803 53.8141 53.7054 54.2674C52.9326 54.6753 50.1328 56.5489 50.1328 56.6698C50.1328 56.7151 50.614 56.9871 51.1973 57.2742C53.1513 58.211 54.522 58.0297 56.7239 56.5187C57.7301 55.8237 59.7715 53.8594 60.0632 53.2853C60.1944 53.0586 60.1215 53.0284 59.2903 53.0435C58.78 53.0586 57.9196 53.1191 57.3801 53.1946Z" fill="#FFDE00"/>
<path d="M26.3641 55.4911C26.3641 55.5062 26.4954 56.035 26.6704 56.6545C27.487 59.7217 28.9452 60.9456 32.2407 61.3082C33.3489 61.4291 33.5822 61.3385 33.2323 60.9607C33.1594 60.8701 32.8823 60.2657 32.6198 59.616C32.0511 58.1503 31.3804 57.4402 29.8638 56.6545C28.5369 55.9595 26.3641 55.2342 26.3641 55.4911Z" fill="#FFDE00"/>
<path d="M39.0505 55.8086C37.8694 56.2467 36.5424 56.9418 35.7404 57.5462C35.2446 57.9239 34.9821 58.3167 34.3843 59.601C33.9905 60.4774 33.6552 61.248 33.6552 61.3084C33.6552 61.4595 35.6675 61.248 36.4841 61.0213C38.511 60.4623 39.6921 59.1175 40.3483 56.6547C40.5233 56.0352 40.6545 55.5064 40.6545 55.4913C40.6545 55.3553 39.8671 55.5215 39.0505 55.8086Z" fill="#FFDE00"/>
<path d="M17.3232 59.5559C16.9587 59.6315 16.1129 59.8732 15.4276 60.0848L14.1881 60.4625L14.6256 60.8403C15.2818 61.3842 17.5566 62.5023 18.6356 62.7894C20.0355 63.152 21.6249 63.1369 22.3832 62.7289C23.1123 62.3361 24.8184 60.7345 24.658 60.5834C24.5268 60.4625 22.5145 59.8884 21.1875 59.5862C20.1813 59.3595 18.2857 59.3444 17.3232 59.5559Z" fill="#FFDE00"/>
<path d="M46.2686 59.4648C45.4958 59.631 42.4627 60.4923 42.3606 60.5829C42.2002 60.7189 43.8918 62.3205 44.5625 62.6832C45.3937 63.1213 46.152 63.1818 47.5227 62.94C49.2725 62.6076 51.3432 61.701 52.466 60.7643L52.816 60.4621L51.8098 60.1448C49.71 59.4648 47.5518 59.208 46.2686 59.4648Z" fill="#FFDE00"/>
<path d="M29.6889 62.0941C28.0703 62.2905 26.8891 62.7891 25.0955 64.0432C24.1914 64.6778 23.4478 65.2368 23.4478 65.2822C23.4478 65.6297 27.1516 66.2341 28.3765 66.0981C30.7825 65.8261 31.672 65.2217 32.8386 63.1064L33.4802 61.943L32.0803 61.9581C31.2929 61.9732 30.2284 62.0336 29.6889 62.0941Z" fill="#FFDE00"/>
<path d="M33.6552 62.0188C33.6552 62.0641 33.9176 62.6081 34.2384 63.2124C35.055 64.7385 35.6821 65.358 36.8486 65.7357C38.1902 66.189 40.5525 66.189 42.244 65.7357C43.4543 65.4184 43.673 65.3278 43.5564 65.2069C43.5272 65.1767 42.7543 64.6327 41.8648 64.0132C40.0275 62.744 38.963 62.3059 37.1403 62.0943C35.8133 61.9281 33.6552 61.8979 33.6552 62.0188Z" fill="#FFDE00"/>
</svg>
