<svg width="22" height="25" viewBox="0 0 22 25" fill="none" xmlns="http://www.w3.org/2000/svg">
<path d="M21.2691 9.2506C21.1702 8.53865 21.016 7.83312 20.8342 7.12918C20.6005 6.22482 20.0553 5.78065 19.2049 5.86884C18.2426 5.93138 17.9765 5.5754 17.9554 4.655L17.8921 3.74582C17.7282 2.1263 16.9265 1.33257 15.3037 1.14817C13.8107 0.978201 12.3113 0.938113 10.8134 0.950941C9.31395 0.938113 7.8161 0.978201 6.31988 1.14817C4.69707 1.33257 3.89541 2.1247 3.7315 3.74582L3.66822 4.655C3.64712 5.5738 3.38098 5.93138 2.41866 5.86884C1.56831 5.78225 1.02304 6.22642 0.789361 7.12918C0.607607 7.83312 0.45344 8.53705 0.354449 9.2506C0.192169 10.4228 0.898088 11.0305 1.73059 11.1988C2.26449 11.3079 2.26124 10.9166 2.29695 10.5719C2.39107 9.6627 2.47545 8.75192 2.58418 7.84434C2.62151 7.53807 2.60041 7.0458 3.06778 7.1372C3.44102 7.12598 3.32743 7.63108 3.29335 7.88443C2.8276 11.4201 2.93958 14.9702 2.96879 18.5188C2.9769 19.5626 3.20247 20.4846 3.9944 21.1998C4.24593 21.4275 4.34817 21.6825 4.38712 21.947V23.5152C4.38712 23.8889 4.69383 24.1903 5.07032 24.1903H6.45457C6.83268 24.1903 7.13777 23.8872 7.13777 23.5152V23.116C7.14102 23.0278 7.14426 22.9332 7.14588 22.8273C7.154 22.2709 7.31466 22.0865 7.93781 22.1507C8.88877 22.2469 9.84298 22.2982 10.7972 22.2982C10.8004 22.2982 10.8037 22.2982 10.8069 22.2982C10.8102 22.2982 10.8134 22.2982 10.8167 22.2982C11.7709 22.2982 12.7251 22.2469 13.676 22.1507C14.2992 22.0881 14.4599 22.2709 14.468 22.8273C14.4696 22.9332 14.4728 23.0278 14.4761 23.116V23.5152C14.4761 23.8889 14.7828 24.1903 15.1593 24.1903H16.5435C16.9217 24.1903 17.2267 23.8872 17.2267 23.5152V21.947C17.2657 21.6825 17.3679 21.4275 17.6195 21.1998C18.4114 20.4846 18.637 19.5626 18.6451 18.5188C18.6759 14.9686 18.7879 11.4185 18.3205 7.88443C18.2864 7.63108 18.1728 7.12598 18.5461 7.1372C19.0134 7.0458 18.9924 7.53647 19.0297 7.84434C19.1384 8.75192 19.2228 9.6627 19.3169 10.5719C19.3526 10.9182 19.3494 11.3079 19.8833 11.1988C20.7255 11.0305 21.4314 10.4228 21.2691 9.2506ZM6.13812 19.3446C5.1758 19.4103 3.89865 18.4883 3.74286 17.5663C3.71528 16.7886 4.41308 16.787 4.89992 16.7357C6.30365 16.7405 7.28382 17.5102 7.26922 18.4979C7.25623 19.2772 6.62496 19.3109 6.13812 19.3446ZM10.8134 14.9093L5.33159 14.9077C4.63865 14.9061 4.38063 14.6095 4.37089 13.8654C4.33032 10.6553 4.60944 7.47714 5.05734 4.30384C5.13361 3.76025 5.40461 3.733 5.81356 3.69932C7.48018 3.55982 9.1468 3.5037 10.815 3.51011C12.4817 3.5037 14.1483 3.55821 15.8165 3.69932C16.2271 3.733 16.4965 3.76025 16.5728 4.30384C17.0206 7.47714 17.2998 10.6569 17.2592 13.8654C17.2495 14.6095 16.9914 14.9045 16.2985 14.9077L10.8134 14.9093ZM15.4871 19.3446C15.0003 19.3109 14.369 19.2772 14.3576 18.4979C14.343 17.5102 15.3232 16.7405 16.7253 16.7357C17.2121 16.787 17.9099 16.7886 17.8824 17.5663C17.7266 18.4883 16.451 19.4103 15.4871 19.3446Z" fill="white"/>
</svg>
