<svg width="57" height="56" viewBox="0 0 57 56" fill="none" xmlns="http://www.w3.org/2000/svg">
<path d="M5.26001 27.9998C5.26001 15.1128 15.704 4.6665 28.5933 4.6665C41.478 4.6665 51.9267 15.1128 51.9267 27.9998C51.9267 40.8868 41.478 51.3332 28.5933 51.3332C15.704 51.3332 5.26001 40.8868 5.26001 27.9998Z" fill="#FC3F1D"/>
<path d="M31.58 17.8875H29.424C25.4714 17.8875 23.3924 19.8895 23.3924 22.8411C23.3924 26.1778 24.8297 27.7411 27.7814 29.7455L30.2197 31.3881L23.2127 41.8578H17.9767L24.265 32.4918C20.6484 29.8995 18.6184 27.3818 18.6184 23.1235C18.6184 17.7848 22.34 14.1401 29.3984 14.1401H36.4054V41.8321H31.58V17.8875Z" fill="white"/>
</svg>
