<svg width="204" height="336" viewBox="0 0 204 336" fill="none" xmlns="http://www.w3.org/2000/svg">
<path d="M83.9 80.2999C93.7 74.9999 104.3 71.4999 115.3 69.9999C115.2 68.7999 115.1 67.4999 115 66.2999C112.6 75.2999 104.4 80.7999 96.6 84.7999C88 89.1999 78.7999 92.4999 71.1 98.3999C67 101.5 63.6 105.5 61.6 110.3C61.4 110.8 61 115.2 61.9 115.1C75.6 113.1 89.4 111 103.1 108.9C110 107.9 116.8 106.8 123.7 105.8C126.2 105.4 129.8 104.4 131.9 106.5C132.3 106.8 132.4 107.3 132.6 107.6C131.5 106.1 132.9 105 132.5 106.1C132.4 106.3 132.3 106.6 132.2 106.8C131.7 107.9 130.9 108.8 130.1 109.7C128.3 111.6 126 112.8 123.7 114C121.3 115.3 118.9 116.5 116.4 117.7C111.5 120.1 106.5 122.2 101.4 124.4C91.4 128.7 81.2999 132.8 71.6 137.9C61 143.5 50.9 150.2 42.7 159.2C42.2 159.8 41.8 164.9 42.9 164.9C59.2 166.1 74.4 159.2 89 152.7C103.4 146.3 118.8 139.2 135 140.8C138.4 141.1 142.4 142.2 144.5 145.1C144.7 145.4 144.9 145.7 145 146C145.5 147.2 144.7 145.8 145.2 145.1C145 145.4 144.9 145.9 144.7 146.2C144.4 146.7 144.1 147.1 143.8 147.6C142.5 149.2 140.8 150.5 139.1 151.7C132.2 156.3 124.7 160.1 117 163.5C101.6 170.2 85.5 174.9 69.7 180.6C54.1 186 38.9 192.7 26 203C24.4 204.3 22.9 205.6 21.4 206.9C20.7 207.5 20.5 213.1 21.6 213.1C42.7 214.6 63.2 208.7 83 202C102.9 195.3 122.8 187.5 143.7 184.9C146.3 184.6 148.9 184.3 151.5 184.2C153.8 184.1 156.2 184.1 158.3 184.9C159.3 185.3 160.3 185.8 161.1 186.5C161.3 186.7 163 189 162.7 189.1C162.4 189.2 163 187.5 162.6 188C162.4 188.3 162.3 188.9 162.2 189.3C161.7 190.4 161.1 191.5 160.4 192.4C157.4 196.5 152.9 199.2 148.6 201.6C144.1 204.1 139.3 206.1 134.4 207.8C124.4 211.3 113.9 213.4 103.6 215.6C92.6 217.9 81.7 220.6 70.9 223.9C49.1 230.6 28.1 239.6 8.19996 250.7C5.69996 252.1 3.19996 253.5 0.699957 255C-0.100043 255.5 -4.29805e-05 257.2 -4.29805e-05 257.9C-4.29805e-05 258.9 -0.200043 260.8 0.499957 261.6C6.49996 268.1 15.4 269.8 24 269.2C33.7 268.6 43.1 265.4 52.3 262.3C73.3 255.2 93.7 246.4 114.5 239C124.8 235.3 135.3 232 146 229.4C156.5 226.9 167.3 224.7 178.1 224.4C187.2 224.1 198.2 226.4 201.3 236.2C201.4 236.6 201.5 236.9 201.6 237.3C201.8 238.3 201.6 237.2 201.7 237.8C201.8 238.3 201.6 237.6 201.7 237.6C201.8 237.7 201.6 238.2 201.7 237.7C201.8 237.3 201.7 237.8 201.7 237.9C201.6 238.2 201.5 238.7 201.3 239C200.5 240.9 199 242.5 197.3 243.7C193.3 246.3 188.3 246.7 183.7 247.3C159.4 250.6 135.1 254 110.8 257.3C107.8 257.7 104.9 258.1 101.9 258.5C100.5 258.7 101 265.9 101.9 265.8C126.9 262.3 152 258.6 177 255C182.3 254.2 187.9 253.8 193.1 252.2C197.4 250.8 201 248.1 202.3 243.6C203.7 238.9 203.3 233.2 201.2 228.8C199.2 224.6 195.8 221.6 191.5 219.9C186.6 218 181.2 217.8 176 218.1C170.5 218.4 164.9 219.2 159.4 220.2C148.3 222.1 137.4 225 126.7 228.5C105 235.4 84.1 244.4 62.8 252.2C52.9 255.8 42.8 259.6 32.4 261.7C23.8 263.4 14 264 6.09996 259.5C4.19996 258.4 2.39996 257 0.899957 255.4C0.799957 257.6 0.799957 259.8 0.699957 262C21 250 42.5 240.2 64.9 232.8C76 229.1 87.4 226 98.8 223.5C109.5 221.1 120.3 219 130.8 215.7C135.9 214.1 141 212.1 145.8 209.7C150.3 207.4 155.1 204.8 158.7 201.2C162.5 197.3 164.4 192.5 163.9 187C163.7 184.6 163 182.2 161.2 180.6C159.5 179.1 157.2 178.5 155 178.3C149.9 177.9 144.5 178.7 139.4 179.5C134 180.3 128.6 181.5 123.3 182.9C112.7 185.6 102.4 189.2 92.1 192.8C71.8999 199.8 51.1 207.1 29.4 207.2C26.8 207.2 24.2 207.1 21.6 206.9C21.7 209 21.7 211.1 21.8 213.1C34.5 201.5 50.2 194.1 66.1 188.1C82.3 182 98.9 177.1 114.9 170.3C122.7 167 130.4 163.1 137.5 158.5C141 156.2 144.9 153.7 145.9 149.3C146.9 145.1 146.4 139.9 142.5 137.4C139.3 135.3 135.5 134.9 131.8 134.8C127.7 134.7 123.6 135.1 119.6 135.9C111.5 137.5 103.7 140.5 96.1 143.8C81 150.2 65.8 158.5 49 159.3C46.9 159.4 44.9 159.4 42.8 159.2C42.9 161.1 42.9 163 43 164.9C58.6 147.8 80.6 139.3 101.3 130.2C106.6 127.9 111.8 125.5 117 123C119.6 121.7 122.1 120.4 124.6 119C126.9 117.7 129 116.4 130.8 114.4C132.5 112.4 133.5 110.1 133.6 107.5C133.7 104.9 133.4 101.8 130.7 100.7C129.5 100.2 128.1 100.2 126.8 100.3C125 100.5 123.3 100.8 121.5 101.1C117.8 101.7 114.1 102.2 110.5 102.8C94.3 105.2 78.1 107.6 61.9 110.1C62 111.7 62.1 113.3 62.2 114.9C65.8 105.9 74.6 100.7 82.8 96.5999C91.3 92.2999 100.7 88.6999 107.8 82.1999C111.6 78.6999 114.4 74.3999 115.6 69.3999C115.7 68.9999 115.9 65.5999 115.3 65.6999C104.3 67.4999 93.7 71.2999 83.9 76.7999C83.4 77.0999 83.5 78.0999 83.5 78.5999C83.5 78.6999 83.6 80.4999 83.9 80.2999Z" fill="white"/>
<path d="M100.7 262.2C101.7 280.7 101.6 299.3 100.3 317.9C100.1 320.5 99.8999 323.1 99.6999 325.8C99.4999 328.6 99.0999 331.5 99.1999 334.3C99.1999 334.5 99.5999 336.7 99.8999 335.6C100.7 333.4 100.6 330.8 100.8 328.5C101 326.1 101.2 323.7 101.3 321.4C101.6 316.5 101.9 311.7 102 306.8C102.3 297.1 102.4 287.4 102.2 277.7C102.1 272.2 101.8 266.6 101.5 261.1C101.5 260.8 101.5 259.4 100.9 259.7C100.6 259.8 100.7 261.8 100.7 262.2Z" fill="white"/>
<path d="M83.8999 78.8998C90.0999 75.7998 96.0999 71.6998 99.7999 65.5998C103.3 59.7998 104.1 52.2998 102.2 45.7998C101.3 42.8998 99.6999 39.4998 96.6999 38.3998C96.2999 38.2998 96.1999 41.4998 96.5999 41.8998C98.9999 44.4998 101 47.1998 101.8 50.6998C102.4 53.4998 101.8 56.2998 100.7 58.7998C97.4999 65.9998 90.5999 70.8997 83.8999 74.5998C83.2999 74.8997 83.3999 76.1997 83.3999 76.6997C83.3999 76.8997 83.5999 78.9998 83.8999 78.8998Z" fill="white"/>
<path d="M96.8 0.999997C96 9.2 95.6 17.5 95.1 25.7C95 27.4 96.6 29.3 96.7 26.7C97.2 18.3 97.9 9.8 98.1 1.4C98.2 0.0999966 97 -0.800003 96.8 0.999997Z" fill="#C6926D"/>
<path d="M83.1 15.6999C91.8 17.3999 100.7 18.3999 109.6 19.0999C110.7 19.1999 110.8 15.5999 109.6 15.4999C100.9 14.3999 91.9 13.4999 83.1 13.3999C82.4 13.4999 82.4 15.5999 83.1 15.6999Z" fill="#C6926D"/>
<path d="M89.3 8.49987C92.5 15.2999 98 21.3999 103.7 26.0999C104.6 26.7999 105.1 23.0999 104.2 22.2999C98.6 17.4999 94.5 12.0999 90.1 6.29987C89.3 5.29987 89.1 8.09987 89.3 8.49987Z" fill="#C6926D"/>
<path d="M102.6 5.70003C97.2 11.2 92.4 17.3 86.8 22.7C86 23.4 86.7 26.8 87.4 26.2C93.2 20.9 99.2 14.8 103.2 8.10003C103.5 7.50003 103.5 4.80003 102.6 5.70003Z" fill="#C6926D"/>
</svg>
