<svg width="16" height="25" viewBox="0 0 16 25" fill="none" xmlns="http://www.w3.org/2000/svg">
<path d="M7.9983 0C4.86424 0 2.28076 2.47547 2.28076 5.56981C2.28076 8.62288 4.82189 11.1396 7.9983 11.1396C11.1747 11.1396 13.7158 8.66414 13.7158 5.56981C13.7158 2.47547 11.1324 0 7.9983 0ZM7.9983 7.42641C6.93949 7.42641 6.09245 6.60125 6.09245 5.56981C6.09245 4.53836 6.93949 3.7132 7.9983 3.7132C9.0571 3.7132 9.90414 4.53836 9.90414 5.56981C9.90414 6.60125 9.0571 7.42641 7.9983 7.42641Z" fill="white"/>
<path d="M15.0287 14.8941C13.5888 15.678 12.0217 16.2144 10.4547 16.4619L14.9017 21.7842C15.4099 22.4031 15.537 23.2695 15.0711 23.9296C14.3511 25.0023 12.8264 25.0436 12.0641 24.0946L7.95594 19.185L3.89014 24.0946C3.50897 24.5485 3.00075 24.7548 2.45017 24.7548C1.89959 24.7548 1.34902 24.5072 0.967846 24.0121C0.501973 23.3932 0.544326 22.3618 1.05255 21.7429L5.45717 16.3794C3.89014 16.0906 2.32311 15.5955 0.925495 14.8116C0.0361005 14.3165 -0.260364 13.2438 0.247861 12.3362C0.756086 11.4697 1.89959 11.1809 2.78899 11.676C6.00775 13.4501 10.0312 13.4501 13.2923 11.7173C14.1817 11.2222 15.3252 11.5523 15.7911 12.4187C16.257 13.3263 15.9181 14.399 15.0287 14.8941Z" fill="white"/>
</svg>
