<svg width="25" height="15" viewBox="0 0 25 15" fill="none" xmlns="http://www.w3.org/2000/svg">
<path d="M24.8696 13.3279C24.8398 13.2637 24.8121 13.2105 24.7863 13.1679C24.3598 12.3997 23.5447 11.4568 22.3416 10.3389L22.3162 10.3133L22.3034 10.3008L22.2906 10.2879H22.2777C21.7316 9.76739 21.3858 9.41739 21.241 9.2382C20.9761 8.89686 20.9167 8.55135 21.0615 8.20126C21.1638 7.93676 21.5481 7.37816 22.2135 6.52472C22.5635 6.07242 22.8407 5.70992 23.0454 5.4368C24.5217 3.4741 25.1618 2.21991 24.9654 1.67374L24.8891 1.5461C24.8379 1.46926 24.7057 1.39897 24.4926 1.33486C24.279 1.27089 24.006 1.26031 23.6732 1.30294L19.987 1.3284C19.9273 1.30724 19.842 1.30922 19.7309 1.33486C19.6199 1.3605 19.5644 1.37337 19.5644 1.37337L19.5003 1.40542L19.4494 1.44393C19.4067 1.4694 19.3597 1.51418 19.3085 1.5782C19.2575 1.642 19.2149 1.71686 19.1808 1.80218C18.7795 2.83468 18.3232 3.79465 17.8111 4.68203C17.4954 5.21117 17.2054 5.66975 16.9406 6.05803C16.6761 6.44617 16.4542 6.73215 16.2752 6.91546C16.0959 7.09896 15.934 7.24596 15.7887 7.357C15.6436 7.4681 15.5328 7.51503 15.4561 7.49786C15.3792 7.48069 15.3068 7.46366 15.2382 7.44662C15.1189 7.36978 15.0228 7.26528 14.9504 7.13303C14.8777 7.00078 14.8288 6.83432 14.8032 6.63379C14.7777 6.43313 14.7626 6.26053 14.7583 6.11541C14.7543 5.97047 14.7562 5.76546 14.7648 5.50096C14.7737 5.23632 14.7777 5.05727 14.7777 4.96339C14.7777 4.63908 14.784 4.28711 14.7967 3.9074C14.8096 3.52768 14.8201 3.22682 14.8288 3.00517C14.8375 2.7833 14.8415 2.54857 14.8415 2.3011C14.8415 2.05364 14.8265 1.85956 14.7967 1.7187C14.7673 1.57802 14.7222 1.44147 14.6627 1.30908C14.6028 1.17683 14.5152 1.07453 14.4003 1.0019C14.2851 0.929365 14.1419 0.871801 13.9715 0.829033C13.5192 0.726684 12.9433 0.671317 12.2434 0.66271C10.6563 0.645674 9.63657 0.748158 9.18432 0.970026C9.00513 1.06377 8.84298 1.19185 8.69799 1.35387C8.54436 1.54167 8.52293 1.64415 8.63384 1.66101C9.1459 1.73771 9.5084 1.9212 9.72175 2.21131L9.79864 2.36503C9.85844 2.47594 9.91816 2.6723 9.97792 2.95384C10.0376 3.23538 10.0761 3.54682 10.093 3.88798C10.1356 4.511 10.1356 5.04431 10.093 5.48796C10.0503 5.93178 10.01 6.2773 9.97146 6.52476C9.93295 6.77223 9.87539 6.97276 9.79864 7.1263C9.72175 7.2799 9.6706 7.37377 9.64496 7.40784C9.61936 7.44191 9.59802 7.46339 9.58107 7.47182C9.47016 7.51432 9.35481 7.53597 9.23543 7.53597C9.11586 7.53597 8.97088 7.47617 8.80025 7.35665C8.62967 7.23713 8.45263 7.07296 8.26914 6.86386C8.08565 6.65473 7.87871 6.36247 7.64823 5.98706C7.41794 5.61165 7.17899 5.16795 6.93152 4.65598L6.72678 4.28469C6.59878 4.04583 6.42394 3.69804 6.20207 3.24161C5.98007 2.78501 5.78385 2.34333 5.61326 1.91668C5.54508 1.73749 5.44264 1.60107 5.30613 1.50719L5.24206 1.46868C5.19947 1.43461 5.13111 1.39843 5.03732 1.35988C4.9434 1.32137 4.8454 1.29375 4.74292 1.27676L1.23583 1.30222C0.877456 1.30222 0.634293 1.38341 0.506256 1.54557L0.455014 1.62227C0.429415 1.665 0.416504 1.73323 0.416504 1.82715C0.416504 1.92103 0.442102 2.03624 0.493344 2.17266C1.00531 3.37593 1.56207 4.53637 2.16361 5.65419C2.76515 6.77201 3.28788 7.67244 3.73148 8.35467C4.17518 9.0374 4.62743 9.68176 5.08825 10.2874C5.54907 10.8933 5.8541 11.2816 6.00334 11.4522C6.15276 11.6231 6.27013 11.7508 6.35544 11.8362L6.67549 12.1433C6.88028 12.3481 7.181 12.5934 7.5778 12.8792C7.97469 13.1652 8.41408 13.4468 8.89619 13.7243C9.37839 14.0014 9.93936 14.2275 10.5794 14.4024C11.2194 14.5775 11.8423 14.6477 12.4481 14.6138H13.9201C14.2187 14.5881 14.4448 14.4942 14.5986 14.3322L14.6495 14.268C14.6837 14.2171 14.7158 14.138 14.7454 14.0315C14.7753 13.9248 14.7902 13.8073 14.7902 13.6795C14.7815 13.3127 14.8094 12.982 14.8732 12.6877C14.937 12.3934 15.0097 12.1715 15.0911 12.0221C15.1723 11.8728 15.2641 11.7469 15.3662 11.6447C15.4685 11.5424 15.5414 11.4804 15.5841 11.459C15.6266 11.4376 15.6606 11.423 15.6862 11.4143C15.8909 11.346 16.132 11.4121 16.4095 11.6128C16.6869 11.8133 16.9471 12.0609 17.1904 12.3552C17.4336 12.6497 17.7258 12.9802 18.0671 13.3471C18.4086 13.714 18.7071 13.9868 18.963 14.1663L19.2189 14.3199C19.3898 14.4224 19.6117 14.5162 19.8848 14.6016C20.1574 14.6868 20.3963 14.7082 20.6014 14.6655L23.8779 14.6144C24.202 14.6144 24.4542 14.5608 24.6331 14.4543C24.8123 14.3476 24.9188 14.2301 24.9531 14.1023C24.9874 13.9744 24.9892 13.8292 24.9596 13.6669C24.9293 13.505 24.8994 13.3918 24.8696 13.3279Z" fill="white"/>
</svg>
