<svg width="613" height="367" viewBox="0 0 613 367" fill="none" xmlns="http://www.w3.org/2000/svg">
<path d="M465.2 79.0998C466.3 79.5998 467.4 80.3998 468.6 80.5998C482.5 83.7998 495.5 89.3998 508.7 94.3998C517.3 97.6998 526 100.9 534.6 104.2C539.5 106.1 544.3 108.2 549.2 110C554.7 112 560.3 113.7 565.9 115.5C572.8 117.7 579.9 119.7 586.8 122.2C592.7 124.3 598.1 127.4 601.1 133.4C603.4 138 604.3 143 605.1 148.1C606.6 156.9 607.6 165.7 608.2 174.6C608.7 182.8 610.3 191 611.4 199.1C611.5 200 611.6 201 611.7 201.9C613.1 218.3 613 234.7 612.8 251.1C612.7 259.5 612.4 268 611.6 276.4C611 282.7 609.3 288.9 604.6 293.7C602.3 296.1 599.5 297.6 596.4 298.4C590.5 299.8 584.6 301.1 578.7 302.2C573.4 303.2 568.1 304.1 562.8 305C562.3 305.1 561.8 305 561.4 305C554.6 305.8 551.6 303.1 551.3 295.1C551.3 294.5 551.2 293.9 550.6 293.2C550.6 296 550.8 298.8 550.6 301.6C550 310.6 547.6 319.1 542.2 326.6C539 331 534.7 333.1 529.4 333.9C523.9 334.7 518.7 334.4 513.4 332.9C505.5 330.7 501.3 325.1 498.9 317.8C497.3 312.7 497.5 312.9 492.4 313.6C484.1 314.8 475.7 315.6 467.4 316.7C461.9 317.4 456.4 318.2 450.9 319C447 319.5 443 320 439.1 320.4C433.1 321.1 427.1 321.8 421.1 322.6C414.8 323.4 408.5 324.4 402.2 325.2C396.7 325.9 391.2 326.6 385.7 327.3C381.3 327.9 376.9 328.4 372.5 329C366.1 329.9 359.6 330.8 353.2 331.7C352.6 331.8 351.9 331.8 351.3 331.9C343.6 332.5 341 330.5 339.3 322.6C338.6 326.2 337.9 329.5 337.3 332.7C335.8 341 332.6 348.5 327.7 355.3C322.8 362.1 316.3 366 307.6 366.5C302 366.8 296.5 366.8 291.1 365.5C280.2 362.8 273.1 355.8 269 345.6C266.1 338.5 268.1 339.3 260 339.6C255.3 339.8 250.5 340.6 245.8 341C242.7 341.3 239.5 341.3 236.3 341.4C226.4 341.7 216.6 342.1 206.7 342.3C201 342.4 195.7 340.9 191.3 337C190.5 336.3 189.4 336 188.3 335.8C187.1 335.6 185.8 335.7 184.5 335.7C172.4 335.3 160.3 335 148.2 334.3C146.2 334.2 145.8 335 145.1 336.3C143.9 338.7 142.6 341.1 141.2 343.3C136.4 350.8 129.2 353.9 120.7 354.6C116.6 354.9 112.4 354.9 108.3 354.6C100.7 354.1 94.3001 350.5 89.0001 345.2C85.7001 341.9 83.3001 337.9 82.0001 333.4C81.5001 331.6 80.5001 330.8 78.5001 330.9C72.9001 331.2 67.4001 331.4 61.8001 331.5C52.1001 331.7 42.2001 332.7 32.7001 330.5C23.2001 328.2 17.9001 324.5 16.0001 312.8C14.4001 303.6 13.0001 294.3 12.9001 284.9C12.9001 279.8 12.5001 274.7 12.0001 269.7C11.5001 264 10.6001 258.4 9.90011 252.7C9.60011 249.9 9.2001 247 9.2001 244.2C9.1001 239.1 9.90011 237.9 14.9001 236.2C16.4001 235.7 16.9001 235.4 16.4001 233.6C14.8001 227.2 15.9001 220.6 16.2001 214.2C16.5001 209 17.2001 203.8 18.0001 198.6C20.0001 185.1 22.3001 171.6 24.3001 158.2C25.8001 148.6 27.1001 139 28.6001 129.5C29.5001 123.4 30.7001 117.3 31.7001 111.2C31.8001 110.9 32.0001 110.6 32.0001 110.3C32.0001 108.7 32.0001 107.2 32.0001 105.6C30.3001 106.2 28.4001 106.4 26.9001 107.3C23.4001 109.5 21.7001 112.6 22.0001 116.9C22.2001 120.4 21.8001 123.9 22.1001 127.4C22.6001 132.2 18.8001 137.3 13.5001 137.6C7.20008 138 3.20011 136.5 1.90011 129.1C0.200108 119.4 0.200071 109.4 1.80007 99.5998C2.10007 97.9998 2.90006 96.0998 4.10006 95.0998C6.60006 92.9998 9.40011 90.9998 12.4001 89.5998C14.9001 88.4998 17.2001 87.1998 19.4001 85.5998C25.7001 81.1998 32.1001 77.0998 38.3001 72.6998C41.3001 70.5998 44.2001 68.3998 46.9001 65.8998C49.4001 63.5998 50.8001 60.4998 50.5001 56.8998C50.0001 50.7998 52.7001 46.2998 57.5001 43.1998C70.2001 34.9998 83.3001 27.3998 97.6001 22.2998C103.5 20.1998 109.7 19.6998 115.8 18.6998C124.1 17.2998 132.4 16.1998 140.7 14.9998C148.6 13.8998 156.4 12.9998 164.3 11.7998C171.1 10.7998 177.8 9.69977 184.5 8.69977C192.7 7.49977 200.8 6.39977 209 5.19977C216.5 4.09977 224.1 2.99977 231.6 1.89977C242.7 0.299773 253.8 -0.800227 264.8 1.39977C269.9 2.39977 275 3.89977 280 5.29977C295.8 9.69977 311.5 14.2998 327.2 18.6998C341.9 22.7998 356.6 26.8998 371.2 30.9998C383 34.3998 394.7 37.9998 406.4 41.2998C414.2 43.4998 419.6 48.4998 424 55.0998C427.4 60.2998 431.1 65.2998 434.9 70.1998C435.8 71.3998 437.2 72.3998 438.6 72.7998C446.1 74.7998 453.7 76.4998 461.3 78.2998C462.7 78.7998 464 78.8998 465.2 79.0998ZM334.1 326.1C333.9 326.3 333.5 326.6 333.5 326.8C333.2 332.1 331 337 329.1 341.8C327.6 345.5 325.5 348.9 322.5 351.6C317.3 356.1 309.5 356.2 304 352.2C301.5 350.3 299.5 348.1 298.3 345.3C296.3 340.8 294.4 336.2 293 331.5C291 325 291.8 318.2 292 311.5C292.2 303 294.4 294.8 297.7 287C298.9 284.1 300.8 281.4 302.9 279.1C309.7 271.7 319.6 272.3 325.4 280.5C329.6 286.4 332.4 293 333.3 300.2C333.8 303.7 334.2 307.2 334.8 311.4C335.6 301.2 334.4 292 330.8 283.1C328.3 277.1 325 271.7 319.1 268.4C315.4 266.3 311.6 265.8 307.7 267.6C303.5 269.5 299.7 272.1 296.9 276C291.9 282.8 289.1 290.6 287.4 298.7C285.6 307.4 284.1 316.2 282.6 324.9C281.5 331 279.5 336.3 272.7 338C271.1 338.4 270.8 339.6 271.4 341C272.4 343.3 273.3 345.7 274.4 347.9C279.7 358.5 289.2 362.1 300.3 362.9C300.8 362.9 301.2 362.8 301.7 362.7C301.5 362.2 301.3 361.6 301 361.2C296.5 357 293.5 351.9 291 346.2C289.1 341.9 288.3 337.4 287.2 333C285.5 326.6 286.2 320 286.2 313.5C286.2 313 286.2 312.5 286.5 312.1C286.9 311.5 287.5 311 288.1 310.5C288.5 311.1 289.3 311.6 289.3 312.3C289.6 316.6 290 320.9 290.1 325.1C290.2 332.1 292.3 338.5 294.8 344.9C296.7 349.6 299.2 353.7 302.9 357.1C307.9 361.6 314.3 362.3 320.1 357.5C327.7 351.4 334 337.2 334.1 326.1C335.6 323.6 334.6 321.1 334.1 318.5C334.1 321 334.1 323.6 334.1 326.1ZM316.8 79.0998C316.2 72.2998 312.5 67.9998 306.1 65.8998C304.3 65.2998 302.5 64.5998 300.7 64.0998C285.7 60.4998 270.8 56.8998 255.8 53.2998C252.1 52.3998 251.4 52.6998 250.1 55.9998C249.6 57.2998 249.1 58.6998 249.1 60.0998C249 69.1998 248.9 78.2998 249.2 87.2998C249.4 93.5998 250.3 99.8998 250.9 106.2C251.3 111.4 251.6 116.7 252.1 121.9C252.9 130.3 254 138.6 254.7 147C255.4 155.3 257.3 157.1 265.5 157.5C272.5 157.8 279 153.8 281.5 145.9C283.2 140.4 284 134.7 284 129C284 120.7 283.5 112.5 283.1 104.2C283.1 103.7 283.1 103.2 283 102.8C281.1 92.1998 280.4 81.3998 277.7 70.8998C276.2 64.8998 280.3 61.7998 284.8 62.4998C286.1 62.6998 287.3 62.6998 288.6 62.9998C292.8 63.7998 297 64.6998 301.2 65.5998C307.4 66.9998 312.3 70.1998 315.1 76.1998C315.5 77.2998 316.2 78.1998 316.8 79.0998C317.8 83.6998 318.9 88.3998 319.7 93.0998C320.7 98.8998 321.3 104.7 322.1 110.6C322.9 116.4 324 122.2 324.4 128C324.9 136.4 325.2 144.9 324.9 153.3C324.6 160 321.8 163.9 314.6 163.5C307.9 163.2 301.2 163.4 294.5 163.3C293.9 163.3 293.2 163.5 292.6 163.2C291.8 162.9 290.4 162.2 290.5 161.8C290.6 160.9 291.3 159.9 292 159.2C292.4 158.8 293.2 158.6 293.8 158.6C296.8 158.6 299.9 158.6 302.9 158.8C307 159 311.1 159.4 315.3 159.4C318.7 159.4 320.8 157.5 320.8 154.1C320.9 145.5 321.1 136.8 320.5 128.3C319.8 118.3 318.2 108.4 316.9 98.4998C316 91.6998 314.7 84.9998 312.3 78.5998C310.8 74.6998 308.3 72.2998 304.4 70.8998C298.2 68.5998 291.7 67.8998 285.3 66.7998C282.6 66.3998 281.3 67.6998 281.7 70.3998C282.4 75.2998 283.1 80.0998 284.2 84.8998C285.9 92.4998 286.9 100.2 287.3 108C287.8 117.5 287.6 127.1 287.3 136.7C287.2 140.3 286.4 144 285.2 147.4C283 153.6 279.3 158.6 272.6 160.8C268.5 162.1 264.4 161.9 260.3 161.2C254.9 160.2 251.5 156.1 251 150.6C250.2 142.5 249.6 134.5 248.9 126.4C248.5 121.6 248.2 116.9 247.9 112.1C247.3 104 246.7 95.8998 246.1 87.8998C246 86.7998 246 85.6998 245.9 84.5998C244.8 74.0998 244.4 63.5998 247.3 53.2998C247.7 51.7998 247.2 51.0998 246 50.8998C242.9 50.2998 239.7 49.9998 236.6 49.3998C226.3 47.6998 215.9 48.4998 205.6 48.7998C197.9 49.0998 190.2 50.4998 182.4 51.3998C173.7 52.3998 165.1 53.2998 156.4 54.3998C149.8 55.1998 143.2 56.2998 136.6 57.2998C131.9 58.0998 127.2 59.0998 122.6 59.8998C111.5 61.8998 100.4 63.6998 89.3001 65.7998C80.1001 67.4998 70.9001 69.3998 61.8001 71.3998C56.3001 72.5998 51.7001 75.5998 48.9001 80.4998C45.9001 85.5998 43.3001 90.8998 40.6001 96.0998C40.3001 96.5998 40.3001 97.1998 40.2001 97.7998C40.8001 97.7998 41.4001 97.8998 42.0001 97.7998C53.7001 94.7998 65.6001 92.7998 77.6001 91.2998C85.2001 90.3998 92.6001 88.8998 100.2 87.7998C105.1 86.9998 110 86.3998 114.8 85.6998C120.9 84.7998 127 83.7998 133.2 82.8998C139 82.0998 144.9 81.4998 150.7 80.7998C152.3 80.5998 153.8 80.2998 155.4 80.0998C163.4 79.0998 171.5 78.0998 179.5 76.9998C185.1 76.2998 189.7 73.4998 193.2 69.0998C195.3 66.4998 194.1 63.9998 190.8 63.7998C187.9 63.5998 185 63.6998 182.2 63.9998C173.9 64.9998 165.6 66.5998 157.2 67.3998C143.7 68.6998 130.4 70.7998 117.2 73.4998C105.7 75.7998 94.3001 78.8998 82.9001 81.5998C78.4001 82.6998 74.0001 83.7998 69.4001 84.6998C66.3001 85.2998 63.3001 83.7998 62.5001 81.6998C61.6001 79.0998 62.8001 76.1998 65.7001 74.3998C66.5001 73.8998 67.4001 73.4998 68.3001 73.1998C72.1001 72.0998 75.9001 70.9998 79.8001 70.1998C90.7001 67.8998 101.6 65.6998 112.5 63.4998C117.8 62.3998 123.1 61.4998 128.4 60.5998C137.9 58.9998 147.5 57.4998 157.1 55.9998C163.1 55.0998 169.1 54.4998 175.1 53.7998C178.7 53.3998 182.4 53.2998 186 52.5998C194 51.0998 202.1 50.8998 210.2 50.9998C212.9 50.9998 215.3 51.5998 217 53.7998C218.2 55.3998 219.3 55.0998 221 54.3998C225 52.6998 227.8 53.7998 229.5 57.8998C230.5 60.3998 232.2 61.2998 234.5 61.3998C239.4 61.7998 242.1 64.3998 242.7 69.0998C243.7 76.4998 244.7 83.8998 245.3 91.2998C246 100.8 246.2 110.4 246.6 119.9C246.6 120.2 246.6 120.5 246.7 120.9C247.3 128.3 247.9 135.8 248.3 143.2C248.5 146.9 248.3 150.5 248.5 154.2C249.1 168.3 249.8 182.5 250.3 196.6C250.5 201.9 250.3 207.1 250.4 212.4C250.4 214.6 251 215 253 214.2C260.1 211.4 267.2 208.6 274.3 205.9C280.4 203.6 286.5 201.4 292.7 199.4C301 196.7 309.5 194.3 317.7 191.6C323.5 189.7 327.2 185.5 327.4 179.3C327.7 168.9 327.8 158.5 327.3 148.2C326.9 138.7 325.8 129.2 324.7 119.8C323.6 110.3 322.3 100.9 320.7 91.4998C319.6 87.4998 318 83.2998 316.8 79.0998ZM292.8 26.3998C289.7 24.6998 286.3 25.7998 283 25.4998C280.8 25.2998 279 26.2998 277.3 27.4998C276.7 27.8998 275.8 28.8998 276 29.1998C276.4 29.8998 277.1 30.6998 277.9 30.8998C289.3 34.8998 301.1 37.4998 312.8 40.2998C313.7 40.4998 314.7 40.4998 315.6 40.3998C315.9 40.3998 316.2 39.7998 316.3 39.3998C316.4 39.1998 316.1 38.6998 315.8 38.6998C314.6 38.3998 313.4 38.0998 312.1 37.8998C304.3 36.2998 296.6 34.6998 288.8 32.9998C287.3 32.6998 285.7 32.0998 284.3 31.3998C282.7 30.5998 282.5 29.1998 284 27.9998C284.9 27.2998 285.9 26.6998 286.9 26.4998C289 26.2998 291 26.3998 292.8 26.3998C293.3 26.6998 293.7 27.2998 294.3 27.4998C302 29.9998 309.8 32.3998 317.4 34.8998C320.4 35.8998 323.3 37.1998 326.1 38.6998C328.5 39.8998 329.5 42.3998 328.8 44.1998C327.9 46.2998 325.5 47.3998 322.8 46.7998C318.8 45.8998 314.7 45.0998 310.7 43.9998C299.5 40.9998 288.3 37.8998 277.1 34.8998C275.5 34.4998 273.5 33.9998 272 34.4998C265.1 36.8998 259.4 41.1998 254.8 46.7998C253.9 47.8998 253.4 48.7998 255.5 49.2998C261.5 50.6998 267.5 52.2998 273.5 53.7998C284.4 56.4998 295.5 58.9998 306.3 61.8998C314.1 63.9998 318.6 69.4998 320.4 77.2998C322.4 85.5998 324.4 93.8998 325.7 102.5C327.1 112.1 328.5 121.7 329.1 131.3C329.4 136.7 330 142.1 330.2 147.5C330.5 158 330.9 168.5 330.8 179C330.7 184.2 328.8 189.1 324.3 192.3C321.6 194.2 318.5 195.6 315.3 196.6C305.8 199.7 296.1 202.4 286.6 205.6C275.6 209.4 264.8 213.6 253.9 217.6C251.9 218.3 250.2 219.2 250.4 222C250.5 223.5 248.4 224.2 247.6 222.9C246 220.3 244.5 221.7 242.9 222.5C241.6 223.1 240.3 223.8 239 224.4C227 229.7 215.1 235 203.9 241.7C200.6 243.6 197.6 246 194.7 248.5C192.1 250.7 190.4 253.7 190.2 257.2C189.8 262.1 189.4 267 189.4 272C189.3 286.5 189.3 301 189.4 315.6C189.4 319.4 189.8 323.2 190.2 327C190.6 330.8 192.2 332.4 196 332.6C200.8 332.9 205.5 332.2 210.2 331.1C214.3 330.1 217.7 327.9 219.3 324C220.8 320 221.7 315.8 222.7 311.6C223.2 309.7 222.4 308.3 220.7 307.2C217.4 305 214.1 302.7 210.8 300.5C204.4 296.3 200.4 290.7 200.8 282.7C201.1 277.3 201.5 271.9 201.6 266.5C201.7 252.4 212.9 244 223.7 242.4C227.4 241.8 229.6 243.5 229.6 247.3C229.7 252.9 229.6 258.5 229.4 264C228.9 273.4 228.3 282.7 227.7 292.1C227.1 300.5 226.8 309 225.6 317.3C224.5 324.6 221.4 331.1 213.8 334C211.2 335 208.3 335.4 205.5 335.8C203.6 336.1 201.7 335.9 199.8 336C199.4 336 199.1 336.3 198.8 336.5C199.1 336.8 199.5 337.3 199.8 337.4C202.6 337.8 205.5 338.5 208.3 338.5C217.1 338.4 225.8 338.1 234.6 337.7C241.4 337.4 248.3 337.1 255.1 336.5C260 336.1 264.9 335.2 269.8 334.9C274.8 334.5 277.2 331.5 278.3 327.2C279.2 323.5 279.9 319.7 280.3 316C281.8 301.6 285.6 287.9 292.7 275.2C296.5 268.5 301.3 262.6 308.5 259.1C313.6 256.6 318.7 256.6 323.7 259C329.2 261.6 333.4 265.6 336.2 271C340.9 279.9 342.1 289.7 342.8 299.6C343.2 305.5 342.8 311.4 343 317.3C343.1 319.7 343.3 322.1 343.9 324.4C344.8 328 346.3 328.9 350.2 328.3C354.8 327.6 359.3 326.9 363.9 326.3C372.3 325.3 380.6 324.3 389 323.3C390.4 323.1 391.2 322.5 391.7 321C393 316.6 394.5 312.2 395.8 307.8C398.3 299.4 399 290.7 400.1 282C400.4 279.5 399.8 278.7 397.4 278.6C394.5 278.5 391.7 278.6 388.8 278.7C378 278.9 367.1 279.2 356.3 279.4C352.5 279.5 350 277.3 348.7 273.8C347.4 270.5 347.3 267 347.9 263.5C349.4 255.4 350.4 247.2 350.4 238.9C350.4 233.8 350.4 228.7 350.4 223.6C350.4 203.2 350.7 182.8 348.4 162.5C347.4 153.7 346.8 144.8 345.6 136C344.3 125.9 342.6 115.9 340.9 105.9C339.5 97.8998 337.7 89.9998 336.2 82.0998C335.8 80.0998 335.4 77.9998 335.6 75.8998C336 71.7998 337.4 68.9998 342.1 69.5998C345.9 70.0998 349.7 70.6998 353.4 71.4998C360.7 73.1998 367.9 75.0998 375.1 76.7998C375.6 76.8998 376.3 76.6998 376.8 76.6998C376.7 76.1998 376.7 75.6998 376.4 75.3998C375 72.8998 373.5 70.3998 372 67.9998C370.3 65.2998 368.5 62.6998 366.9 59.8998C366.6 59.3998 366.7 58.1998 367.1 57.7998C367.5 57.3998 368.7 57.2998 369.2 57.6998C370.1 58.2998 370.8 59.1998 371.4 60.1998C374.4 65.0998 377.5 69.8998 380.2 74.9998C381.5 77.4998 383.1 78.7998 385.9 79.3998C394.6 81.2998 403.2 83.3998 411.9 85.3998C429.7 89.3998 447.5 93.3998 465.3 97.4998C475.5 99.7998 485.7 102.4 495.9 104.8C505.6 107.1 515.3 109.6 525.1 111.7C530.4 112.8 534.6 115.2 537.7 119.5C539.2 121.6 540.7 123.6 542.1 125.8C543 127.2 544.2 127.9 546 128.2C554.6 129.8 563.1 131.8 571.4 134.6C577.6 136.7 582.4 140.3 586 145.6C594.3 157.6 597.7 171.2 598.5 185.6C598.7 189.2 598.6 189.5 601.8 190C603.4 190.3 604.1 190.9 604.1 192.3C604.2 194 603.1 194.6 601.7 194.4C599.7 194.2 599.3 195.2 599.2 197C599 201.1 598.9 205.3 598.4 209.4C597.6 214.9 596.8 220.4 595.3 225.8C593.5 232.2 591.1 238.5 588.7 244.7C587.2 248.6 584.9 252.1 579.9 252.2C578.8 252.2 577.7 252.7 576.6 252.8C575 252.9 574.4 253.6 574.4 255.2C574.4 257.8 574.6 260.3 574.2 262.8C573.1 270.2 572 277.5 570.4 284.8C569.5 289 567.9 293 566.5 297.1C566.3 297.7 565.3 297.9 564.7 298.3C564.3 297.7 563.7 297.1 563.7 296.4C563.7 295.3 563.9 294.2 564.2 293.1C565.5 287.9 567 282.7 568.2 277.4C569.7 270.2 570.9 263 570.6 255.7C570.5 254.2 570.8 253 568.3 253.5C565.2 254.2 562 254.3 558.8 254.6C557.5 254.7 556.2 254.8 555 254.6C554.5 254.5 553.6 254 553.6 253.6C553.5 252.9 553.7 251.8 554.2 251.5C555.1 250.9 556.2 250.7 557.3 250.6C560.9 250.2 564.6 250 568.2 249.6C568.9 249.5 569.5 249 570.1 248.7C569.8 248.2 569.6 247.5 569.1 247.2C567.5 246.3 567.5 245.2 568.8 244.2C570.2 243.1 570.6 241.6 570.7 240C570.9 235.7 571.4 231.4 571.2 227.1C571.1 223.7 570.2 220.2 569.5 216.8C568.7 212.8 565.5 211.2 561.9 210.6C558.9 210.1 555.9 209.8 552.9 209.7C540.7 209.3 528.4 208.9 516.1 208.6C510.1 208.5 510.1 208.5 509.3 214.7C509.3 214.9 509.3 215 509.3 215.2C507.6 227 503.8 238.1 496.7 247.8C493.9 251.6 490.4 254.5 485.9 256C480.3 257.9 474.5 258.9 468.6 259.1C465.3 259.2 461.9 259.2 458.6 259.4C457.9 259.4 456.8 260.2 456.7 260.9C456.3 262.4 457.5 262.8 458.8 262.7C462 262.5 465.1 262.1 468.3 262C471.5 261.8 474.7 262 477.9 261.8C485.7 261.3 493.4 260.5 501.2 260C506.2 259.7 506.4 259.6 508.2 255.1C510.5 249.2 512.7 243.2 515.1 237.3C516.3 234.5 517.8 231.9 519.5 229.4C520.9 227.3 522.9 225.6 525.6 225C528.4 224.4 530.9 225.7 531.2 228.5C531.4 230 531 231.7 530.4 233.1C529.7 235 528.5 236.8 527.6 238.6C523.7 246.1 520 253.7 515.9 261C514.4 263.7 512.3 266.4 510 268.5C508.1 270.3 505.5 271.9 503 272.4C497.9 273.5 492.7 274 487.4 274.3C478 274.9 468.7 275.2 459.3 275.5C457.6 275.6 456.6 276 456.7 277.9C456.8 280.8 456.7 283.6 456.7 286.5C456.7 295.8 456.2 305 451.4 313.3C450.8 314.3 450.7 315 452.4 314.7C460.6 313.6 468.8 312.7 477 311.6C485.6 310.4 494.3 309.2 502.9 307.8C509.5 306.7 512.5 303.5 513.8 297.1C514.4 294 515 290.9 515.7 287.8C517.4 280.2 518.8 272.5 522.5 265.5C523.9 262.9 525.6 260.3 527.8 258.2C532 254.2 536.7 254.1 541.3 257.4C542.8 258.5 544.4 259.9 545.2 261.5C547.7 266.6 550.3 271.8 550.4 277.7C550.4 279.5 550.6 281.3 550.7 283.8C552.2 280.2 552 277.2 551.7 274.2C551.3 270.1 551.2 265.9 551.2 261.8C551.2 261 552.1 260.3 552.6 259.5C553.4 260.2 554.5 260.7 554.8 261.6C555.2 262.7 555.1 264.1 555.1 265.4C555.2 275.5 555.2 285.5 555.3 295.6C555.3 299.8 556.5 301 560.8 301C563.5 301 566.2 300.6 568.8 300.1C577.4 298.5 586 297 594.5 295.1C600.3 293.8 604.4 290.2 605.9 284.1C606.8 280.4 607.8 276.7 608.3 272.9C608.7 270.2 608.4 267.3 608.4 264.5C608 265.9 608.1 267.4 607.8 268.7C607.4 270.9 606.8 273 606 275.1C605.7 275.9 604.3 276.9 603.6 276.7C602.1 276.4 601.1 275.2 601.6 273.5C601.9 272.3 602.3 271.1 603 270C603.8 268.7 604.4 267.7 602.9 266.3C602.2 265.7 602.4 264 602.3 262.8C602.3 262.6 603 262.2 603.4 262.1C603.6 262.1 604 262.4 604.1 262.6C604.3 263.3 604.5 264.1 604.7 264.8C605 263.7 605 262.6 605 261.4C605 260 605.7 258.4 603.2 258C602 257.8 602.5 255.1 603.8 255.3C605.8 255.6 605.9 255 606 253.4C606.1 251.9 605.6 251.7 604.1 251.7C603.5 251.7 602.6 250.2 602.5 249.3C602.4 248.7 603.2 247.7 603.9 247.2C605.9 245.7 605.9 245.9 604 244.5C603.4 244.1 602.6 243.1 602.7 242.5C602.9 241.3 604 241.4 605 241.8C605.2 241.9 605.7 241.8 605.8 241.6C606.2 240.6 604.4 238.2 603.3 238.3C602.5 238.4 601.7 238.8 601 238.7C600.3 238.7 599.1 238.3 599 237.9C598.8 237.1 599 236 599.5 235.3C601.7 232.6 607.1 233.5 608.1 236.9C609 239.9 609.1 243.1 609.3 246.3C609.5 250.7 609.3 255.1 609.3 259.6C609.6 259.6 609.9 259.6 610.2 259.6C609.9 247 609.4 234.5 609.2 221.9C609.1 212.2 608.4 202.5 607.1 192.9C606.2 186 605.4 179 603.9 172.2C602.6 166.2 600.5 160.3 598.7 154.3C596.6 147.2 593.2 140.7 587.9 135.5C585.7 133.4 583.4 131.5 581.2 129.3C580.8 128.9 580.5 127.7 580.8 127.3C581.1 126.8 582.2 126.7 582.9 126.8C583.5 126.8 584.2 127.2 584.6 127.6C587.4 130 590.4 132.2 592.7 134.9C596.9 139.8 599.8 145.5 602.2 151.4C601.5 146.2 600.7 141 598.6 136.2C598 134.8 597.1 133.4 596.1 132.2C593.5 128.8 589.9 126.8 585.9 125.5C576.5 122.5 567 120 557.7 116.6C540.1 110.2 522.5 103.5 505.1 96.5998C487.8 89.6998 470.1 84.1998 452 79.6998C441.5 77.0998 431.1 74.2998 420.6 71.5998C414.3 69.9998 407.9 68.5998 401.7 66.7998C395 64.8998 388.3 62.6998 381.8 60.2998C378.1 58.8998 377 56.7998 377.6 54.7998C378.2 52.8998 382.2 50.7998 384.8 50.9998C385 50.9998 385.1 50.9998 385.3 51.0998C390.4 52.4998 395.5 53.6998 400.4 55.1998C403.7 56.1998 406.7 58.0998 408.1 61.2998C409.7 64.8998 412.8 65.7998 416 66.6998C416.4 66.7998 416.9 66.5998 417.3 66.5998C417.2 66.1998 417.2 65.6998 417.1 65.2998C414.8 60.2998 411.4 56.5998 405.8 55.1998C397.9 53.2998 390.1 51.1998 382.3 49.1998C373.7 46.9998 365 44.8998 356.4 42.5998C341.1 38.4998 325.8 34.1998 310.4 30.0998C304.3 28.8998 298.6 27.7998 292.8 26.3998ZM209.9 110.6C209.7 110.6 209.6 110.6 209.4 110.6C209.4 106.9 209.6 103.3 209.4 99.5998C209 93.3998 205.4 88.0998 200.6 87.2998C195.6 86.3998 190.5 86.1998 185.4 86.0998C181 86.0998 176.5 86.6998 172.1 86.9998C171 87.0998 169.9 87.0998 168.8 87.1998C160.8 88.2998 152.8 89.4998 144.8 90.4998C134.1 91.8998 123.4 93.0998 112.7 94.6998C97.3001 96.9998 82.0001 99.6998 66.7001 102.2C55.0001 104.1 47.9001 110.7 46.1001 121.7C44.7001 130.6 43.5001 139.6 41.9001 148.5C39.0001 164.6 36.0001 180.6 33.0001 196.7C31.6001 204.1 33.5001 208.8 39.8001 213.1C41.2001 214.1 42.2001 214.1 43.6001 213.1C46.9001 210.8 50.3001 208.8 53.6001 206.6C61.9001 200.8 70.6001 196.5 81.1001 195.5C91.4001 194.5 101.7 193.9 112 193.3C122.3 192.7 132.7 193.2 143.1 192.8C151.1 192.5 158.2 194.7 164.7 199.1C169.2 202.1 173.7 205 178.2 208.1C179.4 208.9 180.5 209.7 182.1 208.9C187.3 206.1 192.5 203.4 197.6 200.5C200.6 198.8 202.2 196 202.7 192.8C203.4 188.4 203.6 184 204 179.5C204.4 174.4 204.7 169.4 205.2 164.3C206 156.7 207 149.2 207.7 141.6C208.4 131.2 209.1 120.9 209.9 110.6ZM245.7 185.1C244.6 187 243.6 188.8 242.5 190.5C240 194.2 236.2 196.3 232.5 198.3C225.1 202.4 217.4 205.8 209.4 208.6C205.9 209.8 205.9 210.1 205.7 213.8C205.5 218.2 205.2 222.7 205 227.1C204.9 230.7 203.2 233.5 200.6 235.8C196.5 239.4 191.6 242.2 186.4 243.4C179.2 245.1 171.7 246.3 164.3 246.5C134.9 247.1 105.4 247.2 76.0001 247.5C65.5001 247.6 54.9001 247.6 44.4001 247.6C38.8001 247.6 33.3001 247 28.6001 243.4C28.3001 243.2 27.8001 243.3 27.4001 243.3C27.5001 243.6 27.4001 243.9 27.6001 244.2C30.3001 249.8 30.7001 255.8 30.7001 261.9C30.8001 274.7 30.8001 287.4 30.9001 300.2C31.0001 305.1 31.0001 310.1 31.7001 314.9C32.6001 320.9 35.1001 325.4 41.9001 326.4C44.9001 326.8 47.9001 326.9 50.9001 327C73.3001 327.4 95.8001 326.2 118.2 328.6C129.9 329.9 141.7 329.5 153.5 329.9C159.1 330.1 164.6 330.6 170.2 331C175.6 331.3 181 331.6 186.4 331.8C187.6 331.9 188.2 331.6 187.6 330.2C186 326.6 185.7 322.8 185.8 319C186.1 299.7 186.3 280.4 186.6 261.2C186.7 253.3 190 247.3 196.4 242.6C204.6 236.7 213.5 232.1 222.5 227.8C229.4 224.5 236.3 221.3 243.4 218.4C245.6 217.5 246.2 216.2 246.1 214.1C246 205 246.1 195.9 246 186.8C245.9 186.3 245.8 185.7 245.7 185.1ZM547.6 183.8C547.6 186.8 547.7 189.9 547.6 192.9C547.5 194.8 547 196.7 546.6 198.5C546.5 198.9 546 199.3 545.6 199.3C545.3 199.3 544.6 198.9 544.6 198.6C544.3 196.6 543.9 194.6 543.9 192.6C543.9 189.9 544.4 187.2 544.4 184.5C544.4 182 543.8 179.4 543.8 176.9C543.9 169.5 542.7 162.3 541.1 155.2C539.6 148.6 537.5 142 535.6 135.5C534.8 132.7 534.5 130.1 537.3 128.3C538.6 127.5 538.5 126.8 537.9 125.7C535.4 121 532 117.3 526.8 115.8C523 114.7 519.1 114 515.2 113.1C504.1 110.5 492.9 107.8 481.8 105.2C470.4 102.5 458.9 99.7998 447.5 96.9998C443.9 96.0998 442.8 96.3998 444.2 100.5C448.9 114.5 452.9 128.7 455.3 143.4C456.4 150.3 457.8 157.2 458.5 164.1C459.4 173.6 460 183.1 460.4 192.6C460.8 200.1 463.6 200.2 468.4 201.3C470.4 201.8 472.5 201.5 474.6 201.6C483.8 202.2 493 202.9 502.2 203.4C507.5 203.7 507.3 203.9 507.2 198.7C507 191.5 506.8 184.4 506.5 177.2C506.2 171.6 506 166.1 505.3 160.6C504.1 151 503.2 141.3 499.2 132.3C498.9 131.7 499.3 130.2 499.8 130C500.5 129.7 501.9 129.9 502.3 130.5C503.3 131.9 504.1 133.5 504.5 135.2C507.5 146.7 509 158.6 510.3 170.4C511 177.3 511 184.4 511.2 191.4C511.3 194.7 511.2 198.1 511.2 201.4C511.3 204.2 511.4 204.3 514.3 204.3C518.1 204.4 522 204.2 525.8 204.6C535.3 205.4 544.8 206.2 554.4 206.3C557.9 206.3 561.4 206.7 564.8 207.4C569.6 208.4 572.8 211.4 573.6 216.3C574.2 219.7 574.5 223.2 574.7 226.7C574.9 231 574.7 235.3 574.7 239.6C574.7 242.7 574.7 242.7 577.9 242.8C579.6 242.9 581.8 242.3 583.1 243.1C585.1 244.5 585.5 243.3 585.9 242C588.2 235.2 590.5 228.5 592.6 221.7C595.1 213.3 595.7 204.5 595.6 195.8C595.6 194 594.9 193.1 593.2 192.9C592.3 192.8 591.3 192.5 590.4 192.4C582.7 191.4 575 190.4 567.3 189.4C559.1 188.3 556 185.4 554.1 177.4C552.8 172 551.7 166.6 550.5 161.1C548.5 152.1 545.8 143.3 542.3 134.7C541.9 133.6 541.6 131.9 539.9 132.4C539.5 132.5 539.4 134.7 539.7 135.8C540.9 140.4 542.4 144.9 543.7 149.5C546.5 160.6 547.8 172.1 547.6 183.8ZM456.8 247.5C456.8 248 456.7 248.5 456.7 248.9C456.4 256.5 456.8 256.9 464.1 255.9C469.7 255.1 475.4 254 481 253.4C485.1 253 488.5 251.2 491 248.4C494.1 245 496.4 241 498.7 237C502.3 230.7 503.8 223.7 505.3 216.7C505.8 214.5 506 212.3 506.3 210.1C506.6 208.2 505.6 207.6 503.8 207.5C493.6 206.9 483.5 206.2 473.3 205.6C471.6 205.5 469.8 205.6 468 205.5C461.7 204.9 456.7 202.4 456.4 193.7C456.2 188.3 456 182.9 455.5 177.5C454.6 167.7 454 157.8 452.3 148.1C449.6 132.6 446 117.3 440.8 102.4C440.2 100.6 439.5 98.7998 439.2 96.8998C438.9 95.3998 438.2 94.7998 436.7 94.4998C432 93.5998 427.4 92.4998 422.7 91.4998C420.8 91.0998 419 90.5998 417.1 90.5998C414 90.4998 412.8 92.1998 413.7 95.1998C413.9 95.7998 414.3 96.2998 414.6 96.8998C418.5 105.6 421.9 114.5 424.2 123.8C426.2 132 428.1 140.2 429.7 148.4C430.9 154.3 432 160.3 431.8 166.4C431.7 169.2 430.7 171.3 428.5 172.9C426.1 174.7 423.2 174.9 420.3 174.6C415.4 174 410.5 173.4 405.7 172.6C403.8 172.3 403.9 173.1 403.9 174.3C404.2 178.4 404.7 182.5 404.7 186.7C404.8 208.2 404.8 229.8 404.8 251.3C404.8 252.4 404.8 253.5 404.8 254.6C404.8 256.1 405.3 257 407 256.9C407.6 256.9 408.3 256.9 408.9 256.9C422.4 256.6 436 256.2 449.5 255.9C452.5 255.8 452.4 255.7 452.6 252.5C452.8 248.5 453.1 244.6 453.6 240.6C453.7 240 454.7 239.4 455.3 238.9C455.7 239.5 456.5 240 456.5 240.7C456.9 243 456.8 245.3 456.8 247.5ZM28.0001 83.7998C28.1001 84.0998 28.2001 84.3998 28.4001 84.5998C29.7001 84.1998 31.0001 83.5998 32.4001 83.3998C34.9001 83.0998 37.6001 82.2998 39.9001 82.8998C42.2001 83.4998 42.9001 82.7998 43.8001 81.0998C47.4001 73.9998 53.0001 69.2998 60.8001 67.4998C70.2001 65.2998 79.8001 63.4998 89.3001 61.7998C99.4001 59.8998 109.6 58.1998 119.8 56.3998C131.7 54.2998 143.5 52.0998 155.5 50.2998C164.4 48.9998 173.5 48.0998 182.5 47.1998C192.4 46.1998 202.4 45.1998 212.4 44.4998C223.6 43.7998 234.7 44.4998 245.7 46.5998C249.4 47.2998 251.2 46.1998 253.2 43.6998C257.9 37.8998 263.5 33.2998 270.7 30.9998C272.2 30.4998 272.7 29.7998 272.9 28.2998C273.2 25.4998 274.8 23.5998 277.5 22.6998C282 21.1998 286.6 20.5998 291.2 21.5998C300.2 23.5998 309.1 25.7998 318 28.1998C329.4 31.1998 340.6 34.5998 352 37.5998C359.1 39.4998 366.2 40.9998 373.3 42.7998C383.5 45.3998 393.6 48.1998 403.7 50.6998C412.4 52.7998 418.7 57.4998 421.5 66.1998C422.1 67.9998 423.1 68.7998 424.8 69.0998C426 69.2998 427.3 69.6998 428.5 69.7998C428.9 69.8998 429.4 69.5998 429.8 69.5998C429.6 69.1998 429.6 68.6998 429.3 68.2998C426.3 64.1998 423.1 60.1998 420.3 55.9998C416 49.2998 409.7 45.6998 402.2 43.6998C388.6 39.9998 375 36.0998 361.4 32.1998C349.3 28.7998 337.3 25.1998 325.2 21.7998C307.3 16.7998 289.4 11.6998 271.5 6.89977C266 5.39977 260.3 3.99977 254.7 6.29977C250.9 7.89977 247 9.59977 243.9 12.1998C229.6 23.3998 213.8 30.3998 195.5 31.2998C189.3 31.5998 183.2 32.3998 177 33.1998C167.9 34.2998 158.7 35.4998 149.6 36.7998C139.7 38.0998 129.8 39.2998 119.9 40.9998C109.9 42.6998 100 44.9998 90.0001 46.8998C86.3001 47.5998 82.5001 47.9998 78.7001 48.1998C76.6001 48.2998 74.9001 46.4998 74.4001 44.3998C73.9001 42.5998 74.8001 41.3998 76.2001 40.3998C78.5001 38.6998 80.8001 36.9998 83.2001 35.4998C90.2001 30.8998 97.8001 27.5998 105.6 24.6998C101.5 25.0998 97.4001 25.7998 93.7001 27.5998C89.8001 29.4998 85.9001 31.1998 82.1001 33.1998C74.4001 37.3998 66.7001 41.3998 59.6001 46.6998C56.4001 49.0998 54.9001 51.7998 54.7001 55.8998C54.3001 62.3998 52.4001 68.3998 46.2001 71.9998C42.2001 74.2998 38.5001 76.9998 34.6001 79.4998C32.2001 80.9998 30.1001 82.3998 28.0001 83.7998ZM357.2 257C357.9 253.9 358.2 251.4 359.1 249.1C360.1 246.8 362.7 245.6 364.5 246C366.7 246.5 368.5 248.6 368.6 251.3C368.7 252.8 368.1 254.4 367.8 255.9C367.6 257.1 367.9 257.8 369.2 257.8C370.3 257.8 371.4 257.8 372.5 257.8C380.3 257.6 388.1 257.3 395.9 257.1C401.2 257 400.9 257.3 400.8 252.1C400.5 226.6 401.8 201.2 400 175.7C399.8 172.3 399.9 172.2 396.4 171.4C395.6 171.2 394.8 171.1 394.1 171C384.3 170 374.5 169 364.8 167.8C362.1 167.5 359.5 166.7 356.9 165.9C355.3 165.4 353.9 164.6 352.4 163.9C352.4 165.6 352.3 167.4 352.3 169.1C352.3 170.2 352.3 171.3 352.4 172.4C353 180 353.9 187.6 354.1 195.2C354.4 208.9 354.3 222.6 354.2 236.3C354.2 241.3 354.7 246.1 355.8 250.9C356.3 253 356.7 254.8 357.2 257ZM399.1 162.3C399 160.7 399.1 159.1 398.8 157.5C397.7 150.1 396.5 142.8 395.3 135.4C393.2 121.7 390 108.3 385.1 95.2998C383.7 91.4998 381.6 87.7998 380.1 83.9998C379.1 81.5998 377.3 80.6998 375 80.1998C372.1 79.4998 369.1 78.8998 366.2 78.1998C359.6 76.6998 352.9 75.0998 346.3 73.6998C345.1 73.3998 343.8 73.2998 342.5 73.2998C340.1 73.3998 339.2 74.4998 339.6 76.9998C341.4 87.9998 343.3 98.8998 345.1 109.8C346.6 118.7 348 127.6 349.4 136.6C350.4 142.4 351.1 148.2 352.5 153.9C353.7 158.7 356.1 162.7 361.9 163.3C365.8 163.7 369.7 164.4 373.7 164.9C380.2 165.7 386.7 166.2 393.1 167.1C399.4 168.2 399.3 168.3 399.1 162.3ZM239.2 117.1C239 117.1 238.8 117 238.7 117C238.2 118.2 237.8 119.3 237.3 120.5C234.9 126 228.8 127.6 223.8 124C222.9 123.4 222 122.6 220.9 122.4C216.9 121.5 215.6 118.5 215.2 115C214.7 110.6 214.6 106.1 214.1 101.7C213.6 97.2998 213.1 92.8998 212.2 88.4998C211.2 83.6998 207.4 80.2998 202.4 80.0998C197.6 79.8998 192.8 79.9998 188.1 80.3998C180.4 81.0998 172.6 82.0998 164.9 82.8998C158.3 83.5998 151.6 84.1998 145 85.0998C135.1 86.4998 125.2 88.0998 115.3 89.4998C102.7 91.2998 90.1001 92.5998 77.6001 94.5998C65.4001 96.5998 53.1001 98.3998 41.2001 101.8C38.5001 102.6 36.9001 103.6 36.4001 106.3C35.5001 110.8 34.6001 115.3 33.8001 119.9C32.6001 126.8 31.6001 133.7 30.5001 140.6C29.0001 150.5 27.5001 160.4 25.9001 170.2C24.6001 178.7 22.9001 187.1 23.6001 195.8C23.7001 197.5 23.8001 199.3 23.6001 201.1C23.0001 207.9 27.0001 211.7 32.5001 214.4C33.0001 214.7 33.7001 214.5 34.3001 214.6C34.1001 214.1 33.9001 213.5 33.6001 213.2C29.5001 208.9 27.4001 203.9 28.5001 197.9C31.1001 183.9 33.8001 169.8 36.4001 155.8C37.5001 149.9 38.6001 143.9 39.7001 138C41.1001 130.5 42.1001 122.9 43.8001 115.5C45.5001 108.2 50.3001 103.1 57.5001 100.8C62.6001 99.0998 67.9001 98.0998 73.2001 96.9998C78.5001 95.9998 83.9001 95.2998 89.2001 94.4998C100.2 92.7998 111.2 91.0998 122.1 89.3998C128.2 88.4998 134.3 87.4998 140.5 86.6998C147.3 85.8998 154.1 85.1998 160.9 84.4998C164.5 84.0998 168.2 83.5998 171.8 83.2998C180.3 82.4998 188.8 81.2998 197.4 82.4998C206.9 83.7998 212.2 89.9998 213.1 97.9998C213.9 106.2 213.5 114.6 213.1 122.8C212.7 130.7 211.3 138.6 210.6 146.5C209.8 155.8 209.3 165.2 208.5 174.6C208.2 178.4 207.3 182.1 207 185.9C206.5 191.9 206.1 197.9 205.7 204C205.6 205.6 206.1 205.9 207.6 205.2C215 201.9 222.6 198.9 229.9 195.3C234.6 193 239 189.9 241.2 184.8C243.1 180.3 244.8 175.6 244.7 170.5C244.4 160.8 244 151.1 243.7 141.4C243.7 141.3 243.6 141.1 243.1 140.4C243.1 142.1 243.1 143.2 243.1 144.3C243.1 152.8 243.2 161.2 243 169.7C242.8 178.3 239.6 185.6 231.9 190.2C225.6 193.9 219 197.1 212.5 200.5C211.7 200.9 210.7 201.2 209.8 201.4C208.1 201.8 207.1 200.6 207.6 198.9C208.1 197.2 209.5 197 210.9 196.5C218.8 193.4 226.5 190.1 233 184.5C235.9 182.1 238 179.2 238.2 175.3C238.4 171.7 238.9 168 238.9 164.4C239 149.6 239 134.7 239.1 119.9C239.2 119 239.2 118 239.2 117.1ZM443.8 276.4C443.8 276.4 443 276.4 442.2 276.5C430.8 277.1 419.4 277.7 408 278.2C404 278.4 403.7 278.5 403.2 282.4C403.1 283 403.2 283.7 403.1 284.3C402.2 290.7 401.6 297.2 400.3 303.6C399.2 309.2 397.4 314.6 395.8 320.1C395.3 321.7 395.8 322.2 397.3 322C397.9 321.9 398.6 321.8 399.2 321.7C406.6 320.6 413.9 319.4 421.3 318.4C427.6 317.6 433.9 317 440.2 316.3C443.9 315.8 446.9 314.2 448.5 310.7C449.6 308.1 451.1 305.5 451.5 302.7C452.5 296.6 453.2 290.4 453.4 284.3C453.7 275.4 454.5 276.6 445.6 276.4C445.3 276.4 444.9 276.4 443.8 276.4ZM427.9 163.2C428 163.2 428 163.2 428.1 163.2C427.7 160.4 427.2 157.6 426.9 154.7C426 145.2 423.8 135.9 421.3 126.8C418.7 117.1 415.5 107.7 411.3 98.5998C410.2 96.2998 408.8 93.8998 409.9 91.2998C410.7 89.1998 409.8 88.7998 408.2 88.3998C403.4 87.2998 398.6 86.1998 393.9 84.9998C391.4 84.3998 389 83.5998 386.5 83.0998C384.5 82.6998 384.2 83.0998 385.1 84.9998C390.3 96.4998 393.8 108.5 396.5 120.8C399.8 135.7 401.7 150.8 403.2 165.9C403.5 168.7 403.5 168.7 406.2 169C411.4 169.6 416.6 170.2 421.7 170.8C425.7 171.3 427.7 169.6 427.9 165.7C427.9 164.8 427.9 164 427.9 163.2ZM176.2 211.6C171.2 207.5 166.3 204.4 161.3 201.4C155.7 197.9 149.7 196.7 143.1 196.9C130.1 197.4 117 197.5 104 197.9C97.3001 198.1 90.7001 198.4 84.0001 199C78.1001 199.5 72.1001 200.1 66.9001 203C60.1001 206.7 53.7001 211.2 47.2001 215.3C48.6001 215.9 49.7001 216 50.8001 215.9C59.5001 215.6 68.3001 215.8 77.0001 215.2C91.7001 214.1 106.6 215.3 121.4 214.3C134.4 213.4 147.5 214 160.6 213.9C165.6 213.8 170.5 212.9 176.2 211.6ZM25.8001 234.3C26.8001 230.2 29.6001 229.7 33.0001 230.1C33.8001 230.2 34.6001 230.1 35.4001 230.2C41.9001 231.3 48.4001 231.4 54.9001 231.2C60.8001 231 66.6001 230.5 72.5001 230.4C97.4001 230 122.2 229.8 147.1 229.4C158.9 229.2 170.6 228.7 182.4 228.3C184.2 228.2 186 227.7 187.8 227.4C185.7 227.1 183.7 227.5 181.7 227.6C174.9 228 172.2 225 172.9 218.1C173 216.8 172.7 216.7 171.4 216.8C167.8 217.1 164.1 217.1 160.4 217.2C156.6 217.4 152.8 217.6 149 217.8C142.5 218.1 136 218.6 129.5 218.8C127.1 218.9 124.8 218.2 122.4 218.2C119.9 218.2 117.4 218.9 114.8 219C100.5 219.3 86.2001 219.6 71.8001 219.9C64.8001 220 57.8001 220.1 50.8001 220C48.5001 220 47.1001 220.1 46.8001 223.1C46.5001 226.2 42.4001 227.9 38.8001 227C35.1001 226.1 34.6001 225.4 35.6001 221.1C35.9001 219.6 35.6001 219.2 34.3001 218.8C29.3001 217.3 24.8001 215.1 21.9001 210.5C21.7001 210.3 21.5001 210.1 21.2001 209.9C20.9001 210.2 20.4001 210.6 20.3001 210.9C19.9001 217.2 19.3001 223.6 19.3001 229.9C19.3001 232.8 20.5001 235.7 23.6001 238C23.0001 235.9 22.3001 234.5 22.2001 232.9C22.0001 230.1 22.0001 227.2 22.1001 224.4C22.1001 223.9 23.2001 223.1 23.7001 223.1C24.3001 223.1 25.1001 223.8 25.4001 224.4C25.7001 225.2 25.7001 226.3 25.7001 227.2C25.9001 229.5 25.8001 231.9 25.8001 234.3ZM589.6 188.6C589.6 188.5 589.6 188.4 589.7 188.3C591 188.3 592.2 188.3 593.5 188.3C594.7 188.3 595.3 187.7 595.1 186.5C594.7 182.9 594.5 179.2 593.8 175.7C592.4 168.2 590.2 160.9 586.9 154C583.1 146 577.6 140 568.9 137.6C562 135.7 555.1 134 548.2 132.2C545.9 131.6 545.5 132.3 546.3 134.8C547.7 139 549.4 143.1 550.5 147.4C553.1 157.5 555.7 167.7 557.9 177.9C558.8 181.9 560.9 184 564.8 184.6C573.1 185.8 581.4 187.2 589.6 188.6ZM192.3 75.9998C195.3 75.9998 198.5 75.6998 201.6 76.0998C204.2 76.3998 206.9 77.0998 209.3 78.2998C215.1 81.1998 216.5 86.8998 217.2 92.6998C217.9 98.3998 217.9 104.1 218.4 109.8C218.6 112.3 219.2 114.8 220.1 117.2C221 119.5 223.2 119.8 225.2 118.3C227.6 116.4 228.7 113.9 228.7 110.8C228.6 97.9998 228.6 85.2998 228.5 72.4998C228.5 70.7998 227.9 69.0998 227.8 67.2998C227.7 65.0998 226.5 64.6998 224.6 64.8998C222.6 65.1998 220.5 65.7998 218.5 65.7998C215.4 65.7998 214.1 63.7998 214.8 60.7998C215.7 56.6998 215.7 56.6998 211.6 55.7998C210.5 55.5998 209.4 55.2998 208.3 55.3998C200.2 55.6998 192 55.6998 184 56.5998C171.4 58.0998 158.9 60.0998 146.3 62.0998C134.1 63.9998 121.8 65.8998 109.7 68.1998C97.7001 70.3998 85.8001 73.0998 73.8001 75.6998C71.7001 76.1998 69.6001 77.0998 67.6001 78.0998C66.9001 78.3998 66.7001 79.4998 66.2001 80.1998C66.9001 80.4998 67.6001 80.9998 68.2001 80.9998C69.5001 80.9998 70.7001 80.6998 72.0001 80.3998C82.3001 77.7998 92.6001 74.9998 102.9 72.6998C113.4 70.3998 124 68.4998 134.7 66.6998C142.2 65.3998 149.8 64.4998 157.3 63.5998C166.9 62.3998 176.5 61.0998 186.1 60.0998C188.3 59.8998 190.6 60.1998 192.7 60.6998C197.5 61.9998 199.2 65.8998 196.8 70.2998C195.6 72.2998 193.8 74.0998 192.3 75.9998ZM80.7001 44.4998C81.7001 44.3998 82.5001 44.3998 83.3001 44.2998C95.5001 42.0998 107.7 39.9998 119.8 37.5998C136.3 34.2998 153 32.0998 169.7 30.2998C180.9 29.0998 192 27.4998 203.2 26.4998C214.3 25.4998 224 20.9998 233 14.6998C233.4 14.4998 233.6 13.9998 233.9 13.6998C233.4 13.4998 232.8 13.1998 232.3 13.1998C227.9 13.5998 223.5 14.0998 219.1 14.6998C206.9 16.3998 194.6 18.2998 182.4 19.8998C174.8 20.8998 167.2 21.2998 159.7 21.9998C154.8 22.4998 149.9 23.1998 145.1 23.7998C139.9 24.3998 134.7 25.2998 129.5 25.5998C117.4 26.3998 105.5 28.1998 94.5001 33.6998C89.6001 36.1998 84.9001 39.3998 80.2001 42.2998C79.7001 42.5998 79.5001 43.5998 79.2001 44.2998C79.6001 44.2998 80.2001 44.3998 80.7001 44.4998ZM4.80007 114C4.80007 117.2 4.60011 120.4 4.90011 123.6C5.10011 126.1 5.8001 128.6 6.7001 130.9C7.7001 133.6 10.2001 133.8 12.7001 133.7C15.1001 133.6 16.6001 132.3 17.3001 130.2C17.7001 128.9 17.9001 127.4 18.0001 126C18.1001 122.7 17.9001 119.3 18.1001 116C18.3001 110.3 20.7001 105.9 26.0001 103.3C28.1001 102.3 30.4001 101.4 32.5001 100.2C33.4001 99.6998 34.3001 98.8998 34.8001 98.0998C36.2001 95.3998 37.4001 92.5998 38.5001 89.7998C38.9001 88.8998 39.0001 87.3998 38.5001 86.7998C38.0001 86.2998 36.5001 86.2998 35.5001 86.5998C32.2001 87.6998 28.9001 88.8998 25.7001 90.1998C25.0001 90.4998 24.4001 91.4998 24.1001 92.2998C22.7001 95.9998 21.5001 96.3998 18.3001 94.0998C17.5001 93.4998 16.4001 92.6998 15.5001 92.6998C9.90008 93.0998 5.10011 98.2998 4.90011 103.9C4.70011 107.3 4.80007 110.6 4.80007 114ZM188.4 232.3C184.5 232.3 181.2 232.3 177.9 232.3C175.6 232.3 175.6 232.4 176.1 234.8C176.5 236.8 175.3 238 173.8 238.5C171.4 239.3 168.9 239.8 166.4 239.9C131.6 240.3 96.9001 240.6 62.1001 240.9C56.0001 241 50.0001 241.1 43.9001 241.1C40.2001 241.1 37.0001 240.2 35.0001 236.6C34.7001 236 34.4001 235.3 33.9001 235C33.1001 234.6 32.1001 234.4 31.3001 234.5C31.0001 234.6 30.6001 235.9 30.7001 236.5C31.2001 239.1 32.4001 241.4 35.2001 242.2C37.3001 242.8 39.5001 243.5 41.7001 243.5C45.7001 243.5 49.6001 242.9 53.6001 242.9C89.7001 242.8 125.7 242.8 161.8 242.7C165.6 242.7 169.4 242.2 173.2 241.9C179.7 241.4 184.2 237.7 188.4 232.3ZM210 294C209.6 293.1 209.1 292.1 208.8 291.2C208.1 288.5 207.8 285.7 210.2 283.7C212.2 282 212.6 280.1 212.3 277.8C211.9 274.6 212.8 271.8 215.3 269.7C216.6 268.5 216.8 267.4 216.5 265.6C215.5 260.3 217.2 257.3 222.1 254.7C223.2 254.1 224.4 253.6 225.5 253C226.7 252.3 227.3 249.3 226.6 247.8C225.9 246.2 224.5 246.1 223 246.7C220.4 247.8 217.5 248.5 215.1 250C210.4 253.2 206.5 257.3 206 263.3C205.4 269.8 205.4 276.3 205.1 282.8C204.8 287.2 206.3 291 210 294ZM301.4 342.6C302.5 346.3 304.8 348.3 307.4 350C310.5 352 313.5 351.9 316.9 350.5C321.9 348.4 324 344.1 325.9 339.8C329.5 331.4 331.3 322.5 330.9 313.4C330.8 310.9 330.4 308.4 330.1 305.8C329.3 297.6 327.1 289.8 322.3 283.1C318.6 277.9 312.8 276.5 307.7 280C304.9 281.9 302.7 284.6 301.4 288.6C302.8 287.7 303.6 287.2 304.4 286.7C310.8 282.1 317.4 283 321.9 290C325.2 295.1 327.3 300.4 327.3 306.5C327.4 311.6 327.4 316.7 327.3 321.8C327.1 327.7 325.4 333.4 323.1 338.8C321.9 341.5 319.7 343.8 317.6 345.9C314.8 348.6 311.4 349.2 308 347.2C305.9 345.9 303.9 344.3 301.4 342.6ZM352.6 256.2C352.1 260.8 351.5 264.7 351.4 268.6C351.4 273.6 353.4 275.4 358.5 275.4C368.8 275.4 379.2 275.3 389.5 275.1C392.3 275.1 395.2 274.6 398 274.4C400.1 274.3 400 272.8 400 271.3C400 269.8 399.7 268.8 397.9 268.9C393 269.1 388.1 269.2 383.1 269.4C374.2 269.8 365.2 270.4 358.3 262.9C358 262.6 357.5 262.3 357.1 262.1C355 261 353.5 259.2 352.6 256.2ZM172.8 233.2C171.7 233.2 170.9 233.2 170.1 233.2C153.1 233.5 136 233.8 119 234.1C94.6001 234.5 70.3001 234.8 45.9001 235.2C44.3001 235.2 42.7001 235 41.2001 234.9C40.4001 234.9 39.5001 234.9 38.7001 234.9C39.3001 235.6 39.8001 236.6 40.6001 236.9C41.9001 237.5 43.3001 237.9 44.7001 237.8C49.0001 237.7 53.3001 237.1 57.5001 237.1C81.9001 236.7 106.2 236.4 130.6 236.1C142.2 236 153.9 235.9 165.5 235.9C168.1 235.9 170.6 235.6 172.8 233.2ZM313.6 301.6C311.9 299.3 310.4 297.1 308.7 295.1C307.8 294 306.6 293.6 305.5 294.9C304.5 296 303.3 296.9 302.7 298.1C300.4 302.3 298.5 306.6 298.7 311.6C298.9 315.3 298.7 318.9 298.8 322.6C298.9 327.5 300.7 331.9 303 336.1C305.6 340.8 308.2 340.6 311 335.9C312.4 333.6 312.5 332.6 310.6 330.9C305 325.8 303.9 319.2 304.4 312.2C304.7 306.4 308.2 302.5 313.6 301.6ZM516.2 303.2C513.9 307.7 510.6 310.5 506 311.5C504.9 311.7 503.8 311.8 502.7 312C501.6 312.2 501 312.7 501.4 314C503.6 320.4 506 326.8 513.4 329C516.9 330 520.6 330.2 524.1 330.7C524.6 330.8 525.7 330.3 525.7 330.1C525.7 329.5 525.5 328.6 525 328.2C521.2 324.2 518.6 319.5 517.6 314C517.1 310.5 516.7 307.1 516.2 303.2ZM542.9 293.4C542.5 290.3 542.1 287.1 541.7 284C541.5 282.3 540.7 280.9 539 280.4C537 279.7 535.6 280.9 534.5 282.3C533.8 283.2 533.3 284.2 532.6 285C532.2 285.4 531.4 285.7 531 285.6C530.5 285.4 530 284.7 529.9 284.2C529.8 283.5 529.9 282.6 530.1 281.9C530.7 279.3 532.2 277.2 534.4 275.9C535.4 275.3 535.8 274.8 534.8 273.8C533.9 272.9 533.3 273 532.4 273.9C530.3 276.2 528.1 278.5 527.5 281.8C527 284.1 526.4 286.4 526.1 288.8C525.8 291.3 525.4 293.9 525.9 296.4C526.3 298.6 527.6 300.7 528.7 302.8C528.8 303.1 529.8 303 530.4 303C530.3 302.6 530.2 302.2 530.2 301.8C529.6 298.2 528.9 294.7 528.5 291.1C528.3 289.6 528.9 288.2 530.6 287.8C531.1 287.7 532 288.1 532.3 288.6C532.6 289 532.5 289.8 532.4 290.5C531.4 297.1 534.3 302.2 538.4 306.9C539.2 307.8 539.7 307.5 540.1 306.6C541.9 302.2 542.8 297.9 542.9 293.4ZM127.1 21.3998C128.5 21.3998 129.9 21.4998 131.3 21.3998C141.5 20.1998 151.8 18.9998 162 17.7998C173.8 16.3998 185.6 15.1998 197.5 13.7998C203.5 13.0998 209.5 12.4998 215.4 11.6998C222.9 10.5998 230.4 9.39977 237.9 7.99977C241.4 7.29977 245 7.09977 248 4.59977C207.5 8.39977 167.4 15.6998 127.1 21.3998ZM27.6001 274.5C26.4001 278.8 25.5001 282.3 24.5001 285.8C24.0001 287.8 23.0001 289.8 23.1001 291.8C23.3001 295.3 22.1001 298 19.6001 300.3C18.4001 301.4 18.0001 302.5 18.5001 304.1C18.9001 305.3 19.0001 306.6 19.0001 307.9C18.9001 311.9 20.4001 315.3 22.0001 318.8C23.6001 322.5 26.6001 324.4 30.1001 325.8C30.5001 326 31.0001 325.9 31.5001 325.9C31.5001 325.4 31.6001 324.7 31.3001 324.3C28.0001 319.8 27.5001 314.7 27.5001 309.3C27.6001 298 27.6001 286.7 27.6001 274.5ZM409.8 274.2C412.3 274 415.4 273.6 418.6 273.5C429.1 273.1 439.5 272.8 450 272.4C450.2 272.4 450.3 272.4 450.5 272.4C452.5 272.2 453.6 270.8 453.3 268.4C453.1 266.5 451.5 266.9 450.3 266.9C447.9 266.9 445.5 266.9 443.1 267C435.2 267.3 427.3 267.6 419.3 268C415 268.2 410.8 268.5 406.5 268.7C405 268.8 404.2 269.3 404.1 270.9C403.9 273.8 404.2 274.2 407.1 274.3C407.8 274.2 408.4 274.2 409.8 274.2ZM238.9 72.5998C238.8 72.1998 238.5 70.7998 238.3 69.3998C237.9 66.7998 235.9 65.7998 233.8 64.9998C232.5 64.5998 231.6 65.0998 231.7 66.6998C231.9 68.6998 232.5 70.7998 232.5 72.7998C232.6 85.9998 232.6 99.1998 232.7 112.4C232.7 114.6 232.2 116.5 230.8 118.1C230.2 118.8 229.7 119.6 229.1 120.4C228.9 120.6 228.9 121.2 228.9 121.3C229.3 121.5 229.8 121.8 230.2 121.6C233.7 120.4 235 117.5 235.3 114.2C236.3 104.1 237.2 93.9998 238.1 83.8998C238.4 80.5998 238.6 77.0998 238.9 72.5998ZM504.3 263.4C499.5 263.9 494.8 264.5 490.1 264.8C481.5 265.3 473 265.5 464.4 266C462.5 266.1 460.6 266.4 458.8 266.7C456.8 267.1 456.5 268 456.8 270.6C457 272.6 458.3 272.1 459.6 272C465.3 271.5 471 271 476.7 270.6C482.9 270.2 489.1 270 495.2 269.4C498.9 269 502.8 268.4 504.3 263.4ZM90.7001 331C89.4001 331 88.2001 331 86.9001 331C85.8001 331 84.9001 331.5 85.6001 332.7C87.4001 335.9 88.9001 339.2 91.1001 342C95.9001 348 103 350 110.2 351.6C110.5 351.7 110.8 351.5 111.1 351.5C111 351.1 110.9 350.7 110.7 350.4C109.8 349.5 108.9 348.6 107.9 347.8C103.5 344.1 99.9001 339.6 97.9001 334.2C96.9001 331.6 95.7001 330.6 93.1001 330.9C92.3001 331.1 91.5001 331 90.7001 331ZM187.1 215.4C188.7 216.4 189.3 216.7 189.8 217C193.7 219.9 193.9 220.6 191.5 224.8C190.9 225.8 190.7 226.3 191.6 227.2C193.8 229.6 193.3 232.1 191.7 234.6C191.1 235.5 190.5 236.5 190 237.5C190.2 237.7 190.5 237.9 190.7 238.1C193.5 236.1 196.4 234.1 199.1 232C199.9 231.4 200.6 230.2 200.7 229.2C201.1 224.1 201.4 219.1 201.6 214C201.7 212.5 200.8 212 199.4 212.3C195.7 213.2 191.8 214.2 187.1 215.4ZM123.4 350.3C125.7 349.6 128.1 349.3 130.1 348.3C135.5 345.4 139.3 341.1 141.6 335.4C142.2 333.9 141.5 333.6 140.4 333.8C139.2 334 138 334.4 137 335.1C135.9 335.9 135 337.1 134.2 338.3C128.4 346.7 114.2 348 107.8 338.3C106.4 336.2 105 334.1 103.5 332.1C103.2 331.8 102.4 331.8 101.8 331.7C101.7 332.1 101.5 332.7 101.7 333C103.1 335.5 104.2 338.2 106 340.4C110.3 345.9 115.8 349.8 123.4 350.3ZM417 261C413.7 261.1 410.3 261.1 407 261.1C405.6 261.1 404.8 261.8 405.1 263.1C405.3 263.7 406.3 264.5 407 264.5C412.9 264.6 418.8 264.7 424.7 264.4C432.8 264 440.9 263.3 448.9 262.6C450.4 262.5 452.6 263.5 453.2 260.9C451.8 260.6 450.3 260 448.9 260.1C438.3 260.4 427.6 260.7 417 261ZM107.4 332.1C109.1 334.2 110.3 336.3 112.1 337.9C118.4 343.4 126.4 342.3 132 335.2C132.4 334.8 132.5 334.1 132.7 333.5C132.1 333.3 131.6 333 131 332.9C123.9 332.5 116.8 332.2 109.7 331.8C109 331.9 108.4 332 107.4 332.1ZM519.9 302.1C519.9 303.7 519.7 305.3 519.9 306.8C520.6 313 522.3 318.9 526.6 323.8C529.7 327.3 533.9 327.8 537.6 324.9C541.8 321.6 543.9 316.9 544.4 311.5C543.6 312.5 543.3 313.7 542.6 314.7C540.4 318.1 537.8 321.1 533.1 320.5C530 320.1 527.9 318.5 526.1 316.1C523 311.9 521.5 307.1 519.9 302.1ZM310.4 262.4C312.6 262.8 314.3 263 316 263.4C324.5 265.6 329.2 271.8 332.9 279.1C335.8 284.9 337.2 291.1 338.4 297.4C338.5 295.5 338.9 293.5 338.5 291.7C337.3 286.4 335.9 281.2 334.4 276.1C333.1 271.7 330.5 268 327 265.2C322.3 261.5 317 259.7 310.4 262.4ZM547.4 286.1C548.1 281.4 546.6 276 545.1 270.7C544.3 268 542.8 265.5 541.4 263C540.7 261.8 539.5 260.6 538.3 260.2C536.6 259.6 534.5 259.1 532.9 259.6C529 260.7 524.1 269 524.1 273.1C525.5 271.1 526.9 268.6 529 266.7C532.4 263.5 536.9 263.8 540 267.3C541.6 269.2 543.1 271.4 544 273.7C545.4 278 546.4 282.5 547.4 286.1ZM527.4 229.5C526.8 229.2 526 228.6 525.7 228.7C524.6 229.5 523.4 230.4 522.6 231.5C517.6 238.8 515.1 247.2 512 255.4C511.9 255.8 511.9 256.3 511.9 256.7C512.3 256.6 512.9 256.5 513.1 256.3C513.8 255.6 514.4 254.9 514.9 254.1C518.9 246.5 522.9 238.9 526.8 231.3C527.1 230.9 527.2 230.4 527.4 229.5ZM317 317.7C316.3 314.1 315.5 310.5 314.8 306.8C314.6 305.8 314.2 305.6 313.2 305.8C310.6 306.3 309.5 307.2 309.2 309.7C309.1 310.8 309.3 311.6 310.7 311.4C311.2 311.3 311.6 311.1 312.1 311C313.2 310.8 314.4 310.7 314.9 312.1C315.4 313.4 314.6 315.1 313.2 315.5C312.3 315.8 311.3 315.8 310.4 315.8C309.2 315.8 309 316.2 309 317.5C309.1 320.7 310.6 323.3 312.1 325.9C312.4 326.5 313.3 327.1 313.9 327C314.5 326.9 315.4 326.2 315.5 325.6C316.1 322.9 316.5 320.5 317 317.7ZM363.8 262.3C365.6 264.1 367.4 264.5 369.3 264.7C373.1 265.1 376.8 265 380.6 264.9C386.3 264.7 392.1 264.9 397.8 264.8C399 264.8 400.7 265.3 400.6 263.3C400.5 261.4 398.7 262 397.6 262C387.4 262 377.2 262 367 262.1C366.2 262 365.3 262.1 363.8 262.3ZM26.9001 268C27.1001 268 27.2001 267.9 27.4001 267.9C27.1001 263 27.1001 258.1 26.3001 253.2C25.6001 248.8 24.0001 244.6 20.4001 241.5C18.8001 240.1 17.1001 239.6 15.2001 240.1C14.8001 240.2 14.3001 240.6 14.1001 240.9C14.0001 241.1 14.4001 241.7 14.7001 241.9C19.5001 244.1 21.7001 248.2 23.0001 252.9C24.1001 256.9 24.9001 260.9 25.9001 264.9C26.1001 266 26.5001 267 26.9001 268ZM13.5001 247.1C13.8001 249.3 14.2001 251.4 14.2001 253.4C14.2001 258.3 16.9001 261.7 20.0001 265C20.5001 265.5 21.4001 265.8 22.1001 266.1C22.0001 265.3 22.1001 264.4 21.9001 263.6C20.9001 259.8 20.0001 255.9 18.7001 252.2C18.0001 250.2 16.5001 248.3 15.3001 246.5C15.1001 246.2 14.4001 246 14.1001 246.1C13.7001 246.2 13.6001 246.8 13.5001 247.1ZM222.9 292.3C222.5 291.6 222 290.2 221 289.3C219.6 288 217.9 287.1 216.4 286C215.4 285.3 214.4 285 213.4 286C212.4 287 211.3 288.2 212 289.7C213.5 293.2 215.9 295.8 219.6 296.9C221.2 297.4 222 296.6 222.4 295.2C222.7 294.5 222.7 293.7 222.9 292.3ZM322.9 316.4C322 312.1 321.1 307.8 320.2 303.5C320.1 303.1 319.6 302.9 319.2 302.6C318.9 303.1 318.2 303.6 318.2 304C318.5 306 319 308 319.4 310C320.2 314.4 321 318.7 319.8 323.1C319.4 324.6 318.8 326.1 318.5 327.7C318.3 328.8 318.4 330 318.4 331.2C319.1 330.2 320.1 329.3 320.4 328.2C321.3 324.4 322 320.5 322.9 316.4ZM383.8 55.9998C383 56.2998 382.7 56.4998 382.5 56.5998C382.8 56.8998 383 57.4998 383.3 57.5998C389.4 59.5998 395.6 61.4998 401.8 63.3998C402.3 63.5998 403 63.2998 403.6 63.1998C403.3 62.4998 403.2 61.6998 402.8 61.1998C402.3 60.5998 401.6 60.0998 400.9 59.8998C395 58.4998 389.2 57.1998 383.8 55.9998ZM202.2 201C197.4 206.6 190.5 208.5 184.4 211.9C188.4 211.1 192.2 209.5 196.2 208.9C200.7 208.2 202.3 205.8 202.4 201.7C202.5 201.5 202.4 201.4 202.2 201ZM220.2 263.6C220.2 263.7 220.1 264.5 220.4 265C220.9 265.9 221.6 267.1 222.4 267.3C223.9 267.7 224.5 266.4 224.7 265C225 263.3 225.5 261.6 225.8 259.9C225.9 259.2 226 258.4 226.1 257.7C225.2 257.9 224.3 258 223.5 258.4C221.8 259.4 220.1 260.7 220.2 263.6ZM216.4 276.5C216.5 278.9 217.1 279.4 219.2 278.4C220.5 277.8 221.7 277 222.8 276.3C225.1 274.7 225.1 274.2 222.6 272.9C221.2 272.2 219.9 271 218.2 272C216.7 273 216.2 274.7 216.4 276.5ZM182.2 222.8C184.3 222.7 185.9 222.7 187.5 222.4C187.8 222.4 188.2 221.3 188.1 221C186.9 219 183.6 217.9 181.3 218.7C180 219.2 178.6 219.5 177.3 220C177 220.1 176.6 220.7 176.6 221C176.6 221.4 177 222 177.3 222.1C179 222.5 180.9 222.7 182.2 222.8ZM22.3001 278.7C24.3001 272.9 24.4001 271.1 17.2001 268.4C18.0001 270.5 18.7001 272.4 19.5001 274.2C20.3001 275.7 21.3001 277.1 22.3001 278.7ZM21.0001 285.1C20.9001 284.6 21.1001 283.5 20.6001 282.8C19.5001 281.3 18.1001 280.1 16.8001 278.7C17.0001 280.3 17.1001 281.9 17.5001 283.4C17.8001 284.8 18.4001 286.1 19.0001 287.3C19.2001 287.7 19.6001 287.9 19.9001 288.2C20.2001 287.7 20.6001 287.3 20.8001 286.8C20.9001 286.5 20.9001 286 21.0001 285.1ZM222.7 61.6998C223.2 61.6998 223.6 61.6998 224.1 61.6998C224.3 61.6998 224.4 61.6998 224.6 61.6998C225.2 61.4998 225.7 61.2998 226.3 61.1998C226.1 60.5998 226 59.9998 225.6 59.5998C223.5 56.9998 220.9 57.3998 219.6 60.4998C219.5 60.7998 220 61.6998 220.4 61.7998C221.1 61.7998 221.9 61.6998 222.7 61.6998ZM364.7 253.8C364.7 252.6 364.8 252.3 364.7 252C364.4 251.5 364 250.8 363.7 250.8C363.2 250.8 362.7 251.4 362.3 251.8C362.1 252 362 252.4 362 252.7C362.1 254.1 362.2 255.4 362.4 256.7C362.4 256.7 363.1 256.8 363.2 256.6C363.8 255.5 364.4 254.3 364.7 253.8ZM311.7 288.2C314.4 290.4 316.8 292.4 319.2 294.4C319.5 294.6 319.9 294.6 320.3 294.7C320.2 294.4 320.2 294.1 320.1 293.8C317.9 291 315.7 288.4 311.7 288.2ZM222.9 285.6C222.9 284.1 222.9 283 222.9 281.9C222.9 280.9 222.4 280.5 221.5 281C220.6 281.5 219.7 282.2 218.8 282.7C219.5 283.3 220.2 283.8 221 284.4C221.4 284.8 221.9 285 222.9 285.6ZM535.7 313C534.5 311.9 533.5 310.9 532.3 310C531.9 309.7 531.2 309.7 530.7 309.5C530.9 310 531 310.7 531.4 311.1C532.3 311.9 533.3 312.7 534.4 313.3C534.7 313.5 535.2 313.2 535.7 313ZM311.2 345.1C312.6 344.3 314.2 343.6 315.6 342.7C315.8 342.6 316 342.2 316.1 341.9C315.7 341.9 315.3 341.9 314.9 342C313.4 342.4 311.9 342.8 310.4 343.3C310.1 343.4 309.9 343.8 309.6 344.1C310.2 344.4 310.6 344.7 311.2 345.1ZM123.5 22.2998C123.5 22.0998 123.4 21.8998 123.4 21.6998C121.7 21.7998 120.1 21.8998 118.4 21.9998C118.4 22.0998 118.4 22.1998 118.4 22.2998C120.1 22.2998 121.8 22.2998 123.5 22.2998ZM575.3 247.8C575.2 247.9 575.2 248 575.1 248.2C576.5 248.2 577.9 248.2 579.3 248.2C579.3 248.1 579.3 248 579.3 247.8C578 247.8 576.7 247.8 575.3 247.8ZM42.7001 222.2C42.4001 221.7 42.3001 221.2 42.2001 221.2C41.5001 221.4 40.8001 221.6 40.0001 221.8C39.9001 221.8 40.0001 222.2 40.0001 222.4C40.9001 222.4 41.8001 222.3 42.7001 222.2ZM547.5 299.7C547.4 299.1 547.2 298.6 547.1 298.1C547 298.7 546.9 299.3 546.9 299.9C546.9 300.3 547 300.8 547.1 301.2C547.1 300.8 547.3 300.3 547.5 299.7ZM112.5 22.9998C112.5 23.0998 112.5 23.1998 112.5 23.2998C113.1 23.2998 113.7 23.3998 114.2 23.3998C114.8 23.3998 115.4 23.2998 115.9 23.1998C115.3 22.7998 114.7 22.7998 114.2 22.7998C113.7 22.7998 113.1 22.8998 112.5 22.9998Z" fill="black"/>
<path d="M465.2 79.0998C462.6 77.9998 460.1 76.6998 457.4 75.7998C452.2 73.9998 446.9 72.3998 441.6 70.4998C439.4 69.6998 437.2 68.5998 435.3 67.2998C434.6 66.8998 434.1 65.2998 434.3 64.5998C434.8 63.1998 436 63.1998 437.4 63.7998C446.5 67.0998 455.6 70.1998 464.7 73.3998C465.1 73.5998 465.6 73.6998 466 73.8998C467.4 74.5998 469.3 74.9998 468.8 77.1998C468.5 78.9998 466.9 79.2998 465.2 79.0998Z" fill="black"/>
<path d="M212.3 322.9C210.9 322.6 210.4 321.5 210.3 320.2C210.2 318.3 211.2 316.8 212.6 316.6C214 316.4 215.4 318 215.3 319.8C215.4 321.2 213.8 322.9 212.3 322.9Z" fill="black"/>
<path d="M60.3998 249.2C66.0998 249.2 71.8997 249.5 77.5997 249.1C106.6 247.3 135.6 249 164.6 248.5C167.4 248.4 170.3 248.8 173.1 249.2C176.6 249.7 178.6 251.7 179.3 254.9C180.3 259.5 177.4 264.9 173 267C168.6 269.1 163.9 269.8 159.2 270.5C150.5 271.7 141.9 272.3 133.1 272.7C127.7 273 122.4 273.7 116.9 273.1C116.2 273 115.2 273.7 114.6 274.2C111.7 277.1 108.1 278.1 104.2 278.1C100.1 278.1 95.8997 278 91.7997 278.1C88.4997 278.2 85.7998 277.1 83.9998 274.4C82.9998 272.8 81.6998 272.6 79.9998 272.5C69.6998 271.6 59.3998 270.7 49.1998 269.5C46.0998 269.1 43.0997 267.9 40.0997 266.7C35.8997 265 34.2998 261.5 34.1998 257.2C34.0998 252.5 36.9997 249.3 41.7997 249.2C47.8997 249.2 54.0998 249.3 60.3998 249.2C60.3998 249.3 60.3998 249.3 60.3998 249.2ZM74.0997 252.3C74.0997 252.4 74.0997 252.5 74.0997 252.6C66.3997 252.6 58.7997 252.5 51.0997 252.6C47.8997 252.7 44.6997 253 41.5997 253.5C38.0997 254.1 36.6998 257.1 38.3998 260.3C39.6998 262.6 41.6998 264.2 44.3998 264.6C47.3998 265.1 50.2997 265.7 53.2997 266.1C61.1997 267 69.0998 267.9 76.9998 268.5C82.3998 268.9 81.9998 268.9 81.9998 263.7C81.9998 259.6 84.0997 257.1 87.7997 256C94.2997 254 100.9 253.5 107.6 255C111.3 255.9 113.8 258 114.6 261.9C114.9 263.3 115.5 264.7 115.5 266.1C115.6 268.2 116.9 268.8 118.5 269.1C119.6 269.3 120.7 269.5 121.8 269.4C125 269.2 128.1 268.6 131.3 268.7C142.5 269 153.5 267.4 164.5 265.7C167.7 265.2 170.7 264.3 173.2 262.1C176.3 259.4 176.3 254.9 173.2 253.3C172.2 252.7 170.8 252.7 169.5 252.6C148.6 252.3 127.8 251.9 106.9 251.7C103.9 251.7 100.9 252.3 97.8998 252.3C89.9998 252.4 82.0997 252.3 74.0997 252.3ZM100.5 273.2V273.3C101.1 273.3 101.8 273.3 102.4 273.3C108.4 273.3 108.7 272.9 107.3 267.2C107.1 266.6 107 266 106.9 265.4C106.7 263.9 105.8 263.1 104.4 263.1C100.9 263.1 97.3998 263 93.9998 263.2C92.9998 263.3 91.6998 263.9 91.1998 264.7C89.2998 267.8 91.6997 272.7 95.2997 273.2C96.9997 273.4 98.7998 273.2 100.5 273.2ZM97.3998 258.5C97.3998 258.6 97.3998 258.6 97.3998 258.7C99.2998 258.7 101.3 258.7 103.2 258.7C103.2 258.7 103.2 258.6 103.2 258.5C101.3 258.5 99.3998 258.5 97.3998 258.5Z" fill="black"/>
<path d="M497.9 116C497.4 116.9 497.2 117.4 496.9 117.6C496.6 117.8 495.9 117.8 495.7 117.6C494.6 116.3 493.6 114.9 492.6 113.4C492.5 113.2 492.7 112.5 493 112.2C493.3 112 494.1 111.8 494.3 112C495.6 113.2 496.7 114.6 497.9 116Z" fill="black"/>
<path d="M435.7 106.2C435.7 107.6 435.4 108.8 433.6 108.7C431.9 108.7 430.9 107.8 430.7 106.1C430.5 104.7 431.7 103.3 433.2 103.2C434.6 103.2 435.6 104.4 435.7 106.2Z" fill="black"/>
<path d="M569 142.5C568.4 143.1 567.9 143.8 567.3 144C565.2 144.8 563.1 145.4 561 146C559.1 146.5 557.9 145.6 557.9 143.6C557.9 141.4 560 138.5 562.1 138.6C564.1 138.6 566 139.5 567.9 140.3C568.4 140.5 568.6 141.6 569 142.5Z" fill="black"/>
</svg>
