<svg width="489" height="321" viewBox="0 0 489 321" fill="none" xmlns="http://www.w3.org/2000/svg">
<g clip-path="url(#clip0_256_3)">
<path d="M417.102 85.564C410.838 96.4341 404.792 107.377 398.891 118.393C392.918 129.482 387.09 140.644 381.481 151.879C375.727 163.26 370.118 174.786 364.581 186.313C359.118 197.767 353.728 209.294 348.483 220.82C343.311 232.274 338.212 243.728 333.185 255.254C332.53 256.714 331.947 258.173 331.291 259.632C331.073 260.142 330.636 264.447 331.583 264.374C334.642 264.228 337.629 264.082 340.688 263.936C348.774 263.571 356.933 263.279 365.018 263.06C376.674 262.696 388.256 262.477 399.911 262.331C413.606 262.185 427.301 262.185 440.995 262.404C455.127 262.623 469.259 263.133 483.391 264.009C485.066 264.082 486.742 264.228 488.49 264.374C488.927 264.374 489 262.623 489.073 262.477C489.146 261.528 489.146 260.434 488.781 259.486C484.192 248.105 479.53 236.724 474.941 225.343C470.352 213.963 465.69 202.582 461.101 191.201C456.511 179.893 451.922 168.585 447.333 157.278C442.744 145.897 438.082 134.516 433.492 123.135C428.903 111.754 424.314 100.374 419.652 88.9929C419.069 87.6067 418.486 86.2206 417.904 84.8345C417.467 83.8131 417.175 85.4911 417.102 85.7829C416.957 86.8772 416.884 88.3363 417.321 89.3576C421.983 100.738 426.572 112.119 431.161 123.5C435.751 134.881 440.413 146.262 445.002 157.642C449.591 168.95 454.18 180.258 458.769 191.566C463.359 202.947 468.021 214.327 472.61 225.635C477.199 237.016 481.861 248.324 486.45 259.705C487.033 261.091 487.616 262.55 488.199 263.936C488.272 262.331 488.417 260.653 488.49 259.048C474.431 258.1 460.299 257.589 446.24 257.224C432.4 256.932 418.559 256.859 404.792 256.932C392.845 257.005 380.899 257.224 368.952 257.589C360.284 257.881 351.688 258.173 343.092 258.537C340.543 258.683 337.993 258.756 335.444 258.902C334.278 258.975 333.113 258.975 331.947 259.121C331.874 259.121 331.874 259.121 331.801 259.121C331.874 260.726 332.02 262.331 332.093 263.863C336.828 252.482 341.927 240.955 347.099 229.502C352.343 217.902 357.661 206.375 363.052 194.849C368.442 183.322 373.978 171.795 379.66 160.415C385.342 148.888 391.097 137.507 397.07 126.126C402.898 114.891 408.944 103.802 415.063 92.7135C415.791 91.4003 416.592 90.0142 417.321 88.701C417.612 88.1174 417.612 87.3879 417.539 86.7313C417.539 86.5854 417.321 85.2722 417.102 85.564Z" fill="white"/>
<path d="M357.953 223.082C355.694 224.541 354.747 227.094 354.602 229.721C354.456 232.566 354.966 235.557 356.787 237.819C360.793 242.925 368.734 242.342 373.468 238.621C376.091 236.578 377.985 233.66 379.223 230.596C380.243 228.116 381.481 224.76 379.005 222.79C377.256 221.404 374.634 221.331 372.667 222.425C369.972 223.884 369.535 227.313 369.681 230.085C370.118 236.87 375.872 242.05 382.356 243.071C388.839 244.093 395.322 240.591 398.308 234.754C399.838 231.763 400.567 227.386 398.891 224.249C397.58 221.915 394.011 220.82 392.19 223.228C390.296 225.708 390.296 229.648 390.733 232.566C391.243 235.557 392.627 238.329 394.739 240.445C399.401 244.968 406.394 244.749 411.639 241.466C417.685 237.673 419.87 230.304 419.652 223.447C419.579 221.623 419.361 219.872 418.924 218.121C418.924 217.975 418.778 217.464 418.559 217.683C414.99 220.456 413.679 224.906 413.606 229.283C413.533 233.879 414.99 238.475 418.486 241.539C421.91 244.53 426.572 245.843 431.016 245.406C435.678 244.968 439.83 242.415 442.889 238.913C446.022 235.265 448.207 230.45 448.28 225.562C448.353 223.52 448.207 220.747 446.677 219.215C445.075 217.61 442.744 218.559 441.214 219.799C437.79 222.644 437.572 228.335 438.446 232.274C439.466 236.797 443.035 239.861 447.406 241.101C455.783 243.436 467.147 239.278 469.113 230.012C469.405 228.699 469.478 227.313 469.478 226C469.478 225.708 469.551 223.738 468.968 223.738C468.458 223.738 468.458 225.781 468.458 226C468.458 226 468.458 226.802 468.458 226.365C468.458 226.219 468.458 226.511 468.458 226.584C468.385 226.948 468.312 227.313 468.166 227.605C467.875 228.553 467.438 229.356 466.928 230.158C465.908 231.69 464.524 232.931 463.067 234.025C459.862 236.286 455.856 237.381 451.922 237.235C447.989 237.162 443.764 235.849 441.068 232.858C439.976 231.617 439.247 230.231 439.029 228.553C439.029 228.772 439.029 228.407 439.029 228.407C439.101 228.043 439.101 228.845 439.029 228.407C439.029 228.189 439.029 228.116 439.101 227.824C439.247 227.021 439.539 226.219 439.976 225.562C440.923 224.03 442.525 222.644 444.346 222.498C446.022 222.352 446.969 223.52 447.406 224.979C447.479 225.125 447.406 225.27 447.406 225.125C447.406 225.343 447.333 225.708 447.26 226C447.042 226.948 446.677 227.897 446.313 228.845C445.512 230.742 444.492 232.42 443.254 234.025C438.227 240.299 429.632 243.071 422.129 239.569C418.414 237.818 415.354 234.536 414.626 230.377C414.043 226.948 416.01 223.009 418.851 220.82C418.705 220.674 418.632 220.528 418.486 220.383C420.308 228.189 416.01 236.505 408.361 239.132C404.864 240.372 400.785 240.372 397.434 238.621C394.375 237.016 391.825 233.806 391.243 230.304C391.024 228.845 391.388 227.094 392.335 225.927C393.428 224.395 395.468 224.395 396.997 225.27C397.726 225.708 398.381 226.365 398.746 227.094C399.183 228.043 399.037 228.845 398.746 229.794C398.09 231.69 396.924 233.441 395.54 234.827C389.858 240.664 380.316 241.101 374.197 235.63C372.521 234.171 371.21 232.274 370.555 230.085C370.045 228.262 370.628 226.365 372.084 225.198C374.197 223.447 379.15 223.228 379.952 226.584C379.952 226 379.952 225.416 379.952 224.833C378.422 230.523 374.561 236.141 368.588 237.819C363.416 239.278 356.714 237.454 355.33 231.69C354.675 229.064 355.986 226.292 358.098 224.614C358.39 224.614 358.171 222.936 357.953 223.082Z" fill="white"/>
<path d="M377.402 192.733C375.727 194.995 375.945 198.424 376.965 200.904C378.203 203.895 380.971 205.865 383.958 206.886C387.236 208.053 391.097 209.002 394.521 208.053C397.289 207.324 399.547 205.208 401.149 202.874C402.825 200.466 404.136 197.694 405.156 194.922C405.739 193.317 406.03 191.639 406.03 189.961C406.03 188.429 405.811 186.678 404.573 185.73C402.461 184.052 399.765 185.876 398.527 187.772C396.852 190.399 396.852 194.046 397.289 197.037C398.236 203.02 402.679 207.98 408.652 209.294C414.99 210.607 421.692 207.689 425.844 202.874C427.956 200.466 429.559 197.621 430.651 194.557C431.234 192.952 431.671 191.347 431.963 189.742C432.327 187.845 432.545 185.365 431.526 183.541C430.214 181.134 426.864 181.717 425.407 183.541C423.367 186.167 423.44 190.472 424.095 193.536C425.261 199.007 430.287 203.822 436.115 203.603C442.088 203.384 446.459 198.059 447.26 192.441C447.551 190.69 447.479 188.94 447.26 187.189C447.187 186.824 447.042 185.73 446.604 186.459C446.24 187.189 446.313 188.575 446.459 189.304C446.459 189.377 446.532 189.742 446.532 189.742C446.532 189.523 446.532 189.815 446.532 189.888C446.459 190.253 446.386 190.763 446.24 191.128C445.876 192.222 445.366 193.171 444.711 194.119C443.399 195.943 441.578 197.475 439.466 198.351C435.022 200.174 430.069 198.497 427.009 194.922C426.281 194.046 425.625 193.098 425.188 192.077C424.97 191.639 424.824 191.128 424.751 190.618C424.678 190.399 424.678 190.253 424.678 190.034C424.605 189.669 424.605 190.253 424.678 189.888C424.897 187.772 426.645 185.876 428.83 186.021C429.267 186.021 429.777 186.167 430.214 186.386C430.433 186.532 430.579 186.678 430.797 186.824C430.87 186.897 431.307 187.626 431.307 187.626C431.161 187.626 431.38 186.167 431.161 187.189C431.089 187.48 431.016 187.845 430.943 188.137C430.797 188.794 430.579 189.377 430.36 189.961C429.486 192.441 428.393 194.776 426.791 196.819C423.658 201.123 418.996 204.114 413.752 204.843C408.798 205.5 403.772 203.895 400.567 199.956C399.255 198.351 398.163 196.308 397.944 194.192C397.799 192.368 399.11 190.399 400.64 189.377C401.441 188.867 402.461 188.502 403.408 188.721C403.918 188.867 404.355 189.085 404.646 189.45C404.864 189.669 405.01 189.888 405.156 190.18C405.447 190.763 405.083 190.034 405.229 190.034C405.156 190.034 404.864 191.42 404.792 191.566C404.573 192.15 404.355 192.66 404.063 193.244C403.553 194.338 403.043 195.432 402.533 196.527C401.441 198.642 400.057 200.685 398.236 202.217C396.123 203.968 393.574 204.698 390.878 204.625C388.11 204.552 385.269 203.822 382.647 202.801C380.316 201.925 378.058 200.393 377.111 197.986C376.601 196.746 376.892 195.651 377.548 194.557C377.766 194.265 377.693 193.755 377.693 193.39C377.621 193.317 377.548 192.514 377.402 192.733Z" fill="white"/>
<path d="M389.931 155.235C389.713 157.496 389.931 159.831 391.17 161.801C392.335 163.552 394.156 164.865 396.123 165.594C400.639 167.199 405.229 164.646 407.924 160.925C409.381 158.956 410.401 156.694 411.056 154.359C411.42 152.9 411.566 151.368 411.42 149.836C411.275 148.669 410.983 147.356 409.964 146.699C408.215 145.532 405.811 146.335 404.719 147.94C403.189 150.201 403.189 153.411 403.48 156.037C403.99 160.706 406.54 165.011 410.619 167.418C414.698 169.753 419.506 169.461 423.367 166.907C427.519 164.135 429.413 159.028 428.539 154.141C428.248 152.39 427.301 149.982 425.188 149.909C423.003 149.836 422.056 152.098 421.764 153.849C420.963 158.664 422.711 164.427 426.936 167.126C428.83 168.367 430.943 168.804 433.128 168.221C435.168 167.637 436.916 166.324 437.863 164.427C438.446 163.333 438.664 162.093 438.737 160.852C438.737 160.342 438.883 159.028 438.519 158.591C438.154 158.153 438.009 159.101 438.009 159.393C437.863 160.779 436.625 162.02 435.532 162.822C434.148 163.77 432.4 164.281 430.651 164.135C426.936 163.843 424.095 160.852 422.93 157.496C422.784 157.059 422.639 156.621 422.566 156.183C422.566 156.11 422.566 156.329 422.566 156.329C422.639 155.673 423.003 154.943 423.513 154.505C424.678 153.338 426.426 153.776 427.301 155.016C427.446 155.235 428.175 156.402 427.956 156.621C427.373 157.205 428.029 156.256 427.956 156.183C428.029 156.256 427.883 156.694 427.811 156.767C427.665 157.205 427.519 157.642 427.373 158.08C426.718 159.685 425.552 161.071 424.168 162.165C421.4 164.427 417.685 165.521 414.189 164.792C410.692 164.062 407.633 161.655 405.811 158.591C405.01 157.205 404.282 155.527 404.209 153.922C404.209 152.244 405.374 150.566 406.904 150.055C407.633 149.836 408.434 149.763 409.089 149.982C409.454 150.128 409.818 150.274 410.109 150.566C410.328 150.712 410.401 150.931 410.546 151.149C410.692 151.514 410.692 151.587 410.692 151.295C410.692 151.077 410.692 151.077 410.692 151.222C410.401 152.025 410.255 152.9 409.891 153.703C409.527 154.651 409.017 155.527 408.507 156.402C406.321 159.831 402.752 162.749 398.527 162.603C396.633 162.53 394.666 161.874 393.136 160.706C392.408 160.123 391.752 159.466 391.315 158.737C391.097 158.372 390.878 157.934 390.733 157.496C390.66 157.351 390.66 157.205 390.587 157.132C390.587 157.059 390.514 156.621 390.514 156.913C390.587 156.402 390.733 155.381 390.368 154.943C390.077 154.286 390.004 154.943 389.931 155.235Z" fill="white"/>
<path d="M400.567 128.607C401.441 132.4 405.52 134.297 409.089 134.297C413.314 134.37 417.321 131.671 417.685 127.221C417.831 125.178 417.467 122.916 415.791 121.53C415.208 121.093 414.48 120.655 413.752 120.582C412.95 120.509 411.785 120.728 411.493 121.603C411.202 122.698 411.275 124.011 411.348 125.178C411.42 126.418 411.639 127.658 412.076 128.826C412.805 130.795 414.043 132.619 415.718 133.859C419.288 136.559 425.625 136.705 428.539 132.838C428.903 132.327 428.83 131.452 428.83 130.868C428.83 130.722 428.685 129.19 428.466 129.336C427.665 129.774 427.009 130.285 426.208 130.649C425.407 131.087 424.533 131.379 423.586 131.525C421.764 131.89 419.87 131.817 418.122 131.233C416.374 130.649 414.917 129.482 413.824 128.023C412.95 126.929 411.93 125.105 412.076 123.646C412.003 123.938 411.93 124.157 411.858 124.448C412.732 123.792 413.752 123.865 414.699 124.23C415.208 124.448 415.645 124.813 416.01 125.178C416.374 125.616 416.592 126.053 416.884 126.491C417.03 126.929 417.03 126.71 416.957 125.835C416.957 125.98 416.884 126.126 416.811 126.272C416.738 126.564 416.592 126.783 416.447 127.002C416.155 127.512 415.718 127.95 415.281 128.388C414.334 129.336 413.096 129.92 411.858 130.358C409.745 131.014 407.487 131.16 405.374 130.504C403.189 129.847 401.878 128.534 400.712 126.637C400.567 126.418 400.421 127.148 400.494 127.075C400.494 127.731 400.494 128.242 400.567 128.607Z" fill="white"/>
<path d="M412.732 267.073C412.222 276.557 412.222 286.041 412.513 295.525C412.586 297.932 412.586 300.34 412.95 302.674C413.242 304.498 413.752 306.614 415.5 307.562C416.083 307.927 416.811 308.073 417.467 308C418.851 307.708 418.996 306.541 419.069 305.301C419.288 302.601 418.851 299.829 418.486 297.13C417.904 292.972 416.957 288.667 416.738 284.655C416.738 284.363 416.738 284.071 416.738 283.415C416.738 283.05 416.738 282.831 416.811 282.247C416.884 281.08 416.957 279.84 417.03 278.673C417.175 275.9 417.175 273.128 416.811 270.429C416.665 269.262 416.447 268.167 416.228 267C416.01 265.906 415.937 264.665 415.427 263.644C415.063 262.915 414.334 262.696 413.752 263.352C412.877 264.447 412.95 266.489 413.023 267.802C413.169 272.472 413.387 277.214 413.606 281.883C413.824 287.062 414.043 292.315 414.261 297.495C414.334 298.881 414.407 300.267 414.553 301.653C414.698 302.893 414.844 304.717 415.573 305.811C416.592 307.416 416.957 304.133 417.03 303.696C417.03 303.258 417.102 298.954 416.01 299.756C416.301 300.486 416.592 301.215 416.884 301.945C416.52 297.859 416.083 293.774 415.718 289.689C415.136 283.488 414.553 277.286 413.897 271.085C413.824 270.064 413.679 269.043 413.606 267.948C413.606 267.657 413.533 267.365 413.533 267.073C413.46 266.635 413.533 267.438 413.533 267.073C413.533 266.854 413.533 265.833 413.096 265.979C412.732 266.125 412.877 267.584 412.877 267.875V267.948C412.877 268.021 412.95 268.094 412.877 267.802C412.805 267.365 412.877 267.948 412.877 268.094C412.877 268.313 412.877 268.532 412.95 268.824C413.023 269.699 413.096 270.575 413.169 271.45C413.387 274.295 413.606 277.141 413.824 279.986C414.334 286.406 414.771 292.826 415.281 299.246C415.427 300.705 415.5 302.164 415.645 303.623C415.645 303.915 415.791 306.249 416.52 305.811C416.52 305.811 416.592 305.811 416.592 305.738C416.447 305.738 416.374 305.738 416.228 305.738L416.155 305.665C416.083 304.206 416.01 302.747 415.937 301.288V301.361C416.155 300.851 416.374 300.34 416.52 299.756C416.301 299.829 416.228 299.027 416.155 298.808C416.01 298.005 416.155 298.954 416.083 298.151C416.083 298.078 416.01 297.568 416.083 297.932C415.937 296.692 415.937 295.379 415.864 294.139C415.791 291.731 415.645 289.324 415.573 286.916C415.354 282.028 415.136 277.068 414.844 272.18C414.771 271.085 414.771 269.991 414.699 268.97C414.699 268.386 414.699 267.73 414.626 267.146C414.626 267.219 414.626 267.292 414.626 267.292C413.97 268.824 413.97 269.407 414.699 268.97C414.771 268.97 415.354 268.97 415.063 268.824C415.208 268.897 415.354 270.356 415.427 270.575C415.573 271.158 415.645 271.742 415.791 272.326C415.864 272.836 415.937 273.347 416.01 273.785C416.01 273.712 416.083 274.295 416.01 274.077C416.01 274.004 416.083 275.098 416.083 274.66C416.083 275.754 416.01 276.557 415.937 277.797C415.864 279.11 415.718 280.423 415.718 281.737C415.645 284.509 415.791 287.208 416.083 289.907C416.665 295.014 417.977 300.121 418.122 305.082C418.268 303.842 418.414 302.601 418.559 301.288C417.612 302.091 416.228 301.799 415.354 301.069C414.917 300.705 414.553 300.194 414.407 299.61C414.334 299.391 414.334 299.246 414.261 298.954C414.334 299.391 414.261 298.443 414.261 298.516C414.043 295.16 413.97 291.804 413.824 288.448C413.606 281.445 413.606 274.368 413.679 267.365C413.679 267.146 413.679 265.906 413.387 265.833C412.805 265.833 412.732 266.854 412.732 267.073Z" fill="white"/>
<path d="M419.288 62C419.652 62 419.725 62.8755 419.87 63.2402C420.453 65.7936 421.182 68.42 421.619 70.9004C421.692 71.2652 423.731 71.557 424.678 71.484C425.334 71.484 426.864 71.7029 427.519 71.7029C428.83 71.7029 430.214 71.9947 431.526 72.1406C431.598 72.1406 431.598 72.1406 431.671 72.2136C431.817 72.3595 429.122 74.1104 428.83 74.3292C427.665 75.1317 426.499 75.8612 425.334 76.5908C425.042 76.8096 424.678 76.9555 424.314 77.1744C422.93 78.0499 423.367 78.7794 423.731 80.0926C424.095 81.3328 424.387 82.5 424.751 83.7402C425.042 84.6886 425.625 85.9289 425.625 86.9502C425.552 88.1175 424.314 86.8773 423.731 86.5125C422.639 85.8559 421.546 85.1993 420.526 84.4698C419.288 83.5943 418.122 82.7189 416.811 81.7705C416.738 81.6975 416.665 81.6246 416.52 81.6246C416.374 81.6246 416.155 81.7705 416.01 81.8434C414.99 82.7918 413.679 83.4484 412.44 84.178C411.493 84.6886 410.546 85.1993 409.672 85.8559C409.381 86.0748 408.07 86.9502 407.778 86.4395C407.56 86.1477 407.997 85.0534 408.142 84.6886C409.017 82.2812 410.474 80.0196 411.348 77.6121C411.566 77.0285 411.712 76.8826 411.42 76.3719C411.275 76.0801 410.911 75.9342 410.692 75.7153C409.017 74.0374 407.195 72.2865 405.593 70.5356C405.447 70.3897 405.01 69.879 405.156 69.6602C405.229 69.5872 406.613 69.6602 406.904 69.7331C409.599 69.879 412.295 70.0249 415.063 70.1709C415.427 70.1709 416.01 68.42 416.155 68.2011C416.884 66.5961 417.612 64.9911 418.268 63.3132C418.414 63.0214 418.778 62 419.142 61.8541C419.215 62 419.215 62 419.288 62Z" fill="#C69C6D"/>
</g>
<g clip-path="url(#clip1_256_3)">
<path d="M247.9 32.1001C243.6 42.5001 237 52.6001 228.5 60.0001C224.7 63.2001 220.5 66.0001 215.9 67.8001C213.9 68.6001 212 69.4001 210.5 70.9001C208.8 72.7001 208.2 75.1001 208.3 77.6001C208.4 80.3001 209.4 82.5001 211.3 84.3001C213.5 86.3001 216.1 88.0001 218.8 89.1001C223.7 91.2001 229.1 90.9001 233.5 87.8001C237.9 84.8001 240.7 79.7001 241.9 74.6001C242.5 72.1001 242.7 68.7001 241.1 66.5001C239.9 64.8001 237.7 64.5001 236 65.6001C232 68.0001 230.9 74.1001 230.8 78.3001C230.7 83.6001 232.2 89.2001 236.2 92.9001C245.3 101.4 257.4 90.1001 261.4 81.7001C262.6 79.1001 263.6 76.3001 264 73.5001C264.4 70.9001 264.5 67.9001 263.4 65.5001C262.5 63.5001 260.6 62.6001 258.8 64.0001C256.7 65.6001 256.3 68.9001 256.1 71.3001C255.8 77.0001 257.3 83.2001 260.5 88.0001C263.1 91.9001 267.2 95.1001 272.1 94.4001C277.1 93.6001 281.6 89.0001 282.8 84.2001C283.5 81.4001 283.4 78.0001 281.5 75.8001C279.6 73.6001 277.5 71.4001 275.6 69.2001C267.4 59.6001 260.3 48.9001 254.3 37.8001C252.7 34.8001 251.1 31.8001 249.7 28.8001C249.3 28.1001 249.1 29.2001 249.1 29.5001C249 30.3001 248.9 31.5001 249.3 32.3001C254 42.3001 259.5 51.9001 265.9 60.9001C268.9 65.2001 272.1 69.3001 275.6 73.3001C277.2 75.2001 278.9 77.0001 280.6 78.9001C281 79.3001 281.5 79.8001 281.8 80.3001C282.1 80.8001 282.3 81.0001 282.3 81.5001C282.2 82.8001 281.1 84.2001 280.4 85.2001C277.9 88.6001 273.9 91.3001 269.4 90.7001C265.1 90.1001 261.9 86.6001 259.9 83.0001C258.7 80.8001 257.8 78.4001 257.3 75.9001C256.8 73.5001 256.6 70.6001 258.2 68.5001C259.4 66.8001 261.7 66.2001 262.9 68.3001C264 70.3001 263.3 72.8001 262.7 74.8001C261.2 79.4001 258.6 83.7001 255.1 87.0001C251.6 90.4001 246.6 93.4001 241.5 92.4001C237.1 91.6001 234 87.7001 232.6 83.7001C231.1 79.5001 231.5 74.4001 234.2 70.7001C235.2 69.3001 236.8 68.0001 238.6 68.2001C239.5 68.3001 240.3 68.7001 240.9 69.4001C242 70.7001 241.7 72.1001 241.2 73.7001C239.8 78.0001 237.2 82.0001 233.5 84.6001C229.7 87.2001 225.1 87.7001 220.7 86.4001C218.1 85.6001 215.7 84.2001 213.5 82.6001C211.8 81.4001 209.1 79.4001 209.1 77.0001C209.1 75.2001 211 73.5001 212.4 72.6001C214 71.5001 215.8 71.0001 217.6 70.2001C221.4 68.4001 224.9 66.1001 228.1 63.4001C235.4 57.2001 240.9 49.3001 245 40.7001C246.2 38.3001 247.2 35.8001 248.1 33.3001C248.2 33.0001 248.2 32.6001 248.2 32.3001C248.1 32.3001 248 31.8001 247.9 32.1001Z" fill="white"/>
<path d="M215.3 89.1C206.6 101.5 196.2 112.7 184.1 121.9C183.5 122.4 183.7 124.7 184 125.3C187.3 132.6 192.9 139.4 200.8 141.8C208.1 144 215.5 141.1 220 135.1C223.1 130.9 224.5 125.9 224.6 120.7C224.6 120.4 224.6 118.9 224.2 118.8C219.7 118.4 217.8 124.6 217.2 128C216.3 133.4 216.9 139.6 220.5 143.9C223.8 147.8 228.8 148.8 233.3 146.6C236.1 145.2 238.5 143 240.6 140.8C242.6 138.6 244.4 136.4 245.8 133.8C247.3 131 248.3 128 248.6 124.9C248.9 121.9 248.8 118.5 247 115.8C246.9 115.7 246.9 115.7 246.8 115.8C243.2 118.7 242.5 124.4 242.4 128.7C242.4 133.8 243.7 139.2 247.3 143C250.4 146.3 255.2 147.9 259.5 146.2C264.2 144.3 267.1 139.7 268.3 135C269.8 129.3 269.7 122.4 267 117.1C266.7 116.6 266.6 117 266.5 117.4C264.4 125.5 266 135.2 271.4 141.7C273.5 144.3 276.4 146.4 279.8 146.6C283.6 146.8 287.2 145 290.1 142.6C294.2 139.2 297.1 134.6 299.4 129.9C299.8 129.1 300 126.6 299.3 125.9C288.6 115.2 280.2 102.7 273.3 89.3C272.9 88.5 272.7 89.8 272.6 90.1C272.5 90.9 272.4 92.3 272.8 93.1C279.7 106.7 288.2 119.4 299 130.1C299 128.8 298.9 127.5 298.9 126.1C295.7 132.6 290.4 140.5 282.7 142C275.8 143.4 270.7 137.9 268.3 132C266.7 128.1 266.1 124.1 267.1 120C267 120.2 266.8 120.3 266.7 120.5C270.6 128 267.2 139.8 258.6 142.3C250.1 144.8 242.9 136.1 243.3 128.1C243.4 126.1 243.8 124.1 244.7 122.3C245.1 121.5 245.6 120.7 246.2 120.1C246.4 119.9 246.7 119.5 247 119.6C247.3 119.8 247.6 120.8 247.7 121.1C248.3 123 247.6 125 247 126.7C246.2 128.8 245.2 130.8 243.9 132.6C239.5 138.8 230.8 147.9 222.7 142.1C219.1 139.5 217 134.9 217.7 130.5C218.2 127.3 220.1 122.1 224.2 122.4C224.1 121.8 223.9 121.1 223.8 120.5C223.6 128.1 218 135.6 210.7 137.8C204.1 139.8 197.3 137.4 192.3 132.9C188.9 129.8 186.3 126 184.4 121.8C184.4 122.9 184.3 124.1 184.3 125.2C196.6 115.8 206.8 104 215.4 91.2C215.7 90.8 215.6 90.1 215.6 89.7C215.6 89.9 215.5 88.9 215.3 89.1Z" fill="white"/>
<path d="M196.5 139.5C189 154.1 179.1 167.6 166.3 177.9C165.7 178.4 165.9 180.7 166.2 181.4C170.5 189.9 178 198.4 188.1 199.3C198.1 200.2 206.6 192.8 211.4 184.7C212 183.6 212.9 182.4 213.1 181.2C213.3 179.9 213.1 178.5 212.5 177.3C211.8 175.7 210.3 174.4 208.5 174.6C203.8 175 203.5 182.4 203.8 185.8C204.1 190.8 206.2 195.6 210.9 197.8C214.8 199.6 219.3 199.3 223.1 197.6C228 195.4 231.8 191.2 234.4 186.6C235.8 184.1 237 181.5 237.5 178.7C237.9 176.3 238.3 172.7 236.5 170.7C236.4 170.6 236.3 170.6 236.3 170.7C232.6 173.2 231.7 178.5 231.5 182.6C231.2 187.6 231.9 193.1 234.4 197.5C237.3 202.4 242.9 204.3 248.2 202.3C253.7 200.2 257.6 195.4 260 190.2C263.1 183.6 264 175.7 262 168.7C262 168.6 261.8 167.8 261.6 168.2C259.9 170.6 259.2 173.5 258.9 176.4C258.6 179.9 258.8 183.4 259.6 186.8C261.2 192.9 265.4 197.8 271.2 200.2C276.7 202.5 283.1 202.4 287.7 198.4C292.2 194.6 293.8 188.6 294.2 182.9C294.6 177.3 294.2 169.7 289.7 165.7C289.4 165.4 289.3 166.1 289.2 166.3C287.7 173.6 288.8 181.7 292.8 188.1C294.4 190.7 296.5 193 299.2 194.5C302.4 196.2 306.3 196.3 309.8 195.4C313.7 194.4 317.3 192.2 320.5 189.9C321.9 188.9 323.3 187.9 324.3 186.5C325.4 184.9 325.8 183 325.8 181C325.8 179 325.5 177 324.4 175.3C323.2 173.5 321.7 171.8 320.4 170C317.8 166.5 315.1 163 312.5 159.6C306.7 151.8 300.9 144 294.8 136.4C294.4 135.9 294.2 137.8 294.2 138C294.2 138.8 294 140.1 294.5 140.7C303.5 153 312.8 165 322 177.1C322.2 177.4 324.9 181 324.6 181.1C324.6 180.8 324.6 180.6 324.6 180.3C324.5 180.5 324.4 180.7 324.3 181C324.1 181.3 323.9 181.6 323.7 181.9C323.2 182.5 322.7 183.1 322.1 183.6C319.3 186 316 188 312.7 189.5C306.9 192 300.5 191.9 295.8 187.3C291.2 182.8 288.4 175.7 289.6 169.3C289.4 169.5 289.3 169.7 289.1 169.9C292.1 172.5 293.1 176.9 293 180.8C292.8 185.3 291.3 189.9 288.1 193.2C280.4 201 267 196.8 261.8 188.3C258.9 183.6 258 176.9 261.4 172.2C261.3 172.1 261.2 172.1 261.1 172C262.5 176.8 261.3 181.8 259.3 186.3C257.3 190.7 254.2 194.7 250.1 197.1C246.1 199.4 241.1 199.9 237.3 197C234.2 194.7 232.7 190.9 232.1 187.1C231.6 183.8 232 180.1 233.8 177.2C234.2 176.6 234.6 176 235.1 175.5C235.2 175.4 235.8 174.8 236 174.8C236.3 174.8 236.5 175.6 236.6 175.9C236.5 175.4 236.6 176 236.6 176.1C236.5 176.4 236.5 176.7 236.4 176.9C236.3 177.4 236.1 177.9 235.9 178.4C235.4 179.8 234.8 181.1 234.1 182.4C230.2 189.7 222.5 196.8 213.6 195.1C208.4 194.1 204 189.5 204.2 184.1C204.3 181.9 205.4 179.2 207.7 178.7C209.8 178.2 211.6 179.8 212.1 181.8C212.1 180.8 212.2 179.8 212.2 178.8C208.6 185.9 202.7 192.6 194.8 195C187.7 197.1 180.5 194.7 175.1 190C171.4 186.8 168.5 182.8 166.4 178.5C166.4 179.7 166.3 180.8 166.3 182C179.4 171.3 189.3 157.1 196.6 141.9C196.8 141.5 196.8 140.8 196.7 140.3C196.8 139.7 196.7 139.1 196.5 139.5Z" fill="white"/>
<path d="M182.3 195.3C176.3 203.3 170.6 211.4 164.9 219.6C162 223.8 159 228 156.1 232.2C154.7 234.2 153.2 236.3 151.8 238.3C150.5 240.1 149 241.9 148 243.9C146.3 247.2 146.8 252 150 254C151.6 255.1 153.6 255.6 155.5 256.2C157.8 257 160.2 257.6 162.6 258.1C170.4 259.5 178.4 258.4 184.9 253.6C187.9 251.4 190.4 248.6 192.5 245.5C194.6 242.3 196.3 238.8 196.6 235C196.7 233.2 196.8 231.1 196 229.5C195.3 228 194 228.1 192.7 228.8C190.2 230.2 188.6 232.7 187.5 235.2C184.6 241.8 184.2 250.1 186 257C187.7 263.5 192.1 270.1 198.9 271.8C205.9 273.5 212.4 268.6 216.6 263.4C222 256.7 225.6 248.2 226.4 239.7C226.6 237.4 226.6 235 226.4 232.7C226.4 232.6 226.2 230.7 225.8 231.2C221.5 236.3 220.6 243.9 220.8 250.3C221 257.1 222.8 264.6 228.1 269.3C232.9 273.7 239.6 274.2 245 270.5C251.1 266.4 254.7 259 256.9 252.2C258.2 248.2 259.1 244.1 259 239.8C258.9 237.1 258.8 232.3 255.7 231.1C255.6 231.2 255.5 231.2 255.5 231.4C252.6 238 252.3 245.8 253.4 252.9C254.4 259.4 257 266.6 262.9 270.2C268.8 273.8 275.7 271.9 280 266.8C284.6 261.3 286.4 253.7 287 246.7C287.3 242.7 287.2 238.5 286.6 234.5C286.3 232.9 286.2 230.6 285 229.5C283.7 228.2 282.4 230 281.8 231.2C280.2 234.4 279.7 238.3 279.5 241.8C279.3 245.6 279.5 249.5 280.2 253.2C281.3 259.1 283.7 266 288.9 269.5C293.9 272.8 299.9 271.6 304.2 267.7C309.6 262.9 311.5 255.3 312.1 248.4C312.7 241.1 311.9 233.1 308.8 226.4C308.1 225 307.4 223.6 306.5 222.3C306.4 222.2 306.3 222.2 306.2 222.3C304.5 224.5 303.9 227.3 303.7 230C303.4 233.2 303.6 236.5 304.4 239.6C305.8 245.3 309.6 249.6 314.6 252.5C322.3 257.1 332.2 258.4 340.2 253.8C345.2 250.9 348.7 246.2 351 240.9C351.4 240.1 351.3 238.9 351.3 238C351.3 237.3 351.3 236.2 350.8 235.6C346.5 230.5 342 225.7 337.8 220.6C332.6 214.4 327.7 208 323.6 201.1C321.2 197 319 192.7 317.3 188.2C316.9 187.1 316.5 188.9 316.5 189.2C316.3 190.3 316.3 191.8 316.7 192.9C322.6 208.2 332.9 221 343.5 233.1C345.8 235.8 348.2 238.4 350.5 241.1C350.4 239.4 350.4 237.6 350.3 235.9C347.3 242.8 341.8 248.6 334.2 250.3C327.5 251.9 320.5 250.4 314.6 247C310.9 244.8 307.5 241.8 305.8 237.8C305.1 236.1 304.6 234.2 304.6 232.4C304.6 231.7 304.7 231 304.9 230.4C305.1 229.7 305.4 228.3 306 227.8C306.4 227.5 306.3 227.7 306.7 228.2C306.9 228.6 307.2 228.9 307.4 229.3C307.9 230.2 308.3 231.1 308.7 232.1C309.5 234 310.1 236 310.5 238.1C311.2 241.9 311.3 245.8 310.6 249.6C309.2 256.8 304.5 265.1 296.4 265.9C288.7 266.7 283.8 259.6 281.8 253.1C280.7 249.5 280.2 245.6 280.7 241.9C280.9 239.9 281.3 237.9 282.1 236C282.4 235.2 283.2 233.7 284.2 234C285.3 234.3 285.4 235.9 285.6 236.8C287.1 244.8 285.5 254.2 280.6 260.9C278.2 264.1 274.9 266.7 270.9 267.2C266.9 267.7 263 266 260.2 263.2C254.8 257.6 253 248.4 254.4 240.9C254.7 239 255.3 237.1 256.1 235.2C256 235.3 255.9 235.4 255.9 235.5C257.9 236.3 258.3 239 258.2 240.9C258.1 243.9 257.1 246.9 256.1 249.8C254 255.7 250.8 261.6 245.8 265.4C241.4 268.7 235.7 269.3 230.9 266.6C225.8 263.7 223 257.9 222.1 252.2C221.3 246.5 222.2 239.9 226.1 235.4C225.9 234.9 225.7 234.4 225.5 233.9C226.1 241.5 223.1 249.1 219 255.3C215.5 260.7 210.5 266.3 203.8 267.4C198.2 268.3 192.9 265.1 189.8 260.6C186.3 255.6 185.2 249.3 186.6 243.4C187.2 240.7 188.3 238.1 190 235.9C191 234.7 194.5 231.2 195.6 233.9C195.7 234.1 195.6 233.7 195.6 233.7C195.6 234 195.5 234.2 195.5 234.4C195.4 235.1 195.1 235.7 194.8 236.3C194 238 193.1 239.7 192.1 241.2C190.3 243.9 188.1 246.4 185.6 248.4C180.3 252.7 173.8 254.6 167 254.3C162.9 254.1 158.8 253.2 154.9 251.9C153.3 251.4 151.4 250.9 150 249.9C149.5 249.5 148.9 249 148.6 248.5C148.4 248.2 148.1 247.8 148.1 247.5C148.1 248.2 148.7 246.9 148.8 246.6C151.1 243 153.7 239.5 156.2 235.9C158.7 232.3 161.2 228.6 163.7 225C168.8 217.7 173.8 210.4 178.8 203.1C180.1 201.2 181.3 199.3 182.5 197.4C182.7 197 182.7 196.4 182.7 196C182.5 196 182.4 195.1 182.3 195.3Z" fill="white"/>
<path d="M236.7 22.7001C236.4 15.2001 237 6.40006 242.7 0.800057C244.7 -1.19994 246.7 0.800056 247.7 3.80006C249.6 9.40006 252.2 16.9001 252.7 22.7001C252.9 24.6001 250.3 24.5001 248.7 23.3001C242.6 18.8001 236.8 15.5001 229.7 12.7001C228.8 12.4001 227.7 11.6001 227.7 10.7001C227.7 8.70006 236.6 7.70006 240.6 7.30006L256.3 5.80006C257.1 5.70006 258.3 5.90006 258.6 6.70006C259.1 7.80006 258 8.80006 257.2 9.50006L240.2 23.9001C238.7 25.1001 236.8 24.6001 236.7 22.7001Z" fill="#C69C6D"/>
<path d="M245.7 266C246.3 280 246.6 294 246.4 308C246.4 308.5 246.5 309.7 247.1 310C247.7 310.3 248 309.5 248.1 309.1C251.5 295 252.3 280.3 250.5 265.9C250.4 265.4 250.2 264.2 249.4 264.5C248.7 264.8 248.7 266.4 248.8 266.9C250.4 279.8 250.9 292.9 250.2 305.9C250.2 306.4 250.4 308.1 251.2 308.1C254.5 307.9 254.9 302.6 255.3 300.2C256 296.3 256.3 292.4 256.4 288.5C256.5 280.6 255.3 272.6 252.9 265.1C252.7 264.5 252.4 263.7 251.7 264.2C251 264.7 251.1 266.1 251.1 266.8C252.5 280.1 253 293.4 252.8 306.7C252.8 307.6 253.7 310.3 254.6 308.4C257.8 301.5 258.1 293.7 258.1 286.2C258.1 278 257.8 269.8 257.1 261.6C256.4 262 255.7 262.5 255.1 262.9C256.5 277.8 257 292.7 256.8 307.6C256.8 308.2 256.9 309.7 257.6 310C258.3 310.3 258.7 309.4 258.8 308.9C261.8 297.1 262.7 284.9 261.8 272.7C261.8 272.1 261.4 270.7 260.6 270.9C259.8 271.1 259.7 272.7 259.7 273.3C259.7 283 259.7 292.7 259.7 302.3C259.7 303 259.8 304.8 260.8 304.9C261.8 304.9 261.9 302.9 261.9 302.3C262.1 294.6 262.2 286.8 261.4 279.1C261 275.3 260.5 271.4 259.4 267.7C259.1 266.7 258.1 264.6 256.9 266C256 267 255.6 270.7 257.2 271.2C257.3 269.5 257.4 267.9 257.5 266.2C255.6 266 253.7 265.7 251.8 265.5C250 265.3 247.9 265.2 246.1 264.8C245.5 264.7 245.3 267 246.1 267.2C248 267.7 249.9 268.6 251.7 269.3C253.5 270 255.4 270.6 257.2 271.3C258.9 271.9 259 267.1 257.8 266.4C257.7 266.4 257.7 266.3 257.6 266.3C257.9 266.9 258.1 267.5 258.4 268.1C258.4 268 258.4 268 258.4 267.9C258.3 268.7 258.2 269.6 258.1 270.4C258.1 270.4 258.1 270.4 258.1 270.5C257.9 270.6 257.7 270.7 257.5 270.9C257.3 270.1 257.4 270.9 257.5 270.9C257.6 271.3 257.7 271.7 257.8 272.1C257.9 272.7 258.1 273.3 258.2 274C258.4 275.3 258.6 276.6 258.8 277.8C259.2 280.5 259.4 283.2 259.5 285.9C259.7 291.4 259.6 296.9 259.6 302.4C260.4 302.4 261.1 302.4 261.9 302.4C261.9 292.7 261.8 283 261.8 273.4C261.1 273.6 260.4 273.8 259.7 274.1C260.5 285 259.5 295.9 256.9 306.4C257.6 306.8 258.3 307.2 259 307.7C259.2 292.3 258.5 277 257.1 261.7C257 261.1 256.7 259.6 255.8 260C254.9 260.4 255 262.3 255.1 263C255.7 270.4 256 277.9 256 285.3C256 292 255.9 298.9 253.1 305.2C253.7 305.8 254.3 306.3 254.9 306.9C255.1 293.2 254.4 279.4 253 265.8C252.4 266.4 251.8 267 251.2 267.5C253.2 273.7 254.4 280.2 254.5 286.8C254.5 290 254.4 293.3 253.9 296.5C253.7 298.1 253.4 299.8 253.1 301.4C252.9 302.5 252.6 303.9 251.3 304C251.6 304.7 251.9 305.5 252.3 306.2C253 292.8 252.4 279.4 250.6 266.2C250 266.5 249.5 266.9 248.9 267.2C250.7 280.5 249.9 294.2 246.6 307.3C247.2 307.6 247.7 308 248.3 308.3C248.6 294.2 248.3 280 247.1 265.9C247.1 265.5 246.9 264.7 246.4 264.8C245.8 264.6 245.7 265.6 245.7 266Z" fill="white"/>
</g>
<g clip-path="url(#clip2_256_3)">
<path d="M97.7615 71C98.0789 71 98.2376 71.873 98.317 72.1905C98.8724 74.6508 99.5866 77.1905 100.063 79.5714C100.142 79.8889 102.126 80.2063 102.999 80.127C103.634 80.127 105.062 80.3651 105.697 80.3651C106.966 80.3651 108.315 80.6825 109.585 80.8413C109.664 80.8413 109.664 80.8413 109.744 80.9206C109.902 81.0794 107.284 82.746 106.966 82.9841C105.855 83.6984 104.744 84.4921 103.554 85.2063C103.237 85.4444 102.919 85.6032 102.602 85.7619C101.253 86.5556 101.729 87.2698 102.047 88.619C102.364 89.8095 102.681 91 102.999 92.1111C103.237 93.0635 103.872 94.254 103.792 95.2857C103.792 96.3968 102.523 95.2064 101.967 94.8889C100.936 94.254 99.904 93.619 98.8724 92.9048C97.6028 92.0317 96.4919 91.1587 95.3016 90.2857C95.2223 90.2063 95.1429 90.2064 95.0636 90.127C94.9049 90.127 94.7461 90.2063 94.5874 90.3651C93.5559 91.3175 92.3656 91.9524 91.1753 92.5873C90.2231 93.0635 89.3502 93.619 88.4773 94.1746C88.1599 94.4127 86.9697 95.2857 86.5729 94.7302C86.3348 94.4127 86.811 93.381 86.9697 93.0635C87.8425 90.6825 89.1915 88.5397 90.0644 86.1587C90.2231 85.6032 90.3818 85.4444 90.1437 84.9683C89.985 84.7302 89.6676 84.5714 89.4296 84.3333C87.8425 82.6667 86.0968 81 84.5098 79.3333C84.351 79.1746 83.8749 78.6984 84.113 78.5397C84.1923 78.4603 85.5413 78.5397 85.7794 78.619C88.398 78.7778 91.0166 78.8571 93.7146 79.0159C94.1113 79.0159 94.6668 77.3492 94.7461 77.1111C95.4603 75.5238 96.1745 73.9365 96.8093 72.4286C96.968 72.1111 97.2854 71.1587 97.6028 71C97.6822 71 97.7615 71 97.7615 71Z" fill="#C69C6D"/>
<path d="M177.59 241.159C164.973 243.54 152.356 245.841 139.659 248.063C128.709 249.889 117.758 251.476 106.728 252.429C96.8093 253.302 86.8109 253.54 76.892 253.063C67.1317 252.587 57.3714 251.317 47.7698 249.254C37.4541 247.032 27.3764 243.936 17.4574 240.206C16.1084 239.73 14.8388 239.175 13.4898 238.698C13.093 238.54 12.9343 240.921 12.9343 241.079C12.9343 241.556 12.855 243.222 13.4898 243.46C23.4881 247.349 33.6452 250.683 44.1196 253.063C53.7212 255.286 63.4815 256.794 73.3211 257.429C83.1608 258.063 93.0797 257.905 102.919 257.111C113.791 256.238 124.662 254.73 135.374 252.825C147.833 250.603 160.211 247.825 172.511 244.73C174.177 244.333 175.923 243.857 177.59 243.46C178.066 243.381 177.828 241.079 177.59 241.159Z" fill="white"/>
<path d="M24.9165 224.651C42.9294 229.651 61.4184 232.429 80.0661 232.746C98.6344 232.984 117.123 230.921 135.136 226.635C145.293 224.254 155.371 221.238 165.052 217.349C165.766 217.032 165.607 215.286 165.607 214.73C165.607 214.492 165.449 211.873 165.052 212.111C156.323 215.365 147.515 218.302 138.469 220.603C129.502 222.905 120.377 224.651 111.172 225.921C92.8417 228.381 74.194 228.778 55.7844 227.19C45.3893 226.317 35.0735 224.81 24.9165 222.587C24.6784 222.349 24.4404 224.571 24.9165 224.651Z" fill="white"/>
<path d="M147.753 203.222C133.47 206.794 118.472 207.429 103.792 206.635C96.3332 206.238 88.9535 205.444 81.5737 204.492C74.4321 203.619 67.3698 202.587 60.3074 201.317C56.7366 200.683 53.1658 199.889 49.7536 198.698C48.0872 198.063 46.4209 197.349 44.8338 196.556C43.2468 195.762 41.8978 194.571 40.3108 193.857C39.914 193.698 39.7553 195.921 39.7553 196C39.7553 196.714 39.5966 198.063 40.1521 198.698C42.2152 201.079 45.3893 202.587 48.246 203.698C51.2613 204.889 54.356 205.762 57.5301 206.397C64.4337 207.746 71.5754 208.619 78.5584 209.492C93.3178 211.317 108.236 212.429 123.075 211.159C131.407 210.444 139.659 208.857 147.674 206.317C148.388 206 148.071 203.143 147.753 203.222Z" fill="white"/>
<path d="M51.6581 182.032C73.0037 190.286 96.6506 191.714 119.028 187.349C125.297 186.159 131.486 184.333 137.437 182.191C138.072 181.952 137.993 180.206 137.993 179.651C137.993 179.492 137.834 176.952 137.437 177.111C116.092 185.127 92.7624 187.27 70.2264 183.619C63.9576 182.587 57.7682 181.238 51.6581 179.413C51.42 179.413 51.1026 181.873 51.6581 182.032Z" fill="white"/>
<path d="M59.99 164.889C64.5131 165.365 68.9568 166.079 73.4005 166.635C77.7649 167.19 82.2086 167.429 86.5729 167.587C95.381 167.825 104.268 167.429 112.918 165.603C115.298 165.127 117.679 164.492 119.98 163.778C121.17 163.381 122.281 162.984 123.472 162.587C124.027 162.349 124.582 162.19 125.138 161.952C125.931 161.635 126.328 161.397 126.884 160.762C127.28 160.286 127.598 156.794 126.725 156.635C126.011 156.476 125.773 156.635 125.138 156.952C124.741 157.111 124.265 157.27 123.868 157.508C122.757 157.905 121.646 158.302 120.615 158.698C118.552 159.413 116.489 159.968 114.425 160.524C110.22 161.556 105.855 162.27 101.491 162.746C92.683 163.698 83.7956 163.54 74.9082 163.381C69.9884 163.222 64.9892 163.222 60.0694 162.825C59.6726 162.667 59.5139 164.889 59.99 164.889Z" fill="white"/>
<path d="M113.711 137.984C107.681 139.73 101.729 141.714 95.4603 142.825C89.1915 144.016 82.8434 144.571 76.4952 144.571C74.6701 144.571 72.845 144.492 71.0199 144.413C69.1948 144.333 67.3697 144.095 65.624 144.254C64.9892 144.333 64.9892 147.905 65.624 148.063C68.7187 148.936 72.0515 148.857 75.2256 148.857C78.3997 148.857 81.4944 148.698 84.6685 148.46C91.0166 147.905 97.2854 146.635 103.396 144.81C106.887 143.778 110.378 142.508 113.711 140.762C114.267 140.444 113.949 137.905 113.711 137.984Z" fill="white"/>
<path d="M105.776 127.349C101.332 127.429 96.8887 127.429 92.5243 127.032C90.3818 126.873 88.16 126.556 86.0175 126.238C83.7956 125.841 81.6531 125.206 79.4313 124.968C78.9552 124.889 78.7965 128.46 79.4313 128.698C81.4151 129.571 83.7163 129.889 85.8588 130.206C88.0806 130.524 90.3025 130.762 92.6037 130.841C97.0474 131 101.57 130.603 105.855 129.492C106.173 129.413 106.094 127.349 105.776 127.349Z" fill="white"/>
<path d="M102.919 115.683C100.142 115.841 97.2061 115.603 94.5081 115.048C91.7308 114.571 89.1122 113.619 86.4142 112.905C86.1762 112.825 85.9381 115.365 86.3349 115.603C87.6045 116.397 88.8741 117.032 90.3025 117.508C91.6515 117.905 93.0004 118.222 94.3494 118.381C97.2061 118.778 100.063 118.778 102.919 118.302C103.396 118.222 103.316 115.683 102.919 115.683Z" fill="white"/>
<path d="M92.8417 102.191C92.921 102.349 92.921 102.349 93.1591 102.429C93.3178 102.429 93.3971 102.508 93.5559 102.508C93.7939 102.587 93.9526 102.587 94.1907 102.667C94.6668 102.746 95.1429 102.825 95.619 102.905C96.0951 102.984 96.5712 103.064 97.0473 103.064C97.2854 103.064 97.4441 103.064 97.6821 103.064C97.7615 103.064 97.9202 103.064 97.9996 103.064C98.1583 102.984 98.317 102.905 98.3963 102.825C98.6344 102.667 98.6344 102.111 98.6344 101.873C98.6344 101.635 98.7137 101 98.3963 100.921C98.2376 100.841 98.1583 100.762 97.9996 100.762C97.8409 100.762 97.7615 100.762 97.6028 100.762C97.3647 100.762 97.206 100.762 96.968 100.762C96.4919 100.762 96.0158 100.841 95.5397 100.841C95.0635 100.841 94.5874 100.841 94.1113 100.841C93.8733 100.841 93.7146 100.841 93.4765 100.841C93.3972 100.841 93.2384 100.841 93.1591 100.841C92.921 100.841 92.921 100.841 92.7623 101C92.683 101.159 92.683 101.476 92.683 101.635C92.7623 101.794 92.7623 102.032 92.8417 102.191Z" fill="white"/>
<path d="M89.2709 107.905C91.0166 108.936 92.8417 109.73 94.9049 110.127C95.8571 110.286 96.8093 110.365 97.7615 110.444C98.2376 110.444 98.7137 110.524 99.2692 110.444C99.8247 110.444 100.221 110.206 100.777 109.968C101.094 109.809 101.094 108.936 101.094 108.619C101.094 108.302 101.174 107.429 100.777 107.27C100.301 107.032 99.8247 106.952 99.2692 106.952C98.7931 106.952 98.317 106.952 97.7615 106.952C96.8093 106.952 95.8571 106.873 94.9049 106.714C93.0004 106.476 91.1753 106.317 89.2709 106C89.0328 105.921 88.9535 107.667 89.2709 107.905Z" fill="white"/>
<path d="M0.158704 258.778C12.5376 263.619 25.3133 267.429 38.327 270.206C50.071 272.667 62.0532 274.333 74.0353 275.127C85.7794 275.841 97.6028 275.762 109.347 274.809C121.567 273.857 133.708 272.19 145.849 270.048C159.18 267.746 172.352 264.889 185.525 261.873C187.27 261.476 189.016 261.079 190.762 260.524C191.159 260.444 191 258.381 191 258.063C191 257.905 191 255.603 190.762 255.603C187.27 256.238 183.779 257.111 180.367 257.905C176.955 258.698 173.543 259.413 170.051 260.206C163.624 261.556 157.117 262.905 150.61 264.095C138.469 266.317 126.17 268.143 113.87 269.333C102.126 270.444 90.3025 270.841 78.479 270.524C66.5762 270.206 54.6735 268.936 42.9294 266.952C30.1537 264.73 17.6955 261.476 5.15787 258.063C3.49148 257.587 1.82509 257.19 0.238055 256.714C0.158704 256.476 -0.238056 258.619 0.158704 258.778Z" fill="white"/>
<path d="M94.9049 280.841C94.4288 290.206 94.3494 299.572 94.6668 308.857C94.7462 311.079 94.7462 313.302 95.0636 315.524C95.3016 317.349 95.8571 319.492 97.6028 320.524C98.2377 320.841 98.9518 321.079 99.666 320.921C101.015 320.603 101.174 319.254 101.253 318.064C101.412 315.445 101.015 312.667 100.698 310.127C100.142 306 99.1105 301.794 98.9518 297.825C98.9518 297.111 98.9518 297.429 98.9518 297.587C98.9518 297.27 98.9518 296.952 98.9518 296.635C98.9518 296 98.9518 297.032 98.9518 296.397C98.9518 296.159 98.9518 295.921 98.9518 295.683C99.0312 294.572 99.1105 293.46 99.1899 292.27C99.3486 289.571 99.3486 286.873 99.0312 284.254C98.8725 283.143 98.7138 282.032 98.4757 280.921C98.2377 279.81 98.1583 278.54 97.6822 277.429C97.3648 276.714 96.73 276.238 96.0158 276.952C95.0636 277.905 95.1429 280.048 95.1429 281.238C95.2223 285.921 95.5397 290.603 95.6984 295.365C95.8571 300.524 96.0952 305.683 96.3332 310.841C96.4126 312.191 96.4919 313.54 96.6506 314.889C96.8093 316.159 96.968 317.984 97.6822 319.016C98.7931 320.524 99.1105 317.349 99.1899 316.794C99.1899 316.556 99.2692 311.873 98.2377 312.27C98.4757 313.064 98.7138 313.937 98.9518 314.73C98.6344 310.762 98.1583 306.794 97.7615 302.825C97.2061 296.873 96.5713 290.841 96.0158 284.889C95.9365 283.857 95.7777 282.825 95.6984 281.794C95.6984 281.476 95.619 281.238 95.619 280.921C95.5397 280.524 95.619 281.318 95.619 281C95.619 280.762 95.619 279.651 95.1429 279.81C94.7462 279.968 94.9049 281.556 94.9049 281.873C94.9049 281.873 94.9049 281.873 94.9049 281.952V282.032C94.9049 281.476 94.9049 281.794 94.9049 282.111C94.9049 282.349 94.9049 282.587 94.9842 282.825C95.0636 283.619 95.1429 284.492 95.1429 285.286C95.381 288.064 95.5397 290.841 95.7777 293.619C96.2539 299.81 96.73 306 97.1267 312.191C97.2061 313.619 97.2854 315.048 97.4441 316.556C97.4441 316.714 97.6822 319.254 98.1583 319.016C98.1583 319.016 98.2377 319.016 98.2377 318.937C98.079 318.778 97.9996 318.619 97.8409 318.46C97.8409 318.54 97.9203 318.54 97.9203 318.619C97.8409 317.905 97.6822 317.27 97.6028 316.556C97.6028 316.635 97.6028 316.635 97.6028 316.714C97.8409 315.286 98.079 313.778 98.317 312.349C98.1583 312.429 98.317 312.587 98.2377 312.27C98.1583 312.032 98.079 311.794 98.079 311.556C97.9202 310.921 98.1583 312.191 97.9996 311.079C97.9996 311 97.9203 310.445 97.9996 310.841C97.9203 309.73 97.8409 308.619 97.8409 307.429C97.7615 305.048 97.6028 302.667 97.5235 300.286C97.2854 295.603 97.0474 290.841 96.8093 286.159C96.73 284.968 96.6506 283.778 96.6506 282.587C96.6506 282.032 96.6506 281.556 96.5713 281C96.4919 279.572 95.6984 283.937 96.6506 283.222C96.8887 283.302 96.968 283.222 96.8093 282.984C96.8093 283.143 96.8887 283.222 96.8887 283.381C97.1267 284.413 97.3648 285.445 97.5235 286.476C97.6028 286.952 97.6822 287.508 97.7615 287.984C97.7615 288.381 97.8409 288.619 97.8409 288.937C97.8409 289.651 97.8409 289.492 97.8409 290.127C97.8409 290.683 97.7615 291.238 97.7615 291.794C97.6822 292.905 97.6028 294.016 97.5235 295.206C97.4441 297.905 97.5235 300.683 97.8409 303.381C98.3964 308.302 99.666 313.302 99.8247 318.143C99.9834 316.794 100.142 315.445 100.301 314.016C99.4279 314.73 98.079 314.492 97.2854 313.857C96.8093 313.54 96.4919 312.984 96.3332 312.508C96.1745 311.952 96.2539 311.952 96.1745 311.318C96.0158 308.064 95.8571 304.81 95.7777 301.556C95.619 294.889 95.5397 288.143 95.619 281.476C95.619 281.238 95.619 279.889 95.3016 279.81C94.9049 279.572 94.9049 280.683 94.9049 280.841Z" fill="white"/>
</g>
<defs>
<clipPath id="clip0_256_3">
<rect width="158" height="246" fill="white" transform="translate(331 62)"/>
</clipPath>
<clipPath id="clip1_256_3">
<rect width="204" height="312" fill="white" transform="translate(147)"/>
</clipPath>
<clipPath id="clip2_256_3">
<rect width="191" height="250" fill="white" transform="translate(0 71)"/>
</clipPath>
</defs>
</svg>
