<svg width="441" height="306" viewBox="0 0 441 306" fill="none" xmlns="http://www.w3.org/2000/svg">
<g clip-path="url(#clip0_256_2)">
<path d="M45.1024 79.564C38.8377 90.4341 32.7916 101.377 26.8912 112.393C20.9179 123.482 15.0904 134.644 9.48135 145.879C3.72662 157.26 -1.88242 168.786 -7.41861 180.313C-12.882 191.767 -18.2725 203.294 -23.5173 214.82C-28.6892 226.274 -33.7884 237.728 -38.8146 249.254C-39.4702 250.714 -40.053 252.173 -40.7086 253.632C-40.9271 254.142 -41.3642 258.447 -40.4172 258.374C-37.3578 258.228 -34.3711 258.082 -31.3117 257.936C-23.2259 257.571 -15.0673 257.279 -6.98154 257.06C4.6736 256.696 16.2559 256.477 27.911 256.331C41.6058 256.185 55.3006 256.185 68.9954 256.404C83.1273 256.623 97.2591 257.133 111.391 258.009C113.066 258.082 114.742 258.228 116.49 258.374C116.927 258.374 117 256.623 117.073 256.477C117.146 255.528 117.146 254.434 116.781 253.486C112.192 242.105 107.53 230.724 102.941 219.343C98.3518 207.963 93.6897 196.582 89.1005 185.201C84.5113 173.893 79.9221 162.585 75.3329 151.278C70.7437 139.897 66.0816 128.516 61.4924 117.135C56.9032 105.754 52.314 94.3736 47.6519 82.9929C47.0692 81.6067 46.4864 80.2206 45.9037 78.8345C45.4666 77.8131 45.1752 79.4911 45.1024 79.7829C44.9567 80.8772 44.8838 82.3363 45.3209 83.3576C49.983 94.7384 54.5722 106.119 59.1614 117.5C63.7506 128.881 68.4126 140.262 73.0019 151.642C77.5911 162.95 82.1803 174.258 86.7695 185.566C91.3587 196.947 96.0208 208.327 100.61 219.635C105.199 231.016 109.861 242.324 114.45 253.705C115.033 255.091 115.616 256.55 116.199 257.936C116.272 256.331 116.417 254.653 116.49 253.048C102.431 252.1 88.2992 251.589 74.2402 251.224C60.3997 250.932 46.5593 250.859 32.7916 250.932C20.8451 251.005 8.89858 251.224 -3.04794 251.589C-11.7164 251.881 -20.3121 252.173 -28.9078 252.537C-31.4573 252.683 -34.0069 252.756 -36.5565 252.902C-37.722 252.975 -38.8875 252.975 -40.053 253.121C-40.1259 253.121 -40.1259 253.121 -40.1987 253.121C-40.1259 254.726 -39.9802 256.331 -39.9073 257.863C-35.1724 246.482 -30.0733 234.955 -24.9013 223.502C-19.6565 211.902 -14.3389 200.375 -8.94835 188.849C-3.55785 177.322 1.97835 165.795 7.66023 154.415C13.3421 142.888 19.0968 131.507 25.0701 120.126C30.8977 108.891 36.9438 97.8025 43.0627 86.7135C43.7912 85.4003 44.5925 84.0142 45.3209 82.701C45.6123 82.1174 45.6123 81.3879 45.5394 80.7313C45.5394 80.5854 45.3209 79.2722 45.1024 79.564Z" fill="white"/>
<path d="M-14.0475 217.082C-16.3057 218.541 -17.2526 221.094 -17.3983 223.721C-17.544 226.566 -17.0341 229.557 -15.213 231.819C-11.2065 236.925 -3.26648 236.342 1.46842 232.621C4.09083 230.578 5.98479 227.66 7.22315 224.596C8.24297 222.116 9.48133 218.76 7.00462 216.79C5.25635 215.404 2.63394 215.331 0.667135 216.425C-2.02812 217.884 -2.46519 221.313 -2.3195 224.085C-1.88243 230.87 3.8723 236.05 10.3555 237.071C16.8386 238.093 23.3218 234.591 26.3084 228.754C27.8382 225.763 28.5666 221.386 26.8912 218.249C25.58 215.915 22.0106 214.82 20.1895 217.228C18.2955 219.708 18.2955 223.648 18.7326 226.566C19.2425 229.557 20.6266 232.329 22.7391 234.445C27.4011 238.968 34.3942 238.749 39.639 235.466C45.6851 231.673 47.8705 224.304 47.6519 217.447C47.5791 215.623 47.3605 213.872 46.9235 212.121C46.9235 211.975 46.7778 211.464 46.5592 211.683C42.9899 214.456 41.6787 218.906 41.6058 223.283C41.533 227.879 42.9899 232.475 46.4864 235.539C49.9101 238.53 54.5722 239.843 59.0157 239.406C63.6777 238.968 67.8299 236.415 70.8894 232.913C74.0217 229.265 76.207 224.45 76.2799 219.562C76.3527 217.52 76.207 214.747 74.6773 213.215C73.0747 211.61 70.7437 212.559 69.2139 213.799C65.7902 216.644 65.5717 222.335 66.4458 226.274C67.4657 230.797 71.035 233.861 75.4057 235.101C83.7829 237.436 95.1466 233.278 97.1134 224.012C97.4048 222.699 97.4776 221.313 97.4776 220C97.4776 219.708 97.5505 217.738 96.9677 217.738C96.4578 217.738 96.4578 219.781 96.4578 220C96.4578 220 96.4578 220.802 96.4578 220.365C96.4578 220.219 96.4578 220.511 96.4578 220.584C96.385 220.948 96.3121 221.313 96.1664 221.605C95.8751 222.553 95.438 223.356 94.9281 224.158C93.9083 225.69 92.5242 226.931 91.0673 228.025C87.8622 230.286 83.8557 231.381 79.9221 231.235C75.9885 231.162 71.7635 229.849 69.0682 226.858C67.9756 225.617 67.2471 224.231 67.0286 222.553C67.0286 222.772 67.0286 222.407 67.0286 222.407C67.1014 222.043 67.1014 222.845 67.0286 222.407C67.0286 222.189 67.0286 222.116 67.1014 221.824C67.2471 221.021 67.5385 220.219 67.9756 219.562C68.9226 218.03 70.5251 216.644 72.3463 216.498C74.0217 216.352 74.9687 217.52 75.4057 218.979C75.4786 219.125 75.4057 219.27 75.4057 219.125C75.4057 219.343 75.3329 219.708 75.26 220C75.0415 220.948 74.6773 221.897 74.3131 222.845C73.5118 224.742 72.4919 226.42 71.2536 228.025C66.2273 234.299 57.6316 237.071 50.1286 233.569C46.4136 231.818 43.3541 228.536 42.6256 224.377C42.0429 220.948 44.0097 217.009 46.8506 214.82C46.7049 214.674 46.6321 214.528 46.4864 214.383C48.3075 222.189 44.0097 230.505 36.361 233.132C32.8645 234.372 28.7852 234.372 25.4343 232.621C22.3748 231.016 19.8253 227.806 19.2425 224.304C19.024 222.845 19.3882 221.094 20.3352 219.927C21.4279 218.395 23.4675 218.395 24.9972 219.27C25.7257 219.708 26.3813 220.365 26.7455 221.094C27.1826 222.043 27.0369 222.845 26.7455 223.794C26.0899 225.69 24.9244 227.441 23.5403 228.827C17.8585 234.664 8.31582 235.101 2.19687 229.63C0.521444 228.171 -0.789759 226.274 -1.44536 224.085C-1.95527 222.262 -1.37251 220.365 0.0843773 219.198C2.19687 217.447 7.1503 217.228 7.9516 220.584C7.9516 220 7.9516 219.416 7.9516 218.833C6.42186 224.523 2.56109 230.141 -3.41217 231.819C-8.58414 233.278 -15.2858 231.454 -16.6699 225.69C-17.3255 223.064 -16.0143 220.292 -13.9018 218.614C-13.6104 218.614 -13.8289 216.936 -14.0475 217.082Z" fill="white"/>
<path d="M5.40204 186.733C3.72661 188.995 3.94514 192.424 4.96497 194.904C6.20333 197.895 8.97142 199.865 11.9581 200.886C15.2361 202.053 19.0968 203.002 22.5205 202.053C25.2886 201.324 27.5468 199.208 29.1494 196.874C30.8248 194.466 32.136 191.694 33.1558 188.922C33.7386 187.317 34.03 185.639 34.03 183.961C34.03 182.429 33.8114 180.678 32.5731 179.73C30.4606 178.052 27.7653 179.876 26.527 181.772C24.8516 184.399 24.8516 188.046 25.2886 191.037C26.2356 197.02 30.6791 201.98 36.6524 203.294C42.9899 204.607 49.6916 201.689 53.8437 196.874C55.9562 194.466 57.5588 191.621 58.6515 188.557C59.2342 186.952 59.6713 185.347 59.9627 183.742C60.3269 181.845 60.5454 179.365 59.5256 177.541C58.2144 175.134 54.8635 175.717 53.4067 177.541C51.367 180.167 51.4398 184.472 52.0954 187.536C53.261 193.007 58.2872 197.822 64.1148 197.603C70.0881 197.384 74.4588 192.059 75.26 186.441C75.5514 184.69 75.4786 182.94 75.26 181.189C75.1872 180.824 75.0415 179.73 74.6044 180.459C74.2402 181.189 74.3131 182.575 74.4587 183.304C74.4587 183.377 74.5316 183.742 74.5316 183.742C74.5316 183.523 74.5316 183.815 74.5316 183.888C74.4588 184.253 74.3859 184.763 74.2402 185.128C73.876 186.222 73.3661 187.171 72.7105 188.119C71.3993 189.943 69.5782 191.475 67.4657 192.351C63.0221 194.174 58.0687 192.497 55.0092 188.922C54.2808 188.046 53.6252 187.098 53.1881 186.077C52.9696 185.639 52.8239 185.128 52.751 184.618C52.6782 184.399 52.6782 184.253 52.6782 184.034C52.6054 183.669 52.6054 184.253 52.6782 183.888C52.8967 181.772 54.645 179.876 56.8303 180.021C57.2674 180.021 57.7773 180.167 58.2144 180.386C58.4329 180.532 58.5786 180.678 58.7972 180.824C58.87 180.897 59.3071 181.626 59.3071 181.626C59.1614 181.626 59.3799 180.167 59.1614 181.189C59.0885 181.48 59.0157 181.845 58.9428 182.137C58.7971 182.794 58.5786 183.377 58.3601 183.961C57.4859 186.441 56.3933 188.776 54.7907 190.819C51.6584 195.123 46.9963 198.114 41.7515 198.843C36.7981 199.5 31.7718 197.895 28.5666 193.956C27.2554 192.351 26.1628 190.308 25.9442 188.192C25.7985 186.368 27.1097 184.399 28.6395 183.377C29.4408 182.867 30.4606 182.502 31.4076 182.721C31.9175 182.867 32.3545 183.085 32.6459 183.45C32.8645 183.669 33.0102 183.888 33.1558 184.18C33.4472 184.763 33.083 184.034 33.2287 184.034C33.1558 184.034 32.8645 185.42 32.7916 185.566C32.5731 186.15 32.3546 186.66 32.0632 187.244C31.5533 188.338 31.0433 189.432 30.5334 190.527C29.4408 192.642 28.0567 194.685 26.2356 196.217C24.1231 197.968 21.5735 198.698 18.8783 198.625C16.1102 198.552 13.2693 197.822 10.6469 196.801C8.31582 195.925 6.05764 194.393 5.11066 191.986C4.60074 190.746 4.89212 189.651 5.54773 188.557C5.76626 188.265 5.69341 187.755 5.69341 187.39C5.62057 187.317 5.54773 186.514 5.40204 186.733Z" fill="white"/>
<path d="M17.9313 149.235C17.7128 151.496 17.9313 153.831 19.1697 155.801C20.3352 157.552 22.1563 158.865 24.1231 159.594C28.6395 161.199 33.2287 158.646 35.9239 154.925C37.3808 152.956 38.4007 150.694 39.0563 148.359C39.4205 146.9 39.5662 145.368 39.4205 143.836C39.2748 142.669 38.9834 141.356 37.9636 140.699C36.2153 139.532 33.8114 140.335 32.7188 141.94C31.189 144.201 31.189 147.411 31.4804 150.037C31.9903 154.706 34.5399 159.011 38.6192 161.418C42.6985 163.753 47.5062 163.461 51.367 160.907C55.5191 158.135 57.4131 153.028 56.539 148.141C56.2476 146.39 55.3006 143.982 53.1881 143.909C51.0028 143.836 50.0558 146.098 49.7644 147.849C48.9631 152.664 50.7114 158.427 54.9364 161.126C56.8303 162.367 58.9428 162.804 61.1282 162.221C63.1678 161.637 64.9161 160.324 65.8631 158.427C66.4458 157.333 66.6644 156.093 66.7372 154.852C66.7372 154.342 66.8829 153.028 66.5187 152.591C66.1545 152.153 66.0088 153.101 66.0088 153.393C65.8631 154.779 64.6247 156.02 63.5321 156.822C62.148 157.77 60.3997 158.281 58.6515 158.135C54.9364 157.843 52.0954 154.852 50.9299 151.496C50.7842 151.059 50.6386 150.621 50.5657 150.183C50.5657 150.11 50.5657 150.329 50.5657 150.329C50.6386 149.673 51.0028 148.943 51.5127 148.505C52.6782 147.338 54.4265 147.776 55.3006 149.016C55.4463 149.235 56.1748 150.402 55.9562 150.621C55.3735 151.205 56.0291 150.256 55.9562 150.183C56.0291 150.256 55.8834 150.694 55.8105 150.767C55.6648 151.205 55.5191 151.642 55.3735 152.08C54.7179 153.685 53.5523 155.071 52.1683 156.165C49.4002 158.427 45.6851 159.521 42.1886 158.792C38.692 158.062 35.6326 155.655 33.8114 152.591C33.0102 151.205 32.2817 149.527 32.2089 147.922C32.2089 146.244 33.3744 144.566 34.9041 144.055C35.6326 143.836 36.4339 143.763 37.0895 143.982C37.4537 144.128 37.8179 144.274 38.1093 144.566C38.3278 144.712 38.4007 144.931 38.5463 145.149C38.692 145.514 38.692 145.587 38.692 145.295C38.692 145.077 38.692 145.077 38.692 145.222C38.4007 146.025 38.255 146.9 37.8908 147.703C37.5265 148.651 37.0166 149.527 36.5067 150.402C34.3214 153.831 30.752 156.749 26.527 156.603C24.633 156.53 22.6662 155.874 21.1365 154.706C20.408 154.123 19.7524 153.466 19.3154 152.737C19.0968 152.372 18.8783 151.934 18.7326 151.496C18.6598 151.351 18.6598 151.205 18.5869 151.132C18.5869 151.059 18.5141 150.621 18.5141 150.913C18.5869 150.402 18.7326 149.381 18.3684 148.943C18.077 148.286 18.0042 148.943 17.9313 149.235Z" fill="white"/>
<path d="M28.5666 122.607C29.4408 126.4 33.5201 128.297 37.0895 128.297C41.3145 128.37 45.3209 125.671 45.6851 121.221C45.8308 119.178 45.4666 116.916 43.7912 115.53C43.2084 115.093 42.48 114.655 41.7515 114.582C40.9502 114.509 39.7847 114.728 39.4933 115.603C39.202 116.698 39.2748 118.011 39.3477 119.178C39.4205 120.418 39.639 121.658 40.0761 122.826C40.8045 124.795 42.0429 126.619 43.7183 127.859C47.2877 130.559 53.6252 130.705 56.539 126.838C56.9032 126.327 56.8304 125.452 56.8304 124.868C56.8304 124.722 56.6847 123.19 56.4661 123.336C55.6649 123.774 55.0092 124.285 54.208 124.649C53.4067 125.087 52.5325 125.379 51.5855 125.525C49.7644 125.89 47.8705 125.817 46.1222 125.233C44.3739 124.649 42.917 123.482 41.8244 122.023C40.9502 120.929 39.9304 119.105 40.0761 117.646C40.0033 117.938 39.9304 118.157 39.8576 118.448C40.7317 117.792 41.7515 117.865 42.6985 118.23C43.2084 118.448 43.6455 118.813 44.0097 119.178C44.3739 119.616 44.5925 120.053 44.8838 120.491C45.0295 120.929 45.0295 120.71 44.9567 119.835C44.9567 119.98 44.8838 120.126 44.811 120.272C44.7382 120.564 44.5925 120.783 44.4468 121.002C44.1554 121.512 43.7183 121.95 43.2813 122.388C42.3343 123.336 41.0959 123.92 39.8576 124.358C37.7451 125.014 35.4869 125.16 33.3744 124.504C31.1891 123.847 29.8778 122.534 28.7123 120.637C28.5666 120.418 28.421 121.148 28.4938 121.075C28.4938 121.731 28.4938 122.242 28.5666 122.607Z" fill="white"/>
<path d="M40.7317 261.073C40.2218 270.557 40.2218 280.041 40.5132 289.525C40.586 291.932 40.586 294.34 40.9502 296.674C41.2416 298.498 41.7515 300.614 43.4998 301.562C44.0825 301.927 44.811 302.073 45.4666 302C46.8506 301.708 46.9963 300.541 47.0692 299.301C47.2877 296.601 46.8506 293.829 46.4864 291.13C45.9037 286.972 44.9567 282.667 44.7381 278.655C44.7381 278.363 44.7381 278.071 44.7381 277.415C44.7381 277.05 44.7382 276.831 44.811 276.247C44.8838 275.08 44.9567 273.84 45.0295 272.673C45.1752 269.9 45.1752 267.128 44.811 264.429C44.6653 263.262 44.4468 262.167 44.2282 261C44.0097 259.906 43.9369 258.665 43.4269 257.644C43.0627 256.915 42.3343 256.696 41.7515 257.352C40.8774 258.447 40.9502 260.489 41.0231 261.802C41.1688 266.472 41.3873 271.214 41.6058 275.883C41.8244 281.062 42.0429 286.315 42.2614 291.495C42.3343 292.881 42.4071 294.267 42.5528 295.653C42.6985 296.893 42.8442 298.717 43.5726 299.811C44.5925 301.416 44.9567 298.133 45.0295 297.696C45.0295 297.258 45.1024 292.954 44.0097 293.756C44.3011 294.486 44.5925 295.215 44.8838 295.945C44.5196 291.859 44.0825 287.774 43.7183 283.689C43.1356 277.488 42.5528 271.286 41.8972 265.085C41.8244 264.064 41.6787 263.043 41.6058 261.948C41.6058 261.657 41.533 261.365 41.533 261.073C41.4601 260.635 41.533 261.438 41.533 261.073C41.533 260.854 41.533 259.833 41.0959 259.979C40.7317 260.125 40.8774 261.584 40.8774 261.875V261.948C40.8774 262.021 40.9502 262.094 40.8774 261.802C40.8045 261.365 40.8774 261.948 40.8774 262.094C40.8774 262.313 40.8774 262.532 40.9502 262.824C41.0231 263.699 41.0959 264.575 41.1688 265.45C41.3873 268.295 41.6058 271.141 41.8244 273.986C42.3343 280.406 42.7713 286.826 43.2813 293.246C43.4269 294.705 43.4998 296.164 43.6455 297.623C43.6455 297.915 43.7912 300.249 44.5196 299.811C44.5196 299.811 44.5925 299.811 44.5925 299.738C44.4468 299.738 44.3739 299.738 44.2282 299.738L44.1554 299.665C44.0825 298.206 44.0097 296.747 43.9369 295.288V295.361C44.1554 294.851 44.3739 294.34 44.5196 293.756C44.3011 293.829 44.2282 293.027 44.1554 292.808C44.0097 292.005 44.1554 292.954 44.0825 292.151C44.0825 292.078 44.0097 291.568 44.0825 291.932C43.9369 290.692 43.9369 289.379 43.864 288.139C43.7912 285.731 43.6455 283.324 43.5726 280.916C43.3541 276.028 43.1356 271.068 42.8442 266.18C42.7713 265.085 42.7713 263.991 42.6985 262.97C42.6985 262.386 42.6985 261.73 42.6257 261.146C42.6257 261.219 42.6257 261.292 42.6257 261.292C41.9701 262.824 41.9701 263.407 42.6985 262.97C42.7713 262.97 43.3541 262.97 43.0627 262.824C43.2084 262.897 43.3541 264.356 43.4269 264.575C43.5726 265.158 43.6455 265.742 43.7912 266.326C43.864 266.836 43.9369 267.347 44.0097 267.785C44.0097 267.712 44.0825 268.295 44.0097 268.077C44.0097 268.004 44.0825 269.098 44.0825 268.66C44.0825 269.754 44.0097 270.557 43.9369 271.797C43.864 273.11 43.7183 274.423 43.7183 275.737C43.6455 278.509 43.7912 281.208 44.0825 283.907C44.6653 289.014 45.9765 294.121 46.1222 299.082C46.2679 297.842 46.4136 296.601 46.5593 295.288C45.6123 296.091 44.2282 295.799 43.3541 295.069C42.917 294.705 42.5528 294.194 42.4071 293.61C42.3343 293.391 42.3343 293.246 42.2614 292.954C42.3343 293.391 42.2614 292.443 42.2614 292.516C42.0429 289.16 41.9701 285.804 41.8244 282.448C41.6058 275.445 41.6058 268.368 41.6787 261.365C41.6787 261.146 41.6787 259.906 41.3873 259.833C40.8045 259.833 40.7317 260.854 40.7317 261.073Z" fill="white"/>
<path d="M47.2877 56C47.6519 56 47.7248 56.8755 47.8705 57.2402C48.4532 59.7936 49.1817 62.42 49.6187 64.9004C49.6916 65.2652 51.7312 65.557 52.6782 65.484C53.3338 65.484 54.8635 65.7029 55.5191 65.7029C56.8304 65.7029 58.2144 65.9947 59.5256 66.1406C59.5984 66.1406 59.5984 66.1406 59.6713 66.2136C59.817 66.3595 57.1217 68.1104 56.8304 68.3292C55.6648 69.1317 54.4993 69.8612 53.3338 70.5908C53.0424 70.8096 52.6782 70.9555 52.314 71.1744C50.9299 72.0499 51.367 72.7794 51.7312 74.0926C52.0955 75.3328 52.3868 76.5 52.751 77.7402C53.0424 78.6886 53.6252 79.9289 53.6252 80.9502C53.5523 82.1175 52.314 80.8773 51.7312 80.5125C50.6386 79.8559 49.5459 79.1993 48.5261 78.4698C47.2877 77.5943 46.1222 76.7189 44.811 75.7705C44.7381 75.6975 44.6653 75.6246 44.5196 75.6246C44.3739 75.6246 44.1554 75.7705 44.0097 75.8434C42.9899 76.7918 41.6787 77.4484 40.4403 78.178C39.4933 78.6886 38.5463 79.1993 37.6722 79.8559C37.3808 80.0748 36.0696 80.9502 35.7783 80.4395C35.5597 80.1477 35.9968 79.0534 36.1425 78.6886C37.0166 76.2812 38.4735 74.0196 39.3476 71.6121C39.5662 71.0285 39.7119 70.8826 39.4205 70.3719C39.2748 70.0801 38.9106 69.9342 38.692 69.7153C37.0166 68.0374 35.1955 66.2865 33.5929 64.5356C33.4472 64.3897 33.0102 63.879 33.1558 63.6602C33.2287 63.5872 34.6127 63.6602 34.9041 63.7331C37.5994 63.879 40.2946 64.0249 43.0627 64.1709C43.4269 64.1709 44.0097 62.42 44.1554 62.2011C44.8838 60.5961 45.6123 58.9911 46.2679 57.3132C46.4136 57.0214 46.7778 56 47.142 55.8541C47.2149 56 47.2149 56 47.2877 56Z" fill="#C69C6D"/>
</g>
<g clip-path="url(#clip1_256_2)">
<path d="M197.9 32.1001C193.6 42.5001 187 52.6001 178.5 60.0001C174.7 63.2001 170.5 66.0001 165.9 67.8001C163.9 68.6001 162 69.4001 160.5 70.9001C158.8 72.7001 158.2 75.1001 158.3 77.6001C158.4 80.3001 159.4 82.5001 161.3 84.3001C163.5 86.3001 166.1 88.0001 168.8 89.1001C173.7 91.2001 179.1 90.9001 183.5 87.8001C187.9 84.8001 190.7 79.7001 191.9 74.6001C192.5 72.1001 192.7 68.7001 191.1 66.5001C189.9 64.8001 187.7 64.5001 186 65.6001C182 68.0001 180.9 74.1001 180.8 78.3001C180.7 83.6001 182.2 89.2001 186.2 92.9001C195.3 101.4 207.4 90.1001 211.4 81.7001C212.6 79.1001 213.6 76.3001 214 73.5001C214.4 70.9001 214.5 67.9001 213.4 65.5001C212.5 63.5001 210.6 62.6001 208.8 64.0001C206.7 65.6001 206.3 68.9001 206.1 71.3001C205.8 77.0001 207.3 83.2001 210.5 88.0001C213.1 91.9001 217.2 95.1001 222.1 94.4001C227.1 93.6001 231.6 89.0001 232.8 84.2001C233.5 81.4001 233.4 78.0001 231.5 75.8001C229.6 73.6001 227.5 71.4001 225.6 69.2001C217.4 59.6001 210.3 48.9001 204.3 37.8001C202.7 34.8001 201.1 31.8001 199.7 28.8001C199.3 28.1001 199.1 29.2001 199.1 29.5001C199 30.3001 198.9 31.5001 199.3 32.3001C204 42.3001 209.5 51.9001 215.9 60.9001C218.9 65.2001 222.1 69.3001 225.6 73.3001C227.2 75.2001 228.9 77.0001 230.6 78.9001C231 79.3001 231.5 79.8001 231.8 80.3001C232.1 80.8001 232.3 81.0001 232.3 81.5001C232.2 82.8001 231.1 84.2001 230.4 85.2001C227.9 88.6001 223.9 91.3001 219.4 90.7001C215.1 90.1001 211.9 86.6001 209.9 83.0001C208.7 80.8001 207.8 78.4001 207.3 75.9001C206.8 73.5001 206.6 70.6001 208.2 68.5001C209.4 66.8001 211.7 66.2001 212.9 68.3001C214 70.3001 213.3 72.8001 212.7 74.8001C211.2 79.4001 208.6 83.7001 205.1 87.0001C201.6 90.4001 196.6 93.4001 191.5 92.4001C187.1 91.6001 184 87.7001 182.6 83.7001C181.1 79.5001 181.5 74.4001 184.2 70.7001C185.2 69.3001 186.8 68.0001 188.6 68.2001C189.5 68.3001 190.3 68.7001 190.9 69.4001C192 70.7001 191.7 72.1001 191.2 73.7001C189.8 78.0001 187.2 82.0001 183.5 84.6001C179.7 87.2001 175.1 87.7001 170.7 86.4001C168.1 85.6001 165.7 84.2001 163.5 82.6001C161.8 81.4001 159.1 79.4001 159.1 77.0001C159.1 75.2001 161 73.5001 162.4 72.6001C164 71.5001 165.8 71.0001 167.6 70.2001C171.4 68.4001 174.9 66.1001 178.1 63.4001C185.4 57.2001 190.9 49.3001 195 40.7001C196.2 38.3001 197.2 35.8001 198.1 33.3001C198.2 33.0001 198.2 32.6001 198.2 32.3001C198.1 32.3001 198 31.8001 197.9 32.1001Z" fill="white"/>
<path d="M165.3 89.1C156.6 101.5 146.2 112.7 134.1 121.9C133.5 122.4 133.7 124.7 134 125.3C137.3 132.6 142.9 139.4 150.8 141.8C158.1 144 165.5 141.1 170 135.1C173.1 130.9 174.5 125.9 174.6 120.7C174.6 120.4 174.6 118.9 174.2 118.8C169.7 118.4 167.8 124.6 167.2 128C166.3 133.4 166.9 139.6 170.5 143.9C173.8 147.8 178.8 148.8 183.3 146.6C186.1 145.2 188.5 143 190.6 140.8C192.6 138.6 194.4 136.4 195.8 133.8C197.3 131 198.3 128 198.6 124.9C198.9 121.9 198.8 118.5 197 115.8C196.9 115.7 196.9 115.7 196.8 115.8C193.2 118.7 192.5 124.4 192.4 128.7C192.4 133.8 193.7 139.2 197.3 143C200.4 146.3 205.2 147.9 209.5 146.2C214.2 144.3 217.1 139.7 218.3 135C219.8 129.3 219.7 122.4 217 117.1C216.7 116.6 216.6 117 216.5 117.4C214.4 125.5 216 135.2 221.4 141.7C223.5 144.3 226.4 146.4 229.8 146.6C233.6 146.8 237.2 145 240.1 142.6C244.2 139.2 247.1 134.6 249.4 129.9C249.8 129.1 250 126.6 249.3 125.9C238.6 115.2 230.2 102.7 223.3 89.3C222.9 88.5 222.7 89.8 222.6 90.1C222.5 90.9 222.4 92.3 222.8 93.1C229.7 106.7 238.2 119.4 249 130.1C249 128.8 248.9 127.5 248.9 126.1C245.7 132.6 240.4 140.5 232.7 142C225.8 143.4 220.7 137.9 218.3 132C216.7 128.1 216.1 124.1 217.1 120C217 120.2 216.8 120.3 216.7 120.5C220.6 128 217.2 139.8 208.6 142.3C200.1 144.8 192.9 136.1 193.3 128.1C193.4 126.1 193.8 124.1 194.7 122.3C195.1 121.5 195.6 120.7 196.2 120.1C196.4 119.9 196.7 119.5 197 119.6C197.3 119.8 197.6 120.8 197.7 121.1C198.3 123 197.6 125 197 126.7C196.2 128.8 195.2 130.8 193.9 132.6C189.5 138.8 180.8 147.9 172.7 142.1C169.1 139.5 167 134.9 167.7 130.5C168.2 127.3 170.1 122.1 174.2 122.4C174.1 121.8 173.9 121.1 173.8 120.5C173.6 128.1 168 135.6 160.7 137.8C154.1 139.8 147.3 137.4 142.3 132.9C138.9 129.8 136.3 126 134.4 121.8C134.4 122.9 134.3 124.1 134.3 125.2C146.6 115.8 156.8 104 165.4 91.2C165.7 90.8 165.6 90.1 165.6 89.7C165.6 89.9 165.5 88.9 165.3 89.1Z" fill="white"/>
<path d="M146.5 139.5C139 154.1 129.1 167.6 116.3 177.9C115.7 178.4 115.9 180.7 116.2 181.4C120.5 189.9 128 198.4 138.1 199.3C148.1 200.2 156.6 192.8 161.4 184.7C162 183.6 162.9 182.4 163.1 181.2C163.3 179.9 163.1 178.5 162.5 177.3C161.8 175.7 160.3 174.4 158.5 174.6C153.8 175 153.5 182.4 153.8 185.8C154.1 190.8 156.2 195.6 160.9 197.8C164.8 199.6 169.3 199.3 173.1 197.6C178 195.4 181.8 191.2 184.4 186.6C185.8 184.1 187 181.5 187.5 178.7C187.9 176.3 188.3 172.7 186.5 170.7C186.4 170.6 186.3 170.6 186.3 170.7C182.6 173.2 181.7 178.5 181.5 182.6C181.2 187.6 181.9 193.1 184.4 197.5C187.3 202.4 192.9 204.3 198.2 202.3C203.7 200.2 207.6 195.4 210 190.2C213.1 183.6 214 175.7 212 168.7C212 168.6 211.8 167.8 211.6 168.2C209.9 170.6 209.2 173.5 208.9 176.4C208.6 179.9 208.8 183.4 209.6 186.8C211.2 192.9 215.4 197.8 221.2 200.2C226.7 202.5 233.1 202.4 237.7 198.4C242.2 194.6 243.8 188.6 244.2 182.9C244.6 177.3 244.2 169.7 239.7 165.7C239.4 165.4 239.3 166.1 239.2 166.3C237.7 173.6 238.8 181.7 242.8 188.1C244.4 190.7 246.5 193 249.2 194.5C252.4 196.2 256.3 196.3 259.8 195.4C263.7 194.4 267.3 192.2 270.5 189.9C271.9 188.9 273.3 187.9 274.3 186.5C275.4 184.9 275.8 183 275.8 181C275.8 179 275.5 177 274.4 175.3C273.2 173.5 271.7 171.8 270.4 170C267.8 166.5 265.1 163 262.5 159.6C256.7 151.8 250.9 144 244.8 136.4C244.4 135.9 244.2 137.8 244.2 138C244.2 138.8 244 140.1 244.5 140.7C253.5 153 262.8 165 272 177.1C272.2 177.4 274.9 181 274.6 181.1C274.6 180.8 274.6 180.6 274.6 180.3C274.5 180.5 274.4 180.7 274.3 181C274.1 181.3 273.9 181.6 273.7 181.9C273.2 182.5 272.7 183.1 272.1 183.6C269.3 186 266 188 262.7 189.5C256.9 192 250.5 191.9 245.8 187.3C241.2 182.8 238.4 175.7 239.6 169.3C239.4 169.5 239.3 169.7 239.1 169.9C242.1 172.5 243.1 176.9 243 180.8C242.8 185.3 241.3 189.9 238.1 193.2C230.4 201 217 196.8 211.8 188.3C208.9 183.6 208 176.9 211.4 172.2C211.3 172.1 211.2 172.1 211.1 172C212.5 176.8 211.3 181.8 209.3 186.3C207.3 190.7 204.2 194.7 200.1 197.1C196.1 199.4 191.1 199.9 187.3 197C184.2 194.7 182.7 190.9 182.1 187.1C181.6 183.8 182 180.1 183.8 177.2C184.2 176.6 184.6 176 185.1 175.5C185.2 175.4 185.8 174.8 186 174.8C186.3 174.8 186.5 175.6 186.6 175.9C186.5 175.4 186.6 176 186.6 176.1C186.5 176.4 186.5 176.7 186.4 176.9C186.3 177.4 186.1 177.9 185.9 178.4C185.4 179.8 184.8 181.1 184.1 182.4C180.2 189.7 172.5 196.8 163.6 195.1C158.4 194.1 154 189.5 154.2 184.1C154.3 181.9 155.4 179.2 157.7 178.7C159.8 178.2 161.6 179.8 162.1 181.8C162.1 180.8 162.2 179.8 162.2 178.8C158.6 185.9 152.7 192.6 144.8 195C137.7 197.1 130.5 194.7 125.1 190C121.4 186.8 118.5 182.8 116.4 178.5C116.4 179.7 116.3 180.8 116.3 182C129.4 171.3 139.3 157.1 146.6 141.9C146.8 141.5 146.8 140.8 146.7 140.3C146.8 139.7 146.7 139.1 146.5 139.5Z" fill="white"/>
<path d="M132.3 195.3C126.3 203.3 120.6 211.4 114.9 219.6C112 223.8 109 228 106.1 232.2C104.7 234.2 103.2 236.3 101.8 238.3C100.5 240.1 99 241.9 98 243.9C96.3 247.2 96.8 252 100 254C101.6 255.1 103.6 255.6 105.5 256.2C107.8 257 110.2 257.6 112.6 258.1C120.4 259.5 128.4 258.4 134.9 253.6C137.9 251.4 140.4 248.6 142.5 245.5C144.6 242.3 146.3 238.8 146.6 235C146.7 233.2 146.8 231.1 146 229.5C145.3 228 144 228.1 142.7 228.8C140.2 230.2 138.6 232.7 137.5 235.2C134.6 241.8 134.2 250.1 136 257C137.7 263.5 142.1 270.1 148.9 271.8C155.9 273.5 162.4 268.6 166.6 263.4C172 256.7 175.6 248.2 176.4 239.7C176.6 237.4 176.6 235 176.4 232.7C176.4 232.6 176.2 230.7 175.8 231.2C171.5 236.3 170.6 243.9 170.8 250.3C171 257.1 172.8 264.6 178.1 269.3C182.9 273.7 189.6 274.2 195 270.5C201.1 266.4 204.7 259 206.9 252.2C208.2 248.2 209.1 244.1 209 239.8C208.9 237.1 208.8 232.3 205.7 231.1C205.6 231.2 205.5 231.2 205.5 231.4C202.6 238 202.3 245.8 203.4 252.9C204.4 259.4 207 266.6 212.9 270.2C218.8 273.8 225.7 271.9 230 266.8C234.6 261.3 236.4 253.7 237 246.7C237.3 242.7 237.2 238.5 236.6 234.5C236.3 232.9 236.2 230.6 235 229.5C233.7 228.2 232.4 230 231.8 231.2C230.2 234.4 229.7 238.3 229.5 241.8C229.3 245.6 229.5 249.5 230.2 253.2C231.3 259.1 233.7 266 238.9 269.5C243.9 272.8 249.9 271.6 254.2 267.7C259.6 262.9 261.5 255.3 262.1 248.4C262.7 241.1 261.9 233.1 258.8 226.4C258.1 225 257.4 223.6 256.5 222.3C256.4 222.2 256.3 222.2 256.2 222.3C254.5 224.5 253.9 227.3 253.7 230C253.4 233.2 253.6 236.5 254.4 239.6C255.8 245.3 259.6 249.6 264.6 252.5C272.3 257.1 282.2 258.4 290.2 253.8C295.2 250.9 298.7 246.2 301 240.9C301.4 240.1 301.3 238.9 301.3 238C301.3 237.3 301.3 236.2 300.8 235.6C296.5 230.5 292 225.7 287.8 220.6C282.6 214.4 277.7 208 273.6 201.1C271.2 197 269 192.7 267.3 188.2C266.9 187.1 266.5 188.9 266.5 189.2C266.3 190.3 266.3 191.8 266.7 192.9C272.6 208.2 282.9 221 293.5 233.1C295.8 235.8 298.2 238.4 300.5 241.1C300.4 239.4 300.4 237.6 300.3 235.9C297.3 242.8 291.8 248.6 284.2 250.3C277.5 251.9 270.5 250.4 264.6 247C260.9 244.8 257.5 241.8 255.8 237.8C255.1 236.1 254.6 234.2 254.6 232.4C254.6 231.7 254.7 231 254.9 230.4C255.1 229.7 255.4 228.3 256 227.8C256.4 227.5 256.3 227.7 256.7 228.2C256.9 228.6 257.2 228.9 257.4 229.3C257.9 230.2 258.3 231.1 258.7 232.1C259.5 234 260.1 236 260.5 238.1C261.2 241.9 261.3 245.8 260.6 249.6C259.2 256.8 254.5 265.1 246.4 265.9C238.7 266.7 233.8 259.6 231.8 253.1C230.7 249.5 230.2 245.6 230.7 241.9C230.9 239.9 231.3 237.9 232.1 236C232.4 235.2 233.2 233.7 234.2 234C235.3 234.3 235.4 235.9 235.6 236.8C237.1 244.8 235.5 254.2 230.6 260.9C228.2 264.1 224.9 266.7 220.9 267.2C216.9 267.7 213 266 210.2 263.2C204.8 257.6 203 248.4 204.4 240.9C204.7 239 205.3 237.1 206.1 235.2C206 235.3 205.9 235.4 205.9 235.5C207.9 236.3 208.3 239 208.2 240.9C208.1 243.9 207.1 246.9 206.1 249.8C204 255.7 200.8 261.6 195.8 265.4C191.4 268.7 185.7 269.3 180.9 266.6C175.8 263.7 173 257.9 172.1 252.2C171.3 246.5 172.2 239.9 176.1 235.4C175.9 234.9 175.7 234.4 175.5 233.9C176.1 241.5 173.1 249.1 169 255.3C165.5 260.7 160.5 266.3 153.8 267.4C148.2 268.3 142.9 265.1 139.8 260.6C136.3 255.6 135.2 249.3 136.6 243.4C137.2 240.7 138.3 238.1 140 235.9C141 234.7 144.5 231.2 145.6 233.9C145.7 234.1 145.6 233.7 145.6 233.7C145.6 234 145.5 234.2 145.5 234.4C145.4 235.1 145.1 235.7 144.8 236.3C144 238 143.1 239.7 142.1 241.2C140.3 243.9 138.1 246.4 135.6 248.4C130.3 252.7 123.8 254.6 117 254.3C112.9 254.1 108.8 253.2 104.9 251.9C103.3 251.4 101.4 250.9 100 249.9C99.5 249.5 98.9 249 98.6 248.5C98.4 248.2 98.1 247.8 98.1 247.5C98.1 248.2 98.7 246.9 98.8 246.6C101.1 243 103.7 239.5 106.2 235.9C108.7 232.3 111.2 228.6 113.7 225C118.8 217.7 123.8 210.4 128.8 203.1C130.1 201.2 131.3 199.3 132.5 197.4C132.7 197 132.7 196.4 132.7 196C132.5 196 132.4 195.1 132.3 195.3Z" fill="white"/>
<path d="M186.7 22.7001C186.4 15.2001 187 6.40006 192.7 0.800057C194.7 -1.19994 196.7 0.800056 197.7 3.80006C199.6 9.40006 202.2 16.9001 202.7 22.7001C202.9 24.6001 200.3 24.5001 198.7 23.3001C192.6 18.8001 186.8 15.5001 179.7 12.7001C178.8 12.4001 177.7 11.6001 177.7 10.7001C177.7 8.70006 186.6 7.70006 190.6 7.30006L206.3 5.80006C207.1 5.70006 208.3 5.90006 208.6 6.70006C209.1 7.80006 208 8.80006 207.2 9.50006L190.2 23.9001C188.7 25.1001 186.8 24.6001 186.7 22.7001Z" fill="#C69C6D"/>
<path d="M195.7 266C196.3 280 196.6 294 196.4 308C196.4 308.5 196.5 309.7 197.1 310C197.7 310.3 198 309.5 198.1 309.1C201.5 295 202.3 280.3 200.5 265.9C200.4 265.4 200.2 264.2 199.4 264.5C198.7 264.8 198.7 266.4 198.8 266.9C200.4 279.8 200.9 292.9 200.2 305.9C200.2 306.4 200.4 308.1 201.2 308.1C204.5 307.9 204.9 302.6 205.3 300.2C206 296.3 206.3 292.4 206.4 288.5C206.5 280.6 205.3 272.6 202.9 265.1C202.7 264.5 202.4 263.7 201.7 264.2C201 264.7 201.1 266.1 201.1 266.8C202.5 280.1 203 293.4 202.8 306.7C202.8 307.6 203.7 310.3 204.6 308.4C207.8 301.5 208.1 293.7 208.1 286.2C208.1 278 207.8 269.8 207.1 261.6C206.4 262 205.7 262.5 205.1 262.9C206.5 277.8 207 292.7 206.8 307.6C206.8 308.2 206.9 309.7 207.6 310C208.3 310.3 208.7 309.4 208.8 308.9C211.8 297.1 212.7 284.9 211.8 272.7C211.8 272.1 211.4 270.7 210.6 270.9C209.8 271.1 209.7 272.7 209.7 273.3C209.7 283 209.7 292.7 209.7 302.3C209.7 303 209.8 304.8 210.8 304.9C211.8 304.9 211.9 302.9 211.9 302.3C212.1 294.6 212.2 286.8 211.4 279.1C211 275.3 210.5 271.4 209.4 267.7C209.1 266.7 208.1 264.6 206.9 266C206 267 205.6 270.7 207.2 271.2C207.3 269.5 207.4 267.9 207.5 266.2C205.6 266 203.7 265.7 201.8 265.5C200 265.3 197.9 265.2 196.1 264.8C195.5 264.7 195.3 267 196.1 267.2C198 267.7 199.9 268.6 201.7 269.3C203.5 270 205.4 270.6 207.2 271.3C208.9 271.9 209 267.1 207.8 266.4C207.7 266.4 207.7 266.3 207.6 266.3C207.9 266.9 208.1 267.5 208.4 268.1C208.4 268 208.4 268 208.4 267.9C208.3 268.7 208.2 269.6 208.1 270.4C208.1 270.4 208.1 270.4 208.1 270.5C207.9 270.6 207.7 270.7 207.5 270.9C207.3 270.1 207.4 270.9 207.5 270.9C207.6 271.3 207.7 271.7 207.8 272.1C207.9 272.7 208.1 273.3 208.2 274C208.4 275.3 208.6 276.6 208.8 277.8C209.2 280.5 209.4 283.2 209.5 285.9C209.7 291.4 209.6 296.9 209.6 302.4C210.4 302.4 211.1 302.4 211.9 302.4C211.9 292.7 211.8 283 211.8 273.4C211.1 273.6 210.4 273.8 209.7 274.1C210.5 285 209.5 295.9 206.9 306.4C207.6 306.8 208.3 307.2 209 307.7C209.2 292.3 208.5 277 207.1 261.7C207 261.1 206.7 259.6 205.8 260C204.9 260.4 205 262.3 205.1 263C205.7 270.4 206 277.9 206 285.3C206 292 205.9 298.9 203.1 305.2C203.7 305.8 204.3 306.3 204.9 306.9C205.1 293.2 204.4 279.4 203 265.8C202.4 266.4 201.8 267 201.2 267.5C203.2 273.7 204.4 280.2 204.5 286.8C204.5 290 204.4 293.3 203.9 296.5C203.7 298.1 203.4 299.8 203.1 301.4C202.9 302.5 202.6 303.9 201.3 304C201.6 304.7 201.9 305.5 202.3 306.2C203 292.8 202.4 279.4 200.6 266.2C200 266.5 199.5 266.9 198.9 267.2C200.7 280.5 199.9 294.2 196.6 307.3C197.2 307.6 197.7 308 198.3 308.3C198.6 294.2 198.3 280 197.1 265.9C197.1 265.5 196.9 264.7 196.4 264.8C195.8 264.6 195.7 265.6 195.7 266Z" fill="white"/>
</g>
<g clip-path="url(#clip2_256_2)">
<path d="M347.762 75C348.079 75 348.238 75.873 348.317 76.1905C348.872 78.6508 349.587 81.1905 350.063 83.5714C350.142 83.8889 352.126 84.2063 352.999 84.127C353.634 84.127 355.062 84.3651 355.697 84.3651C356.966 84.3651 358.315 84.6825 359.585 84.8413C359.664 84.8413 359.664 84.8413 359.744 84.9206C359.902 85.0794 357.284 86.746 356.966 86.9841C355.855 87.6984 354.744 88.4921 353.554 89.2063C353.237 89.4444 352.919 89.6032 352.602 89.7619C351.253 90.5556 351.729 91.2698 352.047 92.619C352.364 93.8095 352.681 95 352.999 96.1111C353.237 97.0635 353.872 98.254 353.792 99.2857C353.792 100.397 352.523 99.2064 351.967 98.8889C350.936 98.254 349.904 97.619 348.872 96.9048C347.603 96.0317 346.492 95.1587 345.302 94.2857C345.222 94.2063 345.143 94.2064 345.064 94.127C344.905 94.127 344.746 94.2063 344.587 94.3651C343.556 95.3175 342.366 95.9524 341.175 96.5873C340.223 97.0635 339.35 97.619 338.477 98.1746C338.16 98.4127 336.97 99.2857 336.573 98.7302C336.335 98.4127 336.811 97.381 336.97 97.0635C337.843 94.6825 339.192 92.5397 340.064 90.1587C340.223 89.6032 340.382 89.4444 340.144 88.9683C339.985 88.7302 339.668 88.5714 339.43 88.3333C337.843 86.6667 336.097 85 334.51 83.3333C334.351 83.1746 333.875 82.6984 334.113 82.5397C334.192 82.4603 335.541 82.5397 335.779 82.619C338.398 82.7778 341.017 82.8571 343.715 83.0159C344.111 83.0159 344.667 81.3492 344.746 81.1111C345.46 79.5238 346.174 77.9365 346.809 76.4286C346.968 76.1111 347.285 75.1587 347.603 75C347.682 75 347.762 75 347.762 75Z" fill="#C69C6D"/>
<path d="M427.59 245.159C414.973 247.54 402.356 249.841 389.659 252.063C378.709 253.889 367.758 255.476 356.728 256.429C346.809 257.302 336.811 257.54 326.892 257.063C317.132 256.587 307.371 255.317 297.77 253.254C287.454 251.032 277.376 247.936 267.457 244.206C266.108 243.73 264.839 243.175 263.49 242.698C263.093 242.54 262.934 244.921 262.934 245.079C262.934 245.556 262.855 247.222 263.49 247.46C273.488 251.349 283.645 254.683 294.12 257.063C303.721 259.286 313.482 260.794 323.321 261.429C333.161 262.063 343.08 261.905 352.919 261.111C363.791 260.238 374.662 258.73 385.374 256.825C397.833 254.603 410.211 251.825 422.511 248.73C424.177 248.333 425.923 247.857 427.59 247.46C428.066 247.381 427.828 245.079 427.59 245.159Z" fill="white"/>
<path d="M274.916 228.651C292.929 233.651 311.418 236.429 330.066 236.746C348.634 236.984 367.123 234.921 385.136 230.635C395.293 228.254 405.371 225.238 415.052 221.349C415.766 221.032 415.607 219.286 415.607 218.73C415.607 218.492 415.449 215.873 415.052 216.111C406.323 219.365 397.515 222.302 388.469 224.603C379.502 226.905 370.377 228.651 361.172 229.921C342.842 232.381 324.194 232.778 305.784 231.19C295.389 230.317 285.074 228.81 274.916 226.587C274.678 226.349 274.44 228.571 274.916 228.651Z" fill="white"/>
<path d="M397.753 207.222C383.47 210.794 368.472 211.429 353.792 210.635C346.333 210.238 338.953 209.444 331.574 208.492C324.432 207.619 317.37 206.587 310.307 205.317C306.737 204.683 303.166 203.889 299.754 202.698C298.087 202.063 296.421 201.349 294.834 200.556C293.247 199.762 291.898 198.571 290.311 197.857C289.914 197.698 289.755 199.921 289.755 200C289.755 200.714 289.597 202.063 290.152 202.698C292.215 205.079 295.389 206.587 298.246 207.698C301.261 208.889 304.356 209.762 307.53 210.397C314.434 211.746 321.575 212.619 328.558 213.492C343.318 215.317 358.236 216.429 373.075 215.159C381.407 214.444 389.659 212.857 397.674 210.317C398.388 210 398.071 207.143 397.753 207.222Z" fill="white"/>
<path d="M301.658 186.032C323.004 194.286 346.651 195.714 369.028 191.349C375.297 190.159 381.486 188.333 387.437 186.191C388.072 185.952 387.993 184.206 387.993 183.651C387.993 183.492 387.834 180.952 387.437 181.111C366.092 189.127 342.762 191.27 320.226 187.619C313.958 186.587 307.768 185.238 301.658 183.413C301.42 183.413 301.103 185.873 301.658 186.032Z" fill="white"/>
<path d="M309.99 168.889C314.513 169.365 318.957 170.079 323.401 170.635C327.765 171.19 332.209 171.429 336.573 171.587C345.381 171.825 354.268 171.429 362.918 169.603C365.298 169.127 367.679 168.492 369.98 167.778C371.17 167.381 372.281 166.984 373.472 166.587C374.027 166.349 374.582 166.19 375.138 165.952C375.931 165.635 376.328 165.397 376.884 164.762C377.28 164.286 377.598 160.794 376.725 160.635C376.011 160.476 375.773 160.635 375.138 160.952C374.741 161.111 374.265 161.27 373.868 161.508C372.757 161.905 371.646 162.302 370.615 162.698C368.552 163.413 366.489 163.968 364.425 164.524C360.22 165.556 355.855 166.27 351.491 166.746C342.683 167.698 333.796 167.54 324.908 167.381C319.988 167.222 314.989 167.222 310.069 166.825C309.673 166.667 309.514 168.889 309.99 168.889Z" fill="white"/>
<path d="M363.711 141.984C357.681 143.73 351.729 145.714 345.46 146.825C339.192 148.016 332.843 148.571 326.495 148.571C324.67 148.571 322.845 148.492 321.02 148.413C319.195 148.333 317.37 148.095 315.624 148.254C314.989 148.333 314.989 151.905 315.624 152.063C318.719 152.936 322.052 152.857 325.226 152.857C328.4 152.857 331.494 152.698 334.668 152.46C341.017 151.905 347.285 150.635 353.396 148.81C356.887 147.778 360.378 146.508 363.711 144.762C364.267 144.444 363.949 141.905 363.711 141.984Z" fill="white"/>
<path d="M355.776 131.349C351.332 131.429 346.889 131.429 342.524 131.032C340.382 130.873 338.16 130.556 336.017 130.238C333.796 129.841 331.653 129.206 329.431 128.968C328.955 128.889 328.796 132.46 329.431 132.698C331.415 133.571 333.716 133.889 335.859 134.206C338.081 134.524 340.302 134.762 342.604 134.841C347.047 135 351.57 134.603 355.855 133.492C356.173 133.413 356.093 131.349 355.776 131.349Z" fill="white"/>
<path d="M352.919 119.683C350.142 119.841 347.206 119.603 344.508 119.048C341.731 118.571 339.112 117.619 336.414 116.905C336.176 116.825 335.938 119.365 336.335 119.603C337.604 120.397 338.874 121.032 340.302 121.508C341.651 121.905 343 122.222 344.349 122.381C347.206 122.778 350.063 122.778 352.919 122.302C353.396 122.222 353.316 119.683 352.919 119.683Z" fill="white"/>
<path d="M342.842 106.191C342.921 106.349 342.921 106.349 343.159 106.429C343.318 106.429 343.397 106.508 343.556 106.508C343.794 106.587 343.953 106.587 344.191 106.667C344.667 106.746 345.143 106.825 345.619 106.905C346.095 106.984 346.571 107.064 347.047 107.064C347.285 107.064 347.444 107.064 347.682 107.064C347.762 107.064 347.92 107.064 348 107.064C348.158 106.984 348.317 106.905 348.396 106.825C348.634 106.667 348.634 106.111 348.634 105.873C348.634 105.635 348.714 105 348.396 104.921C348.238 104.841 348.158 104.762 348 104.762C347.841 104.762 347.762 104.762 347.603 104.762C347.365 104.762 347.206 104.762 346.968 104.762C346.492 104.762 346.016 104.841 345.54 104.841C345.064 104.841 344.587 104.841 344.111 104.841C343.873 104.841 343.715 104.841 343.477 104.841C343.397 104.841 343.238 104.841 343.159 104.841C342.921 104.841 342.921 104.841 342.762 105C342.683 105.159 342.683 105.476 342.683 105.635C342.762 105.794 342.762 106.032 342.842 106.191Z" fill="white"/>
<path d="M339.271 111.905C341.017 112.936 342.842 113.73 344.905 114.127C345.857 114.286 346.809 114.365 347.762 114.444C348.238 114.444 348.714 114.524 349.269 114.444C349.825 114.444 350.221 114.206 350.777 113.968C351.094 113.809 351.094 112.936 351.094 112.619C351.094 112.302 351.174 111.429 350.777 111.27C350.301 111.032 349.825 110.952 349.269 110.952C348.793 110.952 348.317 110.952 347.762 110.952C346.809 110.952 345.857 110.873 344.905 110.714C343 110.476 341.175 110.317 339.271 110C339.033 109.921 338.953 111.667 339.271 111.905Z" fill="white"/>
<path d="M250.159 262.778C262.538 267.619 275.313 271.429 288.327 274.206C300.071 276.667 312.053 278.333 324.035 279.127C335.779 279.841 347.603 279.762 359.347 278.809C371.567 277.857 383.708 276.19 395.849 274.048C409.18 271.746 422.352 268.889 435.525 265.873C437.27 265.476 439.016 265.079 440.762 264.524C441.159 264.444 441 262.381 441 262.063C441 261.905 441 259.603 440.762 259.603C437.27 260.238 433.779 261.111 430.367 261.905C426.955 262.698 423.543 263.413 420.051 264.206C413.624 265.556 407.117 266.905 400.61 268.095C388.469 270.317 376.17 272.143 363.87 273.333C352.126 274.444 340.302 274.841 328.479 274.524C316.576 274.206 304.673 272.936 292.929 270.952C280.154 268.73 267.695 265.476 255.158 262.063C253.491 261.587 251.825 261.19 250.238 260.714C250.159 260.476 249.762 262.619 250.159 262.778Z" fill="white"/>
<path d="M344.905 284.841C344.429 294.206 344.349 303.572 344.667 312.857C344.746 315.079 344.746 317.302 345.064 319.524C345.302 321.349 345.857 323.492 347.603 324.524C348.238 324.841 348.952 325.079 349.666 324.921C351.015 324.603 351.174 323.254 351.253 322.064C351.412 319.445 351.015 316.667 350.698 314.127C350.142 310 349.111 305.794 348.952 301.825C348.952 301.111 348.952 301.429 348.952 301.587C348.952 301.27 348.952 300.952 348.952 300.635C348.952 300 348.952 301.032 348.952 300.397C348.952 300.159 348.952 299.921 348.952 299.683C349.031 298.572 349.111 297.46 349.19 296.27C349.349 293.571 349.349 290.873 349.031 288.254C348.872 287.143 348.714 286.032 348.476 284.921C348.238 283.81 348.158 282.54 347.682 281.429C347.365 280.714 346.73 280.238 346.016 280.952C345.064 281.905 345.143 284.048 345.143 285.238C345.222 289.921 345.54 294.603 345.698 299.365C345.857 304.524 346.095 309.683 346.333 314.841C346.413 316.191 346.492 317.54 346.651 318.889C346.809 320.159 346.968 321.984 347.682 323.016C348.793 324.524 349.111 321.349 349.19 320.794C349.19 320.556 349.269 315.873 348.238 316.27C348.476 317.064 348.714 317.937 348.952 318.73C348.634 314.762 348.158 310.794 347.762 306.825C347.206 300.873 346.571 294.841 346.016 288.889C345.936 287.857 345.778 286.825 345.698 285.794C345.698 285.476 345.619 285.238 345.619 284.921C345.54 284.524 345.619 285.318 345.619 285C345.619 284.762 345.619 283.651 345.143 283.81C344.746 283.968 344.905 285.556 344.905 285.873C344.905 285.873 344.905 285.873 344.905 285.952V286.032C344.905 285.476 344.905 285.794 344.905 286.111C344.905 286.349 344.905 286.587 344.984 286.825C345.064 287.619 345.143 288.492 345.143 289.286C345.381 292.064 345.54 294.841 345.778 297.619C346.254 303.81 346.73 310 347.127 316.191C347.206 317.619 347.285 319.048 347.444 320.556C347.444 320.714 347.682 323.254 348.158 323.016C348.158 323.016 348.238 323.016 348.238 322.937C348.079 322.778 348 322.619 347.841 322.46C347.841 322.54 347.92 322.54 347.92 322.619C347.841 321.905 347.682 321.27 347.603 320.556C347.603 320.635 347.603 320.635 347.603 320.714C347.841 319.286 348.079 317.778 348.317 316.349C348.158 316.429 348.317 316.587 348.238 316.27C348.158 316.032 348.079 315.794 348.079 315.556C347.92 314.921 348.158 316.191 348 315.079C348 315 347.92 314.445 348 314.841C347.92 313.73 347.841 312.619 347.841 311.429C347.762 309.048 347.603 306.667 347.523 304.286C347.285 299.603 347.047 294.841 346.809 290.159C346.73 288.968 346.651 287.778 346.651 286.587C346.651 286.032 346.651 285.556 346.571 285C346.492 283.572 345.698 287.937 346.651 287.222C346.889 287.302 346.968 287.222 346.809 286.984C346.809 287.143 346.889 287.222 346.889 287.381C347.127 288.413 347.365 289.445 347.523 290.476C347.603 290.952 347.682 291.508 347.762 291.984C347.762 292.381 347.841 292.619 347.841 292.937C347.841 293.651 347.841 293.492 347.841 294.127C347.841 294.683 347.762 295.238 347.762 295.794C347.682 296.905 347.603 298.016 347.523 299.206C347.444 301.905 347.523 304.683 347.841 307.381C348.396 312.302 349.666 317.302 349.825 322.143C349.983 320.794 350.142 319.445 350.301 318.016C349.428 318.73 348.079 318.492 347.285 317.857C346.809 317.54 346.492 316.984 346.333 316.508C346.174 315.952 346.254 315.952 346.174 315.318C346.016 312.064 345.857 308.81 345.778 305.556C345.619 298.889 345.54 292.143 345.619 285.476C345.619 285.238 345.619 283.889 345.302 283.81C344.905 283.572 344.905 284.683 344.905 284.841Z" fill="white"/>
</g>
<defs>
<clipPath id="clip0_256_2">
<rect width="158" height="246" fill="white" transform="translate(-41 56)"/>
</clipPath>
<clipPath id="clip1_256_2">
<rect width="204" height="312" fill="white" transform="translate(97)"/>
</clipPath>
<clipPath id="clip2_256_2">
<rect width="191" height="250" fill="white" transform="translate(250 75)"/>
</clipPath>
</defs>
</svg>
