<svg width="234" height="33" viewBox="0 0 234 33" fill="none" xmlns="http://www.w3.org/2000/svg">
<path d="M0.66 0.337998H9.096L15.176 17.97L21.18 0.337998H29.122V25H23.764V6.76H23.65L17.418 25H12.668L6.246 6.76H6.094V25H0.66V0.337998ZM34.2015 6.608H39.7495V18.616L47.0075 6.608H52.5555V25H47.0075V12.65L39.7495 25H34.2015V6.608ZM57.432 6.608H62.676V8.432C63.0053 7.62133 63.6513 7.05133 64.614 6.722C65.5767 6.39267 67.008 6.228 68.908 6.228C70.504 6.228 71.7833 6.35467 72.746 6.608C73.734 6.86133 74.4813 7.26667 74.988 7.824C75.4693 8.38133 75.7987 9.002 75.976 9.686C76.1533 10.3447 76.242 11.2567 76.242 12.422V18.464C76.242 20.288 75.976 21.694 75.444 22.682C74.912 23.67 74.0887 24.3667 72.974 24.772C71.8847 25.1773 70.39 25.38 68.49 25.38C66.666 25.38 65.3487 25.228 64.538 24.924C63.7273 24.62 63.208 24.0247 62.98 23.138V32.904H57.432V6.608ZM66.78 21.922C67.8693 21.922 68.6927 21.846 69.25 21.694C69.8073 21.542 70.1873 21.276 70.39 20.896C70.5927 20.516 70.694 19.946 70.694 19.186V12.384C70.694 11.548 70.6053 10.9527 70.428 10.598C70.2507 10.218 69.896 9.96467 69.364 9.838C68.832 9.71133 67.958 9.648 66.742 9.648C65.7033 9.648 64.9053 9.73667 64.348 9.914C63.816 10.0913 63.4487 10.37 63.246 10.75C63.0687 11.13 62.98 11.6747 62.98 12.384V19.186C62.98 19.946 63.0687 20.516 63.246 20.896C63.4487 21.276 63.816 21.542 64.348 21.694C64.88 21.846 65.6907 21.922 66.78 21.922Z" fill="#FF5301"/>
<path d="M86.5163 4.556H78.9163V0.337998H100.006V4.556H92.4443V25H86.5163V4.556ZM108.394 24.848L101.06 6.608H107.102L111.244 19.604L115.006 6.608H120.744L110.674 32.904H105.05L108.394 24.848ZM123.487 6.608H128.731V8.432C129.06 7.62133 129.706 7.05133 130.669 6.722C131.631 6.39267 133.063 6.228 134.963 6.228C136.559 6.228 137.838 6.35467 138.801 6.608C139.789 6.86133 140.536 7.26667 141.043 7.824C141.524 8.38133 141.853 9.002 142.031 9.686C142.208 10.3447 142.297 11.2567 142.297 12.422V18.464C142.297 20.288 142.031 21.694 141.499 22.682C140.967 23.67 140.143 24.3667 139.029 24.772C137.939 25.1773 136.445 25.38 134.545 25.38C132.721 25.38 131.403 25.228 130.593 24.924C129.782 24.62 129.263 24.0247 129.035 23.138V32.904H123.487V6.608ZM132.835 21.922C133.924 21.922 134.747 21.846 135.305 21.694C135.862 21.542 136.242 21.276 136.445 20.896C136.647 20.516 136.749 19.946 136.749 19.186V12.384C136.749 11.548 136.66 10.9527 136.483 10.598C136.305 10.218 135.951 9.96467 135.419 9.838C134.887 9.71133 134.013 9.648 132.797 9.648C131.758 9.648 130.96 9.73667 130.403 9.914C129.871 10.0913 129.503 10.37 129.301 10.75C129.123 11.13 129.035 11.6747 129.035 12.384V19.186C129.035 19.946 129.123 20.516 129.301 20.896C129.503 21.276 129.871 21.542 130.403 21.694C130.935 21.846 131.745 21.922 132.835 21.922ZM146.643 6.608H152.191V18.616L159.449 6.608H164.997V25H159.449V12.65L152.191 25H146.643V6.608ZM175.307 25.38C173.053 25.38 170.785 25.1647 168.505 24.734V21.086C170 21.4153 171.216 21.6433 172.153 21.77C173.091 21.8713 174.015 21.922 174.927 21.922C176.118 21.922 177.017 21.8713 177.625 21.77C178.233 21.6687 178.664 21.4787 178.917 21.2C179.171 20.896 179.297 20.4653 179.297 19.908V19.148C179.297 18.4133 179.006 17.9193 178.423 17.666C177.866 17.3873 176.853 17.248 175.383 17.248H171.659V13.79H175.383C176.549 13.79 177.321 13.638 177.701 13.334C178.107 13.03 178.309 12.536 178.309 11.852V11.51C178.309 11.0033 178.221 10.6233 178.043 10.37C177.891 10.1167 177.575 9.93933 177.093 9.838C176.637 9.71133 175.915 9.648 174.927 9.648C173.99 9.648 173.103 9.724 172.267 9.876C171.457 10.0027 170.367 10.2307 168.999 10.56V6.912C171.482 6.456 173.863 6.228 176.143 6.228C178.271 6.228 179.88 6.35467 180.969 6.608C182.059 6.86133 182.806 7.292 183.211 7.9C183.642 8.48267 183.857 9.344 183.857 10.484V12.08C183.857 12.84 183.642 13.4733 183.211 13.98C182.781 14.4867 182.211 14.8287 181.501 15.006V15.196C182.565 15.424 183.389 15.8547 183.971 16.488C184.554 17.096 184.845 17.8053 184.845 18.616V20.174C184.845 21.5167 184.503 22.568 183.819 23.328C183.161 24.088 182.135 24.62 180.741 24.924C179.373 25.228 177.562 25.38 175.307 25.38ZM188.873 6.608H195.941L200.425 19.3L205.175 6.608H211.863V25H206.847V13.144H206.619L202.173 25H198.259L193.965 13.144H193.737V25H188.873V6.608ZM221.949 25.38C220.226 25.38 218.934 25.228 218.073 24.924C217.237 24.5947 216.641 24.0247 216.287 23.214C215.957 22.378 215.793 21.1367 215.793 19.49C215.793 18.0207 215.97 16.868 216.325 16.032C216.705 15.196 217.3 14.6007 218.111 14.246C218.947 13.866 220.087 13.676 221.531 13.676H227.763V12.422C227.763 11.6367 227.649 11.054 227.421 10.674C227.218 10.294 226.825 10.028 226.243 9.876C225.685 9.724 224.837 9.648 223.697 9.648C222.126 9.648 219.973 9.8 217.237 10.104V6.608C219.238 6.35467 221.581 6.228 224.267 6.228C226.623 6.228 228.434 6.40533 229.701 6.76C230.993 7.11467 231.917 7.72267 232.475 8.584C233.032 9.44533 233.311 10.6993 233.311 12.346V25H227.877V23.328C227.446 24.0627 226.863 24.582 226.129 24.886C225.394 25.2153 224.001 25.38 221.949 25.38ZM224.115 21.922C225.229 21.922 226.027 21.884 226.509 21.808C226.863 21.7573 227.104 21.6813 227.231 21.58C227.383 21.4787 227.509 21.314 227.611 21.086C227.712 20.9087 227.763 20.6427 227.763 20.288V16.716H223.963C223.101 16.716 222.493 16.7793 222.139 16.906C221.784 17.0073 221.543 17.2353 221.417 17.59C221.29 17.9193 221.227 18.5147 221.227 19.376C221.227 20.212 221.29 20.7947 221.417 21.124C221.543 21.4533 221.784 21.6687 222.139 21.77C222.519 21.8713 223.177 21.922 224.115 21.922Z" fill="black"/>
</svg>
