<?xml version="1.0" encoding="utf-8"?>
<!-- Generator: Adobe Illustrator 23.1.0, SVG Export Plug-In . SVG Version: 6.00 Build 0)  -->
<svg version="1.1" id="Layer_1" xmlns="http://www.w3.org/2000/svg" xmlns:xlink="http://www.w3.org/1999/xlink" x="0px" y="0px"
	 viewBox="0 0 2400 1200" style="enable-background:new 0 0 2400 1200;" xml:space="preserve">
<style type="text/css">
	.st0{fill:#E5EEED;}
	.st1{fill:#DDE9E7;}
	.st2{fill:#FDFDFD;}
	.st3{fill:#D4E0DE;}
	.st4{fill:#EDECE7;}
	.st5{fill:#EDE4DB;}
	.st6{fill:#EDDDD0;}
	.st7{fill:#ECF8F6;}
</style>
<g>
	<path class="st0" d="M1807.3,722.8c0.1-0.2,0.2-0.3,0.2-0.5C1807.5,722.5,1807.4,722.6,1807.3,722.8c0.2,0.2,0.3,0.3,0.5,0.5
		C1807.7,723.1,1807.5,723,1807.3,722.8z"/>
	<path class="st0" d="M1808.3,722.8c-0.2-0.2-0.5-0.3-0.7-0.5C1807.8,722.5,1808.1,722.6,1808.3,722.8L1808.3,722.8z"/>
	<path class="st0" d="M1802.7,713.7c1.2,2.6,1.9,5.6,5.8,8.1c2.9-11.9,0.3-23.3,1.7-34.9c13.1-5.2,27,0,40.5-2.6
		c2.7-1.2,0.9-4.3,2.2-7.2c2.6-0.9,5.6-2.6,7.6,1.8c0.7,1.6,2.2,1.9,3.8,1.9c18,0,35.9,0,54.2,0c2.2-9-0.4-17.9,1.9-26.4
		c6,2.8,8.4,2.9,9.2-0.7c-0.2-1.1-0.3-2.6-0.3-4.5c-0.1-5-0.2-10,0-15c0.1-2.3-0.5-4.9,0.5-7.3c-0.3-3.3-0.6-6.6-1.3-9.9
		c9.9,2,11.5,3.9,10.2,11.4c-2.3-1.4-4.6-2.8-7-4.3c-1,0.9-1.6,1.8-1.9,2.7c0.6,7.2,0.5,14.4,0.4,21.5c0,2.3-0.2,4-0.5,5.3
		c0.7,3.4,2.6,3.2,8.6,1c2.6,8.2-0.1,16.9,2,26.2c9,0,17.9,0,26.8,0c6.7,0,13.5,0.2,20.2-0.1c4.4-0.2,9.4,1.8,12.4-3.9
		c0.8-1.6,3.7-0.7,6-0.1c0.4,2.6,0.8,5.2,1.1,7.6c13.9,1.9,27.8-2.3,41.7,2.2c0,27.5,0,54.6,0,81.8c0.1,1.4,0.2,2.7,0.3,4.1
		c0.4,0.6,0.9,1.2,1.3,1.7c2.3,0.9,4.3,1.3,3.2,5.1c-1.1,3.6-1.1,7.8,1,11.6c4.6,0.1,9,1,13.5-0.7c0-25,0-49.7,0-74.4
		c0-1,0.1-2.1-0.3-3c-2.4-6.1,2-11.2,1-18.7c4.5,4.7,3.5,8.9,5.2,12.5c2.3,0.4,4.7,0.8,7.3-0.3c1.4-3.3,2.9-6.6,4.3-10
		c0.4-1.4,0.9-2.9,1.3-4.3c0.7,1.1,1.4,1.4,2.1,1.4c-0.7,0-1.4-0.4-2.1-1.4c-0.9-1.7-1.7-3.4-2.6-5.1c6.9-3.8,8-3.1,8.1,4.9
		c0.3,1.5,0.5,3,0.7,4.4c0.1,1.2,0.3,2.5,0.4,3.7l0,0c1,0.4,1.8,0.9,1.7,2.2c1.5,0.9,0.8,3.3,3.1,3.9c2.3-29-2.1-58.2,2.7-88.9
		c2.9,5.2,0.1,9.8,4,12.8c3.8-3.8-0.5-9.8,4.1-13.2c3.9-3,4.3-7.3,4.6-12c0.4-9.1-1.8-18.3,0-27.9c1.4,1,2.3,1.6,3.2,2.1
		c1.7-0.3-0.3-5.6,4.2-1.8c-0.6-8.9-3-18,7.7-22.5c-2.9-4.3-1.5-9.3-5.1-12c1-2.8,3.6-1.2,5-3.4c-2.1-5.2,0-10.6,0.6-16.3
		c1.4-12.1,1.3-24.4,2-36.7c0.1-2-1.3-4.6,2.6-8c0.3,21.8,1.2,41.9,4,62.6c0.4,0.3,2.7-0.9,3.7,1.9c-4.5,2.4-1.8,7.8-4.8,11.2
		c3.3,3.6,6.4,6.9,9.5,10.3c-3.9,5.8-2.8,10.5,2.8,14.1c0.4-0.8,0.8-1.6,1.4-2.9c1.2,3.3,2.9,6.3,2,9.2c-5.3,16.6,2.6,30.7,8.1,45.4
		c3.4-3.1,0-7.9,3.7-11.9c4.6,29.8,0.5,59,2.6,89.6c2.5-5.5,5.8-9,4.6-13.9c-1.7-6.9,2.2-11.1,7.6-16.3c0,11-1.2,20.9,5.6,29.2
		c2,0.3,4.2,0.7,6-0.3c2.4-3.5,0.6-8.2,5.2-11.9c-1,6.9,4.3,12.2,1.2,18.4c3.9,2.3,9.4-1.5,12.5,2.8c2.9,4-1.6,7.6-1.5,11.7
		c0.3,12.6,0.1,25.3,0.1,38.9c10.2,0,19.8,0,29.5,0c1.8,8.7,0.2,16.7,1.1,24.5c4.1,0,8.3-0.1,12.4-0.1c0-9.7,0-19.4,0-29.1
		c5.4-2.1,10.5-0.2,16.1-1.7c0-11.6,0-23.5,0-35.9c19.6-0.8,38.4-1.6,57.2-2.4l0,0c2.5-2.6,3.5-5.5,1.6-8.8
		c3.6-1.2,7.1,0.9,10.1-1.4l0,0l0,0l0,0l0,0l0,0l0,0c0.3,0.2,0.4,0.3,0.4,0.4c-0.1-0.1-0.2-0.2-0.4-0.4c0.2,0.3,0.3,0.4,0.3,0.5
		c-0.1-0.1-0.2-0.3-0.3-0.5l0,0l0,0c3.7,8.6,0.3,18.8,6.4,26.9c0.7-4.4,1.4-8.8,2.1-13.2c7.7,18.8,0.1,38.6,6.4,58
		c1.8-3.9,0.4-8,3.3-11.8c2.1,11,0.9,21.3,1.8,31.5c10.7,0,21.3,0,32.6,0c0,24.8,0,48.5,0,72.2c3.8,1.4,7.4,1.2,10.9,1V277.6
		c-24.7,2.7-48.7,16.3-66.2,40.6c-8.7,12-17.5,24.4-22.9,44.1c-8.1-33.7-21.4-59-41.8-77c-26.1-23.1-54.9-29.7-85.5-17.1
		c-8.1,3.3-14.6,3.1-22.1-2.2c-55.8-38.8-110.1-32.2-161.9,12c-14,12-26.2,28.3-35.3,47.2c-4.2,8.7-6.8,11.2-15.9,6.3
		c-60.7-32.1-131.1,24-130.8,111c0.1,17.4-4.1,24.2-16.7,26.3c-15.8,2.6-28,14.9-39.6,27.5c-5.3,5.8-8.6,8.1-15.1,2.1
		c-2.4-2.2-4.9-4-7.4-5.4c9.4,47.2,20.1,94.1,34.5,140.2C1781.2,660.5,1790.9,687.5,1802.7,713.7z M2131.1,465.6c0-0.7,0.5-0.8,1,0
		c0.4,2.2,2,3.6,3.9,4.7c-0.7,3.3-2.5,5.2-6.4,4.7C2126.8,471.8,2130.9,468.9,2131.1,465.6z"/>
	<path class="st0" d="M1509,684.3c2.8-3.7,2.9-13.3-0.7-15.8c-4.5-3.2-7.3-7.3-9.2-12.3c-7.9,6.3-10.1,35-3.7,45.2
		C1499,694.8,1504.6,690.1,1509,684.3z"/>
	<path class="st0" d="M1416.6,424.1c-3.6,8.2-6.2,17.5-2,26.5c2.3,5-0.8,8-2.4,10.7c9.1,28.2,18.1,55.7,26.8,83.3
		c2,6.4,3.4,12.6,12.1,12.5c-3.9,6-9.3,11.3-7.5,17.9c1.6,5.8,3.2,11.8,5.7,17.8c10.9-20.4,8.9-43,12.2-65.3c0,4.7-0.1,8.8,0,12.9
		c0.2,4.3-1.3,9.1,2.8,12.7c0.6,0.5,0.7,1.9,0.5,2.8c-4.7,21.8,4.7,38.7,18.5,54.2c7.1,8,15.1,15.3,19.7,26.2
		c8.3-9.9,16.7-18.8,23.8-28.6c9-12.5,13.2-26.7,10.6-42.3c-0.4-2.3,0.4-3.9,2.1-5.2c1.4-1,2.9-0.8,4.1,0.3c1.4,1.2,2.2,2.6,1.7,4.6
		c-4.3,18.3,2.2,33.8,13.4,47.7c6.1,7.6,12.8,14.7,19,22.2c4.7,5.7,6.6,12.2,5.2,19.6c-0.7,3.8-2.4,7-4.7,10
		c-12.2,16.3-18.1,34.3-10.6,54.2c2.8,7.4,10.2,12.7,10.9,24.2c-2.4,5.3-5.6,14.1-2.4,24.5c12.7,0,25.3,0,38.9,0
		c0,28.6,0,56.5,0,83.9c3.7,1.7,5.6-0.7,7.5-0.9c4.9-7.8-5.3-20.1,8.8-24.8c0-12.9,0.1-25.8,0-38.8c0-6.8,0.9-12.7,9.8-12.9
		c6.7-33.4,13.4-66.4,19.7-99.5c1.9-10.1,7-20.1,3.5-30.5c-2.4-7.3,0.4-12,4.7-16.7c4.5,5.2,7,10.6,4.2,17.9
		c-2.3,6.2,0.1,12.7,1.4,19c7,35,14,70,21.1,105c0.2,1,0.5,1.9,0.9,3.5c7.9,0,15.8,0,25.7,0c0,28.5,0,56.4,0,84.2
		c2.4-0.1,4.7-0.2,7.1-0.3c0-23,0-45.9,0-68.7c4.1-2.6,8.4-0.3,12.4-2.2c0.9-9.7-1-19.3-1.8-28.9c-7.4-89.1-15.1-178.2-22.7-267.3
		c-4.8,0.9-9.6,3-14.3,5.9c-5.6,3.5-8.6,4.1-13-1.6c-28.4-37.7-89.7-39.4-121.8-6.9c-7.5,7.5-11,10.7-19.3-1.1
		c-13.8-19.6-33.8-20.6-53-15.9c-7.1,1.7-9.8,0-12.7-7.7c-15-39.2-44.9-63.5-76.8-69.8c1.3,4.2,4.7,7.4,7.6,10.7
		C1422,411.5,1421.3,413.4,1416.6,424.1z"/>
	<path class="st0" d="M2049.9,774.2L2049.9,774.2c-0.4-0.6-0.9-1.2-1.3-1.7C2049,773.1,2049.4,773.6,2049.9,774.2z"/>
	<path class="st0" d="M1187,480.9c3.8,2.6,3.5,7.2,5.2,9.8c1.7,1.2,1.5-2.3,3.9,0.5c-1.4,26,1.9,52.8-2.7,79.7c0.7,0,1.4,0,2.1,0.1
		c0.6-0.9,1.3-1.7,2.3-3.1c3.4,23.4,1.7,46.8,6.6,69.5c0.5,2.1,0.3,4.4,0.4,6.8c2.8,0.9,5.4,1.7,8.7,2.7c5-10.5,6.1-22,8.8-33
		c2,8,2.7,15.8,5.1,23.4c1.8,5.6,5.1,11.5,3.3,17.8c-0.9,3.2-4.1,6.7-3.4,9.3c2.4,9.5,0.7,18.7,0.5,28.1
		c-0.4,17.3-0.1,34.6-0.1,51.9c0,11.6-0.4,23.2,0.1,34.8c0.4,9.4-1.3,18.9,0.6,28.8c2.6-2.4,2.3-5.7,5.1-7.2
		c2.9,5.2,4.4,11.1,9.3,15.5c1.2-4.3,4.9-2.2,7.8-3c-0.3-17.4,3.3-34.6,3-52.1c-0.2-13.4-3.3-25.9-5.7-39.1
		c6.5-5.7,0.4-19.4,12.4-21.9c2.3-2.7-1.1-5.1,0.6-7.5c2.5-2.8,6.4-0.3,9.7-2.7c1-6.7-1.3-14.3,0.3-20.9c1.7-7.1-7.3-13.3-0.7-20.1
		c-9.8-11.6-10.2-19.5-1.4-32.1c4.6-6.5,9.8-12.7,14.1-19.4c7.5-11.5,12.6-23.7,9-37.9c-0.2-0.7-0.2-1.7,0.1-2.2
		c6.1-7.4,3.7-15.8,2.8-24c-0.1-0.5,0.9-1.1,1.7-2c0,5.3-0.1,10.2,0,15.1c0.1,3.4-0.9,7,2.4,9.7c0.7,0.6,1.1,2.5,0.7,3.4
		c-5.3,12.5-0.1,23.4,5.7,33.8c4.3,7.8,10.3,14.7,15.5,22c9.6,13.3,9.5,21.1,1.3,31.4c-1.1,15.8-4.1,29.4-2.1,43
		c2.7,2.6,7.1-0.4,10,2.9c0.1,3.9-3,8.2,1.8,14c0-14.1,8.8-22.1,15.4-31.5c-1.2-3.1-3.2-6.2,0.2-9.3c1.2-1.1,0.7-2.8-0.3-4.1
		c-3.4-4.7-2.1-7.4,5-7.7c-3.9-3.1-4.2-7.5-8.8-8.3c2.5-4.3,7.3-4.4,9.7-7.5c-0.5-10.3,2.5-20.1,3-30.1c0.4-8,2.9-15.5,3.9-23.3
		c0.3-2.4,0.2-4.3,2.6-6.3c2.8-2.5,2.2-6.9,0.3-10.2c-2.1-3.6-3.4-7.7-7.7-11.5c9.4-0.2,10.9-6.4,12.9-12.7
		c8.7-26.8,16.3-53.9,26.2-80.3c0.2-0.5,0.6-1.1,0.4-1.4c-6.1-9.7,2.3-20-1.1-29.7c-1.2-3.6-1.8-7.5-4.5-10.8
		c-4-4.8-4.3-11.1,0-15.1c5.3-4.9,8.6-10.3,10.5-16c-28.7-3.2-58.2,7.9-79.4,35.5c-8.9,11.6-15.5,14.3-27.1,6
		c-23.6-16.8-49.4-19.6-75-9.1c-10.9,4.5-16.8-3-23.2-10c-9.9-10.7-20.4-19.4-31.4-26c4.8,31.6,9.5,62.6,14.1,93.4
		C1181.1,483.1,1184.2,481.5,1187,480.9z"/>
	<path class="st0" d="M1058.9,397c0.7,13.2-0.6,26.6,0.5,39.7c0.7,8.9,1.1,18.5,3.4,26.8c2.8,9.9,4.4,18-2.9,26
		c-0.6,0.6-0.9,1.8-0.8,2.7c1.3,14.1-0.5,28.4,2.1,42.5c1,5.7,0.8,11.8,0.4,17.7c-1.1,18.5,0.4,36.9,1,54.6c1.2,3.5,4.6,1.7,6.3,4.5
		c1,5.4-6,12.3,1.8,17.3c-0.8,4.2-4.1,4.4-6.9,5.5c1.6,7.5,0.1,15,0.3,22.4c0.4,17.5,1,35,1.5,52.5c0.5,15.7,0.8,31.4,1.4,47.1
		c0.3,9.4,3.5,18.2,5.8,27.2c2.5,9.6,5.2,19.4,7.5,29.2l0,0l0.1,0.1c0.8,0.4,1.6,0.8,2.4,1.2c0.1,1.1,0.6,2.3,0.8,3.4
		c-0.2-1.2-0.7-2.3-0.8-3.4c2.7-0.1,5.3-0.2,8-0.4c1,3.4-2.3,6.9,2.1,10.9c0-16.8,0.3-32.3-0.1-47.7c-0.4-15.5-1-31.3-0.2-46.6
		c1-19.2-1.9-38.4-0.1-57.6c0.2-2.6,1.3-6.5-0.1-9.4c-3.9-8.2-2.8-16.3,0.3-24.4c3.1-8.2,3.3-17.1,5.8-25.5
		c2.3,11.5,2.7,23.4,9,33.6c3.3-1,5.6-1.8,9.4-3c-5.3-12.8,4.4-24.1,3.3-36.9c-1.1-13.1,0.4-26.2,2.4-39.1c2,0.1,1,2.9,3.6,2.5
		c-0.2-6.1,0.2-12.1-1.1-18.3c-1.2-5.7-3.8-11.8-1.8-17.6c3-8.6,2.9-17.7,1.2-25.8c-2.4-11.6,3.4-19.2,8.6-28.2
		c3.1,1.5,6.1,2.5,9.9,0.3c4.8-31.7,9.6-63.8,14.5-96.5c-16.1-8.3-33.2-12.2-51.4-11.2c-14.6,0.8-28.3,3.7-41.1,8.8
		c-0.4,1.7-0.8,3.5-1.4,5.3C1058.5,388.1,1058.6,392.5,1058.9,397z"/>
	<path class="st0" d="M796.7,502.3c-0.8,9.7,7.4,16.2,7.4,25.5c3,1.7,6.1,3.5,9.6,5.5c0.8-1.6,1.6-3.3,3.2-7
		c2.4,25.6,0.4,49.2,1.5,73.3c4.9,0.5,7.6,3.1,7,8c3.6,1.5,6.7,1.4,9.7,0.3c4.4-12.4,5.2-25.1,4.6-37.9c3.3-1.2,3.7,0.5,4,2.8
		c4.3,41.9,2.7,83.9,3.1,125.9c0,0.9,0.4,1.9,0.7,3c1.1,0.2,2.1,0.4,3,0.4c2,0.1,4,0,7.3,0c-1.1-22.7,0.4-44.8,4.3-68.2
		c2.3,6.3,0.8,11.7,1.7,16.8c0.6,3.7,0.4,7.8,4.4,9.6c3.9,1.8,5.3-2,7.5-4.1c4.4-4.2,10.7-4,14.4,1c1.9,2.6,3.5,4.2,6.5,3.2
		c2.9-1,3.8-3.7,4.1-6.5c0.4-3.2,0.7-6.5,0.8-9.7c0.1-2.9,0-5.8,0-8.7c3.3-0.3,2.5,1.6,2.5,2.9c0.1,7.5,0,14.9,2.8,22.1
		c2,5.1,0.2,10.3,0.2,15.4c0.1,43.1,0.1,86.3,0.1,129.4c0,2.7-0.2,5.5-0.4,8.2c-2.5,0-5-0.3-6.9,0.7c1.9-1,4.4-0.7,6.9-0.7
		c0.8,2.6-0.7,5.8,1.3,8.5c3.3-2.4,0.1-6,2-8.2c2.5,0,4.9,0,7,0c1.5,2.9-1.4,6.3,1.9,8.5c4.6-2,0.5-5.9,2.2-8.7c2.4,0,5.1,0,7.6,0
		c1.9,2.7-2.1,6.7,2.4,8.7c3.2-2.3-0.1-6.2,1.9-8.5c1.4,0.3,2.6,0.5,3.7,0.7c1.3-2.6,4.1-0.8,6.1-2.2c1.5-17.5-2-35.3,2.3-53.4
		c0.7,3.4,1.3,6.2,1.9,9c3.3-0.9,1.5-4.5,4.3-5.4c0.5,1.7,0.9,3.5,1.4,5.1c5.8,2.1,8-3.5,12.4-5c4.4,0.8,6.8,7.6,13.3,4.9
		c0.6-1.9,1.3-4.1,2.4-7.7c0.9,3.5,1.4,5.6,1.9,7.7c3.3-0.6,1.7-4,3.6-5.4c2.3,1.1,0.6,4.2,2.3,5.3c5.9,2.7,8-2.9,12-4.9
		c2,1.7,4,3.5,6.1,5.3c2.2-2.8,2.5-5.7,3.1-10.2c0.9,4.3,0.4,7.5,2.8,10.3c1.1-2.6,2.1-4.7,3.9-8.9c0,19.3,0,36.7,0,54.1
		c-2.6,0.8-2.7,2.8-2.9,4.9c0.3-2.1,0.4-4.1,2.9-4.9c1.5,0,3-0.1,4.6-0.1c4.4-8.9,7.8-17.9,8.2-28.1c0.1-3.3,3.1-6.5,3.9-9.9
		c4.3-18.6,4.3-37.4,2.3-56.3c-0.3-3.3,2.2-6.1,2.2-9.7c0.2-17.5,1-35,1.4-52.5c0.2-7.3-1.6-14.6,0.2-21.9c-2-2.2-6-1.6-7.2-5.7
		c8-4.9,1.7-11.8,1.5-17.2c1.8-3.2,4.9-1.6,8.2-3.5c0-14.2,0.6-28.4-0.1-42.6c-1.1-22.3,2.1-44.4,2.2-66.7c0-5.1-0.3-9.7-3.6-13.8
		c-4.3-5.5-3.6-11.5-1.3-17.6c1-2.6,3.4-35.3,4-38.2c1.9-8.8-0.1-17.6,0.5-26.4c0.2-3.5,1-6.9,0.1-10.4c-22.3,14.5-41,37-55.9,67.7
		c-2.7,5.6-4.7,10.6-10.9,11.6c-49.4,7.9-49.4,8-84,48.1c-3.6-22-12.1-39.2-26.1-51.7c-23.4-20.8-48.8-20.7-71.1,0.7
		c0.1,1.8,0.2,3.5,0.3,5.2C796.2,483.8,797.5,493.2,796.7,502.3z"/>
	<path class="st0" d="M181.7,414.9c0.2,0,0.6-0.3,0.6-0.3c-0.1-0.4-0.3-0.8-0.5-1.2c-0.2,0.4-0.5,0.7-0.7,1.1
		C181.2,414.6,181.5,414.9,181.7,414.9z"/>
	<path class="st0" d="M9.1,847.4c0-10.6,0-21.8,0-32.9c9-2.7,17.5,1.1,25.2-2.6c1.8-2.7,1.4-5.8,1.4-8.7c0-49.6,0-99.3,0-148.9
		c0-3,0.4-6-1.2-8.8c1.8-10.8,6.6-19.7,16.8-24.7c11.6-5.7,24.2-7.2,36.9-8.6c4.1-0.5,6.8,4.6,12.1,0.5c0,34.8,0,67.8,0,100
		c2.8,2.7,5.1,1.7,7.3,1.6c2.3-3.1,1.6-6.7,1.6-10.1c0-91.8,0-183.6,0.1-275.5c32.7-27.6,68.5-21.4,104.9-9.9
		c6.3,2,7.5,10.4,15.3,9.9c-1.1,6.2,4.3,10.2,3.2,16.1c2,0.8,3.7,1.4,5.5,2.1c0.1,2.3,0.3,4.3,0.3,6.2c0,87.8,0,175.7,0,263.5
		c0,1.7-0.2,3.5-0.3,5.2c0.8,0.6,1.5,1.4,2.3,1.8c17.1,9.6,27.3,23,25,43.8c-0.5,4.7-0.1,9.5-0.1,14.2c2,0.9,4.6,0,6.9,2.4
		c0,8.4,0,17.3,0,25.1c1.8,3.1,4.4,1.9,6.5,4.1c0,10.3,0,21.2,0,32.3c4.4,1.6,8.3,1,12.2,0.7c2-2.6,0.9-5.4,0.8-8
		c-2.4-43.3,0.6-86.4,4.4-129.5c1.5-16.9,3.7-33.8,5.3-50.7c0.4-4.7,2.1-7.9,5.8-10.6c11.5-8.7,23.9-15.4,38.4-17.5
		c1.9-0.3,3.8-1,6.3-1.6c0-13.3,0-26.5,0-39.7c0-9.5,0-19,0-28.5c0-1.7-0.6-4.4,0.3-5.1c8.7-7,4.3-16.4,4.5-24.6
		c0.6-30,0.2-60,0.2-89.9c0-2.7,0-5.4,0-7.7c2.5-2.6,5.4-1,7.7-2.4c2.2-3.1-0.3-7.3,2.1-11c11.7,0,23.5,0,35.4,0
		c2.4,3.3,0.5,7,1.9,10.7c3.7,1.9,7.8,0.8,11.9,0.6c1.8-4.7,0.2-9.3,1.3-14.3c7-0.2,5.6-6,6.1-11.2c10.8,0,21.4,0,32.2,0
		c0.4,3.1,0.8,6.1,1.1,9.2c6.2,2.2,12.6,0.1,18.6,1.5c2,2.5,1.1,5.3,1.1,7.9c0.1,23.7,1.7,47.6-0.4,71.2c-2.6,29.9-5.5,60.1-2,89.6
		c3.9,33.8,3,67.5,1.6,101c-0.9,22.1-1.5,44.3-2.4,66.5c0.9,1.5,2.3,1.3,3.7,1.3c4.1-0.7,3.8-3.8,3.8-6.9c0-12.5,0-24.9,0-37
		c3.5-2.9,7.5-0.4,10.7-2.7c2.2-58.3-1.7-117.3,12.6-174.9c0.4-1.4,1.3-2.7,2.9-2.6c26.3,1.5,52.6,3.1,80.5,0.3
		c5.4,8,4.9,19.4,7.8,30.3c5,0,9.7,0,14.5,0c0.5,2.5,0.9,4.4,1.3,6.5c2.8,1.2,5.7,2.4,8.9,3.9c2.5,49.9,5.1,99.7,7.7,150.2
		c8.3,0,16,0,24.6,0c0,34,0,67.4,0,100.8c5.2,1.5,9.5,1.3,14.3,0.3c2.7-62.3-3.2-124.6,5.6-186.6c0.3,4.9,0.6,9.8,1.1,14.6
		c0.3,2.7-0.1,5.5,1.4,8c2.3,3.9,5.2,4.4,8.4,1.2c7.7-7.5,10.5-7.7,17.4-0.1c1.7,1.9,3.3,2,5.2,1.7c3-0.5,4-3.1,4.2-5.5
		c0.8-6.5,1.1-13.1,2-19.7c4.9,21.6,5.6,43.5,4.7,66.2c8,0,15.3,0,23.8,0c1.9-44-2.9-88.5,5.9-132.3c0.9,12.9,1,25.9,6.2,38.7
		c2.4,1.4,5.5,0.6,9.1,0.2c0.5-2.4,0.9-4.5,1.3-6.7c2.1-0.6,3.9-1.2,6-1.8c1-24.6-0.7-49,1.1-74.3c3.3,2.5,1.3,6.2,3.9,7.6
		c2.7-1.5,5.4-3.1,8.9-5c0.2-4,1.6-8.3,4.5-12.2c2.3-3.2,3-7.1,3.1-11.3c0.3-10.3,0.7-20.5,1.1-30.8c-5.7,6-8.8,8.8-15.4-3.7
		c-25.9-49.1-64.1-67.5-109.3-61.2c-9.2,1.3-12.9-2-17.6-10.3c-24.4-44-57-75.9-97.8-87.7c-48.9-14.2-97.5-9.5-140.7,28.8
		c-6.8,6-11.4,6.9-19.6,1.5c-24.3-15.9-49.8-16.8-74.4-0.4c-8.6,5.8-14.9,6.3-23.9-0.5c-40.4-30.2-83.1-33.4-126.4-11.5
		c-8.5,4.3-12.7,1.9-17.6-5.5c-14-21.2-31.8-32.5-53.3-37.6c-35.3-8.3-78.2,18.1-92.9,60.9c-0.8,2.4-1.6,4.3-2.4,5.8v497.2
		C2.9,847.8,5.8,848.9,9.1,847.4z"/>
	<path class="st0" d="M158.1,414.1c6.7,0,13.4,0,20.1,0C171.6,410.8,164.9,412.3,158.1,414.1z"/>
	<path class="st0" d="M155.4,413.5c-4.9-0.4-9.8-0.5-15.9,2.8C146.4,417.9,150.8,415,155.4,413.5z"/>
	<path class="st1" d="M786.9,515.8c-2.9,3.9-4.3,8.2-4.5,12.2c-3.5,2-6.2,3.5-8.9,5c-2.5-1.5-0.6-5.2-3.9-7.6
		c-1.8,25.3-0.1,49.7-1.1,74.3c-2.1,0.6-3.9,1.2-6,1.8c-0.4,2.1-0.8,4.3-1.3,6.7c-3.5,0.4-6.6,1.2-9.1-0.2
		c-5.2-12.8-5.3-25.7-6.2-38.7c-8.8,43.9-4,88.4-5.9,132.3c-8.5,0-15.8,0-23.8,0c1-22.7,0.3-44.6-4.7-66.2c-0.9,6.6-1.2,13.2-2,19.7
		c-0.3,2.4-1.3,5-4.2,5.5c-1.9,0.3-3.5,0.1-5.2-1.7c-6.8-7.7-9.7-7.5-17.4,0.1c-3.2,3.2-6.1,2.7-8.4-1.2c-1.5-2.5-1.2-5.3-1.4-8
		c-0.5-4.9-0.7-9.8-1.1-14.6c-8.8,62.1-2.9,124.3-5.6,186.6c-4.8,1-9.1,1.2-14.3-0.3c0-33.5,0-66.8,0-100.8c-8.6,0-16.2,0-24.6,0
		c-2.6-50.5-5.1-100.4-7.7-150.2c-3.3-1.4-6.2-2.7-8.9-3.9c-0.4-2.1-0.8-4-1.3-6.5c-4.8,0-9.5,0-14.5,0c-2.9-10.9-2.4-22.3-7.8-30.3
		c-27.9,2.8-54.2,1.2-80.5-0.3c-1.6-0.1-2.5,1.1-2.9,2.6c-14.4,57.6-10.4,116.5-12.6,174.9c-3.2,2.3-7.2-0.1-10.7,2.7
		c0,12.1,0,24.5,0,37c0,3.1,0.2,6.1-3.8,6.9c5.6-0.9,10.8,1.3,17.1-1.6c5.9-2.7,13.6-5,21-3.8c6.5,1.1,12.7,3.5,18.1,6.9
		c4.3,2.7,2.1,8.9,2.8,13.4c5.5,37.5,10.9,75.1,15.6,112.7c0.9,7.3,3.6,9.7,10.3,9c1.7-0.2,3.5-0.2,5.2,0c6.3,0.7,9.6-1.6,8.8-8.4
		c-0.6-5.3,2.3-6.7,7.2-6.9c10-0.4,20.2-0.6,28.4,5.4c7.8,5.7,15.8,11,23.1,17.3c4.2,3.6,8.1,4.6,11.4,0.3c3.5-4.5,7.6-3.2,11.5-2.6
		c4,0.6,3.2,4.4,3.6,7.3c0.2,1.5,0.5,3,2.6,3.1c2.9-1.8,1.9-4.8,2-7.4c0.1-7.7,0-15.5,0.1-23.2c0.1-8.3,3-11.4,11.1-11.7
		c3.9-0.1,7.2-1.3,10.4-3.5c7.2-4.9,15.4-3.9,21.7,2.1c2.9,2.8,5.5,5.4,10.1,5.7c11.2,0.5,11.2,0.7,11.2,11.8
		c0,6.7-0.1,13.5,0.1,20.2c0,1.8-0.9,4.1,2.4,5.4c0-7.3,5.4-6.2,9.7-5.9c6.3,0.3,9-1.7,8.9-8.5c-0.3-12.6,0.1-12.7,12.6-12.6
		c1.7,0,3.5,0,5.2,0.1c4,0.1,5.8,2.1,6,6.1c0.3,6.5-2.6,14.5,7.8,16.2c0.3,0.1,0.6,0.8,0.8,1.2c0.7,2.4,1.4,5.1,4.8,4.5
		c3.8-0.7,3.2-4,3.2-6.6c-0.1-5.8,1.4-9.6,8.2-9.9c3.5-0.1,5.6-3.1,6.6-6.4c0.5-1.7,0.8-4,2.7-4.2c6.4-0.7,10.1-7,17-7
		c0-7.4,0.4-14.1-0.1-20.8c-1.4-22.7,2.4-44.8,7.7-66.7c1-4.1,3.5-8.1,2.7-12.4c-2.6-14.1,5.3-24.7,12.1-37.6
		c1.5,9.1,9.9,14.3,9.9,21.8c-0.1,14.1,3.3,27.2,6.6,40.5c1.8,7.2,3,14.5,4.3,21.7c0.5,2.7,0.3,5.9,4.4,4.8c3.1-2.5-0.2-6,1.8-8.7
		c2.3-1.2,4.6-1.3,6.3,0.4c1.7,2.6-0.1,5.9,3.4,8.4c1.5-4.4-0.2-12.1,7.9-8.8c1.9,2.8-1.7,6.9,2.7,8.8c3.8-1.8,0.9-6.3,3.9-8.9
		c1.9-1,4.4-0.7,6.9-0.7c0.1-2.7,0.4-5.5,0.4-8.2c0-43.1,0.1-86.3-0.1-129.4c0-5.1,1.8-10.3-0.2-15.4c-2.8-7.1-2.7-14.6-2.8-22.1
		c0-1.3,0.7-3.2-2.5-2.9c0,2.9,0.1,5.8,0,8.7c-0.2,3.2-0.5,6.5-0.8,9.7c-0.3,2.8-1.1,5.6-4.1,6.5c-3,1-4.6-0.6-6.5-3.2
		c-3.7-4.9-10-5.1-14.4-1c-2.2,2.1-3.6,5.9-7.5,4.1c-4-1.8-3.7-6-4.4-9.6c-0.9-5.1,0.6-10.5-1.7-16.8c-3.9,23.3-5.4,45.5-4.3,68.2
		c-3.4,0-5.4,0-7.3,0c-0.9,0-1.9-0.3-3-0.4c-0.3-1.2-0.6-2.1-0.7-3c-0.4-42,1.2-84-3.1-125.9c-0.2-2.4-0.7-4-4-2.8
		c0.6,12.7-0.2,25.5-4.6,37.9c-3,1.1-6.1,1.2-9.7-0.3c0.6-4.9-2-7.5-7-8c-1.1-24.1,1-47.7-1.5-73.3c-1.7,3.6-2.5,5.3-3.2,7
		c-3.4-2-6.6-3.8-9.6-5.5c0-9.3-8.2-15.8-7.4-25.5c0.8-9.1-0.5-18.5-1-27.7c-0.1-1.7-0.2-3.5-0.3-5.2c-0.4-7-0.9-14.1-1.4-22.2
		c-2.6,4.4-2.1,7.8-2.2,10.9c-0.2,5.2-0.5,10.4-0.7,15.7c-0.4,10.3-0.8,20.5-1.1,30.8C790,508.6,789.2,512.6,786.9,515.8z"/>
	<path class="st1" d="M1389.1,407.4c-4.4,4-4.1,10.2,0,15.1c2.7,3.2,3.2,7.2,4.5,10.8c3.3,9.7-5,19.9,1.1,29.7
		c0.2,0.3-0.2,0.9-0.4,1.4c-9.9,26.4-17.4,53.6-26.2,80.3c-2.1,6.3-3.5,12.5-12.9,12.7c4.3,3.8,5.6,7.9,7.7,11.5
		c1.9,3.3,2.6,7.8-0.3,10.2c-2.4,2.1-2.3,3.9-2.6,6.3c-1,7.8-3.5,15.2-3.9,23.3c-0.5,10-3.5,19.8-3,30.1c-2.3,3.1-7.1,3.2-9.7,7.5
		c4.6,0.8,5,5.2,8.8,8.3c-7,0.3-8.3,2.9-5,7.7c1,1.3,1.4,3.1,0.3,4.1c-3.4,3.1-1.4,6.3-0.2,9.3c-6.6,9.4-15.4,17.4-15.4,31.5
		c-4.8-5.8-1.7-10.1-1.8-14c-2.9-3.3-7.2-0.3-10-2.9c-2-13.6,0.9-27.2,2.1-43c8.2-10.3,8.3-18.1-1.3-31.4
		c-5.2-7.3-11.2-14.2-15.5-22c-5.8-10.4-11-21.3-5.7-33.8c0.4-0.9,0-2.8-0.7-3.4c-3.3-2.7-2.3-6.4-2.4-9.7c-0.1-4.9,0-9.8,0-15.1
		c-0.8,0.9-1.7,1.5-1.7,2c0.9,8.2,3.3,16.6-2.8,24c-0.4,0.5-0.3,1.5-0.1,2.2c3.6,14.2-1.5,26.4-9,37.9c-4.4,6.7-9.5,12.8-14.1,19.4
		c-8.9,12.6-8.4,20.5,1.4,32.1c-6.6,6.8,2.4,13,0.7,20.1c-1.6,6.6,0.7,14.2-0.3,20.9c-3.3,2.4-7.1-0.1-9.7,2.7
		c-1.7,2.3,1.7,4.8-0.6,7.5c-12,2.5-6,16.2-12.4,21.9c2.3,13.2,5.5,25.7,5.7,39.1c0.2,17.5-3.3,34.7-3,52.1c2.8,2.5-0.2,7.5,3.7,9.6
		c4-2.2-0.1-9.2,6.1-9.2c5.7,0,1.8,6.5,5.6,8.7c1.8-4,0.6-12,8.7-7.9c1.7,2.6-1.3,6.5,3.3,8.1c1.9-3.6-0.1-11.5,8-8.4
		c2,2.8-1.2,6.9,2.9,8.8c4-2.1,0.1-6.3,2.4-8.7c8.3-3.7,6.1,4.9,9.7,9.7c0.5-9.7,1-17.3-0.5-24.8c-0.7-3.5-0.7-9.6,1.2-9.7
		c7.5-0.2,4.8-5.9,6.1-9.2c1.4-3.5,2-7.4,3.2-12.3c2.9,6,3.3,11,4.5,15.8c0.6,2.6,0.6,5.9,3.7,6.9c5.1,1.6,4.2,5.1,3.8,9
		c-0.9,7.5-1,15,0.1,23.6c3.4-3.3,0.8-6.4,2.4-8.8c8.4-4.2,6,5.5,9.1,8c2.6-2.9-0.4-8.6,5.6-8.9c6.4-0.2,3.1,6.3,6.4,9
		c2.2-3.7,0.4-12.4,8.8-7.9c1.9,2.6-1.5,6.2,1.9,8.3c2-0.4,2.2-1.9,2.4-3.4c0.3-2.7,0-5.9,4.1-5.8c3.6,0.1,3.3,3.1,3.6,5.5
		c0.2,1.7,0.1,3.7,2.9,3.5c2.8-2.3-0.1-5.8,1.6-8.3c8.7-4.4,5.9,5.5,9.4,8c2.3-9.5,2.3-9.5,8.8-7.6c1.3,2.5-1.7,6.1,2,8.1
		c4.5-1.5,0-8.7,5.7-9.1c6.7-0.5,2,7.6,6.4,9.1c4.1-1.9,0.2-6.2,2.6-8.7c8.2-3.4,6.2,4.7,8.7,8.8c2.4-4.1,0.7-12.7,9.6-8.2
		c-0.8,5-0.4,9.3,6.3,9c5.3-0.2,10.1,1.3,11.6-7.4s2.5-17.6,5.1-26.2c3.9-12.5,5.5-25.3,4.8-38.4l-0.2-0.3l0.3,0.2
		c1.5-0.4,2.6-1,3.4-1.8c0.4-0.4,0.8-0.8,1.1-1.3l0,0c0.7-1.1,1.2-2.3,1.6-3.6c0.2-0.5,0.3-1,0.5-1.5c0.1-0.5,0.3-1,0.5-1.5
		c0.1-0.2,0.2-0.5,0.2-0.7c0.1-0.2,0.1-0.4,0.2-0.6c0.1-0.4,0.3-0.8,0.5-1.1c0.6-1.3,1.5-2.4,2.7-3.3c5,4.6,3.1,13.8,11.5,15.6
		c-2.4,10.8,0,20.7,2.3,30.7c4.5,19.6,8.3,39.3,7.2,59.6c-0.5,10-0.1,20-0.1,29.9c0,9,0,18,0,27c0,3.7,0.1,7.2,5.3,7.1
		c5.3-0.1,4.8-3.9,5.1-7.4c0.3-3.2-1.2-6.4,0.1-9.5c2.6-1.7,5.4-1.1,8.1-1.1c42.4,0,84.9,0,127.3,0c9.6,0,9.9,0,9.8,10.1
		c-0.1,6.4,2.4,8.5,8.4,8.1c5-0.3,10-0.2,15,0c4.7,0.2,6.8-1.8,6.8-6.6c0-2.8-1.1-7.2,2.6-7.7c7.5-1.1,6.5-6.2,6.5-11.1
		c0-4.7,0.4-9.5-0.1-14.2c-0.7-7.4,1.8-10.4,9.6-10c1.4,0.1,2.8,0.1,4.2,0.2c1.4,0,2.8,0.1,4.2,0.1c8.4,0.1,16.8-0.1,25.2-0.1l0,0
		c0-27.8,0-55.6,0-84.2c-9.9,0-17.7,0-25.7,0c-0.4-1.6-0.7-2.6-0.9-3.5c-7-35-14-70-21.1-105c-1.3-6.3-3.7-12.8-1.4-19
		c2.7-7.3,0.3-12.7-4.2-17.9c-4.3,4.7-7.1,9.4-4.7,16.7c3.4,10.4-1.6,20.4-3.5,30.5c-6.4,33.1-13.1,66.1-19.7,99.5
		c-8.9,0.2-9.8,6.1-9.8,12.9c0.1,13,0,25.9,0,38.8c-14.2,4.7-4,17-8.8,24.8c-1.9,0.1-3.8,2.6-7.5,0.9c0-27.4,0-55.2,0-83.9
		c-13.6,0-26.2,0-38.9,0c-3.2-10.5,0.1-19.2,2.4-24.5c-0.7-11.5-8.1-16.8-10.9-24.2c-7.5-19.9-1.7-37.8,10.6-54.2
		c2.3-3.1,4-6.3,4.7-10c1.3-7.4-0.5-13.9-5.2-19.6c-6.2-7.5-12.9-14.6-19-22.2c-11.2-13.9-17.7-29.3-13.4-47.7
		c0.5-2-0.3-3.4-1.7-4.6c-1.2-1-2.7-1.3-4.1-0.3c-1.7,1.3-2.5,2.8-2.1,5.2c2.6,15.6-1.6,29.8-10.6,42.3
		c-7.1,9.9-15.5,18.8-23.8,28.6c-4.6-10.9-12.6-18.3-19.7-26.2c-13.8-15.5-23.2-32.4-18.5-54.2c0.2-0.9,0-2.3-0.5-2.8
		c-4-3.6-2.6-8.3-2.8-12.7c-0.1-4.1,0-8.3,0-12.9c-3.4,22.2-1.4,44.9-12.2,65.3c-2.4-6-4-12-5.7-17.8c-1.8-6.6,3.5-11.9,7.5-17.9
		c-8.8,0.1-10.1-6.2-12.1-12.5c-8.7-27.6-17.7-55.1-26.8-83.3c1.5-2.8,4.7-5.7,2.4-10.7c-4.2-9-1.6-18.4,2-26.5
		c4.7-10.6,5.4-12.6-2.2-20.9c-3-3.3-6.4-6.5-7.6-10.7c-0.2-0.8-0.4-1.6-0.5-2.5c-0.2-3.4-0.6-6.7-1-9.9c0,0.3,0,0.7,0,1
		c0,15.1-1,27.4-2.3,27.4c-1.1,0-2-8.9-2.3-20.9c-0.3,1.3-0.7,2.6-1.1,3.8C1397.6,397.1,1394.4,402.5,1389.1,407.4z M1521.1,873.6
		c3.7-0.4,7.4-1.2,11.1-1.6c2.5-0.3,4.4-1.2,4.6-3.9c0.4-5.2,3.9-7.2,8.3-8.2c4-0.9,6.9-2.6,6.9-7.4c0-3.6,2.6-4.5,5.6-4.5
		c4.2,0,8.5-0.1,12.7,0c5.6,0,12.1-1.5,12.3,7.6c0,2.1,2.4,3.3,4.4,3.7c6.4,1.3,10.4,4.6,10.5,12c5.5,0.8,10.2,1.8,14.9,2.2
		c4.2,0.3,5.6,2.3,5.5,6.3c0,4.3-2.2,5.7-6.1,5.7c-29.9,0-59.9,0-89.8,0c-3.4,0-5.9-0.9-6-4.9C1516,876.8,1516.9,874,1521.1,873.6z
		 M1499.1,656.2c1.9,5,4.7,9.2,9.2,12.3c3.6,2.5,3.5,12.1,0.7,15.8c-4.4,5.7-10,10.4-13.6,17C1489,691.2,1491.2,662.4,1499.1,656.2z
		"/>
	<path class="st1" d="M19.4,898.8c0.3,0,0.9-1.1,1.1-1.8c1-3.8,3.9-4,7.1-4c7,0,14-0.1,21-0.1c2.2,0,5.2-0.4,5.9,2.2
		c1.5,5.7,5.7,5.4,10,5.3C81,900.3,81.4,902,80.7,885c-0.2-5.1,1.9-7.3,7-7.1c7.2,0.2,14.5,0.1,21.7,0.1c4.1,0,6,1.9,5.9,5.9
		c0,3.5-0.1,7,0.1,10.5c0.1,2.4,0.2,5.2,4.7,5.2c0.3-10.4,8.1-7.9,14.6-8.1c4-0.1,8,0,12,0c7.7-0.1,9.3-2,8.6-9.4
		c-0.5-4.5-0.8-8.9-0.9-13.4c-0.1-43.7-0.1-87.4,0-131.1c0-17.4-2.5-17.9,17.5-16.3c9.3-10.4,10.7-10.5,24.8-8.6
		c5.3,0.7,10.6,1.7,15.8,2.8c8.7,1.9,17.2,4.2,25.8,6.6l0,0c0.1-1.7,0.3-3.5,0.3-5.2c0-87.8,0-175.7,0-263.5c0-2-0.2-4-0.3-6.2
		c-1.8-0.7-3.6-1.4-5.5-2.1c1.1-5.9-4.3-9.9-3.2-16.1c-7.8,0.5-9-7.9-15.3-9.9c-36.4-11.5-72.2-17.7-104.9,9.9
		c0,91.8,0,183.6-0.1,275.5c0,3.4,0.7,7-1.6,10.1c-2.2,0.1-4.4,1-7.3-1.6c0-32.1,0-65.1,0-100c-5.3,4.1-8.1-1-12.1-0.5
		c-12.6,1.4-25.3,2.9-36.9,8.6c-10.3,5-15,13.9-16.8,24.7c1.6,2.8,1.2,5.8,1.2,8.8c0,49.6,0,99.3,0,148.9c0,3,0.4,6-1.4,8.7
		c-7.7,3.7-16.2-0.1-25.2,2.6c0,11,0,22.3,0,32.9c-3.3,1.5-6.2,0.5-9.1,2.3v56.9C7.3,906.4,11.7,897.9,19.4,898.8z M181.8,413.4
		c0.2,0.4,0.4,0.8,0.5,1.2c0,0.1-0.4,0.4-0.6,0.3c-0.2,0-0.6-0.4-0.5-0.4C181.4,414.1,181.6,413.8,181.8,413.4z M178.2,414.1
		c-6.7,0-13.4,0-20.1,0C164.9,412.3,171.6,410.8,178.2,414.1z M155.4,413.5c-4.6,1.5-9,4.4-15.9,2.8
		C145.6,413,150.5,413.1,155.4,413.5z"/>
	<path class="st1" d="M265.1,885.1c-0.1,7.2,2.2,9.8,9.4,9.4c5.9-0.3,11.8-1.5,16.9,4.6c2.7,3.3,9.6,1.6,14.4,0.6
		c3.9-0.9,2.7-4.8,3-7.6c0.4-3.3,2.2-4.9,5.4-5c3.5-0.1,7,0,10.5-0.1c4.3-0.2,6.5,1.5,6.4,6.1c-0.1,2.7-0.5,6.1,3.1,6.8
		c4.6,0.9,10.5,2.3,13.9-0.4c6.2-4.9,12.8-3.9,19.2-3.4c7.8,0.5,12.5-1.8,13.3-10c0.8-7.7,5-10.3,12.7-9.8c9.7,0.6,9.8,0,9.8-10.1
		c0-32,0-63.9,0-95.9c0-16.2,8.4-24.5,24.7-24.4c7,0,14,0,21,0.1c2.2,0,5.5-0.3,6.4,0.9c4.8,6.3,11.4,5.1,17.8,5.2
		c0.9-22.2,1.4-44.4,2.4-66.5c1.4-33.5,2.3-67.2-1.6-101c-3.4-29.5-0.6-59.7,2-89.6c2.1-23.6,0.5-47.4,0.4-71.2
		c0-2.6,0.9-5.5-1.1-7.9c-6.1-1.4-12.4,0.7-18.6-1.5c-0.4-3.1-0.8-6-1.1-9.2c-10.8,0-21.4,0-32.2,0c-0.5,5.2,0.9,11-6.1,11.2
		c-1.1,5.1,0.5,9.6-1.3,14.3c-4.1,0.2-8.2,1.2-11.9-0.6c-1.4-3.7,0.5-7.4-1.9-10.7c-11.9,0-23.7,0-35.4,0c-2.3,3.7,0.1,7.9-2.1,11
		c-2.3,1.4-5.2-0.3-7.7,2.4c0,2.2,0,4.9,0,7.7c0,30,0.3,60-0.2,89.9c-0.2,8.2,4.2,17.6-4.5,24.6c-0.9,0.7-0.3,3.3-0.3,5.1
		c0,9.5,0,19,0,28.5c0,13.2,0,26.4,0,39.7c-2.5,0.7-4.4,1.4-6.3,1.6c-14.5,2.1-26.9,8.9-38.4,17.5c-3.7,2.8-5.4,6-5.8,10.6
		c-1.5,16.9-3.8,33.8-5.3,50.7c-3.8,43.1-6.8,86.2-4.4,129.5c0.1,2.6,1.2,5.4-0.8,8c-3.9,0.3-7.8,0.9-12.2-0.7c0-11.1,0-22,0-32.3
		c-2.1-2.1-4.7-1-6.5-4.1c0-7.8,0-16.8,0-25.1c-2.4-2.3-4.9-1.4-6.9-2.4c0,17.2,0,34.5,0,51.7C265.3,850.7,265.3,867.9,265.1,885.1z
		"/>
	<path class="st1" d="M1929.6,626.9c-0.9,2.4-0.4,5-0.5,7.3c-0.2,5-0.1,10,0,15c0,1.9,0.1,3.4,0.3,4.5c0.3-1.3,0.4-3,0.5-5.3
		C1930.1,641.3,1930.2,634.1,1929.6,626.9z"/>
	<path class="st1" d="M1931.5,624.2c2.4,1.5,4.7,2.8,7,4.3c1.4-7.5-0.3-9.4-10.2-11.4c0.6,3.3,1,6.6,1.3,9.9
		C1930,626,1930.6,625.1,1931.5,624.2z"/>
	<path class="st1" d="M1742.2,785.8c-4.1,1.9-8.4-0.4-12.4,2.2c0,22.8,0,45.7,0,68.7c4,0.1,8,0.4,12,0.2c4.7-0.1,6.9,1.8,6.7,6.6
		c-0.2,6.5-0.1,13,0,19.5c0.1,2.8-1.1,6.8,2.7,7.7c4.5,1.1,11.6,2.7,13.4-0.9c3.9-8,10.1-5.9,15.8-6c18-0.2,36,0,54-0.2
		c4.3,0,9.2,0.3,10-6.3c1.3-11.4,1.4-11.4,13.1-11.4c2.7,0,5.5,0.2,8.2,0c5.1-0.3,7.3,1.8,7.2,7c-0.2,8,0,16,0,24
		c0,3.9,2.4,5.1,5.9,5.1s5.9-1.1,5.9-5c0-3,0.1-6,0.1-9c0.1-15.9-1.3-14.8,14.6-14.3c7.8,0.2,9.7-2.7,9.6-10
		c-0.4-27.2-0.1-54.5-0.1-81.7c0-2.4-0.9-5.3,1.5-7.3c2.7,1.9-0.1,5.9,3.8,7.3c5.7-18.6-1.9-38.2,4.1-57.2c4.6,3.9,0.3,9.7,5.7,13.4
		c2.4-8.3,0.8-17.1,5-24.5c7.3-3.1,8.9,2.8,10.7,7.5c1.9,4.9-0.9,10.7,1.9,15.9c3.7-2.9,1.5-8,5.1-10.8c6.5,18.3-1,37.5,5.1,56.2
		c2.9-2.9,1.1-6.2,3-8.9c0.4,2.4,1,4.2,1,6.1c0.2,6.7,2.7,9.8,10.2,10.4c22.7,1.8,45.4,0.3,68.1,0.8c4.9,0.1,7.2-3.2,6.4-7.3
		c-0.6-2.8-0.3-5.1,0.6-7.1c1.4-3.3,4.4-5.6,7.2-8.2l0,0c0-27.2,0-54.3,0-81.8c-13.9-4.5-27.8-0.3-41.7-2.2c-0.4-2.4-0.7-5-1.1-7.6
		c-2.4-0.6-5.2-1.5-6,0.1c-3,5.7-8,3.7-12.4,3.9c-6.7,0.2-13.5,0.1-20.2,0.1c-8.9,0-17.8,0-26.8,0c-2-9.3,0.6-17.9-2-26.2
		c-5.9,2.2-7.9,2.4-8.6-1c-0.9,3.6-3.2,3.4-9.2,0.7c-2.3,8.5,0.4,17.4-1.9,26.4c-18.3,0-36.2,0-54.2,0c-1.5,0-3-0.3-3.8-1.9
		c-2-4.4-5-2.8-7.6-1.8c-1.4,2.9,0.5,6-2.2,7.2c-13.5,2.6-27.3-2.7-40.5,2.6c-1.4,11.7,1.2,23-1.7,34.9c-3.9-2.5-4.7-5.5-5.8-8.1
		c-11.7-26.3-21.5-53.2-30.1-80.7c-14.4-46.1-25-93-34.5-140.2c-5.2-26.1-10.1-52.3-15-78.5c-3.7-19.6-5.3-39.6-10.4-58.9
		c-0.6-2.4-1.4-4.8-2.1-7.1c-3,19.2,3.8,38.5-4.7,57c2.9,0.3,3.2-1.3,4.1-1.9c0.4-0.8,0.8-1.6,1.2-2.4c1.9,1.5,1.1,2.5,0,3.5
		c-0.5,15,1.8,29.9,3,44.8c1.1,13.5,2.3,26.9,3.4,40.4c7.6,89.1,15.2,178.2,22.7,267.3C1741.2,766.5,1743,776.1,1742.2,785.8z
		 M1807.6,722.3c0.2,0.2,0.5,0.3,0.7,0.5l0,0l0,0c-0.2,0.2-0.3,0.3-0.5,0.5l0,0c-0.2-0.2-0.3-0.3-0.5-0.5
		C1807.4,722.6,1807.5,722.5,1807.6,722.3z"/>
	<path class="st1" d="M1043.4,403.3c-0.6,8.8,1.4,17.6-0.5,26.4c-0.6,2.8-3.1,35.6-4,38.2c-2.3,6.1-3,12.1,1.3,17.6
		c3.3,4.2,3.6,8.8,3.6,13.8c-0.1,22.3-3.4,44.4-2.2,66.7c0.7,14.2,0.1,28.4,0.1,42.6c-3.3,2-6.4,0.4-8.2,3.5
		c0.2,5.4,6.4,12.4-1.5,17.2c1.2,4.1,5.2,3.5,7.2,5.7c-1.8,7.3,0,14.6-0.2,21.9c-0.4,17.5-1.2,35-1.4,52.5c0,3.6-2.6,6.4-2.2,9.7
		c2,18.9,2,37.7-2.3,56.3c-0.8,3.4-3.7,6.6-3.9,9.9c-0.3,10.2-3.7,19.2-8.2,28.1c0.6,3.2-1.2,7,1.9,9.8c4.6-2,0.7-6.2,2.7-8.7
		c8.5-4.3,5.9,5.5,9.6,8.4c1.4-4.9,0.4-11.9,8.2-8.4c1.7,2.9-1.4,6.6,2.3,8.5c4.5-1.5,0-8.7,5.7-9.1c6.7-0.5,2.1,7.6,6.5,9.1
		c4.2-1.7-0.2-8.8,5.7-9.1c6.5-0.3,1.7,7.8,6.6,9.2c3.2-2.2-0.1-5.8,1.8-8.4c0.6-0.5,1.2-0.8,1.9-1c2-0.6,4.4-0.2,6.5-1l0,0
		c-2.3-9.8-5-19.6-7.5-29.2c-2.4-9-5.5-17.8-5.8-27.2c-0.5-15.7-0.9-31.4-1.4-47.1c-0.5-17.5-1.1-35-1.5-52.5
		c-0.2-7.4,1.3-14.9-0.3-22.4c2.8-1.1,6.2-1.3,6.9-5.5c-7.8-5-0.8-11.9-1.8-17.3c-1.8-2.7-5.1-0.9-6.3-4.5
		c-0.5-17.7-2.1-36.1-1-54.6c0.4-5.9,0.6-11.9-0.4-17.7c-2.6-14.1-0.9-28.4-2.1-42.5c-0.1-0.9,0.2-2.1,0.8-2.7
		c7.3-8.1,5.7-16.1,2.9-26c-2.3-8.3-2.7-17.9-3.4-26.8c-1.1-13.1,0.3-26.5-0.5-39.7c-0.3-4.6-0.4-9,4.3-9.8c0.6-1.8,1.1-3.5,1.4-5.3
		c2-9.9,0.4-19.5,0.7-28.9c0.1-4.5-1.2-8.3-4.7-10.2c-3.4-1.9-3.7-4.3-3.4-7.3c0.2-2.7,1.7-5.9,0.7-8.1c-5.6-12.8-1-26.4-3.5-39.6
		c-2.6-13.5-1-27.8-1.1-41.8c0-2.1,0.5-4.3-2.8-3.5c-2.4,19.5-1.3,39.2-2.9,58.7c-1,12.2-2.3,24.5-2,36.8c0,1.7-0.2,3.2-2.2,4.2
		c-4.9,2.4-5.8,6.8-5.6,11.9c0.2,4.2,0.1,8.4-0.9,12.6c-1.6,7-0.6,16.3,3,19.9c2.1,2.1,3.2,4.2,3.8,6.3
		C1044.4,396.4,1043.6,399.8,1043.4,403.3z"/>
	<path class="st1" d="M2388.3,875.2c0-23.7,0-47.5,0-72.2c-11.3,0-22,0-32.6,0c-0.1,32,0,63.9-0.3,95.9c0,5.9,2.2,7.9,7.9,7.8
		c7.5-0.1,15-0.2,22.5-0.2c4.5,0,9,0,13.4,0v-30.2C2395.7,876.4,2392.1,876.7,2388.3,875.2z"/>
	<path class="st1" d="M2266.9,724.2c0,12.5,0,24.3,0,35.9c-5.6,1.5-10.7-0.4-16.1,1.7c0,9.7,0,19.4,0,29.1
		c15.4-0.1,30.8,0.6,46.3-0.6c8.9-0.7,11.9-3.9,11.1-12.2c-0.1-1.3,0.9-2.7,1.6-4.5c1.5,3.1-0.1,6.2,2.7,8.7
		c6.7-18-1.4-36.9,4.9-55.2c3.3,2.8,0.8,7.5,5.3,8.8c0.9-1.4,1.4-2.9,1.6-4.4c0.1-0.6,0.1-1.2,0.1-1.8c0.1-2.7-0.5-5.4-0.5-8.1l0,0
		C2305.3,722.6,2286.5,723.4,2266.9,724.2z"/>
	<path class="st1" d="M942.4,823.2c4.3-1.7-0.3-8.9,5.6-9.2c6.7-0.3,1.5,7.8,6.2,9.2c4.2-1.9,0-6.1,2.7-9c1.7-0.5,3.8-1,5.5,0.2
		c2.4,2.7-1.9,6.9,2.6,8.8c3.8-1.8,1-6.3,3.9-8.9c1.7-0.5,3.7-1.3,5.7,0.6c1.2,2.7-1.7,6.6,2.4,8.4c4.1-2-0.4-9.1,5.7-9.3
		c5.9-0.2,1.9,6.4,6.3,8.9c0.8-8.1,0.9-15.6-0.2-23.1c-0.4-3-1.6-6.6,1.9-8c4.7-1.9,4.8-5.9,6-9.6c1.1-3.6,1-7.6,3.4-11.1
		c2.7,3.3,2.4,6.6,3.1,9.7c0.8,3.4,0.8,7.6,4,9.3c4.7,2.5,4.1,5.7,3.7,10c-0.8,7.4-1.3,14.9,0.5,23.1c1.1-1,1.6-2.2,1.9-3.4
		c0.1-0.5,0.2-1,0.2-1.4c0.3-2.1,0.4-4.1,2.9-4.9c0-17.4,0-34.8,0-54.1c-1.8,4.2-2.8,6.3-3.9,8.9c-2.4-2.8-1.9-6-2.8-10.3
		c-0.6,4.4-0.9,7.4-3.1,10.2c-2.1-1.8-4.1-3.5-6.1-5.3c-4,2-6.2,7.7-12,4.9c-1.7-1.1,0-4.2-2.3-5.3c-1.9,1.4-0.3,4.8-3.6,5.4
		c-0.5-2.1-1-4.2-1.9-7.7c-1.1,3.6-1.8,5.8-2.4,7.7c-6.5,2.7-8.9-4.1-13.3-4.9c-4.4,1.5-6.6,7.1-12.4,5c-0.4-1.7-0.9-3.4-1.4-5.1
		c-2.8,0.9-1,4.5-4.3,5.4c-0.6-2.9-1.2-5.6-1.9-9c-4.3,18-0.8,35.9-2.3,53.4c-1.9,1.4-4.8-0.4-6.1,2.2
		C941.7,815.5,938.2,822,942.4,823.2z"/>
	<path class="st1" d="M2237.3,766.5c-9.7,0-19.3,0-29.5,0c0-13.6,0.2-26.2-0.1-38.9c-0.1-4.1,4.4-7.7,1.5-11.7
		c-3.1-4.3-8.6-0.5-12.5-2.8c0,23.6,0,47.3-0.1,70.9c0,5,1.7,7.2,6.9,7.2c5.1,0,9-1.9,8.1-7.1c-1.2-6.7,2.1-10.5,6.6-14.7
		c2.2,4.2,6.2,7.3,5.5,12.7c-1.1,7.4,2.7,9.9,9.6,9c1.7-0.2,3.5-0.1,5.2-0.2l0,0C2237.4,783.2,2239.1,775.2,2237.3,766.5z"/>
	<path class="st1" d="M1133.6,598.1c-0.1,13.6,12.8,26.4,26.5,26.2c13.8-0.2,25.9-12.2,25.9-25.7c-0.1-15.6-10.9-26.6-26.2-26.6
		C1145.1,572,1133.7,583.4,1133.6,598.1z M1161.9,577.5c5.5-0.1,9.7,1.6,12.4,5.2c1.2,1.6,2.1,3.5,2.7,5.8c2.6,0.9,3.3,2.9,2.4,5.3
		c-0.7,1.9-2.6,2.2-4.4,2.2c-2.2,0.1-4.5-0.1-6.7,0.1c-5.8,0.5-8.4-2-7.8-7.8C1160.9,584.7,1159.5,580.8,1161.9,577.5z
		 M1155.3,577.1c0.7-1.1,3.4,0.7,3.5,2.7c0.1,6,2.2,12.5-2.9,17.9c1.6,1.8,2.8,3.1,4,4.4c2.7-0.6,4.4-3.5,7.4-3
		c4,0.6,9.2-2.2,11.9,2c2.8,4.3-2.2,7.8-3.9,11.1c-4.1,7.8-16.4,9.3-23.4,3.6c-2.3-1.9-5.4-0.8-7.6-3.5c-5.3-6.5-6.4-19.4-1.9-26.5
		C1145.3,580.8,1152.2,582.2,1155.3,577.1z"/>
	<path class="st1" d="M1080.5,822.7c1.2-0.6,2-1.2,2.5-1.9c0.2-0.3,0.4-0.7,0.5-1.1c0-0.2,0.1-0.4,0.1-0.6c0-0.2,0-0.4,0-0.6
		c0-0.4-0.1-0.8-0.1-1.1c-0.2-1.2-0.7-2.3-0.8-3.4c-0.8-0.4-1.6-0.8-2.4-1.2C1079.5,816,1078.8,819.3,1080.5,822.7z"/>
	<path class="st1" d="M2089.6,693.3c-0.3,0.1-0.7,0.2-1,0.2c-0.7,0-1.4-0.4-2.1-1.4c-0.4,1.4-0.9,2.9-1.3,4.3c2.5,0,5,0,7.5,0
		c-0.2-1.5-0.5-3-0.7-4.4C2091.1,692.4,2090.3,693,2089.6,693.3z"/>
	<path class="st1" d="M2093.1,700.1L2093.1,700.1c0.6,0.7,1.1,1.5,1.7,2.2l0,0C2094.9,701.1,2094,700.6,2093.1,700.1z"/>
	<path class="st1" d="M2136,470.3c-1.9-1.1-3.5-2.5-3.9-4.7c-0.5-0.8-1-0.8-1,0c-0.2,3.3-4.3,6.2-1.5,9.5
		C2133.5,475.5,2135.3,473.6,2136,470.3z"/>
	<path class="st2" d="M1711.3,400.9c-0.4,0.9-0.8,1.7-1.2,2.4c0.4,0.3,0.8,0.7,1.2,1C1712.4,403.4,1713.2,402.4,1711.3,400.9z"/>
	<path class="st2" d="M1807.8,723.3L1807.8,723.3c0.2-0.2,0.3-0.3,0.5-0.5l0,0c-0.2-0.2-0.5-0.3-0.7-0.5c-0.1,0.2-0.2,0.3-0.2,0.5
		C1807.5,723,1807.7,723.1,1807.8,723.3z"/>
	<path class="st1" d="M1403,353.7c0.6,0,1.2,2.8,1.6,7.4c1.8-0.7,3.1-2.3,3.1-4.4c0-2.6-2.1-4.7-4.7-4.7c-0.1,0-0.1,0-0.2,0l0,0
		c-2.5,0.1-4.5,2.1-4.5,4.6c0,2,1.3,3.7,3.1,4.4C1401.8,356.5,1402.3,353.7,1403,353.7z"/>
	<path class="st1" d="M1403,408.4c1.3,0,2.3-12.3,2.3-27.4c0-0.3,0-0.7,0-1c0-7.5-0.3-14.2-0.7-19c-0.4-4.6-1-7.4-1.6-7.4
		s-1.2,2.8-1.6,7.4c-0.5,5-0.7,12.1-0.7,20c0,2.2,0,4.4,0.1,6.5C1400.9,399.5,1401.9,408.4,1403,408.4z"/>
</g>
<g>
	<path class="st3" d="M1153.6,371.9L1153.6,371.9l-0.1,0.1L1153.6,371.9z"/>
	<path class="st3" d="M1132.8,480.5c-5.3,9-11,16.6-8.6,28.2c1.7,8.1,1.8,17.2-1.2,25.8c-2,5.7,0.6,11.9,1.8,17.6
		c1.3,6.2,0.8,12.2,1.1,18.3c-2.5,0.4-1.6-2.5-3.6-2.5c-2,12.9-3.5,26-2.4,39.1c1.1,12.8-8.6,24.1-3.3,36.9c-3.8,1.2-6.1,1.9-9.4,3
		c-6.3-10.2-6.7-22.1-9-33.6c-2.4,8.4-2.7,17.3-5.8,25.5c-3.1,8.1-4.2,16.2-0.3,24.4c1.4,3,0.4,6.8,0.1,9.4
		c-1.8,19.2,1.1,38.3,0.1,57.6c-0.8,15.3-0.2,31.1,0.2,46.6c0.4,15.5,0.1,30.9,0.1,47.7c-4.3-4-1-7.5-2.1-10.9
		c-2.7,0.1-5.3,0.2-8,0.4c0.1,1.1,0.6,2.3,0.8,3.4c0.1,0.4,0.1,0.8,0.1,1.1c0,0.2,0,0.4,0,0.6c0,0.2,0,0.4-0.1,0.6
		c-0.1,0.4-0.2,0.7-0.5,1.1c-0.5,0.7-1.2,1.3-2.5,1.9c-1.7-3.5-1-6.7-0.2-9.9l-0.1-0.1l0,0l0,0c-2.1,0.8-4.4,0.5-6.5,1
		c-0.7,0.2-1.3,0.5-1.9,1c-1.8,2.6,1.4,6.2-1.8,8.4c-4.8-1.4-0.1-9.5-6.6-9.2c-5.9,0.3-1.5,7.4-5.7,9.1c-4.4-1.5,0.3-9.6-6.5-9.1
		c-5.7,0.4-1.1,7.6-5.7,9.1c-3.7-2-0.6-5.6-2.3-8.5c-7.8-3.5-6.8,3.5-8.2,8.4c-3.6-2.9-1.1-12.6-9.6-8.4c-2.1,2.5,1.9,6.7-2.7,8.7
		c-3.1-2.8-1.3-6.5-1.9-9.8c-1.5,0-3,0.1-4.6,0.1c-2.6,0.8-2.7,2.8-2.9,4.9c-0.1,0.5-0.1,1-0.2,1.4c-0.3,1.2-0.7,2.4-1.9,3.4
		c-1.8-8.2-1.3-15.7-0.5-23.1c0.5-4.3,1-7.5-3.7-10c-3.2-1.7-3.2-6-4-9.3c-0.7-3.1-0.4-6.5-3.1-9.7c-2.5,3.5-2.3,7.6-3.4,11.1
		c-1.2,3.7-1.3,7.7-6,9.6c-3.4,1.4-2.3,5-1.9,8c1.1,7.5,1,15,0.2,23.1c-4.4-2.4-0.4-9.1-6.3-8.9c-6.1,0.2-1.7,7.2-5.7,9.3
		c-4.1-1.8-1.2-5.7-2.4-8.4c-2-1.9-4-1.1-5.7-0.6c-2.9,2.6-0.1,7.1-3.9,8.9c-4.5-1.8-0.2-6-2.6-8.8c-1.8-1.3-3.8-0.7-5.5-0.2
		c-2.7,2.8,1.5,7-2.7,9c-4.8-1.4,0.5-9.5-6.2-9.2c-5.9,0.3-1.3,7.5-5.6,9.2c-4.2-1.2-0.7-7.7-5.6-8.5c-1.2-0.2-2.3-0.5-3.7-0.7
		c-2,2.4,1.3,6.3-1.9,8.5c-4.5-2.1-0.6-6-2.4-8.7c-2.5,0-5.1,0-7.6,0c-1.7,2.8,2.5,6.7-2.2,8.7c-3.4-2.2-0.4-5.6-1.9-8.5
		c-2.1,0-4.5,0-7,0c-2,2.2,1.3,5.8-2,8.2c-2-2.7-0.5-5.8-1.3-8.5c-2.5,0-5-0.3-6.9,0.7c-3,2.6-0.1,7.1-3.9,8.9
		c-4.3-1.8-0.7-6-2.7-8.8c-8.1-3.3-6.4,4.4-7.9,8.8c-3.5-2.5-1.8-5.8-3.4-8.4c-1.8-1.7-4-1.6-6.3-0.4c-2,2.7,1.3,6.2-1.8,8.7
		c-4.2,1.1-4-2-4.4-4.8c-1.3-7.3-2.5-14.6-4.3-21.7c-3.3-13.3-6.7-26.4-6.6-40.5c0-7.5-8.4-12.7-9.9-21.8
		c-6.7,12.9-14.7,23.5-12.1,37.6c0.8,4.2-1.7,8.3-2.7,12.4c-5.4,21.9-9.1,44-7.7,66.7c0.4,6.7,0.1,13.4,0.1,20.8
		c-6.9,0-10.6,6.3-17,7c-1.9,0.2-2.1,2.5-2.7,4.2c-1,3.3-3.1,6.2-6.6,6.4c-6.8,0.3-8.3,4.1-8.2,9.9c0,2.6,0.6,5.9-3.2,6.6
		c-3.4,0.7-4.1-2-4.8-4.5c-0.1-0.5-0.5-1.2-0.8-1.2c-10.4-1.7-7.5-9.7-7.8-16.2c-0.2-4-2-6-6-6.1c-1.7,0-3.5-0.1-5.2-0.1
		c-12.5,0-12.8,0-12.6,12.6c0.1,6.8-2.6,8.9-8.9,8.5c-4.4-0.2-9.7-1.4-9.7,5.9c-3.3-1.3-2.4-3.6-2.4-5.4c-0.1-6.7-0.1-13.5-0.1-20.2
		c0-11.1,0-11.3-11.2-11.8c-4.6-0.2-7.2-2.9-10.1-5.7c-6.2-6-14.4-7-21.7-2.1c-3.2,2.2-6.5,3.4-10.4,3.5c-8.1,0.2-11,3.4-11.1,11.7
		c-0.1,7.7,0.1,15.5-0.1,23.2c0,2.6,1,5.6-2,7.4c-2.1-0.1-2.4-1.6-2.6-3.1c-0.4-2.9,0.4-6.7-3.6-7.3s-8.1-1.9-11.5,2.6
		c-3.3,4.3-7.2,3.3-11.4-0.3c-7.3-6.3-15.3-11.7-23.1-17.3c-8.2-6-18.4-5.8-28.4-5.4c-4.9,0.2-7.8,1.6-7.2,6.9
		c0.7,6.8-2.5,9-8.8,8.4c-1.7-0.2-3.5-0.2-5.2,0c-6.7,0.7-9.4-1.7-10.3-9c-4.7-37.6-10.1-75.2-15.6-112.7
		c-0.7-4.5,1.5-10.7-2.8-13.4c-5.3-3.4-11.6-5.8-18.1-6.9c-7.4-1.2-15,1.1-21,3.8c-6.3,2.9-11.5,0.7-17.1,1.6
		c-1.4,0-2.8,0.1-3.7-1.3c-6.4-0.1-13,1.1-17.8-5.2c-0.9-1.2-4.2-0.9-6.4-0.9c-7-0.1-14,0-21-0.1c-16.3-0.1-24.7,8.2-24.7,24.4
		c0,32,0,63.9,0,95.9c0,10.1-0.1,10.7-9.8,10.1c-7.7-0.5-11.9,2.1-12.7,9.8c-0.8,8.2-5.5,10.5-13.3,10c-6.4-0.4-13-1.4-19.2,3.4
		c-3.4,2.7-9.2,1.3-13.9,0.4c-3.6-0.7-3.1-4.1-3.1-6.8c0.1-4.6-2.1-6.3-6.4-6.1c-3.5,0.1-7,0-10.5,0.1c-3.2,0.1-5,1.7-5.4,5
		c-0.4,2.8,0.9,6.8-3,7.6c-4.8,1.1-11.7,2.7-14.4-0.6c-5.1-6.1-11-4.9-16.9-4.6c-7.2,0.4-9.5-2.2-9.4-9.4
		c0.2-17.2,0.2-34.5,0.2-51.7s0-34.5,0-51.7c0-4.7-0.4-9.5,0.1-14.2c2.3-20.8-7.9-34.2-25-43.8c-0.8-0.5-1.5-1.2-2.3-1.8l0,0
		c-8.5-2.5-17.1-4.8-25.8-6.6c-5.2-1.1-10.4-2.1-15.8-2.8c-14-1.9-15.4-1.7-24.8,8.6c-20-1.6-17.5-1.1-17.5,16.3
		c-0.1,43.7,0,87.4,0,131.1c0,4.5,0.4,9,0.9,13.4c0.7,7.4-0.9,9.3-8.6,9.4c-4,0.1-8,0-12,0c-6.4,0.1-14.3-2.3-14.6,8.1
		c-4.5,0-4.5-2.8-4.7-5.2c-0.2-3.5-0.1-7-0.1-10.5c0.1-4-1.8-5.9-5.9-5.9c-7.2,0.1-14.5,0.1-21.7-0.1c-5.2-0.2-7.2,2.1-7,7.1
		c0.6,17,0.3,15.2-16.2,15.4c-4.3,0-8.5,0.4-10-5.3c-0.7-2.5-3.7-2.2-5.9-2.2c-7,0-14,0.1-21,0.1c-3.1,0-6.1,0.2-7.1,4
		c-0.2,0.7-0.8,1.9-1.1,1.8c-7.7-0.9-12.1,7.6-19.4,7.8V1200h2399.2V906.4c-4.5,0-9,0-13.4,0c-7.5,0-15,0.1-22.5,0.2
		c-5.8,0.1-8-1.9-7.9-7.8c0.2-31.9,0.2-63.9,0.3-95.9c-0.9-10.2,0.3-20.5-1.8-31.5c-2.9,3.8-1.5,7.8-3.3,11.8
		c-6.3-19.3,1.4-39.2-6.4-58c-0.7,4.4-1.4,8.8-2.1,13.2c-6.1-8.1-2.7-18.3-6.4-26.9c-3,2.2-6.5,0.2-10.1,1.4c2,3.3,1,6.2-1.6,8.8
		c0,2.7,0.5,5.4,0.5,8.1c0,0.6-0.1,1.2-0.1,1.8c-0.2,1.5-0.7,2.9-1.6,4.4c-4.4-1.3-2-6-5.3-8.8c-6.3,18.3,1.8,37.2-4.9,55.2
		c-2.9-2.5-1.2-5.6-2.7-8.7c-0.7,1.8-1.7,3.2-1.6,4.5c0.7,8.2-2.2,11.5-11.1,12.2c-15.5,1.2-30.9,0.4-46.3,0.6
		c-4.1,0-8.3,0.1-12.4,0.1l0,0c-1.7,0-3.5,0-5.2,0.2c-6.9,0.8-10.6-1.6-9.6-9c0.8-5.4-3.3-8.4-5.5-12.7c-4.5,4.2-7.9,7.9-6.6,14.7
		c1,5.2-2.9,7.1-8.1,7.1c-5.3,0-6.9-2.2-6.9-7.2c0.1-23.6,0.1-47.3,0.1-70.9c3.1-6.3-2.2-11.5-1.2-18.4c-4.6,3.7-2.8,8.4-5.2,11.9
		c-1.8,0.9-4,0.6-6,0.3c-6.9-8.3-5.6-18.2-5.6-29.2c-5.4,5.3-9.3,9.4-7.6,16.3c1.2,4.8-2.1,8.4-4.6,13.9c-2.1-30.6,2-59.8-2.6-89.6
		c-3.7,4.1-0.3,8.9-3.7,11.9c-5.5-14.7-13.4-28.8-8.1-45.4c0.9-2.9-0.8-5.8-2-9.2c-0.6,1.2-1,2-1.4,2.9c-5.6-3.6-6.7-8.2-2.8-14.1
		c-3.2-3.4-6.2-6.6-9.5-10.3c3.1-3.3,0.3-8.8,4.8-11.2c-1-2.9-3.3-1.7-3.7-1.9c-2.8-20.7-3.7-40.8-4-62.6c-3.9,3.4-2.5,5.9-2.6,8
		c-0.7,12.2-0.5,24.5-2,36.7c-0.7,5.6-2.8,11.1-0.6,16.3c-1.4,2.1-4,0.6-5,3.4c3.6,2.7,2.2,7.7,5.1,12c-10.7,4.5-8.4,13.6-7.7,22.5
		c-4.5-3.8-2.6,1.5-4.2,1.8c-0.8-0.6-1.8-1.2-3.2-2.1c-1.7,9.6,0.4,18.7,0,27.9c-0.2,4.7-0.6,9.1-4.6,12c-4.6,3.5-0.2,9.4-4.1,13.2
		c-3.8-2.9-1-7.6-4-12.8c-4.8,30.7-0.5,59.9-2.7,88.9c-2.2-0.5-1.6-3-3.1-3.9l0,0c-0.6-0.7-1.1-1.5-1.7-2.2l0,0l0,0
		c-0.1-1.2-0.3-2.5-0.4-3.7c-2.5,0-5,0-7.5,0c-1.5,3.4-2.9,6.8-4.3,10c-2.6,1.1-5,0.7-7.3,0.3c-1.7-3.6-0.6-7.8-5.2-12.5
		c1.1,7.5-3.4,12.5-1,18.7c0.3,0.9,0.3,2,0.3,3c0,24.7,0,49.4,0,74.4c-4.6,1.7-9,0.8-13.5,0.7c-2.1-3.8-2.1-8-1-11.6
		c1.1-3.8-0.9-4.2-3.2-5.1l0,0c-0.4-0.6-0.9-1.2-1.3-1.7c-0.1-1.4-0.2-2.7-0.3-4.1l0,0c-2.8,2.5-5.8,4.9-7.2,8.2
		c-0.9,2-1.2,4.2-0.6,7.1c0.8,4.1-1.4,7.4-6.4,7.3c-22.7-0.5-45.4,1-68.1-0.8c-7.5-0.6-10-3.7-10.2-10.4c-0.1-1.9-0.6-3.7-1-6.1
		c-2,2.8-0.1,6-3,8.9c-6.1-18.7,1.4-37.9-5.1-56.2c-3.6,2.8-1.4,7.9-5.1,10.8c-2.8-5.2-0.1-11-1.9-15.9c-1.8-4.8-3.4-10.6-10.7-7.5
		c-4.2,7.4-2.5,16.2-5,24.5c-5.4-3.7-1-9.5-5.7-13.4c-6,19,1.6,38.6-4.1,57.2c-3.9-1.5-1.1-5.4-3.8-7.3c-2.4,2-1.5,4.9-1.5,7.3
		c-0.1,27.2-0.3,54.5,0.1,81.7c0.1,7.3-1.8,10.3-9.6,10c-15.9-0.5-14.5-1.5-14.6,14.3c0,3,0,6-0.1,9c0,3.9-2.4,5-5.9,5
		s-5.9-1.2-5.9-5.1c-0.1-8-0.2-16,0-24c0.1-5.2-2.1-7.3-7.2-7c-2.7,0.2-5.5,0-8.2,0c-11.7,0-11.9,0-13.1,11.4
		c-0.7,6.6-5.6,6.3-10,6.3c-18,0.2-36,0-54,0.2c-5.8,0.1-11.9-2.1-15.8,6c-1.8,3.7-8.9,2.1-13.4,0.9c-3.8-0.9-2.7-4.9-2.7-7.7
		c-0.1-6.5-0.2-13,0-19.5c0.1-4.8-2-6.8-6.7-6.6c-4,0.1-8-0.2-12-0.2c-2.4,0.1-4.7,0.2-7.1,0.3l0,0c-8.4,0-16.8,0.2-25.2,0.1
		c-1.4,0-2.8-0.1-4.2-0.1c-1.4,0-2.8-0.1-4.2-0.2c-7.8-0.4-10.3,2.6-9.6,10c0.5,4.7,0.1,9.5,0.1,14.2c0,4.9,1,10-6.5,11.1
		c-3.7,0.6-2.6,4.9-2.6,7.7c0.1,4.8-2,6.8-6.8,6.6c-5-0.2-10-0.3-15,0c-6,0.4-8.6-1.7-8.4-8.1c0.2-10-0.2-10.1-9.8-10.1
		c-42.4,0-84.9,0-127.3,0c-2.7,0-5.5-0.6-8.1,1.1c-1.4,3.1,0.1,6.3-0.1,9.5c-0.3,3.5,0.2,7.3-5.1,7.4c-5.2,0.1-5.3-3.4-5.3-7.1
		c0-9,0-18,0-27c0-10-0.4-20,0.1-29.9c1.1-20.3-2.8-40-7.2-59.6c-2.3-10-4.7-19.9-2.3-30.7c-8.4-1.8-6.5-11-11.5-15.6
		c-1.2,0.9-2.1,2-2.7,3.3c-0.2,0.4-0.3,0.7-0.5,1.1c-0.1,0.2-0.1,0.4-0.2,0.6c-0.1,0.2-0.2,0.5-0.2,0.7c-0.2,0.5-0.3,1-0.5,1.5
		c-0.1,0.5-0.3,1-0.5,1.5c-0.4,1.3-0.9,2.5-1.6,3.6l0,0c-0.3,0.5-0.7,0.9-1.1,1.3c-0.8,0.8-1.9,1.5-3.4,1.8l-0.1,0.1
		c0.7,13.1-0.9,25.9-4.8,38.4c-2.7,8.6-3.7,17.5-5.1,26.2c-1.5,8.7-6.3,7.2-11.6,7.4c-6.7,0.3-7.1-4-6.3-9c-8.9-4.6-7.2,4-9.6,8.2
		c-2.5-4.1-0.5-12.2-8.7-8.8c-2.3,2.6,1.5,6.8-2.6,8.7c-4.4-1.5,0.3-9.6-6.4-9.1c-5.7,0.4-1.2,7.6-5.7,9.1c-3.7-2-0.7-5.6-2-8.1
		c-6.5-1.8-6.5-1.8-8.8,7.6c-3.4-2.5-0.7-12.4-9.4-8c-1.7,2.5,1.2,6-1.6,8.3c-2.7,0.2-2.6-1.8-2.9-3.5c-0.3-2.4,0-5.4-3.6-5.5
		c-4.1-0.1-3.8,3.1-4.1,5.8c-0.2,1.5-0.3,3-2.4,3.4c-3.4-2.1,0-5.7-1.9-8.3c-8.4-4.5-6.7,4.2-8.8,7.9c-3.3-2.6,0-9.2-6.4-9
		c-6,0.2-3.1,5.9-5.6,8.9c-3.1-2.6-0.7-12.2-9.1-8c-1.6,2.4,1,5.5-2.4,8.8c-1.1-8.5-1-16.1-0.1-23.6c0.5-4,1.3-7.4-3.8-9
		c-3.2-1-3.1-4.3-3.7-6.9c-1.2-4.8-1.6-9.8-4.5-15.8c-1.3,5-1.9,8.8-3.2,12.3c-1.3,3.3,1.4,9-6.1,9.2c-1.9,0-1.9,6.1-1.2,9.7
		c1.5,7.6,1,15.2,0.5,24.8c-3.6-4.8-1.4-13.3-9.7-9.7c-2.3,2.4,1.6,6.6-2.4,8.7c-4.2-1.8-0.9-6-2.9-8.8c-8.1-3.1-6.1,4.8-8,8.4
		c-4.5-1.6-1.5-5.5-3.3-8.1c-8.1-4.1-6.9,3.9-8.7,7.9c-3.8-2.1,0-8.7-5.6-8.7c-6.2,0-2.1,7-6.1,9.2c-4-2.1-0.9-7.2-3.7-9.6
		c-2.8,0.8-6.6-1.3-7.8,3c-4.9-4.4-6.5-10.3-9.3-15.5c-2.8,1.5-2.5,4.8-5.1,7.2c-1.9-9.8-0.2-19.3-0.6-28.8
		c-0.5-11.6-0.1-23.2-0.1-34.8c0-17.3-0.3-34.6,0.1-51.9c0.2-9.4,1.9-18.7-0.5-28.1c-0.7-2.6,2.5-6.1,3.4-9.3
		c1.8-6.4-1.5-12.2-3.3-17.8c-2.4-7.7-3.1-15.5-5.1-23.4c-2.6,11-3.8,22.5-8.8,33c-3.3-1-5.9-1.8-8.7-2.7c-0.1-2.4,0.1-4.7-0.4-6.8
		c-4.9-22.7-3.2-46.1-6.6-69.5c-1,1.3-1.6,2.2-2.3,3.1c-0.7,0-1.4,0-2.1-0.1c4.6-26.8,1.4-53.7,2.7-79.7c-2.3-2.8-2.2,0.7-3.9-0.5
		c-1.7-2.7-1.4-7.2-5.2-9.8c-2.9,0.6-5.9,2.2-9.5,0.2c-4.7-30.8-9.4-61.9-14.1-93.4c-1-6.9-2.1-13.9-3.2-20.9
		c2.6,1.6,4.7,2.9,7.8,4.8c-1.1-3.5-1.9-6.1-2.8-9.2c2.2-1.7,4.5-3.5,7.8-6c-3.9-0.3-6.8-0.4-9.9-0.6c-1-2.8-1.9-5.3-3.2-9.1
		c-1.3,3.7-2.1,6.3-3.2,9.4c-2.9,0-5.7,0-9.9,0c3.3,2.7,5.5,4.5,7.4,6.1c0.7,3.7-3.3,6.4-0.6,9.7c0.8-2.3,2.8-3.1,6.1-4.6
		c-0.9,5.7-1.7,11.4-2.6,17c-4.9,32.8-9.8,64.8-14.5,96.5C1138.9,483,1135.9,482,1132.8,480.5z M1159.7,572
		c15.3,0,26.2,11,26.2,26.6c0,13.5-12.1,25.5-25.9,25.7c-13.6,0.2-26.5-12.6-26.5-26.2C1133.7,583.4,1145.1,572,1159.7,572z"/>
	<path class="st3" d="M2091.9,692c-0.1-8-1.2-8.7-8.1-4.9c0.9,1.7,1.7,3.4,2.6,5.1c0.7,1.1,1.4,1.4,2.1,1.4c0.3,0,0.7-0.1,1-0.2
		C2090.3,693,2091.1,692.4,2091.9,692z"/>
	<path class="st3" d="M1153.3,371.7l0.3,0.3l0.1-0.1l0,0l0,0l0,0C1153.5,371.8,1153.3,371.7,1153.3,371.7z"/>
	<path class="st3" d="M2335.7,711.6L2335.7,711.6c0.1,0.2,0.3,0.4,0.3,0.5C2336,712,2335.9,711.9,2335.7,711.6z"/>
	<path class="st3" d="M2335.7,711.6L2335.7,711.6c0.2,0.2,0.4,0.3,0.4,0.4C2336.1,711.9,2336,711.8,2335.7,711.6z"/>
	<path class="st3" d="M1522,885.4c29.9,0,59.9,0,89.8,0c3.9,0,6-1.4,6.1-5.7c0-3.9-1.4-5.9-5.5-6.3c-4.7-0.4-9.3-1.3-14.9-2.2
		c-0.1-7.4-4.1-10.8-10.5-12c-1.9-0.4-4.3-1.6-4.4-3.7c-0.2-9.1-6.7-7.6-12.3-7.6c-4.2,0-8.5,0-12.7,0c-3.1,0-5.6,0.9-5.6,4.5
		c0,4.8-2.9,6.5-6.9,7.4c-4.4,1-7.9,3-8.3,8.2c-0.2,2.7-2.1,3.7-4.6,3.9c-3.7,0.4-7.4,1.2-11.1,1.6c-4.3,0.5-5.1,3.2-5.1,6.9
		C1516.1,884.5,1518.6,885.4,1522,885.4z"/>
	<polygon class="st3" points="1452.9,752 1453,751.9 1452.7,751.7 	"/>
	<path class="st3" d="M1144.2,612.1c2.2,2.7,5.3,1.7,7.6,3.5c7,5.7,19.3,4.2,23.4-3.6c1.7-3.3,6.7-6.7,3.9-11.1
		c-2.7-4.2-7.8-1.4-11.9-2c-3.1-0.5-4.7,2.4-7.4,3c-1.2-1.3-2.4-2.6-4-4.4c5.1-5.4,3-11.8,2.9-17.9c0-2-2.8-3.8-3.5-2.7
		c-3,5.1-9.9,3.7-13,8.6C1137.8,592.8,1138.8,605.7,1144.2,612.1z"/>
	<path class="st3" d="M1168.3,596.1c2.2-0.2,4.5,0,6.7-0.1c1.8-0.1,3.7-0.3,4.4-2.2c0.9-2.4,0.2-4.4-2.4-5.3
		c-0.6-2.3-1.5-4.2-2.7-5.8c-2.7-3.5-6.9-5.3-12.4-5.2c-2.5,3.3-1,7.2-1.4,10.8C1159.9,594.1,1162.5,596.6,1168.3,596.1z
		 M1177,588.5L1177,588.5L1177,588.5z"/>
</g>
</svg>
