<?xml version="1.0" encoding="utf-8"?>
<!-- Generator: Adobe Illustrator 23.1.0, SVG Export Plug-In . SVG Version: 6.00 Build 0)  -->
<svg version="1.1" id="Layer_1" xmlns="http://www.w3.org/2000/svg" xmlns:xlink="http://www.w3.org/1999/xlink" x="0px" y="0px"
	 viewBox="0 0 5413.8 4450.6" style="enable-background:new 0 0 5413.8 4450.6;" xml:space="preserve">
<style type="text/css">
	.st0{fill:#1F358F;}
</style>
<g>
	<path class="st0" d="M1164.7,2998.9l0-4c6.6,0,13.4-0.1,20-0.3l0.1,4C1178.1,2998.8,1171.3,2998.9,1164.7,2998.9z M1144.6,2998.8
		c-6.7-0.1-13.4-0.3-20-0.5l0.2-4c6.6,0.3,13.3,0.4,20,0.5L1144.6,2998.8z M1204.7,2997.9l-0.2-4c6.6-0.3,13.3-0.7,19.9-1.1l0.3,4
		C1218.1,2997.2,1211.4,2997.6,1204.7,2997.9z M1104.5,2997.3c-6.6-0.4-13.4-0.9-20-1.4l0.3-4c6.6,0.5,13.3,1,19.9,1.4
		L1104.5,2997.3z M1244.7,2995.2l-0.4-4c6.6-0.6,13.3-1.2,19.9-2l0.4,4C1258.1,2993.9,1251.4,2994.6,1244.7,2995.2z M1064.6,2994.1
		c-6.6-0.7-13.3-1.4-19.9-2.2l0.5-4c6.6,0.8,13.3,1.6,19.8,2.2L1064.6,2994.1z M1284.6,2990.8l-0.5-4c6.6-0.9,13.2-1.8,19.8-2.8
		l0.6,4C1297.9,2989,1291.2,2989.9,1284.6,2990.8z M1024.8,2989.2c-6.6-1-13.3-2-19.8-3.1l0.7-3.9c6.5,1.1,13.2,2.1,19.7,3.1
		L1024.8,2989.2z M1324.2,2984.8l-0.7-3.9c6.5-1.1,13.1-2.4,19.6-3.6l0.8,3.9C1337.4,2982.4,1330.8,2983.6,1324.2,2984.8z
		 M985.2,2982.6c-6.5-1.2-13.2-2.6-19.7-3.9l0.8-3.9c6.5,1.4,13.1,2.7,19.6,3.9L985.2,2982.6z M1363.5,2977.1l-0.9-3.9
		c6.5-1.4,13-2.9,19.4-4.5l0.9,3.9C1376.6,2974.1,1370,2975.6,1363.5,2977.1z M946,2974.3c-6.5-1.5-13-3.1-19.5-4.8l1-3.9
		c6.4,1.6,12.9,3.2,19.4,4.7L946,2974.3z M1402.5,2967.7l-1-3.9c6.4-1.7,12.9-3.5,19.2-5.3l1.1,3.8
		C1415.4,2964.2,1408.9,2966,1402.5,2967.7z M907.1,2964.4c-6.4-1.8-12.9-3.7-19.3-5.6l1.2-3.8c6.3,1.9,12.8,3.8,19.2,5.6
		L907.1,2964.4z M1441,2956.7l-1.2-3.8c6.3-1.9,12.7-4,19-6.1l1.3,3.8C1453.8,2952.7,1447.4,2954.8,1441,2956.7z M868.7,2952.9
		c-6.3-2.1-12.7-4.2-19-6.4l1.3-3.8c6.3,2.2,12.6,4.3,18.9,6.4L868.7,2952.9z M1479.1,2944.2l-1.3-3.8c6.2-2.2,12.5-4.5,18.7-6.9
		l1.4,3.7C1491.6,2939.6,1485.3,2941.9,1479.1,2944.2z M830.8,2939.7c-6.2-2.3-12.5-4.7-18.7-7.2l1.5-3.7c6.2,2.4,12.4,4.9,18.6,7.2
		L830.8,2939.7z M1516.5,2930l-1.5-3.7c6.1-2.5,12.3-5,18.4-7.6l1.6,3.7C1528.9,2924.9,1522.7,2927.5,1516.5,2930z M793.5,2924.9
		c-6.1-2.6-12.3-5.3-18.4-8l1.6-3.7c6.1,2.7,12.2,5.4,18.3,8L793.5,2924.9z M1553.3,2914.3l-1.6-3.6c6-2.7,12.1-5.6,18.1-8.4
		l1.7,3.6C1565.5,2908.7,1559.4,2911.5,1553.3,2914.3z M756.9,2908.5c-6-2.8-12.1-5.8-18.1-8.8l1.8-3.6c5.9,3,12,5.9,18,8.7
		L756.9,2908.5z M1589.4,2897l-1.8-3.6c5.9-3,11.9-6.1,17.7-9.2l1.9,3.5C1601.4,2890.9,1595.4,2894,1589.4,2897z M720.9,2890.6
		c-5.9-3.1-11.8-6.3-17.7-9.5l1.9-3.5c5.8,3.2,11.7,6.4,17.6,9.5L720.9,2890.6z M1624.8,2878.2l-2-3.5c5.8-3.2,11.6-6.6,17.3-9.9
		l2,3.4C1636.4,2871.6,1630.6,2875,1624.8,2878.2z M685.8,2871.1c-5.7-3.3-11.5-6.8-17.3-10.3l2.1-3.4c5.7,3.5,11.5,6.9,17.2,10.2
		L685.8,2871.1z M1659.3,2858l-2.1-3.4c5.6-3.5,11.3-7,16.9-10.6l2.2,3.4C1670.7,2850.9,1665,2854.5,1659.3,2858z M651.5,2850.3
		c-5.6-3.6-11.3-7.3-16.8-11l2.2-3.3c5.5,3.7,11.2,7.4,16.7,10.9L651.5,2850.3z M1692.9,2836.3l-2.2-3.3c5.5-3.7,11-7.5,16.4-11.3
		l2.3,3.3C1703.9,2828.7,1698.4,2832.5,1692.9,2836.3z M618.1,2828c-1.3-0.9-2.5-1.8-3.8-2.6c-4.2-3-8.4-6-12.6-9l2.4-3.2
		c4.1,3,8.3,6,12.5,9c1.3,0.9,2.5,1.8,3.8,2.6L618.1,2828z M1725.6,2813.2l-2.4-3.2c5.3-3.9,10.7-8,15.9-12l2.4,3.2
		C1736.3,2805.2,1730.9,2809.2,1725.6,2813.2z M585.8,2804.3c-5.3-4-10.6-8.2-15.8-12.3l2.5-3.1c5.2,4.1,10.5,8.2,15.7,12.3
		L585.8,2804.3z M1757.2,2788.7l-2.5-3.1c5.1-4.1,10.3-8.4,15.4-12.7l2.6,3.1C1767.5,2780.3,1762.4,2784.5,1757.2,2788.7z
		 M554.4,2779.4c-5.1-4.3-10.3-8.6-15.3-13l2.6-3c5,4.3,10.1,8.7,15.2,12.9L554.4,2779.4z M1787.8,2762.9l-2.6-3
		c5-4.4,9.9-8.8,14.8-13.3l2.7,2.9C1797.7,2754.1,1792.7,2758.6,1787.8,2762.9z M524.1,2753.1c-4.9-4.5-9.9-9-14.7-13.6l2.7-2.9
		c4.8,4.5,9.7,9.1,14.7,13.5L524.1,2753.1z M1817.2,2735.9l-2.8-2.9c4.8-4.6,9.6-9.3,14.3-14l2.8,2.8
		C1826.8,2726.6,1822,2731.3,1817.2,2735.9z M495,2725.6c-4.7-4.7-9.5-9.5-14.1-14.2l2.9-2.8c4.6,4.7,9.3,9.5,14.1,14.1L495,2725.6z
		 M1845.5,2707.6l-2.9-2.8c4.6-4.8,9.2-9.7,13.7-14.6l2.9,2.7C1854.7,2697.9,1850.1,2702.8,1845.5,2707.6z M467,2697
		c-4.5-4.8-9.1-9.8-13.5-14.7l3-2.7c4.4,4.9,8.9,9.9,13.4,14.7L467,2697z M1872.6,2678.1l-3-2.6c4.4-5,8.8-10.1,13-15.1l3.1,2.6
		C1881.4,2668,1877,2673.1,1872.6,2678.1z M440.4,2667.2c-4.3-5-8.6-10.2-12.8-15.3l3.1-2.5c4.2,5.1,8.5,10.2,12.8,15.2
		L440.4,2667.2z M1898.5,2647.4l-3.1-2.5c4.2-5.1,8.3-10.4,12.4-15.6l3.2,2.5C1906.9,2637,1902.7,2642.3,1898.5,2647.4z M415,2636.3
		c-4.1-5.2-8.2-10.6-12.2-15.8l3.2-2.4c4,5.3,8,10.6,12.1,15.8L415,2636.3z M1923,2615.8l-3.2-2.4c3.9-5.3,7.9-10.8,11.7-16.1
		l3.3,2.3C1931,2605,1927,2610.4,1923,2615.8z M391,2604.4c-3.9-5.4-7.8-10.9-11.5-16.4l3.3-2.3c3.7,5.4,7.6,10.9,11.5,16.3
		L391,2604.4z M1946.2,2583.1l-3.3-2.2c2.5-3.7,5.1-7.6,8-12l0.1-0.2c1.3-1.5,2.4-2.9,3.5-4.3l3.2,2.4c-1.1,1.4-2.2,2.8-3.5,4.3
		C1951.3,2575.5,1948.7,2579.4,1946.2,2583.1z M368.3,2571.4c-3.6-5.5-7.3-11.2-10.8-16.8l3.4-2.1c3.5,5.6,7.1,11.2,10.8,16.8
		L368.3,2571.4z M1969.3,2550.5l-3.3-2.3l11.5-16.3l3.3,2.3L1969.3,2550.5z M347.1,2537.5c-3.4-5.7-6.8-11.5-10.1-17.3l3.5-2
		c3.3,5.7,6.6,11.5,10,17.2L347.1,2537.5z M1992.3,2517.8l-3.3-2.3l11.5-16.3l3.3,2.3L1992.3,2517.8z M327.3,2502.7
		c-3.2-5.8-6.3-11.8-9.3-17.7l3.6-1.8c3,5.9,6.2,11.8,9.3,17.6L327.3,2502.7z M2015.4,2485.1l-3.3-2.3l11.5-16.3l3.3,2.3
		L2015.4,2485.1z M309,2467.1c-2.9-6-5.8-12.1-8.6-18.1l3.6-1.7c2.8,6,5.7,12.1,8.6,18L309,2467.1z M2038.5,2452.4l-3.3-2.3
		l11.5-16.3l3.3,2.3L2038.5,2452.4z M292.2,2430.8c-2.7-6.1-5.3-12.3-7.8-18.4l3.7-1.5c2.5,6.1,5.1,12.3,7.8,18.4L292.2,2430.8z
		 M2061.5,2419.7l-3.3-2.3l11.5-16.3l3.3,2.3L2061.5,2419.7z M276.9,2393.8c-2.4-6.2-4.8-12.5-7-18.7l3.8-1.4
		c2.3,6.2,4.6,12.5,7,18.7L276.9,2393.8z M2084.6,2387l-3.3-2.3l11.5-16.3l3.3,2.3L2084.6,2387z M263.2,2356.1
		c-2.1-6.3-4.2-12.7-6.2-19l3.8-1.2c2,6.3,4.1,12.7,6.2,19L263.2,2356.1z M2107.6,2354.4l-3.3-2.3l11.5-16.3l3.3,2.3L2107.6,2354.4z
		 M2130.7,2321.7l-3.3-2.3l11.5-16.3l3.3,2.3L2130.7,2321.7z M251.1,2318c-1.9-6.4-3.7-12.9-5.4-19.3l3.9-1
		c1.7,6.4,3.6,12.9,5.4,19.2L251.1,2318z M2153.8,2289l-3.3-2.3l11.5-16.3l3.3,2.3L2153.8,2289z M240.6,2279.3
		c-1.6-6.5-3.2-13-4.6-19.5l3.9-0.9c1.5,6.5,3,13,4.6,19.4L240.6,2279.3z M2176.8,2256.3l-3.3-2.3l11.5-16.3l3.3,2.3L2176.8,2256.3z
		 M231.8,2240.2c-1.3-6.5-2.6-13.1-3.8-19.7l3.9-0.7c1.2,6.5,2.5,13.1,3.8,19.6L231.8,2240.2z M2199.9,2223.6l-3.3-2.3l11.5-16.3
		l3.3,2.3L2199.9,2223.6z M224.6,2200.8c-1.1-6.6-2.1-13.2-3-19.8l4-0.6c0.9,6.6,1.9,13.2,3,19.7L224.6,2200.8z M2222.9,2190.9
		l-3.3-2.3l11.5-16.3l3.3,2.3L2222.9,2190.9z M219.1,2161.1c-0.8-6.6-1.5-13.3-2.1-19.9l4-0.4c0.6,6.6,1.4,13.3,2.1,19.8
		L219.1,2161.1z M2246,2158.3l-3.3-2.3l11.5-16.3l3.3,2.3L2246,2158.3z M2269.1,2125.6l-3.3-2.3l11.5-16.3l3.3,2.3L2269.1,2125.6z
		 M215.2,2121.2c-0.5-6.6-0.9-13.4-1.3-20l4-0.2c0.4,6.6,0.8,13.3,1.3,19.9L215.2,2121.2z M2292.1,2092.9l-3.3-2.3l11.5-16.3
		l3.3,2.3L2292.1,2092.9z M213,2081.2c-0.2-6.7-0.4-13.4-0.5-20l4,0c0.1,6.6,0.2,13.3,0.5,20L213,2081.2z M2315.2,2060.2l-3.3-2.3
		l11.5-16.3l3.3,2.3L2315.2,2060.2z M216.5,2041.1l-4,0c0.1-6.7,0.2-13.4,0.4-20l4,0.1C216.7,2027.8,216.6,2034.5,216.5,2041.1z
		 M2338.2,2027.5l-3.3-2.3l11.5-16.3l3.3,2.3L2338.2,2027.5z M217.7,2001.2l-4-0.2c0.3-6.6,0.8-13.4,1.2-20l4,0.3
		C218.4,1987.9,218,1994.6,217.7,2001.2z M2361.3,1994.8l-3.3-2.3l11.5-16.3l3.3,2.3L2361.3,1994.8z M2384.4,1962.2l-3.3-2.3
		l11.5-16.3l3.3,2.3L2384.4,1962.2z M220.6,1961.4l-4-0.4c0.6-6.6,1.3-13.3,2.1-19.9l4,0.5C221.9,1948.1,221.2,1954.8,220.6,1961.4z
		 M2407.4,1929.5l-3.3-2.3l1.3-1.9c3.3-4.7,6.4-9.7,9-14.9l3.6,1.8c-2.7,5.3-5.9,10.5-9.3,15.4L2407.4,1929.5z M225.1,1921.7l-4-0.5
		c0.9-6.6,1.9-13.3,2.9-19.8l4,0.6C227,1908.5,226,1915.1,225.1,1921.7z M2425.9,1893.5l-3.8-1.2c2-6.2,3.6-12.6,4.6-19.1l3.9,0.6
		C2429.6,1880.5,2428,1887.1,2425.9,1893.5z M231.4,1882.3l-3.9-0.7c1.2-6.6,2.4-13.2,3.8-19.7l3.9,0.8
		C233.8,1869.1,232.5,1875.7,231.4,1882.3z M2432.3,1853.6h-4l0-0.3c0-6.4-0.5-12.9-1.5-19.3l4-0.6c1,6.6,1.5,13.3,1.5,19.9
		L2432.3,1853.6z M239.3,1843.1l-3.9-0.9c1.5-6.5,3-13.1,4.6-19.5l3.9,1C242.2,1830.1,240.7,1836.6,239.3,1843.1z M2422.3,1814.8
		c-2-6.2-4.5-12.4-7.4-18.2l3.6-1.8c3,6,5.6,12.4,7.6,18.8L2422.3,1814.8z M248.8,1804.3l-3.9-1c1.7-6.4,3.6-12.9,5.4-19.3l3.8,1.1
		C252.3,1791.5,250.5,1797.9,248.8,1804.3z M2404.8,1779.7c-3.8-5.3-8.1-10.4-12.7-15l2.8-2.8c4.7,4.8,9.1,10,13.1,15.5
		L2404.8,1779.7z M260,1766l-3.8-1.2c2-6.4,4.1-12.8,6.2-19.1l3.8,1.3C264.1,1753.3,262,1759.7,260,1766z M2377.2,1751.9
		c-0.6-0.5-1.3-0.9-1.9-1.4l-14.4-10.2l2.3-3.3l14.4,10.2c0.7,0.5,1.3,0.9,2,1.4L2377.2,1751.9z M2344.6,1728.8l-16.3-11.5l2.3-3.3
		l16.3,11.5L2344.6,1728.8z M272.8,1728.1l-3.8-1.4c2.3-6.3,4.6-12.6,7-18.8l3.7,1.4C277.5,1715.6,275.1,1721.9,272.8,1728.1z
		 M2311.9,1705.8l-16.3-11.5l2.3-3.3l16.3,11.5L2311.9,1705.8z M287.3,1690.9l-3.7-1.5c2.5-6.2,5.2-12.4,7.8-18.5l3.7,1.6
		C292.4,1678.6,289.8,1684.8,287.3,1690.9z M2279.2,1682.7l-16.3-11.5l2.3-3.3l16.3,11.5L2279.2,1682.7z M2246.5,1659.6l-16.3-11.5
		l2.3-3.3l16.3,11.5L2246.5,1659.6z M303.3,1654.3l-3.6-1.7c2.8-6,5.7-12.1,8.6-18.1l3.6,1.8
		C308.9,1642.2,306.1,1648.3,303.3,1654.3z M2213.9,1636.6l-16.3-11.5l2.3-3.3l16.3,11.5L2213.9,1636.6z M320.8,1618.4l-3.6-1.8
		c3-5.9,6.2-11.9,9.4-17.7l3.5,1.9C327,1606.5,323.9,1612.5,320.8,1618.4z M2181.2,1613.5l-16.3-11.5l2.3-3.3l16.3,11.5
		L2181.2,1613.5z M2148.5,1590.5l-16.3-11.5l2.3-3.3l16.3,11.5L2148.5,1590.5z M339.9,1583.2l-3.5-2c3.3-5.8,6.7-11.6,10.1-17.3
		l3.4,2.1C346.6,1571.7,343.2,1577.5,339.9,1583.2z M2115.8,1567.4l-16.3-11.5l2.3-3.3l16.3,11.5L2115.8,1567.4z M360.4,1548.9
		l-3.4-2.1c3.5-5.6,7.2-11.3,10.8-16.9l3.3,2.2C367.6,1537.6,363.9,1543.3,360.4,1548.9z M2083.1,1544.3l-16.3-11.5l2.3-3.3
		l16.3,11.5L2083.1,1544.3z M2050.4,1521.3l-16.3-11.5l2.3-3.3l16.3,11.5L2050.4,1521.3z M382.3,1515.5l-3.3-2.3
		c2.3-3.4,4.7-6.8,7-10.1c1.5-2.1,3-4.2,4.5-6.3l3.3,2.3c-1.5,2.1-3,4.2-4.5,6.3C387,1508.7,384.7,1512.1,382.3,1515.5z
		 M2017.8,1498.2l-16.3-11.5l2.3-3.3l16.3,11.5L2017.8,1498.2z M405.6,1483l-3.2-2.4c4-5.3,8.1-10.7,12.2-15.9l3.1,2.5
		C413.7,1472.4,409.6,1477.7,405.6,1483z M1985.1,1475.1l-16.3-11.5l2.3-3.3l16.3,11.5L1985.1,1475.1z M1952.4,1452.1l-16.3-11.5
		l2.3-3.3l16.3,11.5L1952.4,1452.1z M430.2,1451.6l-3.1-2.5c4.2-5.1,8.5-10.3,12.8-15.4l3,2.6
		C438.7,1441.3,434.4,1446.5,430.2,1451.6z M1919.7,1429l-16.3-11.5l2.3-3.3l16.3,11.5L1919.7,1429z M456.1,1421.2l-3-2.7
		c4.4-5,9-10,13.5-14.8l2.9,2.7C465,1411.3,460.5,1416.3,456.1,1421.2z M1887,1406l-16.3-11.5l2.3-3.3l16.3,11.5L1887,1406z
		 M483.3,1392l-2.9-2.8c4.6-4.8,9.4-9.6,14.1-14.2l2.8,2.8C492.6,1382.5,487.9,1387.2,483.3,1392z M1854.3,1382.9l-16.3-11.5
		l2.3-3.3l16.3,11.5L1854.3,1382.9z M511.6,1363.9l-2.8-2.9c4.8-4.6,9.7-9.1,14.6-13.6l2.7,3
		C521.3,1354.8,516.4,1359.4,511.6,1363.9z M1821.7,1359.8l-16.3-11.5l2.3-3.3l16.3,11.5L1821.7,1359.8z M541.1,1337.1l-2.6-3
		c5-4.4,10.1-8.7,15.2-13l2.6,3.1C551.1,1328.5,546,1332.8,541.1,1337.1z M1789,1336.8l-16.3-11.5l2.3-3.3l16.3,11.5L1789,1336.8z
		 M1756.3,1313.7l-16.3-11.5l2.3-3.3l16.3,11.5L1756.3,1313.7z M571.6,1311.6l-2.5-3.1c5.2-4.1,10.5-8.3,15.7-12.3l2.4,3.2
		C582,1303.4,576.8,1307.5,571.6,1311.6z M1723.6,1290.7l-8.9-6.3c-1.1-0.8-2.1-1.6-3.2-2.3c-1.4-1-2.7-2-4.1-3l2.3-3.3
		c1.4,1,2.8,2,4.2,3c1.1,0.8,2.1,1.5,3.2,2.3l8.9,6.3L1723.6,1290.7z M603.2,1287.4l-2.4-3.2c5.3-3.9,10.8-7.8,16.3-11.6l2.3,3.3
		C614,1279.6,608.6,1283.5,603.2,1287.4z M1706,1278.1c-1.8-1.3-3.7-2.6-5.5-3.8c-1.1-0.7-2.2-1.5-3.2-2.2l-7.6-5.4l2.3-3.3l7.6,5.4
		c1.1,0.7,2.1,1.5,3.2,2.2c1.9,1.3,3.7,2.5,5.6,3.9L1706,1278.1z M635.9,1264.6l-2.2-3.3c5.5-3.7,11.2-7.4,16.7-10.9l2.2,3.4
		C647,1257.3,641.3,1260.9,635.9,1264.6z M1672.9,1255.8c-5.6-3.6-11.3-7.2-16.9-10.7l2.1-3.4c5.7,3.5,11.4,7.1,17,10.7
		L1672.9,1255.8z M669.4,1243.2l-2.1-3.4c5.7-3.4,11.5-6.9,17.2-10.2l2,3.5C680.8,1236.3,675.1,1239.7,669.4,1243.2z M1638.8,1234.8
		c-5.7-3.4-11.5-6.7-17.3-9.9l2-3.5c5.8,3.3,11.7,6.6,17.4,10L1638.8,1234.8z M703.9,1223.2l-1.9-3.5c5.8-3.2,11.7-6.4,17.6-9.5
		l1.9,3.5C715.6,1216.8,709.7,1220,703.9,1223.2z M1604,1215.3c-5.8-3.1-11.8-6.2-17.7-9.2l1.8-3.6c6,3,11.9,6.1,17.8,9.2
		L1604,1215.3z M739.2,1204.6l-1.8-3.6c5.9-3,12-5.9,18-8.7l1.7,3.6C751.1,1198.8,745.1,1201.7,739.2,1204.6z M1568.3,1197.3
		c-6-2.9-12.1-5.7-18.1-8.4l1.7-3.6c6.1,2.7,12.2,5.6,18.2,8.5L1568.3,1197.3z M775.2,1187.6l-1.6-3.7c6.1-2.7,12.2-5.4,18.4-8
		l1.6,3.7C787.4,1182.3,781.3,1184.9,775.2,1187.6z M1531.9,1180.8c-6.1-2.6-12.3-5.2-18.5-7.7l1.5-3.7c6.2,2.5,12.4,5.1,18.5,7.7
		L1531.9,1180.8z M812,1172.1l-1.5-3.7c6.2-2.5,12.5-4.9,18.7-7.2l1.4,3.7C824.4,1167.3,818.1,1169.7,812,1172.1z M1494.8,1165.9
		c-6.2-2.3-12.5-4.7-18.8-6.9l1.3-3.8c6.3,2.2,12.6,4.5,18.8,6.9L1494.8,1165.9z M849.4,1158.2l-1.3-3.8c6.3-2.2,12.7-4.3,19-6.4
		l1.2,3.8C862,1153.9,855.6,1156,849.4,1158.2z M1457.2,1152.6c-6.3-2.1-12.7-4.1-19-6.1l1.2-3.8c6.4,1.9,12.8,4,19.1,6.1
		L1457.2,1152.6z M887.3,1145.9l-1.2-3.8c6.3-1.9,12.8-3.8,19.2-5.6l1.1,3.9C900.1,1142.1,893.6,1144,887.3,1145.9z M1419,1140.9
		c-6.4-1.8-12.9-3.6-19.3-5.2l1-3.9c6.4,1.7,12.9,3.4,19.4,5.3L1419,1140.9z M925.7,1135.1l-1-3.9c6.4-1.7,13-3.3,19.5-4.8l0.9,3.9
		C938.6,1131.9,932.1,1133.5,925.7,1135.1z M1380.3,1130.8c-6.4-1.5-13-3-19.5-4.4l0.8-3.9c6.5,1.4,13.1,2.9,19.6,4.4L1380.3,1130.8
		z M964.5,1126l-0.8-3.9c6.5-1.4,13.1-2.7,19.6-4l0.7,3.9C977.6,1123.3,971,1124.6,964.5,1126z M1341.3,1122.4
		c-6.5-1.3-13.1-2.5-19.6-3.6l0.7-3.9c6.6,1.1,13.2,2.3,19.7,3.6L1341.3,1122.4z M1003.7,1118.5l-0.7-3.9c6.6-1.1,13.2-2.2,19.8-3.1
		l0.6,4C1016.9,1116.4,1010.3,1117.4,1003.7,1118.5z M1301.9,1115.6c-6.6-1-13.2-1.9-19.8-2.7l0.5-4c6.6,0.8,13.3,1.8,19.9,2.8
		L1301.9,1115.6z M1043.2,1112.7l-0.5-4c6.6-0.8,13.3-1.6,19.9-2.3l0.4,4C1056.5,1111.1,1049.8,1111.9,1043.2,1112.7z
		 M1262.3,1110.6c-6.6-0.7-13.3-1.3-19.9-1.9l0.3-4c6.6,0.6,13.3,1.2,20,1.9L1262.3,1110.6z M1082.9,1108.5l-0.3-4
		c6.6-0.6,13.4-1,20-1.5l0.3,4C1096.2,1107.5,1089.5,1108,1082.9,1108.5z M1222.5,1107.2c-6.6-0.4-13.3-0.8-19.9-1.1l0.2-4
		c6.6,0.3,13.4,0.6,20,1.1L1222.5,1107.2z M1122.8,1106.1l-0.2-4c6.6-0.3,13.4-0.5,20-0.6l0.1,4
		C1136.1,1105.6,1129.4,1105.8,1122.8,1106.1z M1182.7,1105.5c-6.6-0.1-13.3-0.2-20-0.2l0-4c6.7,0,13.4,0.1,20,0.2L1182.7,1105.5z"
		/>
</g>
<g>
	<path class="st0" d="M2910.2,4361.2c-1.1,0-2.3,0-3.4,0l0-4c6.6,0,13.3,0,20-0.1l0.1,4C2921.4,4361.2,2915.8,4361.2,2910.2,4361.2z
		 M2886.8,4360.9c-6.7-0.2-13.4-0.4-20-0.7l0.2-4c6.6,0.3,13.3,0.5,19.9,0.7L2886.8,4360.9z M2947,4360.5l-0.2-4
		c6.6-0.3,13.4-0.6,20-1l0.2,4C2960.4,4359.9,2953.7,4360.2,2947,4360.5z M2846.8,4359.1c-6.7-0.5-13.4-1-20-1.6l0.4-4
		c6.6,0.6,13.3,1.1,19.9,1.6L2846.8,4359.1z M2987.1,4358.1l-0.3-4c6.6-0.5,13.3-1.2,19.9-1.8l0.4,4
		C3000.5,4356.9,2993.8,4357.5,2987.1,4358.1z M2806.8,4355.5c-6.6-0.7-13.3-1.5-19.9-2.4l0.5-4c6.6,0.9,13.2,1.7,19.8,2.4
		L2806.8,4355.5z M3027.1,4353.9l-0.5-4c6.6-0.8,13.2-1.7,19.8-2.7l0.6,4C3040.4,4352.2,3033.7,4353.1,3027.1,4353.9z
		 M2767.1,4350.3c-6.6-1-13.2-2.1-19.8-3.3l0.7-3.9c6.5,1.1,13.1,2.2,19.7,3.2L2767.1,4350.3z M3066.8,4348.1l-0.7-3.9
		c6.5-1.1,13.2-2.3,19.7-3.5l0.7,3.9C3080,4345.8,3073.4,4347,3066.8,4348.1z M2727.6,4343.4c-6.5-1.3-13.1-2.7-19.6-4.1l0.9-3.9
		c6.5,1.4,13.1,2.8,19.5,4.1L2727.6,4343.4z M3106.3,4340.6l-0.8-3.9c6.5-1.4,13-2.8,19.5-4.4l0.9,3.9
		C3119.4,4337.7,3112.8,4339.2,3106.3,4340.6z M2688.4,4334.8c-6.5-1.6-13-3.2-19.4-4.9l1-3.9c6.4,1.7,12.9,3.3,19.4,4.9
		L2688.4,4334.8z M3145.3,4331.4l-1-3.9c6.4-1.7,12.9-3.4,19.3-5.2l1.1,3.9C3158.3,4328,3151.8,4329.8,3145.3,4331.4z
		 M2649.7,4324.6c-3.9-1.1-7.9-2.3-11.9-3.5c-2.4-0.7-4.9-1.5-7.3-2.2l1.2-3.8c2.4,0.7,4.8,1.5,7.3,2.2c4,1.2,8,2.4,11.9,3.5
		L2649.7,4324.6z M3184,4320.6l-1.2-3.8c6.3-1.9,12.7-3.9,19.1-6l1.2,3.8C3196.8,4316.7,3190.3,4318.7,3184,4320.6z M2611.4,4312.8
		c-6.3-2.1-12.7-4.3-19-6.5l1.3-3.8c6.3,2.2,12.6,4.4,18.9,6.5L2611.4,4312.8z M3222.1,4308.2l-1.3-3.8c6.3-2.2,12.6-4.5,18.8-6.8
		l1.4,3.7C3234.8,4303.7,3228.4,4306,3222.1,4308.2z M2573.6,4299.4c-6.3-2.4-12.5-4.8-18.7-7.3l1.5-3.7c6.1,2.5,12.4,4.9,18.6,7.2
		L2573.6,4299.4z M3259.7,4294.2l-1.5-3.7c6.1-2.4,12.4-5,18.5-7.6l1.6,3.7C3272.1,4289.1,3265.9,4291.7,3259.7,4294.2z
		 M2536.4,4284.5c-6.1-2.6-12.3-5.3-18.3-8.1l1.6-3.6c6,2.7,12.2,5.4,18.3,8L2536.4,4284.5z M3296.6,4278.6l-1.6-3.7
		c6.1-2.7,12.2-5.5,18.1-8.3l1.7,3.6C3308.8,4273,3302.7,4275.9,3296.6,4278.6z M2499.9,4268c-6-2.9-12-5.8-18-8.8l1.8-3.6
		c5.9,3,12,5.9,17.9,8.8L2499.9,4268z M3332.9,4261.4l-1.8-3.6c5.9-2.9,11.9-6,17.8-9.1l1.9,3.5
		C3344.8,4255.4,3338.8,4258.5,3332.9,4261.4z M2464.1,4249.9c-5.9-3.1-11.8-6.3-17.6-9.6l1.9-3.5c5.8,3.2,11.7,6.4,17.5,9.5
		L2464.1,4249.9z M3368.4,4242.8l-1.9-3.5c5.8-3.2,11.6-6.5,17.4-9.8l2,3.5C3380,4236.3,3374.2,4239.6,3368.4,4242.8z
		 M2429.1,4230.4c-5.7-3.4-11.5-6.8-17.2-10.3l2.1-3.4c5.7,3.5,11.4,6.9,17.1,10.3L2429.1,4230.4z M3403,4222.7l-2.1-3.4
		c5.6-3.4,11.3-7,16.9-10.5l2.1,3.4C3414.4,4215.7,3408.7,4219.3,3403,4222.7z M2395,4209.4c-5.6-3.6-11.2-7.3-16.7-11l2.2-3.3
		c5.5,3.7,11.1,7.4,16.7,11L2395,4209.4z M3436.8,4201.2l-2.2-3.3c5.5-3.7,11-7.4,16.5-11.2l2.3,3.3
		C3447.9,4193.7,3442.3,4197.5,3436.8,4201.2z M2361.8,4187c-5.4-3.8-10.8-7.8-16.2-11.7l2.4-3.2c5.3,3.9,10.7,7.9,16.1,11.7
		L2361.8,4187z M3469.6,4178.3l-2.4-3.2c5.3-3.9,10.7-7.9,16-11.9l2.4,3.2C3480.4,4170.4,3475,4174.4,3469.6,4178.3z M2329.7,4163.2
		c-5.2-4-10.5-8.2-15.7-12.4l2.5-3.1c5.1,4.2,10.4,8.3,15.6,12.3L2329.7,4163.2z M3501.5,4154l-2.5-3.1c5.2-4.1,10.4-8.4,15.5-12.6
		l2.6,3.1C3511.9,4145.6,3506.7,4149.9,3501.5,4154z M2298.6,4138.1c-5.1-4.3-10.2-8.7-15.1-13l2.6-3c5,4.4,10,8.7,15.1,13
		L2298.6,4138.1z M3532.3,4128.4l-2.6-3c5-4.3,10-8.8,14.9-13.2l2.7,3C3542.3,4119.6,3537.3,4124.1,3532.3,4128.4z M2268.6,4111.7
		c-4.9-4.5-9.8-9.1-14.6-13.7l2.8-2.9c4.8,4.6,9.7,9.1,14.5,13.6L2268.6,4111.7z M3561.9,4101.6l-2.7-2.9c4.8-4.5,9.6-9.2,14.3-13.8
		l2.8,2.9C3571.6,4092.4,3566.7,4097.1,3561.9,4101.6z M2239.7,4084.1c-4.7-4.7-9.4-9.5-14-14.3l2.9-2.8c4.6,4.8,9.3,9.6,13.9,14.2
		L2239.7,4084.1z M3590.4,4073.5l-2.9-2.8c4.6-4.7,9.2-9.6,13.7-14.4l2.9,2.7C3599.7,4063.9,3595.1,4068.8,3590.4,4073.5z
		 M2212,4055.2c-4.5-4.9-9-9.9-13.4-14.9l3-2.6c4.4,4.9,8.8,9.9,13.3,14.8L2212,4055.2z M3617.7,4044.3l-3-2.7
		c4.4-4.9,8.8-10,13.1-15l3,2.6C3626.6,4034.3,3622.2,4039.3,3617.7,4044.3z M2185.6,4025.2c-4.3-5.1-8.6-10.3-12.8-15.4l3.1-2.5
		c4.2,5.2,8.4,10.3,12.7,15.4L2185.6,4025.2z M3643.7,4013.9l-3.1-2.5c4.2-5.1,8.4-10.3,12.5-15.5l3.1,2.5
		C3652.1,4003.6,3647.9,4008.8,3643.7,4013.9z M2160.4,3994.1c-4.1-5.3-8.1-10.6-12.1-16l3.2-2.4c3.9,5.3,8,10.7,12,15.9
		L2160.4,3994.1z M3668.4,3982.5l-3.2-2.4c4-5.3,7.9-10.7,11.8-16l3.2,2.3C3676.4,3971.8,3672.4,3977.2,3668.4,3982.5z
		 M2136.5,3961.9c-3.9-5.4-7.7-11-11.4-16.5l3.3-2.2c3.7,5.5,7.5,11,11.4,16.4L2136.5,3961.9z M3691.7,3950.1l-3.3-2.3
		c3.8-5.5,7.5-11,11.1-16.6l3.3,2.2C3699.3,3939,3695.5,3944.6,3691.7,3950.1z M2114,3928.8c-3.6-5.6-7.2-11.3-10.7-16.9l3.4-2.1
		c3.5,5.6,7.1,11.3,10.7,16.8L2114,3928.8z M3713.7,3916.6l-3.4-2.1c3.5-5.6,7-11.3,10.4-17l3.4,2.1
		C3720.8,3905.2,3717.3,3911,3713.7,3916.6z M2093,3894.7c-3.4-5.7-6.7-11.6-10-17.4l3.5-2c3.2,5.8,6.6,11.6,10,17.3L2093,3894.7z
		 M3734.3,3882.2l-3.5-2c3.3-5.8,6.5-11.6,9.7-17.4l3.5,1.9C3740.9,3870.5,3737.6,3876.4,3734.3,3882.2z M2073.3,3859.8
		c-3.1-5.9-6.3-11.8-9.3-17.8l3.6-1.8c3,5.9,6.1,11.8,9.2,17.7L2073.3,3859.8z M3753.4,3846.9l-3.6-1.8c3-5.9,6-11.9,8.9-17.8
		l3.6,1.8C3759.4,3835,3756.4,3841,3753.4,3846.9z M2055.2,3824.1c-2.9-6-5.8-12.1-8.5-18.1l3.6-1.7c2.7,6,5.6,12.1,8.5,18.1
		L2055.2,3824.1z M3770.9,3810.9l-3.6-1.7c2.8-6,5.5-12.1,8.2-18.2l3.7,1.6C3776.5,3798.7,3773.7,3804.9,3770.9,3810.9z
		 M2038.5,3787.6c-2.6-6.1-5.2-12.3-7.7-18.5l3.7-1.5c2.5,6.1,5.1,12.3,7.7,18.4L2038.5,3787.6z M3787,3774.2l-3.7-1.5
		c2.5-6.1,5-12.4,7.4-18.5l3.7,1.4C3792,3761.8,3789.5,3768,3787,3774.2z M2023.4,3750.4c-2.4-6.2-4.7-12.6-7-18.8l3.8-1.3
		c2.2,6.2,4.6,12.5,6.9,18.7L2023.4,3750.4z M3801.4,3736.8l-3.8-1.4c2.3-6.2,4.5-12.6,6.6-18.8l3.8,1.3
		C3805.9,3724.2,3803.7,3730.6,3801.4,3736.8z M2009.9,3712.7c-2.1-6.3-4.2-12.8-6.2-19.1l3.8-1.2c2,6.3,4,12.7,6.1,19
		L2009.9,3712.7z M3814.3,3698.9l-3.8-1.2c1.5-4.8,3-9.7,4.5-14.5c0.5-1.5,0.9-3,1.3-4.5l3.8,1.1c-0.4,1.5-0.9,3-1.4,4.6
		C3817.3,3689.1,3815.8,3694.1,3814.3,3698.9z M1998,3674.4c-1.8-6.4-3.6-12.9-5.4-19.3l3.9-1c1.7,6.4,3.5,12.9,5.3,19.3
		L1998,3674.4z M3825.6,3660.4l-3.9-1c1.7-6.4,3.4-12.9,5-19.3l3.9,1C3829,3647.5,3827.3,3654,3825.6,3660.4z M1987.6,3635.6
		c-1.6-6.5-3.1-13-4.5-19.5l3.9-0.9c1.4,6.5,3,13,4.5,19.5L1987.6,3635.6z M3835.3,3621.5l-3.9-0.9c1.5-6.5,2.9-13,4.2-19.5l3.9,0.8
		C3838.2,3608.5,3836.8,3615.1,3835.3,3621.5z M1979,3596.4c-1.3-6.5-2.5-13.2-3.7-19.7l3.9-0.7c1.2,6.5,2.4,13.1,3.7,19.6
		L1979,3596.4z M3843.4,3582.3l-3.9-0.7c1.2-6.5,2.3-13.1,3.4-19.7l3.9,0.6C3845.7,3569.1,3844.6,3575.7,3843.4,3582.3z
		 M1972,3556.9c-1-6.6-2-13.3-2.9-19.9l4-0.5c0.9,6.6,1.8,13.2,2.9,19.8L1972,3556.9z M3849.8,3542.7l-4-0.6
		c0.9-6.6,1.8-13.2,2.6-19.8l4,0.5C3851.6,3529.4,3850.7,3536.1,3849.8,3542.7z M1966.7,3517.1c-0.7-6.6-1.4-13.4-2-20l4-0.4
		c0.6,6.6,1.3,13.3,2,19.9L1966.7,3517.1z M3854.5,3502.9l-4-0.4c0.6-6.6,1.2-13.3,1.7-19.9l4,0.3
		C3855.7,3489.5,3855.1,3496.3,3854.5,3502.9z M1963.1,3477.1c-0.5-6.6-0.8-13.4-1.2-20.1l4-0.2c0.3,6.6,0.7,13.4,1.2,20
		L1963.1,3477.1z M3857.5,3462.9l-4-0.2c0.4-6.6,0.7-13.3,0.9-19.9l4,0.1C3858.2,3449.5,3857.9,3456.3,3857.5,3462.9z
		 M1961.2,3436.9c-0.2-6.7-0.3-13.4-0.3-20.1l4,0c0,6.6,0.1,13.4,0.3,20L1961.2,3436.9z M3858.8,3422.8l-4,0c0-3.7,0.1-7.3,0.1-11
		c0-3,0-6,0-9l4,0c0,3,0,6,0,9C3858.9,3415.5,3858.9,3419.2,3858.8,3422.8z M1965,3396.8l-4-0.1c0.1-6.7,0.3-13.4,0.5-20l4,0.2
		C1965.3,3383.5,1965.1,3390.2,1965,3396.8z M3854.4,3382.8c-0.2-6.6-0.5-13.4-0.8-20l4-0.2c0.3,6.7,0.6,13.4,0.8,20.1
		L3854.4,3382.8z M1966.5,3356.9l-4-0.2c0.4-6.6,0.9-13.4,1.4-20l4,0.3C1967.4,3343.6,1966.9,3350.3,1966.5,3356.9z M3852.4,3342.8
		c-0.5-6.6-1.1-13.3-1.7-19.9l4-0.4c0.6,6.6,1.2,13.4,1.7,20L3852.4,3342.8z M1969.7,3317.2l-4-0.4c0.7-6.6,1.4-13.3,2.2-19.9l4,0.5
		C1971.2,3303.9,1970.4,3310.6,1969.7,3317.2z M3848.6,3303c-0.8-6.6-1.6-13.3-2.5-19.8l4-0.5c0.9,6.6,1.8,13.3,2.5,19.9
		L3848.6,3303z M1974.6,3277.5l-4-0.6c1-6.6,2-13.3,3.1-19.8l3.9,0.7C1976.6,3264.3,1975.6,3271,1974.6,3277.5z M3843.1,3263.4
		c-1.1-6.6-2.2-13.2-3.4-19.7l3.9-0.7c1.2,6.5,2.3,13.2,3.4,19.8L3843.1,3263.4z M1981.2,3238.2l-3.9-0.7c1.2-6.5,2.6-13.2,3.9-19.7
		l3.9,0.8C1983.8,3225.1,1982.4,3231.6,1981.2,3238.2z M3835.9,3224.1c-1.3-6.5-2.7-13.1-4.2-19.5l3.9-0.9
		c1.5,6.5,2.9,13.1,4.2,19.6L3835.9,3224.1z M1989.4,3199.1l-3.9-0.9c1.5-6.5,3.1-13,4.7-19.5l3.9,1
		C1992.5,3186.1,1990.9,3192.6,1989.4,3199.1z M3827.1,3185.1c-1.6-6.4-3.3-12.9-5-19.3l3.9-1c1.7,6.4,3.4,13,5,19.4L3827.1,3185.1z
		 M1999.2,3160.4l-3.8-1.2l2.7-8.9c0.4-1.2,0.7-2.5,1.1-3.7c0.6-2.2,1.2-4.3,1.9-6.5l3.8,1.1c-0.6,2.2-1.2,4.3-1.9,6.5
		c-0.4,1.3-0.7,2.5-1.1,3.8L1999.2,3160.4z M3816.7,3146.5c-1.9-6.3-3.8-12.8-5.8-19.1l3.8-1.2c2,6.4,4,12.8,5.9,19.2L3816.7,3146.5
		z M2005.2,3139.8l-3.8-1.2c0.5-1.7,1-3.3,1.6-5c0.4-1.3,0.8-2.5,1.2-3.8l3.1-10.4l3.8,1.1l-3.1,10.4c-0.4,1.3-0.8,2.5-1.2,3.8
		C2006.2,3136.5,2005.7,3138.1,2005.2,3139.8z M3804.6,3108.5c-2.1-6.3-4.4-12.6-6.6-18.8l3.8-1.4c2.3,6.3,4.5,12.6,6.7,18.9
		L3804.6,3108.5z M2016.8,3101.5l-3.8-1.1l5.7-19.2l3.8,1.1L2016.8,3101.5z M3790.9,3070.9c-2.4-6.2-4.9-12.4-7.4-18.5l3.7-1.5
		c2.5,6.1,5,12.4,7.5,18.6L3790.9,3070.9z M2028.3,3063.2l-3.8-1.1l5.7-19.2l3.8,1.1L2028.3,3063.2z M3775.7,3034
		c-2.7-6.1-5.4-12.2-8.2-18.2l3.6-1.7c2.8,6,5.6,12.2,8.2,18.3L3775.7,3034z M2039.8,3024.8l-3.8-1.1l5.7-19.2l3.8,1.1
		L2039.8,3024.8z M3758.9,2997.8c-2.9-6-5.9-12-8.9-17.8l3.6-1.8c3,5.9,6.1,11.9,9,17.9L3758.9,2997.8z M2051.2,2986.5l-3.8-1.1
		l5.7-19.2l3.8,1.1L2051.2,2986.5z M3740.7,2962.3c-3.2-5.8-6.4-11.7-9.7-17.4l3.5-2c3.3,5.8,6.6,11.7,9.7,17.5L3740.7,2962.3z
		 M2062.7,2948.2l-3.8-1.1l5.7-19.2l3.8,1.1L2062.7,2948.2z M3720.9,2927.6c-3.4-5.7-6.9-11.4-10.4-17l3.4-2.1
		c3.5,5.6,7,11.4,10.4,17.1L3720.9,2927.6z M2074.2,2909.9l-3.8-1.1l5.7-19.2l3.8,1.1L2074.2,2909.9z M3699.8,2893.8
		c-3.6-5.5-7.4-11.1-11.1-16.6l3.3-2.3c3.8,5.5,7.5,11.1,11.2,16.6L3699.8,2893.8z M2085.6,2871.6l-3.8-1.1l5.7-19.2l3.8,1.1
		L2085.6,2871.6z M3677.2,2860.9c-3.9-5.4-7.8-10.8-11.8-16.1l3.2-2.4c4,5.3,8,10.7,11.8,16.1L3677.2,2860.9z M2097.1,2833.3
		l-3.8-1.1l5.7-19.2l3.8,1.1L2097.1,2833.3z M3653.3,2829c-4.1-5.2-8.3-10.4-12.5-15.6l3.1-2.5c4.2,5.1,8.4,10.4,12.5,15.6
		L3653.3,2829z M3628.1,2798.2c-4.3-5-8.7-10.1-13.1-15l3-2.7c4.4,5,8.8,10,13.1,15.1L3628.1,2798.2z M2108.6,2794.9l-3.8-1.1
		l5.7-19.2l3.8,1.1L2108.6,2794.9z M3601.6,2768.4c-4.5-4.9-9.1-9.7-13.7-14.5l2.9-2.8c4.6,4.8,9.2,9.6,13.8,14.5L3601.6,2768.4z
		 M2120.1,2756.6l-3.8-1.1l5.7-19.2l3.8,1.1L2120.1,2756.6z M3573.9,2739.8c-4.7-4.7-9.5-9.3-14.3-13.9l2.8-2.9
		c4.8,4.6,9.6,9.2,14.4,13.9L3573.9,2739.8z M2131.5,2718.3l-3.8-1.1l5.7-19.2l3.8,1.1L2131.5,2718.3z M3545,2712.4
		c-4.9-4.4-9.9-8.9-14.9-13.2l2.6-3c5,4.4,10,8.8,14.9,13.3L3545,2712.4z M3514.9,2686.3c-5.1-4.2-10.3-8.5-15.4-12.6l2.5-3.1
		c5.2,4.1,10.4,8.4,15.5,12.6L3514.9,2686.3z M2143,2680l-3.8-1.1l5.7-19.2l3.8,1.1L2143,2680z M3483.8,2661.4
		c-5.2-4-10.6-8-15.9-11.9l2.4-3.2c5.4,3.9,10.7,7.9,16,12L3483.8,2661.4z M2154.5,2641.7l-3.8-1.1l5.7-19.2l3.8,1.1L2154.5,2641.7z
		 M3451.7,2637.9c-5.4-3.8-10.9-7.6-16.4-11.2l2.2-3.3c5.5,3.7,11.1,7.5,16.5,11.3L3451.7,2637.9z M3418.6,2615.8
		c-5.6-3.6-11.3-7.1-16.9-10.6l2.1-3.4c5.7,3.5,11.4,7,17,10.6L3418.6,2615.8z M2165.9,2603.3l-3.8-1.1l5.7-19.2l3.8,1.1
		L2165.9,2603.3z M3384.5,2595c-5.7-3.3-11.6-6.6-17.4-9.8l1.9-3.5c5.8,3.2,11.7,6.5,17.4,9.9L3384.5,2595z M3349.6,2575.8
		c-5.9-3.1-11.8-6.1-17.8-9.1l1.8-3.6c6,3,12,6,17.8,9.1L3349.6,2575.8z M2177.4,2565l-3.8-1.1l5.7-19.2l3.8,1.1L2177.4,2565z
		 M3313.9,2558c-6-2.8-12.1-5.6-18.1-8.3l1.6-3.7c6.1,2.7,12.2,5.5,18.2,8.4L3313.9,2558z M3277.4,2541.7
		c-6.1-2.6-12.3-5.1-18.5-7.5l1.5-3.7c6.2,2.4,12.4,5,18.5,7.6L3277.4,2541.7z M3240.3,2527c-6.2-2.3-12.5-4.6-18.8-6.8l1.3-3.8
		c6.3,2.2,12.6,4.5,18.9,6.8L3240.3,2527z M2188.9,2526.7l-3.8-1.1l5.7-19.2l3.8,1.1L2188.9,2526.7z M3202.7,2513.9
		c-6.3-2-12.7-4.1-19-6l1.2-3.8c6.4,1.9,12.8,3.9,19.1,6L3202.7,2513.9z M3164.5,2502.4c-4.3-1.2-8.8-2.4-13.8-3.7l-0.2-0.1
		c-1.9-0.7-3.6-1.4-5.3-1.9l1.3-3.8c1.7,0.6,3.4,1.2,5.3,2c4.9,1.3,9.4,2.5,13.7,3.7L3164.5,2502.4z M3126.2,2490.9l-19.2-5.7
		l1.1-3.8l19.2,5.7L3126.2,2490.9z M2200.4,2488.4l-3.8-1.1l5.7-19.2l3.8,1.1L2200.4,2488.4z M3087.8,2479.4l-19.2-5.7l1.1-3.8
		l19.2,5.7L3087.8,2479.4z M3049.5,2467.9l-19.2-5.7l1.1-3.8l19.2,5.7L3049.5,2467.9z M3011.2,2456.4l-19.2-5.7l1.1-3.8l19.2,5.7
		L3011.2,2456.4z M2211.8,2450.1l-3.8-1.1l5.7-19.2l3.8,1.1L2211.8,2450.1z M2972.9,2445l-19.2-5.7l1.1-3.8l19.2,5.7L2972.9,2445z
		 M2934.6,2433.5l-19.2-5.7l1.1-3.8l19.2,5.7L2934.6,2433.5z M2896.3,2422l-19.2-5.7l1.1-3.8l19.2,5.7L2896.3,2422z M2223.3,2411.7
		l-3.8-1.1l5.7-19.2l3.8,1.1L2223.3,2411.7z M2857.9,2410.6l-19.2-5.7l1.1-3.8l19.2,5.7L2857.9,2410.6z M2819.6,2399.1l-19.2-5.7
		l1.1-3.8l19.2,5.7L2819.6,2399.1z M2781.3,2387.6l-19.2-5.7l1.1-3.8l19.2,5.7L2781.3,2387.6z M2743,2376.1l-19.2-5.7l1.1-3.8
		l19.2,5.7L2743,2376.1z M2234.8,2373.4l-3.8-1.1l5.1-17c0.2-0.7,0.5-1.5,0.7-2.2l3.8,1.2c-0.2,0.7-0.4,1.4-0.7,2.1L2234.8,2373.4z
		 M2704.7,2364.7l-19.2-5.7l1.1-3.8l19.2,5.7L2704.7,2364.7z M2666.3,2353.2l-19.2-5.7l1.1-3.8l19.2,5.7L2666.3,2353.2z
		 M2628,2341.7l-19.2-5.7l1.1-3.8l19.2,5.7L2628,2341.7z M2247.9,2336.1l-3.6-1.8c3-6,6.6-11.9,10.5-17.3l3.2,2.3
		C2254.3,2324.6,2250.9,2330.2,2247.9,2336.1z M2589.7,2330.3l-19.2-5.7l1.1-3.8l19.2,5.7L2589.7,2330.3z M2551.4,2318.8l-19.2-5.7
		l1.1-3.8l19.2,5.7L2551.4,2318.8z M2513.1,2307.3l-19.2-5.7l1.1-3.8l19.2,5.7L2513.1,2307.3z M2270.9,2304.3l-2.8-2.8
		c4.8-4.8,9.9-9.2,15.4-13.2l2.4,3.2C2280.5,2295.4,2275.5,2299.7,2270.9,2304.3z M2474.7,2295.8l-19.2-5.7l1.1-3.8l19.2,5.7
		L2474.7,2295.8z M2436.4,2284.4l-19.2-5.7l1.1-3.8l19.2,5.7L2436.4,2284.4z M2302.5,2281.1l-1.8-3.6c6-3.1,12.3-5.8,18.7-7.9
		l1.3,3.8C2314.4,2275.5,2308.3,2278.1,2302.5,2281.1z M2398.1,2272.9l-2.1-0.6c-5.6-1.7-11.3-3-17.1-3.8l0.6-4
		c5.9,0.9,11.8,2.2,17.6,4l2.1,0.6L2398.1,2272.9z M2339.7,2268.7l-0.7-3.9c6.7-1.1,13.5-1.7,20.2-1.8l0,4
		C2352.8,2267.1,2346.2,2267.6,2339.7,2268.7z"/>
</g>
<g>
	<path class="st0" d="M3966.4,1987.1l0-4c6.6,0,13.4-0.1,20-0.3l0.1,4C3979.8,1987,3973,1987.1,3966.4,1987.1z M3946.3,1987
		c-6.7-0.1-13.4-0.3-20-0.5l0.2-4c6.6,0.3,13.3,0.4,20,0.5L3946.3,1987z M4006.4,1986.1l-0.2-4c6.6-0.3,13.3-0.7,19.9-1.1l0.3,4
		C4019.8,1985.4,4013.1,1985.8,4006.4,1986.1z M3906.2,1985.5c-6.6-0.4-13.4-0.9-20-1.4l0.3-4c6.6,0.5,13.3,1,19.9,1.4
		L3906.2,1985.5z M4046.4,1983.4l-0.4-4c6.6-0.6,13.3-1.2,19.9-2l0.4,4C4059.8,1982.1,4053.1,1982.8,4046.4,1983.4z M3866.3,1982.3
		c-6.6-0.7-13.3-1.4-19.9-2.2l0.5-4c6.6,0.8,13.3,1.6,19.8,2.2L3866.3,1982.3z M4086.3,1979l-0.5-4c6.6-0.9,13.2-1.8,19.8-2.8l0.6,4
		C4099.6,1977.2,4092.9,1978.1,4086.3,1979z M3826.5,1977.4c-6.6-1-13.3-2-19.8-3.1l0.7-3.9c6.5,1.1,13.2,2.1,19.7,3.1
		L3826.5,1977.4z M4125.9,1973l-0.7-3.9c6.5-1.1,13.1-2.4,19.6-3.6l0.8,3.9C4139.1,1970.6,4132.5,1971.8,4125.9,1973z
		 M3786.9,1970.8c-6.5-1.2-13.2-2.5-19.7-3.9l0.8-3.9c6.5,1.4,13.1,2.7,19.6,3.9L3786.9,1970.8z M4165.2,1965.2l-0.9-3.9
		c6.5-1.4,13-2.9,19.4-4.5l0.9,3.9C4178.3,1962.3,4171.7,1963.8,4165.2,1965.2z M3747.7,1962.5c-6.5-1.5-13-3.1-19.5-4.8l1-3.9
		c6.4,1.6,13,3.2,19.4,4.7L3747.7,1962.5z M4204.2,1955.9l-1-3.9c6.4-1.7,12.9-3.4,19.2-5.3l1.1,3.8
		C4217.1,1952.4,4210.6,1954.2,4204.2,1955.9z M3708.8,1952.6c-6.4-1.8-12.9-3.7-19.3-5.6l1.2-3.8c6.4,1.9,12.8,3.8,19.2,5.6
		L3708.8,1952.6z M4242.7,1944.9l-1.2-3.8c6.3-1.9,12.7-4,19-6.1l1.3,3.8C4255.5,1940.9,4249.1,1943,4242.7,1944.9z M3670.4,1941
		c-6.3-2.1-12.7-4.2-19-6.4l1.3-3.8c6.3,2.2,12.6,4.3,18.9,6.4L3670.4,1941z M4280.7,1932.3l-1.3-3.8c6.2-2.2,12.5-4.5,18.7-6.9
		l1.4,3.7C4293.3,1927.8,4287,1930.1,4280.7,1932.3z M3632.5,1927.8c-6.2-2.3-12.5-4.7-18.7-7.2l1.5-3.7c6.2,2.4,12.4,4.9,18.6,7.2
		L3632.5,1927.8z M4318.2,1918.2l-1.5-3.7c6.1-2.5,12.3-5,18.4-7.6l1.6,3.7C4330.6,1913.1,4324.4,1915.7,4318.2,1918.2z
		 M3595.2,1913c-6.1-2.6-12.3-5.3-18.4-8l1.6-3.7c6.1,2.7,12.2,5.4,18.3,8L3595.2,1913z M4355,1902.4l-1.6-3.6
		c6-2.7,12.1-5.6,18.1-8.4l1.7,3.6C4367.2,1896.9,4361.1,1899.7,4355,1902.4z M3558.6,1896.7c-6-2.8-12.1-5.8-18.1-8.8l1.8-3.6
		c5.9,3,12,5.9,18,8.7L3558.6,1896.7z M4391.1,1885.2l-1.8-3.6c5.9-3,11.9-6.1,17.7-9.2l1.9,3.5
		C4403,1879.1,4397.1,1882.2,4391.1,1885.2z M3522.6,1878.8c-5.9-3.1-11.8-6.3-17.7-9.5l1.9-3.5c5.8,3.2,11.7,6.4,17.6,9.5
		L3522.6,1878.8z M4426.5,1866.4l-2-3.5c5.8-3.2,11.6-6.6,17.3-9.9l2,3.4C4438.1,1859.8,4432.3,1863.2,4426.5,1866.4z
		 M3487.5,1859.3c-5.8-3.3-11.6-6.8-17.3-10.3l2.1-3.4c5.7,3.5,11.4,6.9,17.2,10.2L3487.5,1859.3z M4461,1846.1l-2.1-3.4
		c5.6-3.5,11.3-7,16.9-10.6l2.2,3.4C4472.3,1839.1,4466.7,1842.7,4461,1846.1z M3453.2,1838.5c-5.6-3.6-11.3-7.3-16.8-11l2.2-3.3
		c5.5,3.7,11.2,7.4,16.7,10.9L3453.2,1838.5z M4494.6,1824.4l-2.2-3.3c5.5-3.7,11-7.5,16.4-11.3l2.3,3.3
		C4505.6,1816.9,4500.1,1820.7,4494.6,1824.4z M3419.8,1816.1c-1.3-0.9-2.5-1.8-3.8-2.6c-4.2-3-8.4-6-12.6-9l2.4-3.2
		c4.1,3,8.3,6,12.5,9c1.3,0.9,2.5,1.8,3.8,2.6L3419.8,1816.1z M4527.3,1801.4l-2.4-3.2c5.3-3.9,10.7-8,15.9-12l2.4,3.2
		C4538,1793.3,4532.6,1797.4,4527.3,1801.4z M3387.5,1792.5c-5.3-4-10.6-8.2-15.8-12.3l2.5-3.1c5.2,4.1,10.5,8.3,15.7,12.3
		L3387.5,1792.5z M4558.9,1776.9l-2.5-3.1c5.1-4.1,10.3-8.4,15.4-12.7l2.6,3.1C4569.2,1768.5,4564.1,1772.7,4558.9,1776.9z
		 M3356.1,1767.6c-5.1-4.3-10.3-8.6-15.3-13l2.6-3c5,4.3,10.1,8.7,15.2,12.9L3356.1,1767.6z M4589.5,1751.1l-2.6-3
		c5-4.4,9.9-8.8,14.8-13.3l2.7,2.9C4599.4,1742.3,4594.4,1746.8,4589.5,1751.1z M3325.8,1741.3c-4.9-4.5-9.9-9-14.7-13.6l2.7-2.9
		c4.8,4.5,9.7,9.1,14.7,13.5L3325.8,1741.3z M4618.9,1724.1l-2.8-2.9c4.8-4.6,9.6-9.3,14.3-14l2.8,2.8
		C4628.5,1714.8,4623.7,1719.5,4618.9,1724.1z M3296.7,1713.8c-4.7-4.7-9.5-9.4-14.1-14.2l2.9-2.8c4.6,4.7,9.4,9.5,14.1,14.1
		L3296.7,1713.8z M4647.2,1695.8l-2.9-2.8c4.6-4.8,9.2-9.7,13.7-14.6l2.9,2.7C4656.4,1686.1,4651.8,1691,4647.2,1695.8z
		 M3268.7,1685.2c-4.5-4.8-9.1-9.8-13.5-14.7l3-2.7c4.4,4.9,8.9,9.9,13.4,14.7L3268.7,1685.2z M4674.3,1666.3l-3-2.6
		c4.4-5,8.8-10.1,13-15.1l3.1,2.6C4683.1,1656.2,4678.7,1661.3,4674.3,1666.3z M3242.1,1655.4c-4.3-5-8.6-10.2-12.8-15.3l3.1-2.5
		c4.2,5.1,8.5,10.2,12.8,15.2L3242.1,1655.4z M4700.2,1635.6l-3.1-2.5c4.2-5.1,8.3-10.4,12.4-15.6l3.2,2.5
		C4708.5,1625.2,4704.4,1630.5,4700.2,1635.6z M3216.7,1624.5c-4.1-5.2-8.2-10.5-12.2-15.8l3.2-2.4c4,5.3,8.1,10.6,12.1,15.8
		L3216.7,1624.5z M4724.7,1604l-3.2-2.4c3.9-5.3,7.9-10.8,11.7-16.1l3.3,2.3C4732.7,1593.2,4728.7,1598.6,4724.7,1604z
		 M3192.7,1592.6c-3.9-5.4-7.8-10.9-11.5-16.4l3.3-2.3c3.7,5.4,7.6,10.9,11.5,16.3L3192.7,1592.6z M4747.9,1571.3l-3.3-2.2
		c2.5-3.7,5.1-7.6,8-12l0.1-0.2c1.3-1.5,2.4-2.9,3.5-4.3l3.2,2.4c-1.1,1.4-2.2,2.8-3.5,4.4C4753,1563.7,4750.4,1567.6,4747.9,1571.3
		z M3170,1559.6c-3.7-5.6-7.3-11.2-10.8-16.8l3.4-2.1c3.5,5.6,7.1,11.2,10.8,16.8L3170,1559.6z M4771,1538.7l-3.3-2.3l11.5-16.3
		l3.3,2.3L4771,1538.7z M3148.8,1525.7c-3.4-5.7-6.8-11.5-10.1-17.3l3.5-2c3.3,5.7,6.7,11.5,10,17.2L3148.8,1525.7z M4794,1506
		l-3.3-2.3l11.5-16.3l3.3,2.3L4794,1506z M3129,1490.9c-3.2-5.8-6.3-11.8-9.3-17.7l3.6-1.8c3,5.9,6.2,11.8,9.3,17.6L3129,1490.9z
		 M4817.1,1473.3l-3.3-2.3l11.5-16.3l3.3,2.3L4817.1,1473.3z M3110.6,1455.3c-2.9-6-5.8-12.1-8.6-18.1l3.6-1.7
		c2.8,6,5.7,12.1,8.6,18L3110.6,1455.3z M4840.2,1440.6l-3.3-2.3l11.5-16.3l3.3,2.3L4840.2,1440.6z M3093.8,1419
		c-2.7-6.1-5.3-12.3-7.8-18.4l3.7-1.5c2.5,6.1,5.1,12.3,7.8,18.4L3093.8,1419z M4863.2,1407.9l-3.3-2.3l11.5-16.3l3.3,2.3
		L4863.2,1407.9z M3078.6,1382c-2.4-6.2-4.8-12.5-7-18.7l3.8-1.4c2.3,6.2,4.6,12.5,7,18.7L3078.6,1382z M4886.3,1375.2l-3.3-2.3
		l11.5-16.3l3.3,2.3L4886.3,1375.2z M3064.9,1344.3c-2.1-6.3-4.2-12.7-6.2-19l3.8-1.2c2,6.3,4.1,12.7,6.2,19L3064.9,1344.3z
		 M4909.3,1342.5l-3.3-2.3l11.5-16.3l3.3,2.3L4909.3,1342.5z M4932.4,1309.9l-3.3-2.3l11.5-16.3l3.3,2.3L4932.4,1309.9z
		 M3052.8,1306.1c-1.9-6.4-3.7-12.9-5.4-19.3l3.9-1c1.7,6.4,3.6,12.8,5.4,19.2L3052.8,1306.1z M4955.5,1277.2l-3.3-2.3l11.5-16.3
		l3.3,2.3L4955.5,1277.2z M3042.3,1267.5c-1.6-6.4-3.2-13-4.6-19.5l3.9-0.9c1.5,6.5,3,13,4.6,19.4L3042.3,1267.5z M4978.5,1244.5
		l-3.3-2.3l11.5-16.3l3.3,2.3L4978.5,1244.5z M3033.5,1228.4c-1.3-6.5-2.6-13.1-3.8-19.7l3.9-0.7c1.2,6.5,2.5,13.1,3.8,19.6
		L3033.5,1228.4z M5001.6,1211.8l-3.3-2.3l11.5-16.3l3.3,2.3L5001.6,1211.8z M3026.3,1189c-1.1-6.6-2.1-13.2-3-19.8l4-0.6
		c0.9,6.6,1.9,13.2,3,19.7L3026.3,1189z M5024.6,1179.1l-3.3-2.3l11.5-16.3l3.3,2.3L5024.6,1179.1z M3020.8,1149.3
		c-0.8-6.6-1.5-13.3-2.1-19.9l4-0.4c0.6,6.6,1.4,13.3,2.1,19.8L3020.8,1149.3z M5047.7,1146.4l-3.3-2.3l11.5-16.3l3.3,2.3
		L5047.7,1146.4z M5070.8,1113.8l-3.3-2.3l11.5-16.3l3.3,2.3L5070.8,1113.8z M3016.9,1109.4c-0.5-6.6-0.9-13.4-1.3-20l4-0.2
		c0.4,6.6,0.8,13.3,1.3,19.9L3016.9,1109.4z M5093.8,1081.1l-3.3-2.3l11.5-16.3l3.3,2.3L5093.8,1081.1z M3014.7,1069.3
		c-0.2-6.6-0.4-13.4-0.5-20l4,0c0.1,6.6,0.2,13.3,0.5,20L3014.7,1069.3z M5116.9,1048.4l-3.3-2.3l11.5-16.3l3.3,2.3L5116.9,1048.4z
		 M3018.2,1029.3l-4,0c0.1-6.7,0.2-13.4,0.4-20l4,0.1C3018.4,1015.9,3018.3,1022.7,3018.2,1029.3z M5139.9,1015.7l-3.3-2.3
		l11.5-16.3l3.3,2.3L5139.9,1015.7z M3019.4,989.4l-4-0.2c0.3-6.6,0.8-13.4,1.2-20l4,0.3C3020.1,976.1,3019.7,982.8,3019.4,989.4z
		 M5163,983l-3.3-2.3l11.5-16.3l3.3,2.3L5163,983z M5186.1,950.3l-3.3-2.3l11.5-16.3l3.3,2.3L5186.1,950.3z M3022.3,949.6l-4-0.4
		c0.6-6.6,1.3-13.3,2.1-19.9l4,0.5C3023.6,936.3,3022.9,943,3022.3,949.6z M5209.1,917.7l-3.3-2.3l1.3-1.9c3.3-4.7,6.4-9.7,9-14.9
		l3.6,1.8c-2.7,5.3-5.9,10.5-9.3,15.4L5209.1,917.7z M3026.8,909.9l-4-0.5c0.9-6.6,1.9-13.3,2.9-19.8l4,0.6
		C3028.7,896.7,3027.7,903.3,3026.8,909.9z M5227.6,881.7l-3.8-1.2c2-6.2,3.6-12.6,4.6-19.1l3.9,0.6
		C5231.3,868.6,5229.7,875.3,5227.6,881.7z M3033,870.4l-3.9-0.7c1.2-6.5,2.4-13.2,3.8-19.7l3.9,0.8
		C3035.5,857.3,3034.2,863.9,3033,870.4z M5234,841.7h-4l0-0.3c0-6.4-0.5-12.9-1.5-19.3l4-0.6c1,6.6,1.5,13.3,1.5,19.9L5234,841.7z
		 M3040.9,831.3l-3.9-0.9c1.5-6.5,3-13.1,4.6-19.5l3.9,1C3043.9,818.3,3042.4,824.8,3040.9,831.3z M5224,803
		c-2-6.2-4.5-12.4-7.4-18.2l3.6-1.8c3,6,5.6,12.4,7.6,18.8L5224,803z M3050.5,792.5l-3.9-1c1.7-6.4,3.6-12.9,5.4-19.3l3.8,1.1
		C3054,779.6,3052.2,786.1,3050.5,792.5z M5206.5,767.9c-3.8-5.3-8.1-10.4-12.7-15l2.8-2.8c4.7,4.8,9.1,10,13.1,15.5L5206.5,767.9z
		 M3061.7,754.2l-3.8-1.2c2-6.3,4.1-12.8,6.2-19.1l3.8,1.3C3065.8,741.5,3063.7,747.9,3061.7,754.2z M5178.9,740.1
		c-0.6-0.5-1.3-0.9-1.9-1.4l-14.4-10.2l2.3-3.3l14.4,10.2c0.7,0.5,1.3,0.9,2,1.4L5178.9,740.1z M5146.3,717l-16.3-11.5l2.3-3.3
		l16.3,11.5L5146.3,717z M3074.5,716.3l-3.8-1.4c2.3-6.3,4.6-12.6,7-18.8l3.7,1.4C3079.2,703.8,3076.8,710.1,3074.5,716.3z
		 M5113.6,693.9l-16.3-11.5l2.3-3.3l16.3,11.5L5113.6,693.9z M3089,679.1l-3.7-1.5c2.5-6.1,5.2-12.4,7.8-18.5l3.7,1.6
		C3094.1,666.8,3091.5,673,3089,679.1z M5080.9,670.9l-16.3-11.5l2.3-3.3l16.3,11.5L5080.9,670.9z M5048.2,647.8l-16.3-11.5l2.3-3.3
		l16.3,11.5L5048.2,647.8z M3105,642.5l-3.6-1.7c2.8-6,5.7-12.1,8.6-18.1l3.6,1.8C3110.6,630.4,3107.7,636.5,3105,642.5z
		 M5015.5,624.8l-16.3-11.5l2.3-3.3l16.3,11.5L5015.5,624.8z M3122.5,606.6l-3.6-1.8c3-5.9,6.2-11.9,9.4-17.7l3.5,1.9
		C3128.7,594.7,3125.5,600.7,3122.5,606.6z M4982.9,601.7l-16.3-11.5l2.3-3.3l16.3,11.5L4982.9,601.7z M4950.2,578.6l-16.3-11.5
		l2.3-3.3l16.3,11.5L4950.2,578.6z M3141.6,571.4l-3.5-2c3.3-5.8,6.7-11.6,10.1-17.3l3.4,2.1
		C3148.2,559.8,3144.9,565.7,3141.6,571.4z M4917.5,555.6l-16.3-11.5l2.3-3.3l16.3,11.5L4917.5,555.6z M3162.1,537.1l-3.4-2.1
		c3.5-5.6,7.2-11.3,10.8-16.9l3.3,2.2C3169.2,525.8,3165.6,531.5,3162.1,537.1z M4884.8,532.5l-16.3-11.5l2.3-3.3l16.3,11.5
		L4884.8,532.5z M4852.1,509.5l-16.3-11.5l2.3-3.3l16.3,11.5L4852.1,509.5z M3184,503.7l-3.3-2.3c2.3-3.4,4.7-6.8,7-10.1
		c1.5-2.1,3-4.2,4.5-6.3l3.3,2.3c-1.5,2.1-3,4.2-4.5,6.3C3188.7,496.9,3186.3,500.3,3184,503.7z M4819.4,486.4l-16.3-11.5l2.3-3.3
		l16.3,11.5L4819.4,486.4z M3207.3,471.2l-3.2-2.4c4-5.3,8.1-10.7,12.2-15.9l3.2,2.5C3215.4,460.6,3211.3,465.9,3207.3,471.2z
		 M4786.8,463.3l-16.3-11.5l2.3-3.3l16.3,11.5L4786.8,463.3z M4754.1,440.3l-16.3-11.5l2.3-3.3l16.3,11.5L4754.1,440.3z
		 M3231.9,439.8l-3.1-2.5c4.2-5.1,8.5-10.3,12.8-15.4l3,2.6C3240.4,429.5,3236.1,434.7,3231.9,439.8z M4721.4,417.2l-16.3-11.5
		l2.3-3.3l16.3,11.5L4721.4,417.2z M3257.8,409.4l-3-2.7c4.4-5,8.9-10,13.5-14.8l2.9,2.7C3266.7,399.5,3262.2,404.5,3257.8,409.4z
		 M4688.7,394.2l-16.3-11.5l2.3-3.3l16.3,11.5L4688.7,394.2z M3284.9,380.2l-2.9-2.8c4.6-4.8,9.4-9.6,14.1-14.2l2.8,2.8
		C3294.3,370.6,3289.6,375.4,3284.9,380.2z M4656,371.1l-16.3-11.5l2.3-3.3l16.3,11.5L4656,371.1z M3313.3,352.1l-2.8-2.9
		c4.8-4.6,9.7-9.1,14.6-13.6l2.7,3C3323,343,3318.1,347.6,3313.3,352.1z M4623.3,348l-16.3-11.5l2.3-3.3l16.3,11.5L4623.3,348z
		 M3342.7,325.3l-2.6-3c5-4.4,10.1-8.7,15.2-13l2.6,3.1C3352.8,316.6,3347.7,321,3342.7,325.3z M4590.7,325l-16.3-11.5l2.3-3.3
		l16.3,11.5L4590.7,325z M4558,301.9l-16.3-11.5l2.3-3.3l16.3,11.5L4558,301.9z M3373.3,299.8l-2.5-3.1c5.2-4.1,10.5-8.3,15.7-12.3
		l2.4,3.2C3383.7,291.6,3378.5,295.7,3373.3,299.8z M4525.3,278.9l-8.9-6.3c-1.1-0.8-2.2-1.6-3.2-2.4c-1.4-1-2.7-2-4.1-3l2.3-3.3
		c1.4,1,2.8,2,4.1,3c1.1,0.8,2.1,1.6,3.2,2.3l8.9,6.3L4525.3,278.9z M3404.9,275.6l-2.4-3.2c5.3-3.9,10.8-7.8,16.3-11.6l2.3,3.3
		C3415.7,267.8,3410.2,271.7,3404.9,275.6z M4507.7,266.3c-1.8-1.3-3.7-2.6-5.5-3.8c-1.1-0.7-2.2-1.5-3.3-2.2l-7.6-5.4l2.3-3.3
		l7.6,5.4c1.1,0.7,2.1,1.5,3.2,2.2c1.9,1.3,3.7,2.5,5.6,3.8L4507.7,266.3z M3437.5,252.8l-2.2-3.3c5.5-3.7,11.2-7.4,16.7-10.9
		l2.2,3.4C3448.7,245.4,3443,249.1,3437.5,252.8z M4474.6,244c-5.6-3.6-11.3-7.2-16.9-10.7l2.1-3.4c5.7,3.5,11.4,7.1,17,10.7
		L4474.6,244z M3471.1,231.4l-2.1-3.4c5.7-3.4,11.5-6.9,17.2-10.2l2,3.5C3482.5,224.5,3476.8,227.9,3471.1,231.4z M4440.5,223
		c-5.7-3.4-11.5-6.7-17.3-9.9l2-3.5c5.8,3.3,11.7,6.6,17.4,10L4440.5,223z M3505.6,211.4l-1.9-3.5c5.8-3.2,11.7-6.4,17.6-9.5
		l1.9,3.5C3517.3,205,3511.4,208.2,3505.6,211.4z M4405.6,203.5c-5.8-3.1-11.8-6.2-17.7-9.2l1.8-3.6c6,3,11.9,6.1,17.8,9.2
		L4405.6,203.5z M3540.9,192.8l-1.8-3.6c5.9-3,12-5.9,18-8.7l1.7,3.6C3552.8,187,3546.8,189.9,3540.9,192.8z M4370,185.5
		c-6-2.9-12.1-5.7-18.1-8.4l1.6-3.6c6.1,2.7,12.2,5.6,18.2,8.5L4370,185.5z M3576.9,175.8l-1.6-3.7c6.1-2.7,12.2-5.4,18.4-8l1.6,3.7
		C3589.1,170.5,3583,173.1,3576.9,175.8z M4333.6,169c-6.1-2.6-12.3-5.2-18.5-7.7l1.5-3.7c6.2,2.5,12.4,5.1,18.5,7.7L4333.6,169z
		 M3613.7,160.3l-1.5-3.7c6.2-2.5,12.5-4.9,18.7-7.2l1.4,3.7C3626.1,155.5,3619.8,157.9,3613.7,160.3z M4296.5,154.1
		c-6.2-2.3-12.5-4.7-18.8-6.9l1.3-3.8c6.3,2.2,12.6,4.5,18.8,6.9L4296.5,154.1z M3651,146.4l-1.3-3.8c6.3-2.2,12.7-4.3,19-6.4
		l1.2,3.8C3663.6,142.1,3657.3,144.2,3651,146.4z M4258.9,140.8c-6.3-2.1-12.7-4.1-19-6.1l1.2-3.8c6.4,1.9,12.8,4,19.1,6.1
		L4258.9,140.8z M3689,134.1l-1.2-3.8c6.4-1.9,12.8-3.8,19.2-5.6l1.1,3.9C3701.7,130.3,3695.3,132.2,3689,134.1z M4220.7,129
		c-6.4-1.8-12.9-3.6-19.3-5.2l1-3.9c6.4,1.7,13,3.4,19.4,5.3L4220.7,129z M3727.4,123.3l-1-3.9c6.4-1.7,13-3.3,19.5-4.8l0.9,3.9
		C3740.3,120.1,3733.8,121.7,3727.4,123.3z M4182,119c-6.4-1.5-13-3-19.5-4.4l0.8-3.9c6.5,1.4,13.1,2.9,19.6,4.4L4182,119z
		 M3766.2,114.2l-0.8-3.9c6.5-1.4,13.1-2.7,19.6-4l0.8,3.9C3779.3,111.5,3772.7,112.8,3766.2,114.2z M4143,110.6
		c-6.5-1.3-13.1-2.5-19.6-3.6l0.7-3.9c6.6,1.1,13.2,2.3,19.7,3.6L4143,110.6z M3805.4,106.7l-0.7-3.9c6.6-1.1,13.2-2.2,19.8-3.1
		l0.6,4C3818.6,104.6,3812,105.6,3805.4,106.7z M4103.6,103.8c-6.6-1-13.2-1.9-19.8-2.7l0.5-4c6.6,0.8,13.3,1.8,19.9,2.8
		L4103.6,103.8z M3844.9,100.9l-0.5-4c6.6-0.8,13.3-1.6,19.9-2.3l0.4,4C3858.2,99.3,3851.5,100.1,3844.9,100.9z M4064,98.7
		c-6.6-0.7-13.3-1.3-19.9-1.9l0.3-4c6.6,0.6,13.3,1.2,20,1.9L4064,98.7z M3884.6,96.7l-0.3-4c6.6-0.6,13.4-1,20-1.5l0.3,4
		C3897.9,95.7,3891.2,96.2,3884.6,96.7z M4024.2,95.4c-6.6-0.4-13.3-0.8-19.9-1.1l0.2-4c6.6,0.3,13.4,0.6,20,1.1L4024.2,95.4z
		 M3924.5,94.2l-0.2-4c6.6-0.3,13.4-0.5,20-0.6l0.1,4C3937.8,93.8,3931.1,94,3924.5,94.2z M3984.3,93.6c-6.6-0.1-13.3-0.2-20-0.2
		l0-4c6.7,0,13.4,0.1,20,0.2L3984.3,93.6z"/>
</g>
<g>
	<path class="st0" d="M2039.1,1758.6l0-4c6.6,0,13.3-0.1,20-0.1l0.1,4C2052.5,1758.5,2045.8,1758.6,2039.1,1758.6z M2019.1,1758.5
		c-6.7-0.1-13.4-0.2-20-0.4l0.1-4c6.6,0.2,13.3,0.3,20,0.4L2019.1,1758.5z M2079.1,1758l-0.1-4c6.6-0.2,13.4-0.4,20-0.7l0.2,4
		C2092.5,1757.6,2085.8,1757.9,2079.1,1758z M1979.1,1757.4c-6.6-0.3-13.3-0.6-20-0.9l0.2-4c6.6,0.3,13.4,0.6,20,0.9L1979.1,1757.4z
		 M2119.2,1756.5l-0.2-4c6.6-0.3,13.3-0.7,19.9-1.2l0.3,4C2132.5,1755.7,2125.8,1756.1,2119.2,1756.5z M1939.1,1755.4
		c-6.6-0.4-13.4-0.9-20-1.4l0.3-4c6.6,0.5,13.3,1,19.9,1.4L1939.1,1755.4z M2159.1,1753.8l-0.3-4c6.6-0.5,13.3-1.1,19.9-1.7l0.4,4
		C2172.4,1752.7,2165.7,1753.3,2159.1,1753.8z M1899.1,1752.3c-6.6-0.6-13.3-1.3-19.9-1.9l0.4-4c6.6,0.7,13.3,1.3,19.9,1.9
		L1899.1,1752.3z M2199,1750.2l-0.4-4c6.6-0.7,13.3-1.4,19.8-2.2l0.5,4C2212.3,1748.7,2205.6,1749.5,2199,1750.2z M1859.3,1748.2
		c-6.6-0.8-13.3-1.6-19.9-2.5l0.5-4c6.6,0.9,13.3,1.7,19.8,2.5L1859.3,1748.2z M2238.8,1745.5l-0.5-4c6.6-0.9,13.2-1.8,19.8-2.8
		l0.6,4C2252,1743.7,2245.4,1744.6,2238.8,1745.5z M1819.6,1743c-6.6-1-13.3-2-19.8-3l0.6-4c6.5,1,13.2,2,19.7,3L1819.6,1743z
		 M2278.4,1739.7l-0.6-4c6.5-1,13.2-2.1,19.7-3.3l0.7,3.9C2291.6,1737.5,2285,1738.6,2278.4,1739.7z M1780,1736.7
		c-6.5-1.1-13.2-2.3-19.7-3.5l0.7-3.9c6.5,1.2,13.1,2.4,19.7,3.5L1780,1736.7z M2317.9,1732.8l-0.7-3.9c6.5-1.2,13.1-2.5,19.6-3.8
		l0.8,3.9C2331,1730.3,2324.4,1731.6,2317.9,1732.8z M1740.7,1729.4c-6.5-1.3-13.1-2.7-19.6-4.1l0.8-3.9c6.5,1.4,13,2.8,19.6,4.1
		L1740.7,1729.4z M2357.1,1724.9l-0.8-3.9c6.5-1.4,13-2.9,19.5-4.4l0.9,3.9C2370.2,1722,2363.6,1723.5,2357.1,1724.9z M1701.5,1721
		c-6.5-1.5-13-3-19.5-4.6l0.9-3.9c6.4,1.6,13,3.1,19.4,4.6L1701.5,1721z M2396.2,1715.9l-1-3.9c6.5-1.6,13-3.2,19.4-4.9l1,3.9
		C2409.2,1712.6,2402.6,1714.3,2396.2,1715.9z M1662.6,1711.5c-6.4-1.7-12.9-3.4-19.4-5.2l1.1-3.9c6.4,1.8,12.9,3.5,19.3,5.1
		L1662.6,1711.5z M2434.9,1705.8l-1.1-3.9c6.4-1.8,12.9-3.6,19.2-5.4l1.1,3.8C2447.8,1702.2,2441.3,1704,2434.9,1705.8z
		 M1624,1700.9c-6.4-1.9-12.9-3.8-19.2-5.7l1.2-3.8c6.3,1.9,12.8,3.8,19.1,5.7L1624,1700.9z M2473.4,1694.6l-1.2-3.8
		c6.4-2,12.8-4,19-6l1.2,3.8C2486.2,1690.6,2479.7,1692.6,2473.4,1694.6z M1585.7,1689.2c-6.3-2-12.7-4.1-19-6.3l1.3-3.8
		c6.3,2.1,12.7,4.2,19,6.2L1585.7,1689.2z M2511.5,1682.3l-1.3-3.8c6.3-2.1,12.6-4.3,18.9-6.6l1.3,3.8
		C2524.2,1677.9,2517.8,1680.1,2511.5,1682.3z M1547.7,1676.3c-6.3-2.2-12.6-4.5-18.8-6.8l1.4-3.8c6.2,2.3,12.5,4.6,18.8,6.8
		L1547.7,1676.3z M2549.2,1668.8l-1.4-3.7c6.2-2.3,12.5-4.7,18.7-7.1l1.5,3.7C2561.8,1664.1,2555.5,1666.5,2549.2,1668.8z
		 M1510.1,1662.4c-6.2-2.4-12.5-4.9-18.6-7.4l1.5-3.7c6.1,2.5,12.4,5,18.6,7.4L1510.1,1662.4z M2586.6,1654.3l-1.5-3.7
		c6.1-2.5,12.3-5.1,18.4-7.7l1.6,3.7C2598.9,1649.2,2592.7,1651.8,2586.6,1654.3z M1473,1647.4c-6.1-2.6-12.3-5.3-18.4-8l1.6-3.7
		c6,2.7,12.2,5.3,18.3,7.9L1473,1647.4z M2623.4,1638.6l-1.6-3.7c6.1-2.7,12.2-5.5,18.2-8.2l1.7,3.6
		C2635.7,1633.1,2629.5,1635.9,2623.4,1638.6z M1436.4,1631.2c-6.1-2.8-12.2-5.7-18.1-8.5l1.7-3.6c6,2.9,12,5.7,18.1,8.5
		L1436.4,1631.2z M2659.8,1621.8l-1.7-3.6c6-2.9,12-5.8,17.9-8.8l1.8,3.6C2671.8,1615.9,2665.8,1618.9,2659.8,1621.8z
		 M1400.3,1613.9c-6-3-12-6-17.8-9.1l1.8-3.5c5.9,3,11.8,6.1,17.8,9.1L1400.3,1613.9z M2695.6,1603.8l-1.9-3.5
		c5.9-3.1,11.8-6.2,17.6-9.4l1.9,3.5C2707.4,1597.6,2701.5,1600.8,2695.6,1603.8z M1364.7,1595.4c-5.9-3.2-11.8-6.4-17.5-9.7l2-3.5
		c5.8,3.2,11.6,6.5,17.5,9.6L1364.7,1595.4z M2730.8,1584.7l-2-3.5c5.8-3.3,11.6-6.6,17.3-10l2,3.5
		C2742.5,1578.1,2736.6,1581.5,2730.8,1584.7z M1329.8,1575.8c-5.8-3.4-11.5-6.8-17.2-10.3l2.1-3.4c5.6,3.4,11.4,6.9,17.2,10.2
		L1329.8,1575.8z M2765.4,1564.5l-2.1-3.4c5.7-3.5,11.4-7,17-10.5l2.1,3.4C2776.8,1557.4,2771.1,1561,2765.4,1564.5z M1295.5,1555
		c-5.6-3.5-11.3-7.2-16.9-10.8l2.2-3.3c5.5,3.6,11.2,7.3,16.8,10.8L1295.5,1555z M2799.2,1543l-2.2-3.3c5.5-3.6,11.1-7.4,16.6-11.1
		l2.3,3.3C2810.4,1535.6,2804.8,1539.4,2799.2,1543z M1262,1533c-5.5-3.8-11-7.6-16.5-11.4l2.3-3.3c5.4,3.8,10.9,7.6,16.4,11.4
		L1262,1533z M2832.3,1520.4l-2.3-3.3c5.4-3.9,10.9-7.8,16.2-11.7l2.4,3.2C2843.2,1512.6,2837.7,1516.6,2832.3,1520.4z
		 M1229.3,1509.8c-5.4-3.9-10.8-8-16-12l2.4-3.2c5.3,4,10.6,8,16,12L1229.3,1509.8z M2864.5,1496.6l-2.4-3.2
		c5.3-4,10.6-8.2,15.7-12.3l2.5,3.1C2875.2,1488.4,2869.8,1492.6,2864.5,1496.6z M1197.5,1485.5c-5.2-4.1-10.5-8.4-15.6-12.6
		l2.5-3.1c5.1,4.2,10.3,8.4,15.5,12.6L1197.5,1485.5z M2895.9,1471.7l-2.6-3.1c5.1-4.2,10.2-8.6,15.2-12.9l2.6,3
		C2906.2,1463,2901,1467.4,2895.9,1471.7z M1166.6,1460c-5.1-4.3-10.1-8.8-15.1-13.2l2.7-3c4.9,4.4,10,8.8,15,13.1L1166.6,1460z
		 M2926.2,1445.5l-2.7-3c4.9-4.4,9.9-9,14.7-13.5l2.7,2.9C2936.2,1436.5,2931.2,1441,2926.2,1445.5z M1136.7,1433.3
		c-4.9-4.5-9.8-9.2-14.5-13.8l2.8-2.9c4.7,4.6,9.6,9.2,14.5,13.7L1136.7,1433.3z M2955.5,1418.1l-2.8-2.9c4.8-4.6,9.5-9.4,14.2-14.1
		l2.8,2.8C2965.1,1408.8,2960.3,1413.5,2955.5,1418.1z M1107.9,1405.4c-4.7-4.7-9.4-9.6-14-14.4l2.9-2.8c4.5,4.8,9.2,9.6,13.9,14.3
		L1107.9,1405.4z M2983.7,1389.6l-2.9-2.7c4.6-4.8,9.1-9.8,13.6-14.6l3,2.7C2992.9,1379.8,2988.3,1384.8,2983.7,1389.6z
		 M1080.3,1376.4c-4.5-4.9-9-10-13.3-15l3-2.6c4.3,5,8.8,10,13.3,14.9L1080.3,1376.4z M3010.6,1359.9l-3-2.6
		c4.3-5,8.7-10.1,12.9-15.2l3.1,2.6C3019.3,1349.8,3015,1354.9,3010.6,1359.9z M1054,1346.2c-4.3-5.1-8.5-10.4-12.7-15.5l3.1-2.5
		c4.1,5.2,8.3,10.4,12.6,15.5L1054,1346.2z M3036.2,1329.1l-3.1-2.5c4.1-5.2,8.2-10.5,12.2-15.8l3.2,2.4
		C3044.4,1318.5,3040.3,1323.9,3036.2,1329.1z M1029,1314.8c-4-5.3-8-10.7-11.9-16.1l3.2-2.3c3.9,5.4,7.9,10.7,11.9,16L1029,1314.8z
		 M3060.3,1297.1l-3.2-2.3c3.9-5.4,7.7-10.9,11.5-16.3l3.3,2.3C3068.1,1286.2,3064.2,1291.7,3060.3,1297.1z M1005.5,1282.3
		c-3.8-5.5-7.5-11.1-11.2-16.7l3.4-2.2c3.6,5.5,7.3,11.1,11.1,16.6L1005.5,1282.3z M3083,1264l-3.4-2.2c3.6-5.6,7.2-11.2,10.7-16.9
		l3.4,2.1C3090.2,1252.7,3086.6,1258.4,3083,1264z M983.6,1248.8c-3.5-5.7-7-11.5-10.3-17.2l3.5-2c3.3,5.7,6.8,11.4,10.3,17.1
		L983.6,1248.8z M3103.9,1229.8l-3.5-2c3.3-5.7,6.6-11.6,9.8-17.4l3.5,1.9C3110.6,1218.2,3107.3,1224.1,3103.9,1229.8z
		 M963.4,1214.1c-3.2-5.8-6.4-11.8-9.4-17.7l3.6-1.8c3,5.9,6.2,11.8,9.4,17.6L963.4,1214.1z M3123.2,1194.7l-3.6-1.8
		c3-5.9,6-11.9,8.9-17.9l3.6,1.7C3129.2,1182.7,3126.2,1188.7,3123.2,1194.7z M945,1178.5c-2.9-6-5.8-12.1-8.5-18.2l3.6-1.6
		c2.7,6,5.6,12.1,8.5,18.1L945,1178.5z M3140.6,1158.5l-3.6-1.6c2.7-6,5.4-12.2,7.9-18.3l3.7,1.5
		C3146,1146.3,3143.3,1152.5,3140.6,1158.5z M928.4,1141.8c-2.6-6.2-5.1-12.4-7.5-18.6l3.7-1.4c2.4,6.2,4.9,12.4,7.5,18.5
		L928.4,1141.8z M3156,1121.5l-3.7-1.4c2.4-6.2,4.7-12.4,6.9-18.6l3.8,1.3C3160.7,1109,3158.4,1115.3,3156,1121.5z M913.9,1104.4
		c-2.2-6.3-4.4-12.7-6.5-19l3.8-1.2c2,6.3,4.2,12.6,6.4,18.9L913.9,1104.4z M3169.3,1083.9l-3.8-1.2c2-6.3,4-12.7,5.8-19l3.8,1.1
		C3173.3,1071.1,3171.3,1077.5,3169.3,1083.9z M901.5,1066.3c-1.9-6.4-3.7-12.9-5.4-19.3l3.9-1c1.7,6.4,3.5,12.8,5.3,19.2
		L901.5,1066.3z M3180.5,1045.4l-3.9-1c1.7-6.4,3.3-12.9,4.8-19.3l3.9,0.9C3183.8,1032.4,3182.2,1039,3180.5,1045.4z M891.3,1027.6
		c-1.5-6.5-2.9-13-4.3-19.5l3.9-0.8c1.3,6.4,2.7,13,4.2,19.4L891.3,1027.6z M3189.5,1006.4l-3.9-0.8c1.3-6.5,2.5-13.1,3.6-19.6
		l3.9,0.7C3192,993.2,3190.8,999.8,3189.5,1006.4z M883.4,988.4c-1.1-6.6-2.2-13.2-3.1-19.8l4-0.6c0.9,6.5,2,13.2,3.1,19.7
		L883.4,988.4z M3196.2,966.8l-4-0.6c0.9-6.6,1.8-13.2,2.5-19.8l4,0.4C3198,953.5,3197.2,960.2,3196.2,966.8z M877.7,948.7
		c-0.7-6.6-1.4-13.3-2-20l4-0.3c0.6,6.6,1.2,13.3,2,19.8L877.7,948.7z M3200.6,926.9l-4-0.3c0.5-6.6,1-13.3,1.3-19.9l4,0.2
		C3201.6,913.5,3201.2,920.2,3200.6,926.9z M874.4,908.7c-0.4-6.6-0.6-13.4-0.8-20l4-0.1c0.2,6.6,0.4,13.3,0.8,19.9L874.4,908.7z
		 M3202.7,886.8l-4-0.1c0.1-5,0.2-10.2,0.2-15.2c0-1.6,0-3.2,0-4.7l4,0c0,1.6,0,3.2,0,4.8C3202.9,876.6,3202.8,881.7,3202.7,886.8z
		 M877.4,871.5h-4c0-6.8,0.1-13.5,0.3-20l4,0.1C877.5,858.1,877.4,864.8,877.4,871.5z M3198.4,846.9c-0.3-6.8-0.6-13.5-1.1-19.9
		l4-0.3c0.5,6.5,0.8,13.2,1.1,20L3198.4,846.9z M878.7,831.7l-4-0.3c0.5-6.8,1.1-13.5,1.8-20l4,0.5
		C879.8,818.3,879.2,825,878.7,831.7z M3195.5,807.2c-0.8-6.7-1.7-13.4-2.7-19.7l3.9-0.6c1,6.4,2,13.1,2.7,19.9L3195.5,807.2z
		 M883.3,792.2l-3.9-0.7c1.1-6.8,2.4-13.4,3.9-19.7l3.9,0.9C885.7,779,884.4,785.5,883.3,792.2z M3189.1,768
		c-1.5-6.6-3.1-13.1-4.9-19.2l3.8-1.1c1.8,6.2,3.5,12.8,5,19.5L3189.1,768z M892.1,753.6l-3.8-1.2c2-6.6,4.2-13,6.6-19l3.7,1.5
		C896.2,740.8,894.1,747.1,892.1,753.6z M2063.7,751.5c-1.9,0-3.8,0-5.7,0l0-4c2,0,4.1,0,6.1,0c4.6,0,9.3,0,13.9-0.1l0,4
		C2073.2,751.5,2068.5,751.5,2063.7,751.5z M2038,751.3c-6.6-0.1-13.3-0.2-20-0.4l0.1-4c6.7,0.2,13.4,0.3,19.9,0.4L2038,751.3z
		 M2098,751.2l-0.1-4c6.6-0.1,13.3-0.3,20-0.5l0.1,4C2111.4,750.9,2104.6,751.1,2098,751.2z M1998,750.3c-6.6-0.2-13.4-0.5-20-0.9
		l0.2-4c6.6,0.3,13.4,0.6,20,0.9L1998,750.3z M2138,750l-0.2-4c6.6-0.3,13.3-0.6,20-0.9l0.2,4C2151.4,749.4,2144.6,749.7,2138,750z
		 M1958,748.4c-6.6-0.4-13.3-0.8-20-1.3l0.3-4c6.6,0.5,13.3,0.9,19.9,1.3L1958,748.4z M2178,747.9l-0.3-4c6.6-0.4,13.3-0.9,19.9-1.4
		l0.3,4C2191.3,747,2184.6,747.4,2178,747.9z M1918,745.6c-6.6-0.5-13.3-1.1-20-1.7l0.4-4c6.6,0.6,13.3,1.1,19.9,1.7L1918,745.6z
		 M2218,744.9l-0.3-4c6.6-0.5,13.3-1.1,19.9-1.8l0.4,4C2231.2,743.8,2224.5,744.4,2218,744.9z M1878.1,742.1
		c-6.6-0.6-13.3-1.3-19.9-2l0.4-4c6.6,0.7,13.3,1.4,19.9,2L1878.1,742.1z M2257.8,741.2l-0.4-4c6.6-0.7,13.3-1.4,19.9-2.1l0.4,4
		C2271.1,739.8,2264.4,740.5,2257.8,741.2z M1838.3,737.9c-6.5-0.7-13.2-1.5-19.9-2.4l0.5-4c6.7,0.8,13.3,1.6,19.8,2.4L1838.3,737.9
		z M2297.6,736.7l-0.5-4c6.5-0.8,13.2-1.6,19.8-2.5l0.5,4C2310.8,735.1,2304.2,735.9,2297.6,736.7z M1798.6,733
		c-6.5-0.9-13.2-1.8-19.8-2.7l0.5-4c6.6,0.9,13.3,1.8,19.8,2.7L1798.6,733z M2337.3,731.6l-0.5-4c6.5-0.9,13.2-1.8,19.8-2.8l0.6,4
		C2350.5,729.7,2343.9,730.7,2337.3,731.6z M3177.8,730c-2.4-6.3-5.1-12.4-7.9-18.1l3.6-1.8c2.9,5.8,5.6,12,8.1,18.5L3177.8,730z
		 M1758.9,727.5c-6.6-1-13.2-1.9-19.8-3l0.6-4c6.6,1,13.2,2,19.8,2.9L1758.9,727.5z M2376.9,725.8l-0.6-4c6.5-1,13.1-2,19.7-3.1
		l0.6,3.9C2390.1,723.8,2383.4,724.8,2376.9,725.8z M1719.4,721.5c-6.6-1.1-13.2-2.1-19.8-3.2l0.7-3.9c6.6,1.1,13.1,2.1,19.7,3.2
		L1719.4,721.5z M2416.5,719.4l-0.7-3.9c6.6-1.1,13.2-2.2,19.7-3.4l0.7,3.9C2429.6,717.2,2423.1,718.3,2416.5,719.4z M906.7,716.8
		l-3.6-1.8c3.1-6.1,6.5-12,10.1-17.5l3.3,2.2C913,705.1,909.7,710.8,906.7,716.8z M1679.9,715c-6.6-1.1-13.2-2.3-19.7-3.4l0.7-3.9
		c6.5,1.2,13.1,2.3,19.7,3.4L1679.9,715z M2455.9,712.6l-0.7-3.9c6.6-1.2,13.1-2.4,19.7-3.6l0.7,3.9
		C2469.1,710.2,2462.5,711.4,2455.9,712.6z M1640.4,708c-6.6-1.2-13.1-2.4-19.7-3.6l0.7-3.9c6.5,1.2,13.1,2.4,19.7,3.6L1640.4,708z
		 M2495.3,705.3l-0.8-3.9c6.6-1.3,13.1-2.5,19.6-3.8l0.8,3.9C2508.4,702.7,2501.8,704,2495.3,705.3z M1601.1,700.7
		c-6.6-1.3-13.1-2.5-19.7-3.8l0.8-3.9c6.5,1.3,13.1,2.5,19.6,3.8L1601.1,700.7z M2534.5,697.6l-0.8-3.9c6.6-1.3,13.1-2.6,19.6-4
		l0.8,3.9C2547.6,694.9,2541.1,696.2,2534.5,697.6z M3160.1,694.7c-3.6-5.6-7.5-10.9-11.7-15.9l3.1-2.6c4.2,5.1,8.3,10.5,12,16.3
		L3160.1,694.7z M1561.8,693.1c-6.6-1.3-13.1-2.6-19.6-3.9l0.8-3.9c6.5,1.3,13,2.6,19.6,3.9L1561.8,693.1z M2573.7,689.6l-0.8-3.9
		c6.6-1.4,13.1-2.7,19.6-4.1l0.8,3.9C2586.8,686.8,2580.3,688.2,2573.7,689.6z M1522.6,685.2c-6.6-1.3-13.1-2.7-19.6-4l0.8-3.9
		c6.5,1.3,13,2.7,19.6,4L1522.6,685.2z M928.3,683.9l-3.1-2.6c4.3-5.2,9-10.1,14-14.6l2.7,2.9C937.1,674,932.5,678.8,928.3,683.9z
		 M2612.9,681.3l-0.8-3.9c6.6-1.4,13.1-2.8,19.6-4.2l0.8,3.9C2626,678.5,2619.5,679.9,2612.9,681.3z M1483.4,677.2
		c-6.6-1.3-13.1-2.7-19.6-4l0.8-3.9c6.5,1.3,13,2.7,19.6,4L1483.4,677.2z M2652,672.9l-0.8-3.9l19.6-4.2l0.8,3.9L2652,672.9z
		 M1444.2,669.2c-6.6-1.4-13.1-2.7-19.6-4l0.8-3.9c6.5,1.3,13,2.7,19.6,4L1444.2,669.2z M3134.8,664.6c-4.8-4.4-10-8.5-15.4-12.2
		l2.3-3.3c5.6,3.8,10.9,8,15.9,12.6L3134.8,664.6z M2691.1,664.5l-0.8-3.9c6.6-1.4,13.1-2.8,19.6-4.2l0.8,3.9
		C2704.2,661.7,2697.7,663.1,2691.1,664.5z M1405,661.1c-6.6-1.3-13.1-2.7-19.6-4l0.8-3.9c6.5,1.3,13,2.6,19.6,4L1405,661.1z
		 M957.2,657.2l-2.3-3.3c5.4-3.8,11.2-7.4,17.2-10.7l1.9,3.5C968.1,650,962.5,653.5,957.2,657.2z M2730.3,656.1l-0.8-3.9
		c6.6-1.4,13.1-2.8,19.6-4.1l0.8,3.9C2743.4,653.4,2736.8,654.8,2730.3,656.1z M1365.8,653.3c-6.6-1.3-13.1-2.6-19.6-3.8l0.8-3.9
		c6.5,1.3,13,2.5,19.6,3.8L1365.8,653.3z M2769.4,648l-0.8-3.9c6.6-1.3,13.1-2.6,19.6-3.9l0.8,3.9
		C2782.5,645.4,2776,646.7,2769.4,648z M1326.5,645.7c-6.6-1.2-13.2-2.5-19.7-3.6l0.7-3.9c6.5,1.2,13.1,2.4,19.7,3.6L1326.5,645.7z
		 M3102.5,642.3c-5.7-2.9-11.8-5.6-18.1-7.9l1.4-3.7c6.4,2.4,12.6,5.1,18.5,8.1L3102.5,642.3z M2808.6,640.3l-0.7-3.9
		c6.8-1.3,13.4-2.5,19.7-3.6l0.7,3.9C2822,637.9,2815.4,639.1,2808.6,640.3z M1287.2,638.5c-6.7-1.2-13.3-2.3-19.7-3.3l0.6-3.9
		c6.4,1,13,2.2,19.7,3.3L1287.2,638.5z M991.8,638.4l-1.5-3.7c6-2.5,12.4-4.7,19-6.7l1.2,3.8C1004,633.8,997.7,636,991.8,638.4z
		 M2848,633.3l-0.7-3.9c6.8-1.1,13.4-2.2,19.8-3.2l0.6,4C2861.4,631.1,2854.7,632.2,2848,633.3z M1247.7,632c-6.7-1-13.4-2-19.8-2.9
		l0.6-4c6.4,0.9,13.1,1.9,19.8,2.9L1247.7,632z M3065.5,628.4c-6.2-1.6-12.7-3.1-19.4-4.2l0.7-3.9c6.8,1.2,13.4,2.6,19.7,4.3
		L3065.5,628.4z M2887.5,627.2l-0.5-4c6.8-0.9,13.5-1.8,19.9-2.6l0.5,4C2900.9,625.4,2894.2,626.3,2887.5,627.2z M1029.6,626.9
		l-0.8-3.9c6.3-1.4,13-2.6,19.8-3.6l0.6,4C1042.5,624.3,1035.9,625.5,1029.6,626.9z M1208.1,626.5c-6.7-0.8-13.4-1.6-19.8-2.3l0.4-4
		c6.4,0.7,13.1,1.5,19.9,2.3L1208.1,626.5z M2927.1,622.5l-0.4-4c6.8-0.7,13.5-1.2,20-1.7l0.3,4
		C2940.6,621.3,2933.9,621.9,2927.1,622.5z M1168.4,622.2c-6.8-0.6-13.5-1.1-19.9-1.5l0.2-4c6.5,0.4,13.2,0.9,20,1.5L1168.4,622.2z
		 M3026.5,621.5c-6.3-0.7-13-1.2-19.8-1.5l0.2-4c6.9,0.3,13.6,0.9,20,1.5L3026.5,621.5z M1068.9,621.1l-0.4-4c6.4-0.6,13.2-1,20-1.3
		l0.2,4C1082,620.1,1075.3,620.5,1068.9,621.1z M2966.9,619.8l-0.1-4c6.5-0.2,12.9-0.4,19-0.4c0,0,0,0,0,0l1,0l0,4l-1,0c0,0,0,0,0,0
		C2979.7,619.4,2973.4,619.6,2966.9,619.8z M1128.6,619.8c-6.8-0.2-13.5-0.3-19.9-0.3l0-4h0c6.5,0,13.2,0.1,20.1,0.3L1128.6,619.8z"
		/>
</g>
<g>
	<path class="st0" d="M2744.9,3689.5l-0.2-4c6.5-0.3,13.1-1.1,19.5-2.3l0.7,3.9C2758.3,3688.3,2751.6,3689.1,2744.9,3689.5z
		 M2724.6,3689.1c-6.6-0.6-13.3-1.6-20-3l0.8-3.9c6.5,1.4,13.1,2.4,19.5,2.9L2724.6,3689.1z M2784.5,3682.1l-1.2-3.8
		c6.1-2,12.2-4.4,18.3-7.2l1.7,3.6C2797,3677.6,2790.7,3680.1,2784.5,3682.1z M2685.2,3680.7c-6.2-2.1-12.5-4.5-18.8-7.3l1.6-3.7
		c6.2,2.7,12.4,5.2,18.4,7.2L2685.2,3680.7z M2821,3665.5l-2-3.5c5.5-3.2,11.1-6.8,16.6-10.7l2.3,3.3
		C2832.3,3658.5,2826.6,3662.2,2821,3665.5z M2648.3,3664.5c-5.7-3.1-11.5-6.5-17.3-10.2l2.1-3.4c5.7,3.6,11.5,7,17.1,10.1
		L2648.3,3664.5z M2614.3,3643c-5.3-3.8-10.7-7.9-16-12.1l2.5-3.1c5.3,4.2,10.6,8.3,15.9,12L2614.3,3643z M2854,3642.5l-2.5-3.1
		c5-4,10-8.4,15.1-12.9l2.7,3C2864.1,3634,2859,3638.4,2854,3642.5z M2582.8,3618c-4.9-4.3-9.9-8.8-14.9-13.4l2.7-2.9
		c5,4.6,10,9.1,14.8,13.3L2582.8,3618z M2883.8,3615.6l-2.8-2.8c4.5-4.5,9.2-9.3,13.8-14.3l2.9,2.7
		C2893.1,3606.2,2888.4,3611,2883.8,3615.6z M2553.4,3590.8c-1.2-1.1-2.3-2.3-3.5-3.5c-3.6-3.6-7.1-7.2-10.6-10.8l2.9-2.8
		c3.4,3.6,7,7.2,10.5,10.8c1.2,1.2,2.3,2.3,3.5,3.5L2553.4,3590.8z M2911.1,3586.2l-3-2.6c4.2-4.8,8.6-10,12.9-15.2l3.1,2.5
		C2919.7,3576.2,2915.4,3581.3,2911.1,3586.2z M2525.6,3561.8c-4.5-4.9-8.9-10-13.2-15.1l3-2.6c4.3,5,8.7,10.1,13.2,15
		L2525.6,3561.8z M2936.6,3555.3l-3.1-2.5c4-5,8.1-10.4,12.2-15.8l3.2,2.4C2944.7,3544.9,2940.6,3550.2,2936.6,3555.3z
		 M2499.6,3531.2c-4.2-5.2-8.3-10.5-12.3-15.8l3.2-2.4c4,5.3,8.1,10.6,12.3,15.8L2499.6,3531.2z M2960.8,3523.4l-3.2-2.4
		c3.8-5.2,7.7-10.6,11.7-16.2l3.3,2.3C2968.6,3512.7,2964.6,3518.2,2960.8,3523.4z M2475.4,3499.1c-3.8-5.4-7.7-11-11.4-16.5
		l3.3-2.2c3.7,5.5,7.5,11,11.3,16.4L2475.4,3499.1z M2984.1,3490.7l-3.3-2.3c3.6-5.2,7.5-10.8,11.3-16.5l3.3,2.3
		C2991.6,3479.9,2987.7,3485.5,2984.1,3490.7z M2453.2,3465.7c-3.5-5.6-7-11.4-10.4-17.2l3.5-2c3.4,5.7,6.8,11.5,10.3,17.1
		L2453.2,3465.7z M3006.7,3457.7l-3.3-2.2c3.7-5.5,7.4-11,11.1-16.6l3.3,2.2C3014.1,3446.6,3010.4,3452.2,3006.7,3457.7z
		 M2432.9,3431.1c-3.2-5.8-6.4-11.8-9.4-17.7l3.6-1.8c3,5.9,6.2,11.8,9.3,17.6L2432.9,3431.1z M3028.8,3424.3l-3.3-2.2
		c3.6-5.5,7.3-11.1,10.9-16.7l3.4,2.2C3036.1,3413.2,3032.4,3418.8,3028.8,3424.3z M2414.6,3395.5c-2.9-6-5.7-12.1-8.4-18.2l3.7-1.6
		c2.7,6.1,5.5,12.1,8.3,18.1L2414.6,3395.5z M3050.7,3390.8l-3.4-2.2c3.6-5.6,7.2-11.1,10.9-16.8l3.4,2.2
		C3057.9,3379.6,3054.3,3385.2,3050.7,3390.8z M2398.4,3358.8c-2.5-6.1-5-12.4-7.4-18.6l3.7-1.4c2.4,6.2,4.8,12.4,7.3,18.5
		L2398.4,3358.8z M3072.4,3357.2l-3.4-2.2l10.8-16.8l3.4,2.2L3072.4,3357.2z M3094.1,3323.6l-3.4-2.2c3.6-5.6,7.2-11.2,10.9-16.8
		l3.4,2.2C3101.3,3312.4,3097.7,3318,3094.1,3323.6z M2384.1,3321.4c-2.2-6.3-4.3-12.6-6.4-19l3.8-1.2c2,6.3,4.2,12.7,6.3,18.9
		L2384.1,3321.4z M3115.9,3290l-3.4-2.2c3.6-5.6,7.3-11.1,11-16.7l3.3,2.2C3123.1,3278.9,3119.5,3284.4,3115.9,3290z M2371.9,3283.3
		c-1.9-6.4-3.7-12.8-5.4-19.3l3.9-1c1.7,6.4,3.5,12.9,5.4,19.2L2371.9,3283.3z M3137.8,3256.6l-3.3-2.2c3.7-5.5,7.3-11.1,11.1-16.7
		l3.3,2.2C3145.2,3245.5,3141.5,3251,3137.8,3256.6z M2361.6,3244.6c-1.5-6.5-3-13-4.4-19.5l3.9-0.8c1.4,6.5,2.9,13,4.4,19.4
		L2361.6,3244.6z M3160,3223.3l-3.3-2.2c3.7-5.5,7.4-11,11.2-16.6l3.3,2.2C3167.4,3212.2,3163.7,3217.8,3160,3223.3z M2353.2,3205.4
		c-1.2-6.5-2.4-13.1-3.5-19.7l3.9-0.6c1.1,6.5,2.2,13.1,3.4,19.6L2353.2,3205.4z M3182.4,3190.2l-3.3-2.3c3.8-5.5,7.6-11,11.4-16.5
		l3.3,2.3C3190,3179.2,3186.2,3184.7,3182.4,3190.2z M2346.8,3165.9c-0.9-6.6-1.8-13.2-2.5-19.8l4-0.5c0.8,6.6,1.6,13.2,2.5,19.8
		L2346.8,3165.9z M3205.3,3157.3l-3.3-2.3c3.8-5.4,7.7-10.9,11.6-16.3l3.3,2.3C3212.9,3146.5,3209.1,3151.9,3205.3,3157.3z
		 M2342.2,3126.2c-0.6-6.6-1.2-13.3-1.6-19.9l4-0.3c0.5,6.6,1,13.3,1.6,19.8L2342.2,3126.2z M3228.5,3124.8l-3.2-2.3
		c3.9-5.4,7.9-10.9,11.8-16.2l3.2,2.4C3236.3,3113.9,3232.4,3119.4,3228.5,3124.8z M3252.1,3092.6l-3.2-2.4c4-5.4,8.1-10.8,12-16
		l3.2,2.4C3260.2,3081.8,3256.1,3087.2,3252.1,3092.6z M2339.3,3086.3c-0.3-6.6-0.6-13.3-0.8-20l4-0.1c0.2,6.6,0.4,13.3,0.8,19.9
		L2339.3,3086.3z M3276.3,3060.7l-3.2-2.4c4.1-5.3,8.2-10.6,12.3-15.8l3.1,2.5C3284.5,3050.1,3280.4,3055.4,3276.3,3060.7z
		 M2338.2,3046.3c0-2.2,0-4.4,0-6.7c0-4.4,0-8.9,0.1-13.4l4,0.1c-0.1,4.4-0.1,8.9-0.1,13.3c0,2.2,0,4.4,0,6.6L2338.2,3046.3z
		 M3300.9,3029.3l-3.1-2.5c4.2-5.2,8.4-10.5,12.6-15.6l3.1,2.5C3309.3,3018.8,3305.1,3024,3300.9,3029.3z M2342.8,3006.4l-4-0.1
		c0.2-6.6,0.5-13.4,0.9-20l4,0.2C2343.3,2993.1,2343,2999.8,2342.8,3006.4z M3326.2,2998.2l-3.1-2.6c4.3-5.1,8.6-10.3,12.9-15.4
		l3.1,2.6C3334.7,2988,3330.4,2993.1,3326.2,2998.2z M3352,2967.7l-3-2.6c4.3-5,8.8-10.1,13.2-15.1l3,2.6
		C3360.7,2957.6,3356.3,2962.7,3352,2967.7z M2344.9,2966.5l-4-0.3c0.5-6.6,1.1-13.3,1.7-20l4,0.4
		C2346,2953.2,2345.4,2959.9,2344.9,2966.5z M3378.4,2937.7l-3-2.7c4.5-5,9-10,13.5-14.8l2.9,2.7
		C3387.3,2927.8,3382.8,2932.8,3378.4,2937.7z M2348.6,2926.8l-4-0.4c0.7-6.6,1.6-13.3,2.4-19.9l4,0.5
		C2350.2,2913.6,2349.4,2920.2,2348.6,2926.8z M3405.4,2908.3l-2.9-2.7c4.6-4.8,9.2-9.7,13.8-14.5l2.9,2.8
		C3414.6,2898.6,3409.9,2903.5,3405.4,2908.3z M2353.8,2887.2l-4-0.6c1-6.6,2.1-13.2,3.2-19.8l3.9,0.7
		C2355.9,2874,2354.8,2880.7,2353.8,2887.2z M3433.1,2879.5l-2.9-2.8c3.2-3.3,6.5-6.6,9.7-9.8c1.5-1.5,2.9-2.9,4.4-4.4l2.8,2.8
		c-1.5,1.4-2.9,2.9-4.4,4.4C3439.6,2873,3436.3,2876.2,3433.1,2879.5z M3461.4,2851.4l-2.8-2.9c4.7-4.6,9.6-9.2,14.4-13.8l2.8,2.9
		C3471,2842.2,3466.2,2846.8,3461.4,2851.4z M2360.5,2847.8l-3.9-0.7c1.2-6.5,2.5-13.1,3.9-19.7l3.9,0.8
		C2363,2834.7,2361.7,2841.3,2360.5,2847.8z M3490.4,2823.9l-2.7-2.9c4.8-4.5,9.8-9.1,14.8-13.5l2.7,3
		C3500.2,2814.9,3495.2,2819.4,3490.4,2823.9z M2368.5,2808.7l-3.9-0.9c1.5-6.5,3-13,4.6-19.5l3.9,0.9
		C2371.5,2795.7,2370,2802.3,2368.5,2808.7z M3520,2797.1l-2.7-3c4.9-4.4,10-8.8,15-13.2l2.6,3
		C3529.9,2788.2,3524.9,2792.7,3520,2797.1z M3550.1,2770.8l-2.6-3c5-4.3,10.1-8.6,15.3-12.9l2.6,3.1
		C3560.2,2762.2,3555.1,2766.5,3550.1,2770.8z M2377.9,2769.9l-3.9-1c1.7-6.4,3.4-12.9,5.2-19.3l3.9,1.1
		C2381.4,2757,2379.6,2763.5,2377.9,2769.9z M3580.7,2745.1l-2.5-3.1c5.1-4.2,10.3-8.4,15.5-12.7l2.5,3.1
		C3591,2736.7,3585.8,2741,3580.7,2745.1z M2388.6,2731.4l-3.8-1.1c1.9-6.4,3.9-12.8,5.8-19.2l3.8,1.2
		C2392.5,2718.7,2390.5,2725.1,2388.6,2731.4z M3611.8,2720l-2.5-3.1c5.2-4.1,10.5-8.3,15.7-12.4l2.5,3.2
		C3622.3,2711.7,3617,2715.9,3611.8,2720z M3643.3,2695.4l-2.4-3.2c5.2-4,10.6-8.1,15.9-12.1l2.4,3.2
		C3653.9,2687.3,3648.6,2691.4,3643.3,2695.4z M2400.6,2693.3l-3.8-1.3c2.1-6.3,4.3-12.7,6.5-19l3.8,1.3
		C2404.9,2680.7,2402.7,2687.1,2400.6,2693.3z M3675.2,2671.3l-2.4-3.2c5.3-4,10.7-8,16.1-11.9l2.4,3.2
		C3685.9,2663.3,3680.5,2667.3,3675.2,2671.3z M2413.8,2655.6l-3.8-1.4c2.3-6.2,4.7-12.5,7.1-18.7l3.7,1.4
		C2418.4,2643.2,2416.1,2649.5,2413.8,2655.6z M3707.4,2647.6l-2.3-3.2c5.4-3.9,10.8-7.8,16.2-11.7l2.3,3.3
		C3718.2,2639.8,3712.8,2643.7,3707.4,2647.6z M3739.9,2624.3l-2.3-3.3c5.5-3.9,10.9-7.7,16.4-11.5l2.3,3.3
		C3750.8,2616.6,3745.4,2620.4,3739.9,2624.3z M2428.1,2618.4l-3.7-1.5c2.5-6.1,5-12.4,7.6-18.5l3.7,1.6
		C2433.2,2606,2430.6,2612.3,2428.1,2618.4z M3772.7,2601.4l-2.3-3.3c5.5-3.8,11-7.6,16.5-11.4l2.3,3.3
		C3783.7,2593.8,3778.2,2597.5,3772.7,2601.4z M2443.6,2581.6l-3.7-1.6c2.7-6.1,5.4-12.2,8.2-18.3l3.6,1.7
		C2449,2569.4,2446.3,2575.5,2443.6,2581.6z M3805.6,2578.7l-2.3-3.3c5.5-3.8,11.1-7.5,16.6-11.2l2.2,3.3
		C3816.7,2571.2,3811.2,2575,3805.6,2578.7z M3838.8,2556.3l-2.2-3.3c5.6-3.7,11.1-7.4,16.6-11.1l2.2,3.3
		C3849.9,2548.9,3844.4,2552.6,3838.8,2556.3z M2460.2,2545.2l-3.6-1.7c2.8-6,5.8-12.1,8.7-18l3.6,1.8
		C2466,2533.2,2463.1,2539.3,2460.2,2545.2z M3872.1,2534.1l-2.2-3.3c5.6-3.7,11.1-7.4,16.7-11l2.2,3.3
		C3883.2,2526.8,3877.7,2530.4,3872.1,2534.1z M3905.5,2512.1l-2.2-3.3c5.6-3.7,11.2-7.4,16.7-11l2.2,3.3
		C3916.6,2504.7,3911.1,2508.4,3905.5,2512.1z M2477.9,2509.4l-3.6-1.8c3-5.9,6.1-11.9,9.3-17.8l3.5,1.9
		C2484,2497.6,2480.9,2503.5,2477.9,2509.4z M3938.9,2490.1l-2.2-3.3c5.6-3.7,11.2-7.4,16.7-11l2.2,3.3
		C3950,2482.7,3944.5,2486.4,3938.9,2490.1z M2496.6,2474.1l-3.5-1.9c3.2-5.8,6.5-11.7,9.8-17.5l3.5,2
		C2503,2462.5,2499.8,2468.3,2496.6,2474.1z M3972.3,2468l-2.2-3.3c5.6-3.7,11.2-7.4,16.7-11.1l2.2,3.3
		C3983.4,2460.6,3977.9,2464.3,3972.3,2468z M4005.6,2445.9l-2.2-3.3c5.6-3.7,11.1-7.5,16.6-11.2l2.2,3.3
		C4016.7,2438.4,4011.2,2442.1,4005.6,2445.9z M2516.3,2439.4l-3.5-2c3.4-5.7,6.8-11.5,10.2-17.2l3.4,2.1
		C2523.1,2427.9,2519.6,2433.7,2516.3,2439.4z M4038.8,2423.5l-2.3-3.3c5.6-3.8,11-7.6,16.5-11.3l2.3,3.3
		C4049.8,2415.9,4044.3,2419.7,4038.8,2423.5z M2537,2405.2l-3.4-2.1c3.5-5.6,7.1-11.3,10.7-16.9l3.4,2.2
		C2544.1,2393.9,2540.5,2399.6,2537,2405.2z M4071.7,2400.6l-2.3-3.3c5.6-3.9,11.1-7.8,16.3-11.6l2.3,3.3
		C4082.8,2392.8,4077.3,2396.7,4071.7,2400.6z M4104.2,2377.3l-2.4-3.2c5.5-4,10.9-8,16-11.9l2.4,3.2
		C4115.1,2369.2,4109.7,2373.3,4104.2,2377.3z M2558.6,2371.6l-3.3-2.2c3.7-5.5,7.4-11.1,11.2-16.6l3.3,2.3
		C2566,2360.5,2562.2,2366.1,2558.6,2371.6z M4136.2,2353.2l-2.5-3.2c5.4-4.2,10.7-8.4,15.7-12.4l2.5,3.1
		C4146.9,2344.8,4141.6,2349,4136.2,2353.2z M2581.1,2338.7l-3.3-2.3c3.8-5.4,7.7-10.9,11.6-16.3l3.2,2.3
		C2588.8,2327.8,2584.9,2333.2,2581.1,2338.7z M4167.4,2328l-2.6-3.1c5.2-4.4,10.3-8.8,15.1-13l2.6,3
		C4177.8,2319.2,4172.6,2323.6,4167.4,2328z M2604.6,2306.3l-3.2-2.4c4-5.3,8-10.7,12.1-16l3.2,2.4
		C2612.6,2295.6,2608.5,2301,2604.6,2306.3z M4197.5,2301.4l-2.7-2.9c5-4.6,9.8-9.3,14.3-13.8l2.8,2.8
		C4207.3,2292.1,4202.5,2296.8,4197.5,2301.4z M2628.9,2274.6l-3.1-2.5c4.1-5.2,8.3-10.5,12.5-15.7l3.1,2.5
		C2637.1,2264.1,2632.9,2269.4,2628.9,2274.6z M4225.8,2273l-2.9-2.7c4.6-5,9-10,13.1-14.9l3.1,2.6
		C4234.9,2262.9,4230.4,2268,4225.8,2273z M2654,2243.5l-3.1-2.6c4.3-5.1,8.6-10.3,12.9-15.3l3,2.6
		C2662.6,2233.3,2658.2,2238.4,2654,2243.5z M4251.5,2242.2l-3.2-2.4c4-5.4,7.9-10.9,11.3-16.3l3.4,2.2
		C4259.5,2231.1,4255.6,2236.7,4251.5,2242.2z M2679.9,2213.2l-3-2.6c4.4-5,8.9-10,13.3-15l3,2.7
		C2688.7,2203.2,2684.3,2208.2,2679.9,2213.2z M4273.2,2208.4l-3.5-1.9c3.2-5.9,6-11.9,8.5-17.8l3.7,1.5
		C4279.4,2196.2,4276.5,2202.3,4273.2,2208.4z M2706.6,2183.5l-2.9-2.7c4.5-4.9,9.1-9.8,13.7-14.6l2.9,2.8
		C2715.7,2173.7,2711.1,2178.6,2706.6,2183.5z M4288.7,2171.3l-3.8-1.1c1.9-6.3,3.4-12.8,4.5-19.1l3.9,0.7
		C4292.2,2158.2,4290.6,2164.8,4288.7,2171.3z M2734.1,2154.5l-2.9-2.8c4.6-4.8,9.4-9.6,14.1-14.3l2.8,2.8
		C2743.4,2145,2738.7,2149.8,2734.1,2154.5z M4295.4,2131.7l-4-0.2c0.1-2.1,0.1-4.3,0.1-6.5c0-4.4-0.2-8.8-0.6-13.2l4-0.3
		c0.4,4.5,0.6,9.1,0.6,13.6C4295.6,2127.2,4295.5,2129.5,4295.4,2131.7z M2762.3,2126.2l-2.8-2.9c4.8-4.7,9.6-9.3,14.4-13.9l2.8,2.9
		C2771.9,2116.9,2767.1,2121.6,2762.3,2126.2z M2791.3,2098.7l-2.7-2.9c4.9-4.5,9.9-9.1,14.8-13.5l2.7,3
		C2801.1,2089.6,2796.1,2094.2,2791.3,2098.7z M4288.1,2092.3c-1.3-6.3-3-12.7-5.1-19.1l3.8-1.2c2.1,6.5,3.9,13.1,5.2,19.5
		L4288.1,2092.3z M2820.9,2071.9l-2.6-3c5-4.4,10.1-8.8,15.1-13.1l2.6,3C2831,2063.1,2825.9,2067.5,2820.9,2071.9z M4276,2054.7
		c-2.6-5.9-5.5-11.9-8.7-17.8l3.5-1.9c3.2,6.1,6.2,12.2,8.8,18.1L4276,2054.7z M2851.2,2045.9l-2.6-3.1c5.1-4.3,10.3-8.6,15.5-12.7
		l2.5,3.1C2861.5,2037.4,2856.3,2041.7,2851.2,2045.9z M2882.2,2020.8l-2.5-3.1c5.2-4.1,10.5-8.3,15.8-12.3l2.4,3.2
		C2892.7,2012.5,2887.4,2016.6,2882.2,2020.8z M4257.3,2019.7c-3.4-5.4-7.1-11-11.1-16.5l3.3-2.3c4,5.6,7.8,11.2,11.2,16.7
		L4257.3,2019.7z M2913.9,1996.4l-2.4-3.2c5.3-4,10.8-8,16.1-11.9l2.4,3.2C2924.6,1988.4,2919.2,1992.4,2913.9,1996.4z
		 M4234.2,1987.3c-4-5-8.3-10.2-12.7-15.3l3-2.6c4.5,5.2,8.8,10.4,12.8,15.4L4234.2,1987.3z M2946.2,1972.9l-2.3-3.3
		c5.4-3.8,11-7.7,16.4-11.4l2.3,3.3C2957.1,1965.2,2951.6,1969.1,2946.2,1972.9z M4208.1,1957.2c-4.4-4.7-9.1-9.5-13.9-14.3l2.8-2.8
		c4.8,4.8,9.5,9.7,14,14.4L4208.1,1957.2z M2979.1,1950.3l-2.2-3.3c5.5-3.7,11.2-7.4,16.7-11l2.2,3.4
		C2990.3,1942.9,2984.7,1946.6,2979.1,1950.3z M4182.2,1931.1c-4.8-4.6-9.7-9.1-14.6-13.5l2.7-3c4.9,4.4,9.9,9,14.7,13.6
		L4182.2,1931.1z M3012.7,1928.6l-2.1-3.4c5.6-3.5,11.4-7.1,17-10.5l2.1,3.4C3024,1921.6,3018.3,1925.1,3012.7,1928.6z
		 M3046.8,1907.9l-2-3.4c5.7-3.4,11.6-6.8,17.3-10l2,3.5C3058.4,1901.1,3052.5,1904.5,3046.8,1907.9z M4152.5,1904.5
		c-5-4.3-10.2-8.5-15.4-12.6l2.5-3.1c5.2,4.1,10.4,8.4,15.5,12.7L4152.5,1904.5z M3081.5,1888.1l-1.9-3.5c5.8-3.2,11.8-6.4,17.6-9.5
		l1.9,3.5C3093.3,1881.7,3087.3,1884.9,3081.5,1888.1z M4121.4,1879.7c-5.3-4-10.7-7.9-16.1-11.7l2.3-3.3
		c5.4,3.8,10.9,7.8,16.2,11.8L4121.4,1879.7z M3116.8,1869.3l-1.8-3.6c5.9-3,11.9-6.1,17.9-9l1.8,3.6
		C3128.7,1863.3,3122.7,1866.3,3116.8,1869.3z M4088.9,1856.7c-5.5-3.7-11.1-7.3-16.8-10.8l2.1-3.4c5.6,3.5,11.3,7.2,16.9,10.8
		L4088.9,1856.7z M3152.6,1851.6l-1.7-3.6c6-2.9,12.1-5.7,18.1-8.5l1.7,3.6C3164.6,1845.9,3158.5,1848.8,3152.6,1851.6z
		 M4055,1835.7c-5.7-3.3-11.6-6.6-17.4-9.8l1.9-3.5c5.8,3.2,11.7,6.5,17.5,9.9L4055,1835.7z M3188.9,1834.9l-1.6-3.7
		c6.1-2.7,12.3-5.4,18.4-7.9l1.6,3.7C3201.1,1829.6,3194.9,1832.3,3188.9,1834.9z M3225.6,1819.4l-1.5-3.7c6.2-2.5,12.4-5,18.6-7.4
		l1.4,3.7C3238,1814.4,3231.8,1816.9,3225.6,1819.4z M4020,1816.6c-5.9-3-11.9-6-17.9-8.8l1.7-3.6c6,2.9,12.1,5.8,18,8.9
		L4020,1816.6z M3262.9,1804.9l-1.4-3.8c6.2-2.3,12.6-4.6,18.8-6.8l1.3,3.8C3275.4,1800.4,3269.1,1802.6,3262.9,1804.9z
		 M3984,1799.5c-6.1-2.7-12.2-5.3-18.4-7.8l1.5-3.7c6.2,2.5,12.4,5.2,18.5,7.8L3984,1799.5z M3300.5,1791.7l-1.3-3.8
		c6.3-2.1,12.7-4.2,19-6.2l1.2,3.8C3313.2,1787.5,3306.8,1789.6,3300.5,1791.7z M3947.1,1784.3c-6.2-2.3-12.5-4.6-18.8-6.8l1.3-3.8
		c6.3,2.2,12.6,4.5,18.9,6.8L3947.1,1784.3z M3338.6,1779.6l-1.1-3.8c6.4-1.9,12.9-3.8,19.2-5.6l1.1,3.9
		C3351.4,1775.9,3345,1777.7,3338.6,1779.6z M3909.4,1771.2c-6.3-2-12.7-4-19.1-5.8l1.1-3.8c6.4,1.9,12.9,3.8,19.2,5.8
		L3909.4,1771.2z M3377.1,1768.8l-1-3.9c6.4-1.7,13-3.3,19.4-4.9l1,3.9C3390,1765.5,3383.5,1767.2,3377.1,1768.8z M3871,1760.1
		c-6.4-1.7-12.9-3.3-19.4-4.8l0.9-3.9c6.5,1.5,13.1,3.2,19.5,4.9L3871,1760.1z M3415.9,1759.3l-0.9-3.9c6.5-1.5,13.1-2.9,19.6-4.3
		l0.8,3.9C3428.9,1756.4,3422.3,1757.9,3415.9,1759.3z M3454.9,1751.2l-0.7-3.9c6.6-1.2,13.2-2.4,19.7-3.6l0.7,3.9
		C3468.1,1748.8,3461.5,1750,3454.9,1751.2z M3832.1,1750.9c-6.5-1.4-13.1-2.7-19.6-3.9l0.7-3.9c6.6,1.2,13.2,2.5,19.7,3.9
		L3832.1,1750.9z M3494.3,1744.4l-0.6-4c6.6-1,13.3-2,19.8-2.8l0.5,4C3507.5,1742.5,3500.9,1743.4,3494.3,1744.4z M3792.8,1743.6
		c-6.5-1-13.2-2-19.8-2.9l0.5-4c6.6,0.9,13.3,1.9,19.9,3L3792.8,1743.6z M3533.9,1739.1l-0.5-4c6.6-0.8,13.3-1.5,19.9-2.1l0.4,4
		C3547.1,1737.7,3540.5,1738.4,3533.9,1739.1z M3753.2,1738.2c-6.6-0.7-13.3-1.4-19.9-2l0.4-4c6.7,0.6,13.4,1.3,20,2L3753.2,1738.2z
		 M3573.6,1735.3l-0.3-4c6.6-0.5,13.4-1,20-1.3l0.2,4C3586.9,1734.4,3580.2,1734.8,3573.6,1735.3z M3713.4,1734.6
		c-6.6-0.5-13.3-0.8-20-1.1l0.2-4c6.7,0.3,13.4,0.7,20.1,1.2L3713.4,1734.6z M3613.4,1733.1l-0.1-4c6.7-0.2,13.4-0.4,20.1-0.5l0.1,4
		C3626.8,1732.6,3620.1,1732.8,3613.4,1733.1z M3673.4,1732.7c-6.6-0.2-13.3-0.3-20-0.3l0-4c6.7,0,13.4,0.1,20.1,0.3L3673.4,1732.7z
		"/>
</g>
</svg>
