<svg width="204" height="312" viewBox="0 0 204 312" fill="none" xmlns="http://www.w3.org/2000/svg">
<g clip-path="url(#clip0_265_2)">
<path d="M100.9 32.1001C96.6 42.5001 90 52.6001 81.5 60.0001C77.7 63.2001 73.5 66.0001 68.9 67.8001C66.9 68.6001 65 69.4001 63.5 70.9001C61.8 72.7001 61.2 75.1001 61.3 77.6001C61.4 80.3001 62.4 82.5001 64.3 84.3001C66.5 86.3001 69.1 88.0001 71.8 89.1001C76.7 91.2001 82.1 90.9001 86.5 87.8001C90.9 84.8001 93.7 79.7001 94.9 74.6001C95.5 72.1001 95.7 68.7001 94.1 66.5001C92.9 64.8001 90.7 64.5001 89 65.6001C85 68.0001 83.9 74.1001 83.8 78.3001C83.7 83.6001 85.2 89.2001 89.2 92.9001C98.3 101.4 110.4 90.1001 114.4 81.7001C115.6 79.1001 116.6 76.3001 117 73.5001C117.4 70.9001 117.5 67.9001 116.4 65.5001C115.5 63.5001 113.6 62.6001 111.8 64.0001C109.7 65.6001 109.3 68.9001 109.1 71.3001C108.8 77.0001 110.3 83.2001 113.5 88.0001C116.1 91.9001 120.2 95.1001 125.1 94.4001C130.1 93.6001 134.6 89.0001 135.8 84.2001C136.5 81.4001 136.4 78.0001 134.5 75.8001C132.6 73.6001 130.5 71.4001 128.6 69.2001C120.4 59.6001 113.3 48.9001 107.3 37.8001C105.7 34.8001 104.1 31.8001 102.7 28.8001C102.3 28.1001 102.1 29.2001 102.1 29.5001C102 30.3001 101.9 31.5001 102.3 32.3001C107 42.3001 112.5 51.9001 118.9 60.9001C121.9 65.2001 125.1 69.3001 128.6 73.3001C130.2 75.2001 131.9 77.0001 133.6 78.9001C134 79.3001 134.5 79.8001 134.8 80.3001C135.1 80.8001 135.3 81.0001 135.3 81.5001C135.2 82.8001 134.1 84.2001 133.4 85.2001C130.9 88.6001 126.9 91.3001 122.4 90.7001C118.1 90.1001 114.9 86.6001 112.9 83.0001C111.7 80.8001 110.8 78.4001 110.3 75.9001C109.8 73.5001 109.6 70.6001 111.2 68.5001C112.4 66.8001 114.7 66.2001 115.9 68.3001C117 70.3001 116.3 72.8001 115.7 74.8001C114.2 79.4001 111.6 83.7001 108.1 87.0001C104.6 90.4001 99.6 93.4001 94.5 92.4001C90.1 91.6001 87 87.7001 85.6 83.7001C84.1 79.5001 84.5 74.4001 87.2 70.7001C88.2 69.3001 89.8 68.0001 91.6 68.2001C92.5 68.3001 93.3 68.7001 93.9 69.4001C95 70.7001 94.7 72.1001 94.2 73.7001C92.8 78.0001 90.2 82.0001 86.5 84.6001C82.7 87.2001 78.1 87.7001 73.7 86.4001C71.1 85.6001 68.7 84.2001 66.5 82.6001C64.8 81.4001 62.1 79.4001 62.1 77.0001C62.1 75.2001 64 73.5001 65.4 72.6001C67 71.5001 68.8 71.0001 70.6 70.2001C74.4 68.4001 77.9 66.1001 81.1 63.4001C88.4 57.2001 93.9 49.3001 98 40.7001C99.2 38.3001 100.2 35.8001 101.1 33.3001C101.2 33.0001 101.2 32.6001 101.2 32.3001C101.1 32.3001 101 31.8001 100.9 32.1001Z" fill="#002045"/>
<path d="M68.3 89.1C59.6 101.5 49.2 112.7 37.1 121.9C36.5 122.4 36.7 124.7 37 125.3C40.3 132.6 45.9 139.4 53.8 141.8C61.1 144 68.5 141.1 73 135.1C76.1 130.9 77.5 125.9 77.6 120.7C77.6 120.4 77.6 118.9 77.2 118.8C72.7 118.4 70.8 124.6 70.2 128C69.3 133.4 69.9 139.6 73.5 143.9C76.8 147.8 81.8 148.8 86.3 146.6C89.1 145.2 91.5 143 93.6 140.8C95.6 138.6 97.4 136.4 98.8 133.8C100.3 131 101.3 128 101.6 124.9C101.9 121.9 101.8 118.5 100 115.8C99.9 115.7 99.9 115.7 99.8 115.8C96.2 118.7 95.5 124.4 95.4 128.7C95.4 133.8 96.7 139.2 100.3 143C103.4 146.3 108.2 147.9 112.5 146.2C117.2 144.3 120.1 139.7 121.3 135C122.8 129.3 122.7 122.4 120 117.1C119.7 116.6 119.6 117 119.5 117.4C117.4 125.5 119 135.2 124.4 141.7C126.5 144.3 129.4 146.4 132.8 146.6C136.6 146.8 140.2 145 143.1 142.6C147.2 139.2 150.1 134.6 152.4 129.9C152.8 129.1 153 126.6 152.3 125.9C141.6 115.2 133.2 102.7 126.3 89.3C125.9 88.5 125.7 89.8 125.6 90.1C125.5 90.9 125.4 92.3 125.8 93.1C132.7 106.7 141.2 119.4 152 130.1C152 128.8 151.9 127.5 151.9 126.1C148.7 132.6 143.4 140.5 135.7 142C128.8 143.4 123.7 137.9 121.3 132C119.7 128.1 119.1 124.1 120.1 120C120 120.2 119.8 120.3 119.7 120.5C123.6 128 120.2 139.8 111.6 142.3C103.1 144.8 95.9 136.1 96.3 128.1C96.4 126.1 96.8 124.1 97.7 122.3C98.1 121.5 98.6 120.7 99.2 120.1C99.4 119.9 99.7 119.5 100 119.6C100.3 119.8 100.6 120.8 100.7 121.1C101.3 123 100.6 125 100 126.7C99.2 128.8 98.2 130.8 96.9 132.6C92.5 138.8 83.8 147.9 75.7 142.1C72.1 139.5 70 134.9 70.7 130.5C71.2 127.3 73.1 122.1 77.2 122.4C77.1 121.8 76.9 121.1 76.8 120.5C76.6 128.1 71 135.6 63.7 137.8C57.1 139.8 50.3 137.4 45.3 132.9C41.9 129.8 39.3 126 37.4 121.8C37.4 122.9 37.3 124.1 37.3 125.2C49.6 115.8 59.8 104 68.4 91.2C68.7 90.8 68.6 90.1 68.6 89.7C68.6 89.9 68.5 88.9 68.3 89.1Z" fill="#002045"/>
<path d="M49.5 139.5C42 154.1 32.1 167.6 19.3 177.9C18.7 178.4 18.9 180.7 19.2 181.4C23.5 189.9 31 198.4 41.1 199.3C51.1 200.2 59.6 192.8 64.4 184.7C65 183.6 65.9 182.4 66.1 181.2C66.3 179.9 66.1 178.5 65.5 177.3C64.8 175.7 63.3 174.4 61.5 174.6C56.8 175 56.5 182.4 56.8 185.8C57.1 190.8 59.2 195.6 63.9 197.8C67.8 199.6 72.3 199.3 76.1 197.6C81 195.4 84.8 191.2 87.4 186.6C88.8 184.1 90 181.5 90.5 178.7C90.9 176.3 91.3 172.7 89.5 170.7C89.4 170.6 89.3 170.6 89.3 170.7C85.6 173.2 84.7 178.5 84.5 182.6C84.2 187.6 84.9 193.1 87.4 197.5C90.3 202.4 95.9 204.3 101.2 202.3C106.7 200.2 110.6 195.4 113 190.2C116.1 183.6 117 175.7 115 168.7C115 168.6 114.8 167.8 114.6 168.2C112.9 170.6 112.2 173.5 111.9 176.4C111.6 179.9 111.8 183.4 112.6 186.8C114.2 192.9 118.4 197.8 124.2 200.2C129.7 202.5 136.1 202.4 140.7 198.4C145.2 194.6 146.8 188.6 147.2 182.9C147.6 177.3 147.2 169.7 142.7 165.7C142.4 165.4 142.3 166.1 142.2 166.3C140.7 173.6 141.8 181.7 145.8 188.1C147.4 190.7 149.5 193 152.2 194.5C155.4 196.2 159.3 196.3 162.8 195.4C166.7 194.4 170.3 192.2 173.5 189.9C174.9 188.9 176.3 187.9 177.3 186.5C178.4 184.9 178.8 183 178.8 181C178.8 179 178.5 177 177.4 175.3C176.2 173.5 174.7 171.8 173.4 170C170.8 166.5 168.1 163 165.5 159.6C159.7 151.8 153.9 144 147.8 136.4C147.4 135.9 147.2 137.8 147.2 138C147.2 138.8 147 140.1 147.5 140.7C156.5 153 165.8 165 175 177.1C175.2 177.4 177.9 181 177.6 181.1C177.6 180.8 177.6 180.6 177.6 180.3C177.5 180.5 177.4 180.7 177.3 181C177.1 181.3 176.9 181.6 176.7 181.9C176.2 182.5 175.7 183.1 175.1 183.6C172.3 186 169 188 165.7 189.5C159.9 192 153.5 191.9 148.8 187.3C144.2 182.8 141.4 175.7 142.6 169.3C142.4 169.5 142.3 169.7 142.1 169.9C145.1 172.5 146.1 176.9 146 180.8C145.8 185.3 144.3 189.9 141.1 193.2C133.4 201 120 196.8 114.8 188.3C111.9 183.6 111 176.9 114.4 172.2C114.3 172.1 114.2 172.1 114.1 172C115.5 176.8 114.3 181.8 112.3 186.3C110.3 190.7 107.2 194.7 103.1 197.1C99.1 199.4 94.1 199.9 90.3 197C87.2 194.7 85.7 190.9 85.1 187.1C84.6 183.8 85 180.1 86.8 177.2C87.2 176.6 87.6 176 88.1 175.5C88.2 175.4 88.8 174.8 89 174.8C89.3 174.8 89.5 175.6 89.6 175.9C89.5 175.4 89.6 176 89.6 176.1C89.5 176.4 89.5 176.7 89.4 176.9C89.3 177.4 89.1 177.9 88.9 178.4C88.4 179.8 87.8 181.1 87.1 182.4C83.2 189.7 75.5 196.8 66.6 195.1C61.4 194.1 57 189.5 57.2 184.1C57.3 181.9 58.4 179.2 60.7 178.7C62.8 178.2 64.6 179.8 65.1 181.8C65.1 180.8 65.2 179.8 65.2 178.8C61.6 185.9 55.7 192.6 47.8 195C40.7 197.1 33.5 194.7 28.1 190C24.4 186.8 21.5 182.8 19.4 178.5C19.4 179.7 19.3 180.8 19.3 182C32.4 171.3 42.3 157.1 49.6 141.9C49.8 141.5 49.8 140.8 49.7 140.3C49.8 139.7 49.7 139.1 49.5 139.5Z" fill="#002045"/>
<path d="M35.3 195.3C29.3 203.3 23.6 211.4 17.9 219.6C15 223.8 12 228 9.10001 232.2C7.70001 234.2 6.20001 236.3 4.80001 238.3C3.50001 240.1 2.00001 241.9 1.00001 243.9C-0.699992 247.2 -0.199992 252 3.00001 254C4.60001 255.1 6.60001 255.6 8.50001 256.2C10.8 257 13.2 257.6 15.6 258.1C23.4 259.5 31.4 258.4 37.9 253.6C40.9 251.4 43.4 248.6 45.5 245.5C47.6 242.3 49.3 238.8 49.6 235C49.7 233.2 49.8 231.1 49 229.5C48.3 228 47 228.1 45.7 228.8C43.2 230.2 41.6 232.7 40.5 235.2C37.6 241.8 37.2 250.1 39 257C40.7 263.5 45.1 270.1 51.9 271.8C58.9 273.5 65.4 268.6 69.6 263.4C75 256.7 78.6 248.2 79.4 239.7C79.6 237.4 79.6 235 79.4 232.7C79.4 232.6 79.2 230.7 78.8 231.2C74.5 236.3 73.6 243.9 73.8 250.3C74 257.1 75.8 264.6 81.1 269.3C85.9 273.7 92.6 274.2 98 270.5C104.1 266.4 107.7 259 109.9 252.2C111.2 248.2 112.1 244.1 112 239.8C111.9 237.1 111.8 232.3 108.7 231.1C108.6 231.2 108.5 231.2 108.5 231.4C105.6 238 105.3 245.8 106.4 252.9C107.4 259.4 110 266.6 115.9 270.2C121.8 273.8 128.7 271.9 133 266.8C137.6 261.3 139.4 253.7 140 246.7C140.3 242.7 140.2 238.5 139.6 234.5C139.3 232.9 139.2 230.6 138 229.5C136.7 228.2 135.4 230 134.8 231.2C133.2 234.4 132.7 238.3 132.5 241.8C132.3 245.6 132.5 249.5 133.2 253.2C134.3 259.1 136.7 266 141.9 269.5C146.9 272.8 152.9 271.6 157.2 267.7C162.6 262.9 164.5 255.3 165.1 248.4C165.7 241.1 164.9 233.1 161.8 226.4C161.1 225 160.4 223.6 159.5 222.3C159.4 222.2 159.3 222.2 159.2 222.3C157.5 224.5 156.9 227.3 156.7 230C156.4 233.2 156.6 236.5 157.4 239.6C158.8 245.3 162.6 249.6 167.6 252.5C175.3 257.1 185.2 258.4 193.2 253.8C198.2 250.9 201.7 246.2 204 240.9C204.4 240.1 204.3 238.9 204.3 238C204.3 237.3 204.3 236.2 203.8 235.6C199.5 230.5 195 225.7 190.8 220.6C185.6 214.4 180.7 208 176.6 201.1C174.2 197 172 192.7 170.3 188.2C169.9 187.1 169.5 188.9 169.5 189.2C169.3 190.3 169.3 191.8 169.7 192.9C175.6 208.2 185.9 221 196.5 233.1C198.8 235.8 201.2 238.4 203.5 241.1C203.4 239.4 203.4 237.6 203.3 235.9C200.3 242.8 194.8 248.6 187.2 250.3C180.5 251.9 173.5 250.4 167.6 247C163.9 244.8 160.5 241.8 158.8 237.8C158.1 236.1 157.6 234.2 157.6 232.4C157.6 231.7 157.7 231 157.9 230.4C158.1 229.7 158.4 228.3 159 227.8C159.4 227.5 159.3 227.7 159.7 228.2C159.9 228.6 160.2 228.9 160.4 229.3C160.9 230.2 161.3 231.1 161.7 232.1C162.5 234 163.1 236 163.5 238.1C164.2 241.9 164.3 245.8 163.6 249.6C162.2 256.8 157.5 265.1 149.4 265.9C141.7 266.7 136.8 259.6 134.8 253.1C133.7 249.5 133.2 245.6 133.7 241.9C133.9 239.9 134.3 237.9 135.1 236C135.4 235.2 136.2 233.7 137.2 234C138.3 234.3 138.4 235.9 138.6 236.8C140.1 244.8 138.5 254.2 133.6 260.9C131.2 264.1 127.9 266.7 123.9 267.2C119.9 267.7 116 266 113.2 263.2C107.8 257.6 106 248.4 107.4 240.9C107.7 239 108.3 237.1 109.1 235.2C109 235.3 108.9 235.4 108.9 235.5C110.9 236.3 111.3 239 111.2 240.9C111.1 243.9 110.1 246.9 109.1 249.8C107 255.7 103.8 261.6 98.8 265.4C94.4 268.7 88.7 269.3 83.9 266.6C78.8 263.7 76 257.9 75.1 252.2C74.3 246.5 75.2 239.9 79.1 235.4C78.9 234.9 78.7 234.4 78.5 233.9C79.1 241.5 76.1 249.1 72 255.3C68.5 260.7 63.5 266.3 56.8 267.4C51.2 268.3 45.9 265.1 42.8 260.6C39.3 255.6 38.2 249.3 39.6 243.4C40.2 240.7 41.3 238.1 43 235.9C44 234.7 47.5 231.2 48.6 233.9C48.7 234.1 48.6 233.7 48.6 233.7C48.6 234 48.5 234.2 48.5 234.4C48.4 235.1 48.1 235.7 47.8 236.3C47 238 46.1 239.7 45.1 241.2C43.3 243.9 41.1 246.4 38.6 248.4C33.3 252.7 26.8 254.6 20 254.3C15.9 254.1 11.8 253.2 7.90001 251.9C6.30001 251.4 4.40001 250.9 3.00001 249.9C2.50001 249.5 1.90001 249 1.60001 248.5C1.40001 248.2 1.10001 247.8 1.10001 247.5C1.10001 248.2 1.70001 246.9 1.80001 246.6C4.10001 243 6.70001 239.5 9.20001 235.9C11.7 232.3 14.2 228.6 16.7 225C21.8 217.7 26.8 210.4 31.8 203.1C33.1 201.2 34.3 199.3 35.5 197.4C35.7 197 35.7 196.4 35.7 196C35.5 196 35.4 195.1 35.3 195.3Z" fill="#002045"/>
<path d="M89.7 22.7001C89.4 15.2001 90 6.40006 95.7 0.800057C97.7 -1.19994 99.7 0.800056 100.7 3.80006C102.6 9.40006 105.2 16.9001 105.7 22.7001C105.9 24.6001 103.3 24.5001 101.7 23.3001C95.6 18.8001 89.8 15.5001 82.7 12.7001C81.8 12.4001 80.7 11.6001 80.7 10.7001C80.7 8.70006 89.6 7.70006 93.6 7.30006L109.3 5.80006C110.1 5.70006 111.3 5.90006 111.6 6.70006C112.1 7.80006 111 8.80006 110.2 9.50006L93.2 23.9001C91.7 25.1001 89.8 24.6001 89.7 22.7001Z" fill="#C69C6D"/>
<path d="M98.7 266C99.3 280 99.6 294 99.4 308C99.4 308.5 99.5 309.7 100.1 310C100.7 310.3 101 309.5 101.1 309.1C104.5 295 105.3 280.3 103.5 265.9C103.4 265.4 103.2 264.2 102.4 264.5C101.7 264.8 101.7 266.4 101.8 266.9C103.4 279.8 103.9 292.9 103.2 305.9C103.2 306.4 103.4 308.1 104.2 308.1C107.5 307.9 107.9 302.6 108.3 300.2C109 296.3 109.3 292.4 109.4 288.5C109.5 280.6 108.3 272.6 105.9 265.1C105.7 264.5 105.4 263.7 104.7 264.2C104 264.7 104.1 266.1 104.1 266.8C105.5 280.1 106 293.4 105.8 306.7C105.8 307.6 106.7 310.3 107.6 308.4C110.8 301.5 111.1 293.7 111.1 286.2C111.1 278 110.8 269.8 110.1 261.6C109.4 262 108.7 262.5 108.1 262.9C109.5 277.8 110 292.7 109.8 307.6C109.8 308.2 109.9 309.7 110.6 310C111.3 310.3 111.7 309.4 111.8 308.9C114.8 297.1 115.7 284.9 114.8 272.7C114.8 272.1 114.4 270.7 113.6 270.9C112.8 271.1 112.7 272.7 112.7 273.3C112.7 283 112.7 292.7 112.7 302.3C112.7 303 112.8 304.8 113.8 304.9C114.8 304.9 114.9 302.9 114.9 302.3C115.1 294.6 115.2 286.8 114.4 279.1C114 275.3 113.5 271.4 112.4 267.7C112.1 266.7 111.1 264.6 109.9 266C109 267 108.6 270.7 110.2 271.2C110.3 269.5 110.4 267.9 110.5 266.2C108.6 266 106.7 265.7 104.8 265.5C103 265.3 100.9 265.2 99.1 264.8C98.5 264.7 98.3 267 99.1 267.2C101 267.7 102.9 268.6 104.7 269.3C106.5 270 108.4 270.6 110.2 271.3C111.9 271.9 112 267.1 110.8 266.4C110.7 266.4 110.7 266.3 110.6 266.3C110.9 266.9 111.1 267.5 111.4 268.1C111.4 268 111.4 268 111.4 267.9C111.3 268.7 111.2 269.6 111.1 270.4C111.1 270.4 111.1 270.4 111.1 270.5C110.9 270.6 110.7 270.7 110.5 270.9C110.4 270.9 110.3 270.1 110.5 270.9C110.6 271.3 110.7 271.7 110.8 272.1C110.9 272.7 111.1 273.3 111.2 274C111.4 275.3 111.6 276.6 111.8 277.8C112.2 280.5 112.4 283.2 112.5 285.9C112.7 291.4 112.6 296.9 112.6 302.4C113.4 302.4 114.1 302.4 114.9 302.4C114.9 292.7 114.8 283 114.8 273.4C114.1 273.6 113.4 273.8 112.7 274.1C113.5 285 112.5 295.9 109.9 306.4C110.6 306.8 111.3 307.2 112 307.7C112.2 292.3 111.5 277 110.1 261.7C110 261.1 109.7 259.6 108.8 260C107.9 260.4 108 262.3 108.1 263C108.7 270.4 109 277.9 109 285.3C109 292 108.9 298.9 106.1 305.2C106.7 305.8 107.3 306.3 107.9 306.9C108.1 293.2 107.4 279.4 106 265.8C105.4 266.4 104.8 267 104.2 267.5C106.2 273.7 107.4 280.2 107.5 286.8C107.5 290 107.4 293.3 106.9 296.5C106.7 298.1 106.4 299.8 106.1 301.4C105.9 302.5 105.6 303.9 104.3 304C104.6 304.7 104.9 305.5 105.3 306.2C106 292.8 105.4 279.4 103.6 266.2C103 266.5 102.5 266.9 101.9 267.2C103.7 280.5 102.9 294.2 99.6 307.3C100.2 307.6 100.7 308 101.3 308.3C101.6 294.2 101.3 280 100.1 265.9C100.1 265.5 99.9 264.7 99.4 264.8C98.8 264.6 98.7 265.6 98.7 266Z" fill="#002045"/>
</g>
<defs>
<clipPath id="clip0_265_2">
<rect width="204" height="312" fill="white"/>
</clipPath>
</defs>
</svg>
