<svg width="360" height="368" viewBox="0 0 360 368" fill="none" xmlns="http://www.w3.org/2000/svg">
<path d="M173.6 205C173.2 203.2 171.9 202.1 171.2 200.5C170 197.7 168.9 195 167.7 192.2C166.6 189.6 166 186.8 165.4 184C164.9 181.9 164.5 179.8 163.8 177.8C163.1 175.7 162.4 173.6 161.9 171.4C161.4 168.7 160.2 166.1 160 163.3C159.9 162.1 159.5 160.7 159 159.5C158.5 158.3 158.2 157.1 158 155.9C157.8 154.6 157.4 153.2 157.2 151.9C156.8 149.4 156.3 146.7 155.3 144.4C154.1 141.6 154.1 138.6 153.3 135.8C152.8 134 153.5 131.9 152.6 130C152.9 126.3 152.2 122.5 153.1 118.7C153.5 117.2 153.6 115.9 155.1 114.9C155.8 114.4 156.3 113.3 156.6 112.4C156.9 111.5 156.5 110.8 155.7 110.2C155.5 110 155.5 109.5 155.5 109.2C155.5 108.5 155.8 107.6 155.4 107.2C154.6 106.3 155 105.4 154.9 104.5C154.7 103.5 154.4 102.6 154.4 101.6C154.3 98.5002 153.6 95.5002 152.6 92.6002C150.9 87.4002 147.9 82.8002 143 80.4002C141.7 79.8002 140.5 79.0002 139.3 78.2002C137.1 76.7002 136.4 74.3002 135.5 72.1002C135.1 71.2002 135.9 70.0002 134.9 69.2002C135.4 68.0002 136.3 66.9002 137.5 66.7002C140.2 66.3002 140.8 64.2002 141.1 62.2002C141.4 60.0002 142.1 58.0002 142.6 55.9002C142.9 54.5002 143 53.1002 143.5 51.7002C143.8 50.8002 142.9 50.1002 142.5 49.3002C141.9 47.9002 142.4 46.0002 143.5 45.2002C144.7 44.3002 145.8 43.3002 147.1 42.8002C148.6 42.3002 149.1 40.5002 150.6 40.3002C153.2 37.7002 156.2 35.4002 157.5 31.7002C158.2 29.9002 158.8 28.0002 158.2 26.1002C157.3 23.2002 153.8 20.7002 150.8 20.8002C146.9 20.9002 142.9 20.3002 139 21.3002C137.4 21.7002 135.6 21.4002 134 21.4002C132.8 20.2002 131.7 19.1002 130.6 18.0002C129.8 17.2002 128.9 16.6002 127.9 16.2002C125.6 15.2002 123.2 14.4002 120.6 14.5002C118.9 14.5002 117.3 14.7002 115.7 15.0002C113.7 15.3002 111.8 15.7002 109.9 16.3002C106.4 17.4002 103 18.7002 100 20.8002C98.5001 21.9002 97.1001 23.0002 95.6001 24.2002C92.4001 26.7002 90.2001 29.7002 88.9001 33.5002C88.4001 34.8002 88.6001 36.1002 88.3001 37.3002C87.7001 39.9002 87.8001 39.9002 88.2001 41.8002C88.5001 43.5002 88.7001 45.5002 88.2001 47.1002C87.4001 49.6002 85.9001 52.0002 83.6001 53.5002C82.2001 54.5002 80.8001 55.6002 79.4001 56.5002C76.7001 58.2002 74.3001 60.1002 72.6001 62.8002C72.0001 63.7002 70.9001 64.0002 69.9001 64.6002C68.0001 65.7002 66.0001 65.0002 64.0001 65.6002C61.5001 66.3002 59.1001 67.1002 56.6001 67.8002C53.0001 68.8002 50.4001 71.2002 47.8001 73.5002C45.9001 75.2002 44.4001 77.5002 43.9001 80.1002C43.5001 82.4002 43.3001 84.7002 44.4001 86.8002C45.3001 88.5002 46.5001 89.7002 48.2001 90.6002C50.6001 91.8002 53.1001 92.3002 55.7001 92.6002C58.0001 92.8002 60.3001 92.6002 62.6001 92.6002C65.5001 92.6002 68.1001 91.8002 70.6001 90.5002C73.3001 89.1002 76.1001 88.0002 78.9001 86.9002C79.3001 86.7002 79.9001 87.0002 80.7001 87.1002C78.4001 89.9002 76.3001 92.5002 74.2001 95.0002C72.1001 97.4002 70.5001 100.1 69.2001 103C68.5001 104.4 69.0001 105 70.3001 105.8C71.6001 106.7 73.2001 106 74.4001 106.9C75.4001 105.8 76.7001 106.5 77.9001 106.4C78.7001 106.3 79.3001 106.9 79.3001 107.8C79.3001 109.1 79.3001 110.5 79.3001 111.8C79.1001 120.1 80.0001 128.4 78.2001 136.6C77.7001 138.6 77.3001 140.6 76.7001 142.6C75.9001 145.6 74.5001 148.4 74.0001 151.5C73.5001 154.5 73.1001 157.6 72.6001 160.6C72.3001 162.2 71.5001 163.8 71.9001 165.5C71.0001 168.1 70.9001 170.8 70.1001 173.4C69.4001 175.9 68.6001 178.3 67.9001 180.8C67.1001 183.5 65.9001 185.9 65.1001 188.5C64.9001 189.2 64.3001 190.1 64.5001 190.4C65.3001 191.6 64.7001 192.8 64.9001 193.8C64.3001 194.4 63.6001 194.8 63.4001 195.4C62.9001 196.7 61.7001 197.4 60.9001 198.4C60.0001 199.5 59.1001 200.5 58.3001 201.6C57.5001 202.6 56.6001 203.6 55.9001 204.6C54.9001 206 54.9001 207.9 55.9001 209.5C56.6001 210.8 57.4001 212.2 56.9001 213.6C55.8001 217 55.4001 220.6 54.8001 224.2C54.4001 226.5 53.2001 228.7 53.5001 231.2C52.3001 232.2 53.2001 233.8 52.4001 235.1C51.8001 236.2 52.1001 237.8 51.7001 239.1C51.1001 241.3 51.1001 243.7 49.7001 245.8H40.6001C40.0001 245.8 39.3001 245.6 38.9001 245.8C37.4001 246.8 35.7001 246.2 34.1001 246.8C33.0001 247.2 31.6001 247.4 30.4001 247.5C29.1001 247.6 27.9001 247.9 26.6001 248.1C21.3001 249 18.3001 252.5 16.1001 257C15.8001 260.2 14.5001 263.2 13.8001 266.4C13.2001 269 12.6001 271.7 11.9001 274.2C11.2001 277 10.5001 279.9 9.70007 282.7C9.20007 284.5 8.80008 286.4 8.30008 288.1C7.10008 292.1 6.20007 296.2 5.20007 300.3C4.50007 303 3.80008 305.7 3.10008 308.3C2.50008 310.8 1.90008 313.3 1.10008 315.8C0.700082 317.2 0.900076 318.6 0.500076 319.8C0.200076 320.9 -0.299918 321.8 0.600082 322.8C0.500082 324.8 1.50008 326.3 2.60008 327.7C2.80008 328 2.80007 328.6 2.90007 329C3.40007 331.9 5.10008 334.1 7.60008 334.9C9.60008 335.5 11.6001 336.1 13.6001 336.2C17.3001 336.3 20.9001 337.2 24.5001 336.9C25.4001 336.8 26.2001 336.9 27.1001 336.9C27.6001 336.9 28.1001 336.9 28.5001 337.1C30.7001 338 33.1001 338.4 35.4001 339.1C37.4001 339.7 39.5001 340.4 41.5001 341C43.6001 341.5 45.6001 342.1 47.7001 342.7C49.4001 343.2 49.5001 343.5 49.3001 345.4C49.2001 345.9 49.3001 346.4 49.3001 346.8C49.4001 347.8 49.8001 348.4 50.8001 348.3C52.0001 348.2 53.1001 347.9 54.4001 347.7C54.5001 345 54.6001 344.8 56.9001 344.9C57.4001 344.9 57.9001 345.1 58.5001 345.2C60.4001 345.6 62.3001 345.6 64.1001 344.6C65.6001 343.8 66.0001 342.4 66.4001 341C67.3001 337.9 67.9001 334.7 68.1001 331.4C68.1001 330.8 67.9001 330 68.2001 329.7C69.0001 328.8 68.6001 327.7 68.7001 326.7C68.9001 325.7 69.1001 324.8 69.3001 323.8C69.5001 322 69.4001 320 70.0001 318.3C70.5001 316.9 70.1001 315.5 70.5001 314.2C71.5001 311.3 71.1001 308.3 72.1001 305.4C72.5001 304.2 71.8001 302.8 72.5001 301.5C73.1001 300.3 72.8001 298.9 73.2001 297.5C73.8001 295.1 74.2001 292.5 74.4001 290C74.7001 286.6 75.9001 283.3 75.7001 279.9C76.5001 278.4 76.0001 276.7 76.4001 275.2C76.6001 274.4 76.8001 273.6 76.9001 272.8C77.0001 271.9 77.5001 271 77.4001 270.2C77.3001 267.9 78.4001 265.8 78.0001 263.5C78.0001 263.3 78.1001 263 78.2001 262.7C78.6001 261.3 78.3001 257.2 77.4001 256.2C75.8001 254.3 74.1001 252.6 71.6001 251.6C69.8001 250.9 67.6001 250.6 66.5001 248.3C66.7001 245.6 66.7001 242.9 67.2001 240.3C67.4001 239.1 67.8001 238 67.6001 236.8C67.4001 235.5 68.2001 234.5 68.2001 233.3C68.3001 230.4 68.6001 227.5 68.8001 224.6C68.8001 224.4 68.7001 224.1 68.8001 224C69.6001 223.1 69.5001 222.1 69.3001 221.1C69.1001 219.9 69.8001 219 69.9001 217.9C69.9001 217 69.8001 216.2 69.9001 215.3C70.0001 214.5 70.2001 213.7 70.5001 213C70.7001 212.5 71.0001 212 71.3001 211.5C71.4001 213.4 72.7001 215 72.3001 216.8C72.0001 218.1 72.6001 219.4 73.0001 220.5C73.6001 222.3 75.0001 223.5 76.9001 224.1C78.2001 224.5 79.4001 224.9 80.7001 225.2C82.3001 225.6 83.4001 226.5 83.7001 228.2C84.1001 230.4 85.5001 232.3 85.4001 234.7C86.9001 237.4 87.1001 240.5 88.3001 243.3C89.1001 245.2 89.3001 247.3 89.9001 249.2C90.6001 251.1 91.4001 253.1 91.1001 255.3C92.2001 256.3 91.2001 257.8 91.7001 258.7C92.5001 260 92.2001 261.3 92.2001 262.5C92.1001 265.8 92.6001 269.1 91.7001 272.3C91.3001 273.7 91.1001 275.1 90.6001 276.4C89.8001 278.9 89.3001 281.5 89.2001 284.2C89.2001 288 89.8001 291.8 90.5001 295.5C90.9001 297.6 91.4001 299.7 92.0001 301.7C92.5001 303.4 93.1001 305.2 93.2001 306.9C93.4001 309.2 94.6001 311.2 94.7001 313.5C94.7001 314.3 95.1001 315 95.3001 315.8C95.6001 317.5 96.5001 319 96.6001 320.7C96.8001 322.9 97.4001 325 98.0001 327C98.9001 330 99.0001 333.2 100.1 336.2C99.7001 340.1 100.8 343.9 100.7 347.7C100.7 349.3 100.2 350.7 99.5001 352.1C99.0001 353 98.3001 353.9 97.5001 354.7C95.0001 357.2 94.6001 360.3 94.9001 363.7C95.6001 364.1 95.4001 364.5 95.0001 364.8C95.6001 365 96.2001 365.3 96.7001 365.7C97.0001 365.7 97.4001 365.8 97.7001 365.8C97.8001 365.8 97.8001 365.8 97.9001 365.8H98.0001C98.4001 366 98.8001 366.1 99.1001 366.3C99.1001 366.3 99.2001 366.3 99.2001 366.4C101.8 366.3 104.4 366.6 107 366.7C107.2 366.7 107.4 366.7 107.6 366.7C107.9 366.7 108.2 366.7 108.5 366.8C110.4 367 112.7 367.2 114.5 366.7C115.1 365.8 116.1 365.2 117.1 364.8C117 364.8 116.8 364.7 116.7 364.7C118.5 364.5 120 363.8 121.8 363.8C125.6 363.8 127.9 361.3 128.1 357.6C128.2 355.9 128.3 354.3 127.6 352.7C127.3 352 127.8 351.1 127 350.3C126.6 349.8 127.2 348.9 126.6 348.2C126 347.6 126.4 346.7 126.1 345.9C125.4 343.8 124.9 341.5 124.8 339.3C124.6 336.1 124.7 332.8 124.8 329.6C124.9 326.3 124.5 323.1 125.3 319.8C125.8 317.6 125.2 315.2 125.9 312.9C126.3 311.5 126.1 309.9 126.6 308.6C127.3 306.9 127.7 305.2 128 303.5C128.4 301.6 129.4 300 129.4 298C129.4 296.2 130.9 294.7 130.5 292.7C131.9 290.4 131.7 287.6 132.1 285.1C132.5 282.4 132.6 279.5 131.8 276.7C131.4 275.3 131.3 273.6 130.8 272.2C130.3 270.8 130 269.3 129.5 267.9C128.5 265 127.7 261.9 127.2 258.8C126.8 256.5 126.9 254 127.2 251.7C127.5 249.7 128.3 247.8 129.1 245.9C130.5 242.5 131.9 239 133.1 235.5C134.5 231.7 136.3 228 137.5 224.1C137.9 222.7 139.3 221.7 140.5 222.3C142.1 223.2 143.6 222.7 145.2 222.8C147.1 222.9 147.3 222.6 147.3 220.7C147.3 220.2 147.3 219.7 147.3 219.3C147.3 216.1 147.2 213 147.3 209.8C147.5 206.6 146.9 203.5 146.7 200.3C146.5 197.7 146.6 195.1 146 192.5C145.7 191.2 145.9 189.9 145.4 188.7C144.8 187.1 144.8 185.5 144.4 184C143.9 182.5 143.6 180.9 143.2 179.3C142.6 176.7 141.8 174.2 141.1 171.6C139.7 166.6 137.3 161.9 135.5 157C133.9 152.5 132.1 148.1 130.5 143.6C129.8 141.8 129.4 140.1 130 138.3C130.7 136.1 131.2 133.8 132.1 131.7C133.3 128.7 134.1 125.7 135.2 122.7C136.1 120.4 136.8 118 138 115.8C138.4 115.1 139.6 114.2 140 114.5C140.7 114.9 141 115.5 140.9 116.4C140.7 117.7 140.9 118.9 140.4 120.2C140 121.4 140.1 122.9 140.4 124.2C140.6 125.6 139.8 126.7 139.8 128C139.8 129.5 139.9 130.9 139.3 132.4C138.9 133.6 139.2 135.1 138.7 136.5C138.3 137.8 138.5 139.2 138.1 140.6C137.5 142.5 138.2 150.7 138.6 152.7C139.7 153.3 139 154.4 139.3 155.3C140.5 158.3 141.9 161.3 142.8 164.5C143.2 165.9 143.9 167.3 144.3 168.8C144.7 170.3 145.5 171.7 146 173.3C146.6 175.2 147 177.1 147.9 178.8C149.1 181.1 149.8 183.6 150.5 186C151.3 188.6 152.3 191 153 193.6C154.1 197.1 154.6 200.7 155.7 204.2C155.3 205.7 156.2 207.1 156.3 208.5C156.4 210 156.6 211.4 156.9 212.8C157.1 213.8 157.4 215 158 215.7C158.4 216.2 159.5 216 160.4 216.1C160.6 216.1 160.7 216.3 161 216.4C160.4 217.9 158.4 219.2 159.4 221.2C159.8 221.2 160.2 221.2 160.6 221.2C163.3 221.3 165.5 220.4 167.5 218.4C169.6 216.3 171 213.8 172.4 211.2C174.4 208.9 174.3 207.9 173.6 205ZM148.4 90.2002C148.7 91.1002 149.2 92.0002 149.7 92.8002C150.6 94.1002 150.5 95.5002 151.1 96.8002C151.7 98.2002 151.6 99.9002 151.8 101.4C152 102.5 152 103.6 152.4 104.6C153 106.1 152.9 107.7 153 109.2C153 109.4 153.3 109.6 153.7 110C152.7 110.1 151.8 110.1 150.9 110.1C150.6 105.7 149.6 101.6 148.8 97.4002C148 93.4002 146.4 89.6002 145.8 85.5002C146.7 87.1002 147.8 88.4002 148.4 90.2002ZM140 53.4002C140.4 54.2002 140.4 54.7002 139.8 55.4002C139.3 55.9002 139 56.6002 138.6 57.2002C139.5 58.7002 140.2 60.1002 139.2 62.0002C138.5 63.3002 137.6 63.7002 136.5 63.8002C132.9 64.1002 129.5 63.4002 126.3 61.6002C123.8 60.2002 122 58.1002 121 55.5002C120.4 54.0002 120.7 52.2002 122 50.9002C124.5 48.4002 126.1 45.3002 127.2 41.9002C128 39.3002 133.1 36.9002 135.2 38.6002C135.4 38.8002 135.7 39.1002 135.8 39.3002C135.9 39.7002 135.9 40.1002 135.2 40.3002C134.2 40.5002 133.2 41.1002 132.2 41.4002C130.7 41.8002 129.4 42.4002 128.3 43.5002C129 46.1002 130.6 47.1002 133.5 46.5002C134 46.0002 134.8 45.1002 135.6 44.3002C136.4 43.6002 136.9 43.6002 137.8 44.2002C139.1 45.2002 139.6 46.7002 140.4 48.0002C140.6 48.3002 140.5 49.1002 140.3 49.3002C138.7 50.6002 139.4 52.0002 140 53.4002ZM99.1001 76.0002C101.8 72.9002 104.5 69.8002 107.2 66.8002C107.5 66.5002 107.9 66.2002 108.6 65.7002C108.7 70.3002 103.1 76.4002 98.6001 77.5002C98.7001 76.9002 98.8001 76.3002 99.1001 76.0002ZM93.3001 79.5002C92.0001 80.6002 91.3001 80.9002 89.2001 80.9002C89.2001 80.3002 89.0001 79.8002 89.2001 79.6002C90.0001 78.5002 90.9001 77.4002 91.8001 76.4002C93.7001 74.1002 95.7001 72.0002 97.5001 69.6002C99.0001 67.6002 100.9 65.8002 102.5 63.9002C104.2 61.9002 106.5 60.7002 108.5 59.2002C109.4 59.4002 109.7 59.9002 109.8 60.8002C109.9 61.9002 109.3 62.5002 108.6 62.9002C107 63.7002 105.8 64.8002 104.4 65.9002C102.6 67.3002 101.4 69.0002 100 70.7002C97.7001 73.4002 96.2001 76.9002 93.3001 79.5002ZM108.2 77.9002C109.1 77.1002 108.5 76.1002 108.9 75.3002C109.9 72.9002 110.7 70.4002 111.6 67.9002C111.8 67.5002 112 67.1002 112.4 66.5002C113.6 69.1002 113.2 71.7002 113.3 74.1002C113.3 75.4002 112.5 76.2002 112 77.3002C111.6 78.3002 110.5 78.9002 109.3 79.0002C108.7 79.0002 107.8 78.2002 108.2 77.9002ZM113.1 79.8002C115.2 77.6002 116.1 75.0002 116.3 71.9002C116.5 68.9002 115.4 66.1002 114.9 63.3002C114 62.5002 114.9 61.5002 114.5 60.8002C115.8 60.1002 116.8 59.7002 117.6 59.2002C118.9 58.4002 119.6 58.3002 120.1 59.4002C121.1 61.3002 122.6 62.4002 124.5 63.2002C126.3 64.0002 127.9 65.0002 129.8 65.6002C131.7 66.2002 132.9 67.8002 132.8 70.0002C132.8 71.8002 133.2 73.6002 133.8 75.3002C134.4 77.0002 133.4 78.5002 133.2 80.1002C132.8 82.5002 132.1 84.8002 131.6 87.2002C131.2 89.1002 130.6 91.0002 130.2 92.9002C129.7 95.2002 129.3 97.5002 128.7 99.7002C128.3 101.1 127.9 102.5 127.7 103.8C127.5 105.2 127.2 106.4 126.5 107.6C126.2 108.2 126 108.7 125.2 108.9C124.8 109 124.5 109.2 124.1 109.1C123.7 109 123.2 108.8 123 108.5C122.1 107 121.2 105.4 120.7 103.7C120.4 102.6 120.4 101.4 120.1 100.2C119.8 99.1002 119.3 98.0002 119 96.9002C118.7 95.7002 118.3 94.5002 118.1 93.3002C117.8 91.1002 116.6 89.1002 116 87.0002C115.5 85.3002 114.3 83.8002 113 82.5002C111.8 81.4002 111.8 81.1002 113.1 79.8002ZM93.1001 31.6002C93.9001 30.2002 94.9001 28.9002 95.9001 27.6002C96.6001 26.8002 97.6001 26.2002 98.5001 25.5002C101 23.5002 103.6 21.4002 106.7 20.3002C109.6 19.2002 112.5 18.2002 115.7 17.7002C118.1 17.3002 120.4 17.2002 122.6 17.3002C125.8 17.5002 128.5 19.0002 130.5 21.5002C130.2 23.1002 128.7 23.2002 127.5 23.6002C124 24.7002 120.6 25.9002 117.4 27.7002C113 30.1002 108.7 32.8002 104.7 35.9002C103.5 36.8002 102.5 37.8002 101.3 38.8002C100 40.0002 98.6001 41.1002 97.3001 42.2002C96.0001 43.3002 94.8001 44.4002 93.5001 45.4002C93.2001 45.6002 92.9001 45.8002 92.6001 45.9002C92.4001 46.0002 92.1001 45.9002 91.6001 45.9002C91.6001 45.4002 91.6001 45.1002 91.6001 44.8002C91.4001 43.1002 91.5001 41.3002 91.2001 39.6002C90.6001 36.8002 91.7001 34.1002 93.1001 31.6002ZM79.4001 59.7002C79.6001 59.5002 79.9001 59.5002 80.1001 59.3002C81.0001 58.6002 81.8001 58.0002 82.7001 57.3002C83.8001 56.4002 84.9001 55.2002 86.1001 54.5002C87.3001 53.8002 88.2001 52.8002 89.4001 52.1002C90.9001 51.2002 92.0001 49.7002 93.4001 48.7002C96.1001 46.8002 98.6001 44.7002 101.2 42.6002C101.9 42.0002 102.5 41.2002 103.2 40.6002C106.5 37.6002 110.2 35.1002 114 32.7002C116 31.4002 118.1 30.3002 120.3 29.3002C123.8 27.6002 127.5 26.3002 131.2 25.2002C134.1 24.3002 137.1 23.8002 140.2 23.3002C142.6 23.0002 145 22.9002 147.4 22.8002C149.1 22.7002 150.6 23.4002 152.3 23.5002C154.7 23.7002 155.9 26.8002 155.2 29.2002C154 33.5002 151.3 36.5002 147.7 38.9002C147.2 39.2002 146.8 39.5002 146.4 39.8002C145.4 40.4002 144.3 39.9002 144.2 38.8002C144.1 37.9002 144.3 36.9002 144.2 35.9002C143.9 33.5002 143.2 31.3002 141.5 29.6002C140.3 28.4002 138.9 27.7002 137.2 27.4002C136 27.2002 134.9 26.8002 133.7 26.8002C130.2 26.7002 127 28.0002 123.8 29.2002C121.4 30.1002 119.1 31.4002 116.9 32.6002C115.4 33.4002 114.1 34.6002 112.7 35.6002C111.7 36.3002 110.8 37.0002 109.9 37.8002C109.1 38.6002 108.3 39.6002 107.7 40.6002C106.4 42.5002 105.1 44.4002 104 46.5002C102.3 50.1002 99.7001 53.1002 96.6001 55.4002C94.5001 57.0002 92.3001 58.8002 89.4001 59.5002C87.9001 59.8002 86.6001 60.9002 85.0001 61.4002C83.0001 62.0002 80.9001 62.5002 78.9001 63.4002C78.0001 63.8002 76.9001 63.5002 75.7001 63.5002C76.4001 61.6002 78.2001 60.9002 79.4001 59.7002ZM47.2001 82.8002C46.5001 82.0002 46.7001 81.2002 47.0001 80.5002C47.4001 79.7002 48.1001 79.1002 48.5001 78.3002C49.4001 76.2002 51.0001 74.6002 52.7001 73.2002C54.0001 72.1002 55.5001 71.2002 57.1001 70.7002C58.2001 70.3002 59.1001 69.4002 60.3001 69.5002C61.9001 68.1002 64.0001 68.4002 65.9001 67.9002C68.2001 67.3002 70.7001 67.5002 73.1001 67.2002C74.1001 67.1002 75.0001 66.8002 76.0001 66.7002C77.1001 66.6002 78.5001 67.0002 79.3001 66.4002C80.2001 65.8002 81.5001 66.7002 82.1001 65.5002C83.8001 65.6002 85.2001 64.9002 87.0001 64.3002C87.0001 64.9002 87.1001 65.4002 87.0001 65.7002C86.1001 67.0002 84.9001 68.0002 83.9001 69.3002C82.9001 70.7002 81.1001 71.5002 79.5001 72.4002C77.2001 73.8002 75.0001 75.2002 72.5001 76.2002C69.1001 77.5002 65.9001 79.3002 62.3001 79.9002C60.9001 80.1002 59.6001 80.7002 58.2001 81.1002C57.2001 81.4002 56.1001 81.2002 55.3001 81.6002C54.3001 82.2002 53.1001 81.7002 52.4001 82.2002C51.4001 82.8002 50.4001 82.6002 49.4001 82.7002C49.2001 82.7002 48.9001 82.6002 48.8001 82.7002C48.3001 83.1002 47.9001 83.6002 47.2001 82.8002ZM62.6001 87.3002C61.2001 88.3002 59.6001 88.5002 58.1001 89.0002C56.5001 89.6002 55.2001 89.3002 53.7001 89.0002C51.6001 88.6002 49.8001 88.0002 48.5001 86.2002C50.0001 85.8002 51.4001 85.1002 52.9001 85.0002C54.6001 84.8002 56.3001 84.4002 57.9001 83.9002C59.5001 83.4002 61.2001 83.0002 62.7001 82.5002C65.6001 81.5002 68.4001 80.1002 71.6001 79.7002C72.2001 79.6002 72.7001 79.1002 73.2001 78.9002C73.7001 78.7002 74.2001 78.7002 74.7001 78.6002L74.8001 78.9002C73.3001 79.9002 71.7001 80.7002 70.3001 81.8002C69.0001 82.9002 67.7001 83.8002 66.3001 84.6002C65.0001 85.4002 63.8001 86.5002 62.6001 87.3002ZM72.0001 86.7002C70.3001 87.3002 68.8001 88.1002 67.1001 88.9002L66.4001 88.2002C66.5001 88.1002 66.6001 87.9002 66.7001 87.8002C68.7001 86.3002 70.9001 85.3002 72.7001 83.5002C77.0001 81.6002 79.9001 77.9002 83.1001 74.8002C85.4001 72.6002 87.3001 70.1002 89.1001 67.6002C91.6001 63.8002 94.6001 60.7002 98.4001 58.4002C100.9 56.9002 102.6 54.6002 104.2 52.3002C106.1 49.6002 107.1 46.3002 109.3 43.8002C110.2 42.7002 111.1 41.7002 112.1 40.6002C114.4 38.1002 117 35.9002 120.1 34.3002C122.8 32.9002 125.5 31.5002 128.4 30.7002C129.8 30.3002 131.2 29.9002 132.6 29.8002C134.8 29.7002 137 30.0002 138.4 31.2002C140 32.5002 141 34.3002 140.8 36.7002C140.2 36.6002 139.5 36.7002 139.1 36.4002C136.3 34.4002 134.4 34.1002 131.6 35.1002C129.1 36.0002 126.5 37.2002 125 39.7002C124.5 40.5002 124 41.4002 123.7 42.3002C123 44.2002 122.1 45.9002 120.8 47.4002C119.5 48.8002 118.1 50.1002 116.7 51.4002C115.6 52.4002 114.2 53.1002 112.9 53.9002C111.4 54.8002 109.8 55.7002 108.2 56.5002C105.8 57.6002 103.6 59.1002 101.7 60.8002C99.2001 63.1002 96.7001 65.4002 94.7001 68.1002C93.3001 70.0002 91.8001 71.9002 90.3001 73.8002C89.0001 75.5002 87.6001 77.2002 86.4001 79.1002C85.4001 80.7002 84.1001 81.9002 82.3001 82.6002C78.9001 84.0002 75.5001 85.5002 72.0001 86.7002ZM76.5001 96.3002C77.7001 94.9002 78.9001 93.5002 80.2001 92.1002C82.0001 90.2002 84.1001 88.5002 86.4001 87.2002C90.9001 84.7002 95.4001 82.2002 99.9001 79.7002C101.1 79.0002 102.5 78.6002 103.7 77.7002C104.2 77.3002 105.1 77.4002 105.9 77.3002V79.5002C104.9 80.5002 103.9 81.4002 102.2 81.6002C100.2 81.9002 98.3001 83.2002 96.5001 84.3002C95.0001 85.2002 93.8001 86.5002 92.5001 87.7002C89.1001 90.7002 85.4001 93.3002 81.5001 95.7002C79.6001 96.9002 77.7001 98.0002 75.8001 99.1002C75.6001 99.0002 75.5001 98.9002 75.3001 98.7002C75.7001 98.1002 75.9001 97.1002 76.5001 96.3002ZM103.4 86.0002C102.6 88.2002 101.9 90.3002 101.3 92.6002C101.1 93.2002 101.2 93.7002 100.4 93.6002C98.2001 96.2002 95.1001 97.5002 92.1001 99.0002C90.9001 99.6002 89.7001 100 87.8001 100.8C89.8001 97.3002 91.2001 94.1002 93.2001 91.3002C94.7001 89.2002 96.4001 87.4002 98.6001 86.2002C99.7001 85.6002 100.7 85.0002 101.9 84.5002C102.5 84.3002 102.7 84.5002 103.1 84.8002C103.5 85.2002 103.6 85.4002 103.4 86.0002ZM75.4001 103.9C75.1001 103.9 74.8001 103.5 74.3001 103.1L75.8001 101.6C75.9001 101.6 76.0001 101.6 76.1001 101.6C77.3001 101.6 78.6001 101.6 79.5001 101.6C80.1001 100.9 80.6001 100.4 81.0001 100C80.9001 100 80.5001 99.8002 80.1001 99.7002C81.3001 99.1002 82.6001 98.8002 83.5001 98.0002C84.5001 97.0002 85.8001 97.1002 87.1001 96.0002C86.9001 99.3002 84.3001 100.4 82.8001 102.2C80.2001 102.7 77.8001 103.5 75.4001 103.9ZM53.8001 243.6C54.1001 242.4 54.0001 241.2 54.4001 240.1C55.0001 238.3 55.1001 236.4 55.4001 234.5C55.7001 233.2 55.5001 231.6 56.1001 230.5C56.8001 229.1 56.5001 227.7 57.1001 226.3C57.7001 225.1 57.4001 223.6 57.8001 222.3C58.6001 219.8 58.3001 216.9 59.8001 214.4C60.7001 216.2 61.7001 217.8 60.8001 219.9C60.3001 221.1 60.2001 222.5 60.0001 223.9C59.8001 225.3 60.0001 227 59.3001 228.2C58.6001 229.5 59.4001 231 58.3001 232.1C58.6001 233.5 57.9001 234.8 57.6001 236.1C57.1001 238.6 56.7001 241.2 56.0001 243.7C55.7001 244.8 55.0001 245.4 54.4001 246.2C54.2001 245.2 53.6001 244.3 53.8001 243.6ZM7.60008 326.5C5.70008 325.7 3.50007 323.7 3.20007 321.9C3.10007 321.5 3.00007 321.1 3.20007 320.8C4.20007 319.1 3.50008 317 4.80008 315.4C4.80008 312.6 6.20007 310 6.70007 307.3C7.10007 305 7.60007 302.7 8.40007 300.6C9.10007 298.7 9.50008 296.7 10.0001 294.7C10.6001 292.1 11.5001 289.6 12.1001 287C12.7001 284.3 13.4001 281.6 14.1001 278.9C14.7001 276.8 14.9001 274.7 15.8001 272.7C16.5001 271.1 16.4001 269.4 16.9001 267.7C17.8001 264.7 18.5001 261.7 19.2001 258.6C20.1001 254.9 24.2001 251.1 28.1001 250.7C28.9001 250.6 29.7001 250.3 30.4001 250.2C31.2001 250.1 32.1001 250.4 32.8001 249.7C32.9001 249.6 33.8001 250.1 34.1001 250.5C34.3001 250.8 34.1001 251.4 34.1001 252.3C34.0001 252.5 33.6001 252.9 33.6001 253.4C33.4001 256.6 32.5001 259.7 31.7001 262.7C30.7001 266.5 30.3001 270.4 29.1001 274.2C28.6001 275.8 28.5001 277.5 28.0001 279.2C27.5001 280.7 27.8001 282.6 27.2001 284C26.8001 285.1 26.7001 286.3 26.3001 287.3C25.9001 288.3 25.8001 289.6 25.6001 290.7C25.4001 291.9 25.5001 293.2 24.9001 294.1C24.3001 295.2 24.5001 296.4 23.9001 297.4C23.5001 298.4 23.6001 299.7 23.2001 300.8C22.8001 302 23.0001 303.4 22.5001 304.5C21.6001 306.9 21.6001 309.4 20.8001 311.8C19.8001 315 19.9001 318.4 18.5001 321.5C18.9001 322.8 17.9001 324 17.9001 325.3C17.9001 326.5 17.2001 327.4 16.3001 328.1C15.9001 328.4 15.2001 328.7 14.8001 328.5C12.7001 327.6 10.0001 327.5 7.60008 326.5ZM20.3001 333.9C18.2001 333.9 16.0001 334.1 13.9001 333.8C12.2001 333.6 10.6001 332.8 9.00008 331.9C8.30008 331.5 8.20008 330.7 8.60008 329.8C12.5001 331.2 16.6001 331.5 20.4001 333.2C20.4001 333.2 20.3001 333.5 20.3001 333.9ZM29.5001 330.8C28.6001 331.2 27.6001 331.6 26.7001 331.6C25.4001 331.6 24.1001 331.4 23.0001 331C22.1001 330.7 21.3001 329.9 20.5001 329.3C20.3001 326.9 21.0001 324.9 21.4001 322.8C21.8001 320.8 22.4001 318.8 22.7001 316.7C23.0001 314.8 23.9001 313.1 23.9001 311.2C25.1001 310.3 24.0001 308.8 24.9001 307.6C25.5001 306.8 25.1001 305.2 25.6001 304.2C26.5001 302.2 26.4001 300 27.2001 298C27.9001 296.1 27.7001 293.8 28.5001 292C29.1001 290.7 28.7001 289.3 29.5001 288.1C30.1001 287.1 29.9001 285.6 30.2001 284.4C30.6001 282.7 31.0001 280.9 31.5001 279.2C31.9001 277.9 31.6001 276.5 32.4001 275.3C33.0001 274.4 32.8001 273 33.0001 271.9C33.2001 270.8 33.4001 269.8 33.6001 268.7C33.7001 267.5 34.6001 266.5 34.2001 265.2C35.4001 264 34.5001 262.4 35.3001 261C36.0001 259.8 35.6001 258.1 36.0001 256.7C36.3001 255.7 36.3001 254.7 36.6001 253.8C37.2001 252 37.6001 250 39.7001 249.1C40.3001 248.8 40.9001 248.6 41.5001 248.6C44.2001 248.6 46.8001 248.6 49.6001 248.6C50.1001 249.9 49.2001 250.9 48.9001 252C48.2001 254.7 47.3001 257.3 46.7001 260C46.2001 262.1 45.9001 264.2 45.2001 266.2C44.8001 267.4 44.8001 268.9 44.6001 270.2C44.2001 272.9 43.3001 275.5 43.4001 278.3C42.4001 279.8 42.8001 281.6 42.4001 283.3C42.0001 284.8 41.3001 286.5 41.7001 288.2C40.5001 289.6 41.4001 291.4 40.7001 292.9C40.0001 294.3 40.5001 296.2 39.9001 297.7C39.5001 298.9 39.7001 300.1 39.3001 301.2C38.9001 302.4 39.2001 303.7 38.7001 304.7C37.8001 306.2 38.5001 307.9 37.7001 309.5C37.0001 310.9 37.5001 312.8 37.0001 314.4C36.2001 316.9 36.2001 319.5 35.4001 322C35.0001 323.4 34.9001 324.9 34.2001 326.4C33.3001 328.6 31.6001 329.9 29.5001 330.8ZM34.7001 332.2C34.8001 331.5 34.7001 330.9 34.9001 330.6C36.3001 328.9 37.3001 327 37.7001 324.9C37.8001 324.5 38.1001 324.1 38.1001 323.7C38.2001 322.7 38.1001 321.7 38.6001 320.8C39.0001 320.1 38.7001 319.1 39.1001 318.2C39.6001 317 39.3001 315.5 39.7001 314.2C40.2001 312.6 39.7001 310.7 40.4001 309.4C41.2001 307.9 40.5001 306.4 41.3001 304.9C41.9001 303.9 41.4001 302.4 41.9001 301.2C42.4001 300 42.4001 298.5 42.5001 297.2C42.6001 295.8 42.9001 294.5 43.2001 293.2C43.7001 290.7 43.6001 288 44.8001 285.6C44.4001 283.9 45.4001 282.4 45.4001 280.7C45.4001 279.6 45.7001 278.6 45.9001 277.5C46.6001 274 47.1001 270.5 47.7001 267.1C48.0001 265.4 48.5001 263.6 48.8001 261.8C49.1001 260.1 49.6001 258.5 50.0001 256.9C50.6001 254.6 51.6001 252.6 54.3001 251.5C57.2001 250.3 61.3001 252.5 60.9001 255.6C60.7001 256.9 60.9001 258.1 60.4001 259.4C59.9001 260.5 60.5001 261.7 59.9001 262.9C59.4001 264 59.4001 265.6 59.3001 266.9C59.2001 270 58.3001 273 58.0001 276.1C57.7001 278.6 57.4001 281.2 56.9001 283.6C56.4001 286 56.4001 288.5 55.7001 290.9C55.0001 293.6 55.0001 296.4 54.1001 299.1C53.5001 300.9 53.7001 302.9 53.4001 304.9C53.2001 306.4 53.3001 307.9 52.7001 309.2C52.2001 310.1 52.4001 311 52.2001 311.9C51.8001 313.7 51.7001 315.5 51.2001 317.2C50.8001 319 50.6001 320.8 50.5001 322.6C50.4001 324.6 49.7001 326.5 49.4001 328.4C49.1001 330.3 47.8001 330.9 46.5001 331.2C44.9001 331.7 43.0001 331.6 41.3001 331.9C40.2001 332 39.2001 332.4 38.1001 332.4C37.3001 332.2 36.2001 332.2 34.7001 332.2ZM56.5001 337C55.6001 337.6 54.7001 338 53.5001 337.9C52.9001 337.8 52.3001 337.9 51.7001 338.3C51.2001 338.7 50.0001 338.7 49.5001 338.4C48.4001 337.7 47.3001 338.2 46.3001 337.8C45.3001 337.5 44.4001 337.3 43.4001 337.2C42.4001 337.1 41.5001 336.7 40.5001 336.7C39.5001 336.8 38.8001 336.1 37.9001 336C37.8001 336 37.7001 335.7 37.3001 335C39.7001 334.5 41.9001 334 44.1001 333.8C45.6001 333.6 46.9001 333.1 48.4001 333.1C50.5001 333.2 52.5001 333.6 54.3001 334.7C55.0001 335.1 55.7001 335.4 56.5001 335.7V337ZM72.1001 275.9C72.2001 274.9 72.5001 274 72.6001 273C72.7001 272.1 72.6001 271.2 73.1001 270.3C73.5001 269.6 73.1001 268.6 73.2001 267.8C73.3001 267 73.6001 266.2 73.7001 265.5C73.9001 264 74.1001 262.4 74.3001 260.9C74.4001 260.6 74.8001 260.4 75.4001 259.8C75.4001 262 75.5001 263.9 75.4001 265.6C75.4001 266.5 75.0001 267.4 74.9001 268.2C74.7001 269 75.2001 269.9 74.4001 270.6C74.2001 270.8 74.4001 271.3 74.3001 271.7C74.1001 273.3 73.8001 275 73.8001 276.6C73.7001 278.2 72.8001 279.6 73.2001 281.2C72.3001 282.4 73.0001 283.8 72.6001 285C72.1001 286.3 72.4001 287.6 72.0001 288.8C71.2001 291.8 71.5001 294.9 70.3001 297.9C70.7001 299.9 69.7001 301.7 69.7001 303.7C69.7001 304.8 69.3001 305.8 69.2001 306.9C69.1001 307.9 69.1001 308.8 68.7001 309.8C68.1001 311.5 68.4001 313.5 68.0001 315.3C67.6001 317.1 67.8001 318.9 66.9001 320.6C66.7001 321 66.9001 321.5 66.9001 322C66.9001 323.2 67.0001 324.3 66.4001 325.5C65.9001 326.4 66.3001 327.6 65.9001 328.7C65.3001 330.3 65.4001 332.1 65.2001 333.9C64.9001 336 64.7001 338.2 64.0001 340.3C63.7001 341.2 63.3001 342.1 62.3001 342.4C62.0001 342.5 61.6001 342.6 61.3001 342.5C59.9001 342.1 58.6001 341.7 57.1001 341.3C58.1001 341 59.0001 340.7 59.8001 340.3C62.1001 339.4 63.0001 337.4 63.4001 335.3C64.0001 332.7 64.3001 330.1 64.7001 327.5C64.9001 326.2 64.8001 324.7 65.2001 323.4C65.7001 322 65.5001 320.6 65.7001 319.3C66.2001 316.7 66.4001 314 66.9001 311.5C67.5001 308.5 67.5001 305.4 68.5001 302.4C68.9001 301.1 68.7001 299.7 69.1001 298.3C69.6001 296.4 69.5001 294.3 69.8001 292.3C69.9001 291.3 70.2001 290.4 70.4001 289.4C70.6001 288.5 70.5001 287.7 70.9001 286.7C71.4001 285.5 71.2001 284 71.5001 282.7C71.8001 280.3 71.8001 278.1 72.1001 275.9ZM68.9001 254.2C71.4001 255.4 72.1001 257 71.5001 259.6C71.4001 260 71.5001 260.3 71.4001 260.7C71.2001 262.4 71.1001 264.2 70.8001 265.9C70.5001 267.5 70.5001 269.2 70.1001 270.8C69.8001 272.1 70.1001 273.5 69.5001 274.5C68.8001 275.7 69.3001 276.9 69.0001 278C68.3001 280.7 68.4001 283.5 67.8001 286.1C67.5001 287.5 67.6001 288.9 67.2001 290.2C66.8001 291.5 67.0001 292.8 66.6001 294C66.2001 295.4 66.4001 296.8 66.0001 298.1C65.6001 299.5 65.8001 300.9 65.5001 302.2C64.9001 304.9 64.6001 307.6 64.3001 310.3C64.0001 312.8 63.5001 315.3 63.1001 317.8C62.9001 319.1 63.0001 320.4 62.6001 321.6C62.2001 322.9 62.3001 324.1 62.1001 325.4C61.6001 327.9 61.3001 330.4 61.0001 333C60.9001 333.6 60.4001 334.1 60.0001 334.7C58.4001 333.8 56.8001 333.1 55.4001 332C53.9001 330.9 53.1001 329.2 53.0001 327.3C52.9001 326 53.0001 324.8 53.5001 323.5C54.0001 322.4 53.4001 321 54.0001 319.7C54.6001 318.4 54.5001 316.7 54.7001 315.1C54.9001 313.8 55.6001 312.7 55.3001 311.3C56.7001 310 55.4001 308.3 56.2001 306.8C56.9001 305.5 56.6001 303.8 57.0001 302.3C57.3001 301.2 56.8001 299.9 57.6001 298.8C57.5001 295.5 59.0001 292.3 58.7001 289C59.5001 287.7 58.8001 286 59.5001 284.8C60.3001 283.5 59.1001 281.9 60.4001 280.8C60.5001 280.7 60.4001 280.2 60.4001 280C60.6001 277.6 60.9001 275.1 61.5001 272.7C62.0001 270.8 61.9001 268.9 62.1001 266.9C62.3001 265.5 62.5001 264.2 62.7001 262.8C62.9001 261.4 62.7001 260.1 63.2001 258.7C63.7001 257.3 63.3001 255.7 63.3001 254.2C63.3001 252.6 64.1001 252.1 65.7001 252.8C66.8001 253.3 67.9001 253.7 68.9001 254.2ZM67.0001 222.2C66.9001 222.4 66.8001 222.5 66.8001 222.7C66.8001 223.8 66.9001 224.8 66.8001 225.8C66.7001 226.8 66.3001 227.7 66.3001 228.7C66.3001 230.1 66.0001 231.4 65.7001 232.8C65.4001 234.1 66.1001 235.6 65.1001 236.9C65.0001 237 65.1001 237.3 65.1001 237.5C64.9001 240 64.8001 242.5 64.5001 245C64.4001 246.2 64.0001 247.3 63.8001 248.4C62.3001 248.8 60.9001 248.4 59.5001 247.9C58.4001 247.5 57.9001 246.8 58.4001 245.8C59.1001 244.4 59.0001 242.8 59.4001 241.4C60.0001 239.2 60.5001 236.9 60.9001 234.6C61.3001 232.6 61.9001 230.6 62.2001 228.6C62.5001 226.4 63.2001 224.4 63.7001 222.3C63.9001 221.4 63.7001 220.4 64.0001 219.6C64.6001 218.2 65.1001 216.7 66.6001 215.9C66.8001 216.1 67.4001 216.4 67.3001 216.7C67.2001 218.4 68.0001 220.4 67.0001 222.2ZM72.1001 204.1C71.9001 205.7 71.4001 206.4 70.1001 206C68.6001 205.5 67.3001 205.2 66.0001 206.2C64.9001 207.1 63.8001 208.1 63.4001 209.7C63.3001 210 63.0001 210.3 62.6001 210.7C61.3001 209.2 59.5001 208.1 58.7001 205.7C61.6001 202.4 64.6001 199.2 67.5001 196C67.8001 195.6 68.1001 195.3 68.5001 195C69.2001 194.4 70.1001 194.5 70.6001 195.3C70.9001 195.8 71.3001 196.4 71.4001 197C71.7001 199.3 72.3001 201.6 72.1001 204.1ZM73.2001 188.8C73.1001 190.1 72.5001 190.7 71.2001 190.4C70.4001 190.2 69.6001 189.7 68.9001 189.5C67.9001 187.1 69.3001 185.4 69.8001 183.5C70.9001 179.5 72.3001 175.5 73.2001 171.4C73.9001 168.6 74.4001 165.7 75.0001 162.9C75.9001 158.9 76.2001 154.7 77.8001 150.9C77.5001 148.6 78.9001 146.7 79.2001 144.6C79.5001 142.5 80.3001 140.5 81.1001 138.5C81.6001 137.2 81.4001 135.6 81.8001 134.2C82.4001 132.2 81.9001 130.1 82.4001 128.1C83.2001 125.1 82.7001 122.1 82.9001 119.1C83.0001 116 82.8001 113 83.0001 109.9C83.0001 109.2 82.1001 108.8 82.8001 108C83.1001 107.6 83.0001 106.8 83.0001 106H86.0001C86.4001 105.4 86.7001 104.8 87.0001 104.3C87.8001 104.5 88.5001 104.5 89.1001 104.9C90.5001 105.7 90.8001 107.3 91.0001 108.7C91.3001 110.9 91.5001 113.1 91.6001 115.3C91.7001 117.6 91.9001 119.9 91.6001 122.2C90.8001 127.5 91.3001 132.8 91.0001 138C90.9001 139.5 90.3001 141 89.8001 142.4C89.3001 143.8 88.5001 145.1 87.6001 146.4C86.6001 147.9 85.5001 149.3 85.0001 151.1C84.8001 151.7 84.7001 152.3 84.7001 153C84.7001 155 84.7001 157 84.7001 159C82.5001 161.2 81.3001 164 79.9001 166.7C77.6001 170.9 76.0001 176.3 75.0001 180.4C74.5001 182.2 73.9001 184 73.5001 185.8C73.1001 186.9 73.2001 187.9 73.2001 188.8ZM90.4001 240.1C89.4001 236.5 88.2001 233 87.2001 229.4C87.1001 229 87.0001 228.5 87.0001 228.1C86.9001 226 87.0001 226.2 89.2001 225.4C91.1001 224.7 93.0001 224.6 94.7001 225C96.8001 225.5 99.3001 225 101.2 226.6C104.1 227.1 106.9 228.1 109.9 227.7C111.2 227.5 112.5 227 113.9 226.6C114.4 228.8 113.6 230.6 113.1 232.4C112.6 234.4 111.9 236.3 111.7 238.4C111.5 240.2 110.9 241.9 110.4 243.6C110.1 244.5 110.4 245.6 110 246.3C109.4 247.2 109.6 248.1 109.5 249C109.4 250.3 109.1 251.5 108.9 252.8C108.7 254 109.5 255.3 108.3 256.3C108.2 256.4 108.3 256.7 108.3 256.9C108.7 260.1 107.6 263.2 107.7 266.4C107.7 267.7 107.3 269 107 270.5C106.4 268.6 106.4 268.2 106.6 266.1C106.8 264 106.5 262 104.6 260.6C103.6 261.3 102.9 262.2 103.1 263.6C103.2 264.7 103.2 265.9 103.1 267C103 267.6 102.6 268.1 102.3 268.8C101.8 268.4 101.4 268.3 101.2 268C98.1001 263 95.6001 257.8 93.9001 252.1C92.7001 248.1 91.6001 244.1 90.4001 240.1ZM116 281.8C116.1 281.9 116.1 282.1 116.2 282.3C116.4 284.2 116.7 286.1 116.8 288.1C116.9 290.1 116.9 292.1 116.8 294.1C116.7 295.3 116.4 296.4 116.3 297.6C116.2 298.8 116.6 300 115.7 301.1C115.6 301.2 115.7 301.5 115.7 301.7C115.6 303.1 115.8 304.4 115.2 305.8C114.7 307 115.1 308.4 114.6 309.9C114 311.7 114.2 313.7 113.9 315.6C113.8 316.5 113.5 317.3 113.4 318.2C113.3 319 113.6 319.9 112.8 320.5C113.2 322.2 112.2 323.7 112.2 325.4C112.2 326.5 111.8 327.5 111.7 328.6C111.6 329.6 111.9 330.7 111.1 331.5C111.3 333.8 110.2 336.1 110.5 338.4C110.7 339.5 110.5 340.6 110.5 341.8C110.4 341.8 110.2 341.8 110.1 341.8C109.7 340 109 338.3 108.8 336.5C108.6 334 107.9 331.6 108.1 329C108.2 327.4 108.5 326 109 324.5C109.8 322.2 110.6 319.9 110.4 317.3C110.2 315.2 111.2 313.1 111 310.9C110.8 308.8 110.9 306.7 111 304.6C111.1 300.5 110 296.4 110.4 292.2C109.2 288.7 110 285.1 109.9 281.6C109.8 278 109.6 274.3 110 270.7C110.3 268.2 110.4 265.7 110.5 263.2C110.5 262.8 110.9 262.4 111.2 261.9C111.9 262.9 112.1 263.8 112.2 264.8C112.4 266.7 112.7 268.6 113.5 270.3C114.1 271.5 113.6 272.8 114.4 274C115 274.9 114.8 276.3 115.1 277.4C115.2 278.1 115.5 278.8 115.7 279.5C115.8 280.4 115.3 281.2 116 281.8ZM103 278.5C102.9 277.1 103.6 276.1 104.6 275.2C105.8 276 106.3 276.8 106.6 278.1C107 280.1 106.7 282.2 107.2 284.1C108 287.1 107.5 290.1 107.7 293C107.8 294.8 107.2 296.8 107.8 298.4C108.5 300.1 108.1 301.7 108.2 303.4C108.3 305.2 108.3 307 108.2 308.8C108.1 310.4 107.8 312.1 107.7 313.7C107.6 315.4 107.7 317.1 107.6 318.8C107.6 319.2 107.1 319.5 106.9 319.9C106.7 319.8 106.6 319.8 106.4 319.7C106.2 317.4 106.4 315.1 105.9 312.8C105.5 310.9 105.8 308.9 105.3 307C104.8 305 105.2 302.9 104.7 300.9C104.2 298.7 104.6 296.4 104.1 294.3C103.6 292.1 104.1 290 103.6 288C102.6 285 103.3 281.8 103 278.5ZM107.3 345.4C109.8 346.8 110.7 348.1 111 351.1H105.4C105.3 350.9 105 350.6 104.8 350.3C103.9 349.2 103.9 348.8 104.9 347.7C105.7 347 106.5 346.2 107.3 345.4ZM100.8 324.5C100.3 322 99.6001 319.5 99.0001 316.9C98.5001 315 98.5001 312.9 97.8001 311.1C97.1001 309.3 96.8001 307.3 96.3001 305.4C95.5001 302.8 94.9001 300 94.5001 297.3C94.1001 295 93.7001 292.6 93.2001 290.4C92.7001 288.1 92.9001 285.9 92.8001 283.7C92.7001 282.7 93.0001 281.7 93.4001 280.8C94.2001 278.5 93.9001 276 95.1001 273.8C94.7001 272.1 95.8001 270.6 95.7001 268.9C95.7001 268.4 96.1001 267.9 96.4001 267.3C98.1001 268.9 99.7001 270.2 99.9001 272.5C100 273.1 100.2 273.7 100.2 274.4C100.2 278.3 100.2 282.2 100.2 286.1C100.2 288.3 100.2 290.5 100.2 292.7C100.2 294.8 101.1 296.9 100.8 299.1C100.7 300 101.2 301 101.3 302C101.4 302.9 101.1 303.9 101.9 304.6C101.5 306.6 102.7 308.4 102.4 310.4C102.2 311.7 102.9 312.7 103 313.9C103.1 315 103 316 103.4 317.2C104.1 318.8 103.9 320.8 104.1 322.6C104.4 324.8 104.4 327 105.2 329C105.3 329.3 105.3 329.6 105.3 329.8C105.2 333.2 106.8 336.5 106.5 339.9C106.5 340 106.6 340.2 106.7 340.2C106.3 340.8 105.8 341.5 105.4 342.1C103.9 341.2 103.6 339.8 103.6 338.5C103.6 336 102.9 333.6 102.4 331.2C102.1 328.9 101.3 326.7 100.8 324.5ZM110.5 364.3C107.8 364.3 105.2 364.4 102.5 364.3C101.4 364.3 100.3 364.2 99.4001 363.7C98.7001 363.3 98.3001 362.3 97.9001 361.6C99.6001 358.4 100.9 356.8 103.7 354.8C105.3 353.7 108.4 353.5 109.9 354.7C110.8 355.5 111.6 356.4 112.3 357.4C113.2 358.5 113.1 359.9 113.4 361.2C113.7 363.2 112.5 364.3 110.5 364.3ZM125.9 357.3C125.9 359.1 124.5 361.2 121.7 361.4C120.4 361.5 119 361.4 117.8 361.4C115.6 360.2 115.8 357.9 115.1 355.9C114.4 353.9 114.2 351.7 113.5 349.7C112.8 347.6 113.7 345.8 114.9 344.1C116 342.5 117.4 341.1 118.7 339.5H121.5C123.6 340.3 123.1 342.4 123.7 343.9C124.5 346.1 124.8 348.4 125.3 350.6C125.8 352.9 125.9 355.1 125.9 357.3ZM129.3 275.8C130 279.3 130.6 283.1 129.9 286.7C129.5 288.6 129.5 290.6 128.7 292.5C127.9 294.3 127.6 296.2 127 298.1C126.4 300.1 125.9 302.1 125.4 304C124.8 306.1 124.7 308.4 123.8 310.5C123.5 311.2 123.8 312 123.6 312.7C123.5 313.4 123 314.1 123.1 314.8C123.4 316.5 122.4 318 122.5 319.7C122.6 321.3 122.4 323 122.5 324.6C122.6 326.2 122.1 327.8 122.8 329.3C123.5 330.8 122.5 332.5 123.4 333.9C123.7 334.3 122.3 336 121.6 336C120 336.1 118.6 336.5 117.3 337.4C116.2 338.2 114.8 338.7 113.2 339.5C113.6 337.7 112.8 336.2 113.7 334.8C114.5 333.5 113.2 331.8 114.5 330.5C114.6 330.4 114.5 330.1 114.5 329.9C114.5 328.5 114.6 327.2 115 325.8C115.3 324.6 115.2 323.3 115.5 322C116 320.1 115.7 317.9 116.2 316C117 313.1 117 310.1 117.7 307.2C118.2 305 118.4 302.7 119 300.5C119.4 299.1 119.7 297.8 120.3 296.5C121.4 294.1 122.5 291.7 123.1 289.1C123.5 287.7 123.9 286.4 124.1 284.9C125.2 278 124.4 271.1 124.6 264.2C124.6 263.8 124.6 263.5 125 263C125.4 263.8 125.9 264.6 126.3 265.5C127.8 269 128.6 272.5 129.3 275.8ZM135.2 223C134.6 224.9 133.6 226.8 133 228.7C131.6 232.7 129.6 236.4 128.2 240.5C127.2 243.3 126.1 246.1 125.2 249C124.8 250.4 124.4 251.7 124 253.1C123.6 254.4 123.3 255.7 123 257C122.3 259.8 122.1 262.6 121.8 265.4C121.6 267.1 121 269 121.4 270.6C122.2 273.5 121.8 276.4 121.8 279.3C121.8 281 121.6 282.8 121.1 284.5C120.9 285.1 120.6 285.7 120.7 286.3C120.9 287.5 120.3 288.4 119.8 289.3C119.5 289 119.1 288.8 119 288.5C118.7 287 118.6 285.4 118.4 283.9C118.3 283 118 282.2 117.9 281.3C117.8 280.4 118.1 279.4 117.3 278.7C117.6 277.1 117 275.6 116.7 274.1C116.4 272.2 116.4 270.3 115.6 268.5C115.6 268.4 115.6 268.3 115.6 268.2C115.6 267.2 115.7 266.3 115.6 265.3C115.5 264.4 115 263.5 115.1 262.7C115.4 260.1 114.3 257.7 114.4 255.2C114.4 254.7 113.9 254.2 113.5 253.6C112.6 254.2 112 254.6 111 255.3C111 254.3 110.7 253.4 111.1 253C111.8 252.1 111.4 251.2 111.7 250.4C112 249.6 112.3 248.9 112.2 248C112.1 247.4 112.6 247 112.7 246.5C113.2 244.8 113.5 243 113.9 241.3C115 236.6 115.9 231.9 117.3 227.3C117.9 225.3 119 223.5 120.3 222C121.5 220.6 123.3 220.1 125 219.5C125.8 219.2 126.8 219.1 127.6 219C129.9 218.7 132 219.7 134.3 220.1C134.8 220.2 135.4 220.9 135.7 221.5C135.9 221.8 135.4 222.4 135.2 223ZM131.7 154.4C132.9 157.9 134.6 161.2 135.8 164.8C136.5 167 137.8 169 138.4 171.2C139 173.4 139.8 175.6 140.4 177.8C141.1 180.6 141.6 183.4 142.5 186.1C142.9 187.2 142.7 188.4 143.1 189.6C143.7 191.2 143.2 193.2 143.9 194.7C144.8 196.9 143.7 199.4 144.9 201.4C145.1 201.7 144.9 202.2 144.9 202.5C144.9 208.1 144.9 213.8 144.9 219.4C144.9 219.7 144.8 219.9 144.8 220.4C142.9 219.9 141.1 219.5 139.3 218.9C137.3 218.2 135.4 217.3 133.3 216.8C129.7 215.8 129.6 215.9 126 216.2C124 216.4 122.2 217 120.4 218C118.9 218.9 117.5 219.9 116.2 221.1C114.6 222.6 112.9 223.8 110.7 224.5C109.2 225 107.6 225.1 106.3 224.8C104.1 224.3 101.9 223.5 99.6001 223C98.9001 222.8 98.2001 222.8 97.4001 222.7C96.2001 222.5 95.0001 223 93.9001 222.2C93.5001 221.9 92.5001 222 91.9001 222.2C88.8001 223.4 85.5001 222.4 82.4001 222.7C81.4001 222 80.3001 222.1 79.2001 222.1C78.9001 222.1 76.7001 220.7 76.6001 220.5C76.1001 219.3 75.3001 218.2 75.4001 216.7C75.5001 215.3 75.0001 213.8 74.9001 212.3C74.8001 210.9 75.2001 209.3 74.8001 208C74.1001 206 74.1001 204 74.4001 202.2C74.9001 199.6 74.5001 196.9 75.0001 194.4C75.6001 191.7 75.3001 188.8 76.6001 186.2C76.6001 182.2 78.5001 178.8 79.5001 175.1C80.1001 172.8 81.5001 170.8 82.2001 168.5C83.0001 166.2 84.4001 164.2 85.8001 162.3C87.2001 160.3 89.1001 158.6 91.4001 157.3C94.2001 155.7 97.1001 154.2 99.7001 152.4C100.4 151.9 101.3 151.6 102.2 151.6C103.3 151.6 103.7 152.3 104.3 152.8C105.2 153.5 106.2 154.2 107.3 154.5C107.9 154.7 109 154.3 109.5 153.9C112.6 151.2 114.8 147.9 114.3 143.6C114 141 112.2 139.4 109.8 138.6C109.5 138.5 108.9 138.6 108.8 138.4C108.2 137.7 107.1 138.4 106.6 137.4C106 136.4 106.8 135.9 106.9 135.1C107 134.3 106.9 133.4 106.9 132.5C106.3 131.9 105.6 131.3 105.1 130.7C103.5 128.9 99.8001 129.1 98.1001 130C97.0001 130.6 96.3001 131.7 96.1001 132.8C95.8001 134.3 96.9001 135.6 98.1001 136.2C98.9001 136.6 99.4001 137.2 100 137.7C101.9 139.1 102.1 141.3 101.7 143.2C101.4 144.3 101.3 145.3 101.2 146.4C101 147.8 100.7 148.8 99.2001 149.6C96.0001 151.2 93.0001 153.1 89.9001 154.8C89.5001 155 89.1001 155.2 88.6001 155.2C88.0001 155.2 87.3001 154.3 87.5001 153.8C87.9001 152.7 88.3001 151.6 88.9001 150.7C91.1001 147.5 92.1001 143.8 93.3001 140.2C93.9001 138.5 93.8001 136.7 93.8001 135C94.0001 131.3 94.2001 127.7 94.3001 124.1C94.4001 120.5 94.2001 116.8 94.4001 113.2C94.5001 109.6 93.4001 106.5 91.5001 103.3C94.2001 101.7 96.9001 100.1 99.8001 98.5002C99.9001 98.7002 100.1 99.0002 100.1 99.2002C99.8001 100.5 99.3001 101.7 99.5001 103C98.3001 104.6 99.2001 106.5 98.5001 108.3C97.7001 110.1 98.4001 111.1 100.4 112.3C101.2 111.3 101.4 110.3 101.3 109C101.3 108.5 101.7 108 101.8 107.5C102 104.9 102.7 102.5 103 100C103.3 97.8002 103.7 95.5002 104.2 93.3002C104.3 92.8002 105 92.5002 105.6 92.0002C106.6 99.1002 105.7 106.6 103 113.3C103.3 113.4 103.7 113.4 104 113.6C105.9 114.4 105.9 114.4 106.6 112.4C107.6 109.3 108.3 106.1 108.4 102.8C108.5 100.8 109.4 98.7002 108.9 96.7002C108 93.6002 108.6 90.5002 108.4 87.5002C108.4 87.1002 108.3 86.7002 108.4 86.4002C108.6 85.9002 108.8 85.3002 109.2 85.1002C109.6 84.9002 110.3 85.1002 110.7 85.4002C112.3 86.6002 113.6 88.2002 114 90.0002C114.6 92.6002 115.4 95.2002 115.9 97.9002C116.2 99.9002 116.9 101.9 117.7 103.8C118.5 105.7 118.8 107.7 119.3 109.7C119.9 112.3 120.6 114.9 121.2 117.5C121.7 119.7 122.1 121.9 122.7 124C123.7 127.7 124.3 131.5 125.5 135.2C126 136.6 126.3 138.1 126.1 139.5C125.8 141.4 125.2 143.3 124.3 145.1C122.4 149.1 120.2 153 118.3 156.9C117.5 158.5 116.7 160.2 116.5 161.9C116.2 164.2 116.1 166.5 116.5 168.8C116.9 170.9 118.3 172.6 120.1 173.9C120.5 174.2 121.6 174.2 121.9 173.9C122.7 173.2 123.4 172.3 123.8 171.3C124 170.9 123.4 170.2 123.1 169.5C121.6 169.6 120.4 169.2 119.5 168.2C118.8 165.1 119.7 162.3 121.1 159.5C123.1 155.3 124.9 151.1 126.9 147C127.1 146.7 127.3 146.4 127.7 146C129 146.8 129.3 148.2 129.7 149.3C130 150.5 130.9 152.4 131.7 154.4ZM102.8 144.9C104 142.9 105.6 141.5 107.8 140.4C108 140.8 108.2 141.2 108.5 141.8C107.4 144.8 106.5 145.4 102.8 144.9ZM111.3 144.6C111.7 145 111.9 145.2 112.2 145.5C112.2 145.6 112.2 145.7 112.2 146C110.5 147.4 110.1 150.7 106.7 150.3C106 148.9 106.7 148 107.6 147.1C108.7 146.2 109.6 145 111.3 144.6ZM103 135.8C102 134.8 101.1 133.9 100.2 133C101.6 131.4 102.1 131.4 104.2 133.5C103.8 134.4 103.3 135.2 103 135.8ZM134.5 117.6C133.2 120.9 132.8 124.5 131.1 127.7C131.3 129.4 130.3 130.8 129.9 132.4C129.8 132.7 129.7 133.1 129.5 133.4C129.4 133.6 129.1 133.7 128.9 133.9C127.2 133.1 128.1 131.2 127.1 130.2C126.8 126.4 125.1 122.9 124.7 119.1C124.5 117 123.6 115 123 112.8C124.1 112.6 125 112.6 125.9 112.3C128.4 111.6 129.3 109.5 129.9 107.2C130.8 103.6 131.7 99.9002 132.6 96.3002C133.1 94.2002 133.7 92.1002 134 90.0002C134.4 87.5002 135.1 85.0002 135.1 82.4002C135.1 81.6002 135.8 80.8002 136.2 79.9002C138 80.9002 139.4 82.0002 140.3 83.7002C141.1 85.3002 142.1 86.8002 141.9 88.8002C141.7 90.6002 142.7 92.2002 142.5 94.0002C142.3 95.7002 142.1 97.5002 142.5 99.1002C143.3 102.1 142.7 105.1 143 108C143.1 108.9 142.7 109.4 141.9 109.7C137.8 110.8 136 113.8 134.5 117.6ZM154.8 188.4C153.4 184 152 179.9 150.6 175.8C149.4 172.5 148.2 169.2 146.9 165.9C146 163.6 145 161.3 144.4 158.9C144.1 157.8 143.4 157 143.2 156C142.8 154 142.4 151.9 142 149.9C141.5 147.5 141.5 145.1 141.5 142.7C141.5 141.4 141.9 140.2 142 138.9C142.2 137.6 141.5 136.3 142.6 135.1C142.7 135 142.6 134.7 142.6 134.5C142.8 131.8 143 129.1 143.2 126.4C143.3 124.9 144.1 123.6 143.8 122.1C143.5 120.7 144.2 119.4 144.4 118C144.5 117.5 144.8 116.7 145.1 116.6C146.8 116.3 146.7 115 146.6 113.8C146.6 113.6 146.6 113.4 146.6 113.1H148.2C148.3 113.6 148.3 114 148.4 114.6H150.4C150.5 114.9 150.7 115.2 150.6 115.4C150.4 117 150.1 118.7 150.1 120.3C150 123.5 150.2 126.8 150 130C149.9 131.3 150.4 132.3 150.6 133.5C150.8 134.6 150.5 135.6 151 136.8C151.6 137.9 151.3 139.5 151.6 140.8C152 143.2 152.9 145.5 153.4 147.8C154.1 150.9 154.9 153.9 155.7 156.9C156.5 159.7 157.2 162.6 157.9 165.4C158.7 168.8 159.6 172.2 160.4 175.6C160.9 178 161.8 180.4 162.3 182.8C162.4 183.5 162.6 184.2 162.6 184.9C162.6 185.7 162.1 186.4 161.2 186.2C159.8 186 158.8 186.7 157.6 187.3C156.8 188 155.8 188.1 154.8 188.4ZM170.6 209.2C170.2 209.6 169.9 210.1 169.4 210.9C167.5 207.4 166.6 203.7 163.5 201.4C163.2 201.2 162.8 201.3 162.4 201.3C161.4 202.8 160.3 204.6 161 206.3C161.6 207.7 161 209.3 162 210.5C162.2 210.7 162 211.2 162 212C161.2 211.4 160.5 211.1 160.3 210.6C159.8 209.1 159.7 207.4 158.9 206C158 204.5 158.1 202.9 157.5 201.4C157 200.1 157.5 198.4 157.4 196.9C157.3 195.6 157.7 194.4 158 193.1C158.4 191.8 159.2 190.8 160.3 190.1C160.8 189.8 161.5 189.8 162.1 189.6C163.4 190.8 164.4 192 165 193.6C166 196.1 167.6 198.4 168.8 200.9C169.6 202.6 170.1 204.4 171 206C171.5 207.1 171.7 208.3 170.6 209.2Z" fill="black"/>
<path d="M358.8 300.7C357.6 299.7 358.3 298.3 357.9 297.1C356.8 293.4 356 289.6 355.4 285.8C355 283.6 353.9 281.5 354.2 279.1C353 278.2 354.1 276.7 353.2 275.5C352.5 274.6 352.9 273 352.5 271.8C352.1 270.6 352.1 269.3 351.8 268.1C351 265 350.2 261.8 349.7 258.6C349.5 257.4 349.4 256 348.9 254.9C348 252.9 347.8 250.7 347.5 248.6C347 245.7 346 243.5 343 242.5C341.7 242 340.4 242 339.1 241.6C337.5 241.2 335.7 241.4 334 241.5C332.3 241.7 330.7 240.9 329.1 240.9C327.5 240.9 325.9 241.3 324.5 240.3C321.9 240.7 319.3 239.7 316.7 239.7C314.6 239.7 311.7 237.9 311.5 236C311.3 234 310.5 232.2 310.2 230.2C309.9 228 309.1 225.8 308.8 223.6C308.5 221.5 307.5 219.5 307.3 217.3C307.1 215.2 306.4 213.1 305.9 211C305.5 209.3 304.8 207.5 304.6 205.8C304.3 202.7 302.9 199.9 302.7 196.8C301.7 195.5 302.4 194.1 302.3 192.7C302.1 191 303.4 190.1 304.5 189C305.8 187.6 306.1 185.8 305.2 184C303.9 181.4 302.5 178.8 301.2 176.2C299.9 175.7 300.2 174.3 299.6 173.4C298.8 172.2 297.8 171.1 298.8 169.2C299.4 168.1 299 166.5 298.2 165.2C297 163.1 295.9 161 295.1 158.7C293.8 154.9 292.8 151.1 291.4 147.3C291.1 146.6 291.3 145.9 291 145.2C290.3 143.5 289.6 141.7 289.2 139.9C288.9 138.2 288.4 136.5 287.8 135C287.2 133.4 286.9 131.8 286.3 130.2C285.4 127.8 285 125.2 284 122.8C283.9 122.6 284.1 122.2 284.2 121.8C285.2 118.8 285.3 117.9 284.4 115.5C284.1 114.6 283.6 113.7 283.3 112.8C282.5 110.5 281.8 108.3 281 106C280.2 103.8 279.5 101.4 278.8 99.2001C278.1 97.0001 277.5 94.7001 277.1 92.5001C276.7 90.2001 276.7 87.9001 276.5 85.6001C276.3 84.2001 276.2 82.7001 275.8 81.3001C274.6 78.0001 273.3 74.7001 271.1 71.8001C268.7 68.6001 265.6 66.6001 262.3 64.6001C260.7 63.6001 259 62.8001 257.5 61.8001C254.9 60.0001 252.2 58.3001 249.8 56.3001C248.1 54.9001 246.3 53.5001 245.7 51.2001C247 49.6001 248.7 49.1001 250.8 49.1001C251.4 48.4001 252.4 47.7001 252.6 46.8001C252.9 45.2001 253.5 43.6001 253.3 41.9001C253 40.1001 253.6 38.6001 255 37.4001C255.5 37.0001 255.5 36.5001 255.6 35.9001C256 33.7001 254.9 31.8001 254.3 29.8001C253.6 27.4001 253.7 27.3001 255.7 26.1001C256.9 25.4001 258.3 25.4001 259.5 25.0001C261.4 24.4001 263.5 24.2001 265.4 23.2001C267.6 22.1001 267.6 20.5001 265.6 19.2001C265.5 19.2001 265.4 19.2001 265.3 19.2001C263.5 18.2001 261.5 17.8001 259.4 17.5001C257 17.1001 254.5 16.7001 252.9 14.6001C252.4 14.0001 251.9 13.3001 251.6 12.6001C251.1 11.5001 250.8 10.1001 250.2 9.20009C248.2 6.20009 245.9 3.4001 242.3 2.1001C241.4 0.900095 239.7 2.2001 238.7 1.0001C236.8 1.1001 234.9 0.700098 232.9 1.4001C229.8 2.5001 226.6 3.5001 223.5 4.3001C219.3 5.3001 215.7 7.10009 212.8 10.2001C210.5 12.6001 209.2 15.6001 209.1 19.0001C209.1 19.7001 209.3 20.4001 208.8 21.2001C208.5 21.6001 209.2 22.5001 209.1 23.1001C208.8 24.8001 209.3 26.5001 209.8 28.0001C210.8 31.2001 211.7 34.3001 211.5 37.6001C211.4 38.9001 211.9 40.3001 213.1 41.2001C215.2 42.7001 217.3 44.2001 219.1 46.1001C219.3 46.3001 219.7 46.3001 220.1 46.5001C220.1 47.0001 220.3 47.7001 220.1 48.0001C218.7 50.0001 217.9 52.4001 215.6 53.8001C214 54.7001 212.6 55.8001 211 56.6001C207.4 58.6001 203.8 60.4001 200.2 62.4001C198.8 63.2001 197.3 63.8001 196 64.7001C193.6 66.5001 191.6 68.5001 190.6 71.5001C189.5 74.6001 188.9 77.8001 187.5 80.8001C186.7 82.5001 186.5 84.6001 185.5 86.3001C184.5 88.1001 184 90.1001 182.9 91.8001C181.4 94.0001 180.3 96.5001 178.6 98.7001C177.3 100.4 176.2 102.7 178.1 105.1C178.9 106.1 179.9 107 180.6 108.1C180.6 111.8 180.4 113.1 178.9 116C177.7 118.5 176.4 120.9 175.1 123.3C174.1 125.1 173.4 127.2 173.3 129.1C173.1 131.8 172.7 134.5 172.6 137.2C172.6 140.5 172.6 143.7 173 147C173.5 150.7 174.3 154.2 175.6 157.7C176.1 159.1 177 160.4 177.1 162C177.2 163.5 177.8 165 177.7 166.6C177.6 167.7 177.5 168.9 177.7 170C178 171.6 178.2 173.3 179 174.6C179.8 175.8 181 177 182.5 177.8C183.5 178.3 184.2 179.5 185.5 179.5C188.1 179.5 190.7 179.5 193.2 179.5C194.6 179.5 195.1 178.7 194.5 177.3C193.3 174.2 192 171 190.7 168C190.2 166.9 189.5 165.9 188.2 165.8C186.8 167 186.5 168.4 186.7 169.9C186.9 171.4 186.4 172.4 185.2 173.2C184.5 172.7 183.8 171.9 183 171.6C181.5 171.1 181.2 170.1 180.7 168.8C180.4 168 180.4 167.4 180.4 166.7C180.2 164.7 180.8 162.6 179.9 160.6C179.5 159.6 179.6 158.3 179.9 157.2C180.1 156.6 180.1 155.6 181.4 155.3C182.4 155.1 183.2 155.6 184.1 155.4C185.2 155.2 186.1 155.8 186.8 156.4C187.9 157.4 188.9 158.4 189.5 159.8C191.1 163.2 192.4 166.6 193.5 170.2C194 171.9 194.3 173.8 196 174.7C197.8 175 199.4 174.8 201.4 174.1C201 174.9 200.8 175.2 200.6 175.5C199.5 177.7 198.6 180 197.7 182.3C197.2 183.6 197.7 185 197 186.3C196.5 187.2 196.9 188.6 196.9 189.7C197 192.3 196.9 194.9 197.3 197.5C197.8 200.5 197.4 203.6 197.9 206.7C198.4 209.5 197.9 212.4 198.4 215.4C198.9 218.6 198.4 221.9 199 225.2C199.4 227.4 198.9 229.6 199.5 231.9C200 233.6 199.5 235.5 199.6 237.3C199.8 239.1 200.2 240.9 200.2 242.8C200.2 244.6 199.8 246.5 200.7 248.3C201 248.8 201 249.8 200.6 250.2C200 250.9 200.2 251.6 200.2 252.3C200.2 254 199.5 255.5 198.6 256.8C197.7 258.1 196.7 259.3 195.6 260.4C194.8 261.3 195 262.4 194.5 263.4C195.6 266.1 197.1 268.6 199.4 270.5C200.4 271.4 201.6 272 202.7 272.8C204.3 273.9 205 275.8 205.2 277.5C205.4 279 205.9 280.4 205.9 281.8C205.9 283.4 206 284.9 206.4 286.5C206.8 288.1 206.2 289.8 207 291.4C206.7 294.1 207.4 296.8 207.6 299.5C207.7 302.4 208.5 305.3 210.1 307.6C211.7 309.9 212.4 312.2 212.2 314.8C212 318.1 212.9 321.1 214.2 324C215 325.8 215.5 327.7 214.5 329.8C213.7 331.5 213.3 333.5 212.7 335.4C211.8 338.1 212.3 340.8 212.1 343.5C212 344.9 212.2 346.2 212.7 347.6C213.6 349.9 214.5 352.1 216.4 353.8C217.6 354.9 219.3 355.5 220.8 355.5C222 355.5 223.2 354.5 224.4 353.9C224.9 353.7 225.3 353.3 225.8 353.1C226.2 352.9 226.3 352.1 227 352.3C227 353.9 227 355.4 227 356.9C227 358.1 227.4 359 228.2 359.9C228.7 360.4 229.1 360.9 229.5 361.2C230.7 361.4 231.6 361.2 232.4 360.2C233.4 359.1 234.5 358.1 235.7 357.2C238.2 355.3 241.2 355.2 244.1 355.5C246.1 355.8 248 356.9 249.5 358.3C250.1 358.8 250.6 359.7 250.5 360.7C250.4 361.7 250.5 362.8 250.5 363.8C249 364.3 247.8 365.2 246.1 365.2C240 365.1 234 365.1 227.9 365.2C227.9 365.3 227.9 365.3 227.9 365.4C227.9 365.7 227.9 366.1 227.8 366.4C228 366.5 228.2 366.5 228.4 366.6C229 366.8 229.6 367.1 230 367.5C236.2 367.5 242.4 367.5 248.6 367.5C248.8 367.4 248.9 367.3 249.1 367.3C250.2 366.8 251.7 366.5 252.9 366C253.1 365.7 253.3 365.3 253.2 365.6C253.4 365 253.5 364.3 253.6 363.6C253.6 363.3 253.7 363 253.9 362.7C253.9 362.5 253.9 362.3 253.9 362.1C253.9 360.7 253.8 359.1 253.1 357.9C252.5 356.7 251.3 355.6 250.1 354.9C248 353.8 247.1 351.8 245.9 350C245.2 349 244.6 347.9 244.2 346.7C243.7 345.2 243.5 343.6 243 342C242.4 340 239.4 337.8 237.6 338.2C236.4 338.5 235.3 338.6 234.1 338.8C232.4 339.1 232.2 339 232.2 337.5C232.2 336.1 232.2 334.6 232.2 333.4C232.8 332.8 233.2 332.3 233.6 331.8C235 331.8 236.6 331.4 237.6 331.9C239.4 332.9 241.5 333.1 243.3 334.1C245.3 335.2 247.4 335.9 249.4 336.7C250.8 337.3 250.9 337.2 251.7 335.7C252.5 334.2 252.4 332.6 252.8 331C253.2 329.5 252.8 327.6 253.5 326.4C254.3 325.2 253.6 323.9 254.4 322.7C255 321.8 254.5 320.3 255 319C255.5 317.9 255.4 316.5 255.6 315.3C255.9 313.9 255.9 312.3 256.3 311C256.8 309.6 256.7 308.2 257.2 306.8C257.7 305.5 257.6 303.9 257.9 302.5C258.1 301.3 258.3 300 258.6 298.8C259.3 296.4 259.6 293.9 260.1 291.4C260.6 289.2 261.1 287 261.5 284.8C262 282.2 262.9 279.6 263.6 277C264.2 274.5 265 272 265.9 269.6C266.4 268.3 266.8 267 266.9 265.7C267.3 262.6 267 259.6 265.2 257C265.2 256.9 265.1 256.8 265.1 256.8C264.2 254.8 263.9 253.9 264.7 252.3C265.2 251.4 265.2 250.6 265.1 249.8C263 249 262.3 250.7 261.2 251.7C261.2 252.9 261.2 254.2 261.2 255.4C261.2 255.8 261.2 256.2 261.4 256.5C262.7 258.2 263.2 260.4 264.2 262.2C264.5 262.7 264.5 263.3 264.8 264.2C263.9 264 263.4 263.9 262.9 263.7C261.9 263.2 260.9 262.6 259.9 261.9C256.8 259.7 255 259.2 251.3 259.5C250.6 259.6 249.9 259.7 249.2 259.8C248.3 259 247.3 258.2 248.5 256.7C248.7 256.5 248.5 255.9 248.5 255.6C248.8 254.2 248.8 252.6 249.2 251.3C249.6 250.1 249.1 248.7 249.7 247.8C250.5 246.5 250.1 245.2 250.2 244C250.3 242 250.3 240 250.2 238C250.1 236.1 249.7 234.2 249.5 232.4C250.4 231.7 250.9 231 252 230.8C253.6 230.4 255.3 230 256.9 229.6C258.7 229.1 260.5 229 262.2 228.5C264.6 227.8 266.8 228.3 269 228C269 229.7 269.3 231.1 268.9 232.5C268.2 235 267 237.3 266.7 239.9C266.6 240.9 265.7 241.9 265.7 242.9C265.7 243.9 266.5 244.8 266.9 245.7C268.6 245.3 269.3 243.8 269.5 242.5C270 238.9 271.3 235.5 272 232C272.7 228.8 272.9 225.5 273.5 222.3C274 219.9 273.6 217.3 274.1 214.8C274.6 212.2 274.2 209.4 274.7 206.7C275.3 203.5 274.6 200.2 275.3 196.9C275.8 194.5 275.5 191.9 275.4 189.5C275.3 187.1 275 184.7 274.8 182.3C274.8 182.1 274.8 181.9 274.7 181.8C273.6 179.3 273.4 176.5 272.1 174C271.6 173.1 271.6 171.9 272.6 170.9C273.5 170 273 169.8 272.3 168.3C271.8 167.4 270.4 166.8 270.8 165.5C270 164.7 270.3 163.8 270.2 162.9C270.1 162 269.7 161.2 269.7 160.3C269.6 158.5 269.7 156.7 269.7 154.7H274.2C274.3 154 274.4 153.5 274.5 152.7C275.7 154.7 276.7 156.4 277.7 158.1C278.3 159 278.9 159.9 279.4 160.8C280.3 162.3 280.9 164 281.9 165.5C284.7 169.5 286.3 173.9 286.3 178.9C286.3 179.6 286.2 180.3 286.4 180.9C287.3 183.4 287.6 185.9 287.4 188.5C287.4 188.9 286.5 191.4 286.2 191.7C285.4 192.5 285.2 193.7 285.2 194.7C285.2 196.8 284.5 199 285.7 201.1C285.3 202.5 286.2 203.6 286.3 204.9C286.4 206.5 286.4 208.1 286.9 209.5C287.8 211.8 288.1 214.2 288.4 216.6C288.8 219.2 289.8 221.7 289.7 224.4C290.9 225.4 289.9 227 290.7 228.3C291.4 229.3 291.1 231 291.4 232.3C291.5 233 291.8 233.7 291.9 234.4C292 235.1 291.8 235.9 292 236.6C292.7 238.9 293.2 241.2 293 243.5C291.1 244.6 289.3 245.6 287.5 246.6C286.9 246.9 286.1 247.1 285.6 247.5C282.4 249.9 279.2 252.3 276 254.8C275.4 255.3 275 256.1 274.6 256.8C272.4 259.9 273.1 263.5 273 267C274 267.8 273.4 268.9 273.6 269.9C273.8 270.9 274 271.8 274.2 272.8C274.4 274 273.9 275.2 274.8 276.3C274.4 277.9 275.3 279.4 275.4 280.9C275.5 282.5 275.8 284.2 275.9 285.8C275.9 286.2 275.7 286.8 275.9 286.9C276.8 287.7 276.3 288.7 276.4 289.6C276.6 290.6 276.8 291.5 277 292.5C277.2 294.5 277.1 296.6 277.7 298.5C278.1 300 277.8 301.5 278.3 302.8C278.7 303.8 278.3 305 278.8 305.7C279.6 306.8 279.1 307.9 279.3 309C279.5 310 279.8 310.9 279.9 311.9C280.2 314.8 280.7 317.6 281.7 320.4C282.7 323.1 284.2 325.4 286.9 326.5C290.4 327.8 293.2 328.7 296.4 327.4C296.9 327.2 297.5 327.3 298.1 327.4C298.9 327.5 299.5 327.9 299.5 328.8C299.5 329.6 299.5 330.3 299.5 331.2C300.4 331.9 301.3 332.6 302.3 333.3C303.2 334 304.2 333.8 305.2 333.4C306.1 333 305.8 332.1 305.8 331.4C305.8 330.7 305.8 330 305.3 329.3C304.8 328.5 304.8 327.4 304.6 326.2C315.2 324 325.6 321.9 336.2 319.9C336.1 322 333.9 323.3 334.6 325.5C335.6 325.9 336.5 326.2 337.4 326.5C337.7 326.6 338.1 326.7 338.4 326.6C340.2 326 341.4 324.3 341.4 322.5C341.4 321.7 341.4 320.8 341.4 319.8C341.7 320.1 341.9 320.2 342 320.3C343 322 342.9 321.8 344.7 321.1C345.9 320.7 346.3 319.6 347.2 319.1C347.2 316.2 347.3 316.3 350.1 315.3C352.1 314.6 353.9 313.4 355.9 312.7C358.9 311.6 359.5 308.9 359.6 306.4C359.8 304.7 359 302.7 358.8 300.7ZM308.9 241.9V243.8C307.6 244 306.4 244.3 305.2 244.4C304.2 244.4 303.3 244.1 302.3 243.9C300.7 243.4 300.5 242.5 301.6 241.3C301.8 241 302.1 240.8 302.4 240.5C303.6 240.4 304.7 240.7 305.9 241C306.9 241.1 307.9 241.1 308.9 241.9ZM293.5 171.7C295.6 172.1 295.4 174.3 296.8 175.2C297.8 177.9 299.6 180.1 300.8 182.7C300.9 182.9 300.8 183.2 300.8 183.7C299.5 183.2 298.5 182.5 297.6 181.7C296.5 180.7 295.4 179.6 294.4 178.5C292.9 176.9 292.3 175.1 293.4 173C293.6 172.7 293.5 172.1 293.5 171.7ZM299.4 189.4C298.3 190.7 297.3 191.9 296.2 193.2C296.1 193.4 295.7 193.3 295.4 193.4C295.4 191.6 296.8 189.2 298.9 187.1C299.7 187.7 300.2 188.4 299.4 189.4ZM289.3 170.8C289.8 169.5 290.7 168.9 291.6 168.1C291.8 167.9 292.4 168.1 293 168.2C292 169.8 290.8 171.2 290.3 172.8C289.8 174.3 290 176.1 289.9 178C289.5 177.5 288.9 177.2 288.9 176.9C289 174.9 288.6 172.9 289.3 170.8ZM256.3 66.7001C257.5 66.2001 258.5 66.8001 259.3 67.4001C260 67.9001 260.3 68.8001 260.6 69.7001C261.3 71.7001 262.1 73.6001 261.8 75.8001C263 80.3001 262.2 84.8001 262.3 89.3001C262.4 93.9001 262.8 98.5001 262.2 103.1C261.6 108.2 262 113.3 261.8 118.4C261.7 119.9 261.8 121.3 262.3 122.8C262.7 124.1 261.9 125.6 262.9 126.8C262.7 129 263.7 130.9 264 132.9C264.2 134.3 264.9 135.6 265.4 137.4C264.8 137.1 264.2 137.1 264.1 136.8C263.1 134.4 262.1 132.1 261.2 129.7C260.2 127.1 259.4 124.5 258.7 121.8C258.4 120.6 258 119.4 257.8 118.2C257.5 116.6 257.4 115 256.7 113.5C256.6 113.3 256.6 113.1 256.6 113C256.4 110.2 256 107.4 256.1 104.6C256.2 102.6 255.4 100.8 255.4 98.8001C255.5 96.9001 255.8 94.9001 255.3 93.1001C254.6 90.0001 255.3 86.9001 254.7 83.9001C254.2 81.2001 254.4 78.5001 254.2 75.8001C254.2 72.5001 254.8 69.5001 256.3 66.7001ZM250.4 26.4001C250.8 28.9001 251.3 31.4001 251.8 33.8001C251.8 34.0001 252.1 34.2001 252.3 34.6001C251.2 35.7001 250.2 36.6001 249.2 37.7001C249.4 38.5001 249.7 39.4001 249.9 40.0001C249 40.9001 248.2 41.7001 247.4 42.5001C248.1 43.6001 248.6 44.4001 249.2 45.2001C247.4 47.1001 245 46.9001 242.9 46.4001C240.3 45.8001 237.6 45.1001 235.2 43.7001C232.7 42.2001 230.5 40.6001 229.2 38.0001C229.6 36.5001 230.7 36.8001 231.9 36.8001C232.3 35.5001 232.9 34.2001 233.2 32.9001C233.3 32.6001 232.7 32.1001 232.7 31.7001C232.3 29.0001 233.6 25.8001 237.3 24.7001C238.6 24.3001 239.9 23.5001 241.2 23.0001C242.5 22.5001 244 22.4001 245.3 21.9001C246.2 21.6001 247.4 21.8001 248.4 21.8001C249.9 23.0001 250.2 24.7001 250.4 26.4001ZM221.3 52.3001C221.8 51.0001 221.7 49.5001 222.6 48.2001C223.5 46.8001 223.9 45.1001 224.2 43.4001C224.4 41.9001 224.7 40.3001 225.7 38.7001C226.5 39.4001 227.1 40.0001 227.6 40.8001C229.1 43.5001 231.2 45.5001 234.2 46.6001C236.2 47.3001 238.2 48.1001 240.2 48.7001C241 48.9001 241.9 49.2001 242.1 50.3001C242.1 50.5001 242.5 50.7001 242.5 50.7001C241 52.9001 242.8 54.8001 243.1 56.9001C243.3 58.2001 243.1 59.6001 243.1 61.3001C242.7 61.7001 242.1 62.3001 241.4 62.7001C240.6 63.1001 239.9 63.6001 238.9 63.6001C236.5 63.5001 234.1 63.8001 231.7 63.5001C229.3 63.3001 227.1 62.2001 225.1 60.7001C223.4 59.4001 222.1 57.9001 221.5 55.6001C221.2 54.6001 220.9 53.3001 221.3 52.3001ZM220.7 35.2001C221.6 34.6001 222.2 35.5001 222.2 35.8001C222.2 37.1001 223.7 38.3001 222.3 39.6001C222.1 39.8001 222.1 40.3001 222 40.7001C220.7 39.0001 220.4 37.2001 220.7 35.2001ZM223.3 29.5001C224.6 29.2001 225.8 28.9001 227 28.6001C228.2 30.5001 228 32.5001 228.7 34.5001C228 34.5001 227.6 34.5001 227.1 34.5001C225 34.5001 224.6 34.2001 224 32.2001C223.8 31.4001 223.6 30.5001 223.3 29.5001ZM217.4 42.0001C216.4 41.1001 215.3 40.3001 214.1 39.3001C214.9 38.8001 215.6 38.4001 216.4 37.8001C217 38.7001 217.7 39.7001 218.5 40.8001C218 41.4001 217.7 41.7001 217.4 42.0001ZM216.9 31.1001C215.8 31.9001 214.7 32.4001 213.2 32.2001C213.3 30.2001 212.3 28.7001 211.9 27.1001C211.6 25.6001 211.6 24.2001 211.5 22.7001C211.4 20.5001 211.6 18.4001 212.5 16.3001C213 15.0001 213.6 13.8001 214.6 12.9001C215.8 11.8001 216.8 10.4001 218.4 9.6001C219.4 9.1001 222.6 7.7001 223.6 7.6001C225.7 7.4001 227.6 6.9001 229.5 6.0001C231.5 5.0001 233.8 4.70009 235.9 4.20009C237.3 3.90009 238.8 4.6001 240.1 5.0001C243.2 6.0001 245.6 8.2001 247.3 11.0001C247.9 12.1001 248.3 13.2001 248.7 14.4001C248.9 15.1001 248.4 16.0001 247.7 16.1001C246.5 16.3001 245.4 16.7001 244.2 16.6001C241.8 16.5001 239.6 17.5001 237.3 18.0001C233.4 18.8001 230.4 21.3001 227.3 23.5001C223.8 26.0001 220.3 28.5001 216.9 31.1001ZM214 58.6001C214.7 58.3001 215.1 57.9001 215.5 57.5001C216.9 56.3001 218 56.5001 218.8 58.0001C220.7 61.6001 223.6 64.1001 227.4 65.7001C228.3 66.1001 229.4 65.7001 230.2 66.5001C232.5 66.3001 234.8 67.4001 237.1 67.1001C238.7 66.9001 240.3 66.6001 241.8 66.0001C244.5 65.0001 245.8 62.9001 246.2 60.2001C246.2 60.0001 246.3 59.9001 246.4 59.5001C248.9 60.0001 250.8 61.6001 252.4 63.3001C252.6 65.3001 252 67.1001 251.4 68.9001C251.2 69.6001 251.3 70.4001 251.2 71.1001C251.1 72.4001 251.6 73.7001 250.7 74.9001C250.5 75.2001 250.5 76.0001 250.7 76.3001C251.6 77.4001 251.2 78.7001 251.2 79.8001C251.1 83.3001 252.2 86.7001 251.8 90.2001C252.8 92.2001 252.2 94.4001 252.4 96.6001C252.5 97.8001 252.8 98.9001 252.9 100.1C253 101.2 252.6 102.5 253 103.5C253.6 105.2 253.4 107 253.5 108.7C253.6 109.9 253.9 111 254.1 112.2C254.3 113.3 254 114.3 254.5 115.5C255 116.5 254.5 117.9 254.7 119.1C255.1 121 255.6 122.9 255.9 124.9C256.1 126.7 256.8 128.5 257.6 130.2C258.9 133.1 260.4 135.9 261.9 138.7C262.6 140.1 263.4 141.5 264.3 142.8C265.8 145 266.9 147.4 266.7 150.1C266.6 151.6 266.6 153.2 266.7 154.7C266.8 156.2 267.1 157.6 267.2 159.1C267.3 160.6 267.2 162.2 267.2 163.7C267.2 164 267.4 164.2 267.5 164.5C268.3 167.1 267.5 168.9 265.1 169.7C261 170.9 257.2 172.7 253.3 174.3C249.7 175.8 246.1 177.3 242.3 178.3C241.2 178.6 240.1 179.3 239 179.4C237.5 179.5 235.8 179.3 234.4 178.8C232.4 178.2 230.5 177.5 228.5 177C226.4 176.5 224.4 175.3 222.6 174C221.3 173 219.8 172.4 218.4 171.6C215.9 170.2 213.4 168.9 210.6 168.3C210 168.2 209.4 168 208.8 167.9C207.7 167.9 206.5 167.9 205.2 167.9C205.5 166.8 205.5 165.7 205.9 164.9C207.5 161.8 208.5 158.5 209.8 155.4C211.2 152.1 212.5 148.7 213.7 145.3C214.6 142.8 215.6 140.3 216.3 137.8C216.6 136.5 216.3 135 217.2 133.9C217.7 130 219.5 124.3 221.2 120.4C222.6 117.1 224.5 114.1 225.7 110.8C227 107.5 229 104.5 230 101.1C230.4 99.7001 230.1 98.5001 230.4 97.3001C229.2 95.8001 227.8 94.7001 225.9 94.3001C225.2 94.1001 224.7 94.0001 223.9 94.4001C222.7 95.0001 221.8 95.8001 221.2 97.0001C219.5 100.4 217.8 103.8 216.5 107.4C215.8 109.4 215 111.7 212.7 112.9C212.5 111.7 212.6 110.6 213.1 109.4C213.8 107.5 213.8 105.3 214.2 103.3C214.7 101.4 215.3 99.5001 215.5 97.5001C215.6 96.5001 215.6 95.1001 216.1 94.4001C216.7 93.4001 216.1 92.2001 216.7 91.5001C217.5 90.4001 216.7 89.2001 217.2 88.3001C218 86.9001 217.7 85.6001 217.7 84.2001C217.7 80.6001 218.7 77.1001 218.3 73.5001C218.2 72.8001 218.6 71.9001 218.2 71.5001C217.2 70.3001 218.1 68.9001 217.5 67.7001C216.8 66.3001 216.2 64.8001 215.3 63.4001C214.7 62.5001 213.8 61.7001 213 60.9001C212.8 60.2001 212.9 59.1001 214 58.6001ZM215.4 124.7C214.2 127 212.7 129.2 210.3 130.6C207.9 132 205.4 131.5 204 129.1C203.3 127.8 202.8 126.6 202.8 125C202.7 122 203.1 119.2 204.4 116.3C205.4 116.8 205.7 117.7 205.7 118.7C205.7 120.2 206.6 121.2 207.3 122.3C208.7 124.3 212 124.4 213.8 123.3C215.8 122.1 217 120.3 217.2 117.9C217.3 116.8 217.5 115.7 218 114.8C219.2 112.5 219.7 110 220.6 107.6C221.6 105 222.7 102.3 223.5 99.7001C223.8 98.9001 224.7 98.3001 225.4 97.5001C228.1 97.7001 228.6 98.4001 227.6 100.5C225.7 104.5 223.9 108.5 221.7 112.4C219.4 116.5 217.5 120.7 215.4 124.7ZM210 62.1001C212 63.5001 213.3 65.6001 214.5 67.8001C215 68.7001 215.3 69.8001 215.4 70.9001C215.5 73.8001 216.4 76.6001 216 79.5001C215.8 80.7001 215.5 81.8001 215.5 83.0001C215.4 84.2001 215.8 85.6001 215.4 86.7001C214.8 88.7001 214.9 90.9001 214.2 92.8001C213.5 94.6001 213.5 96.7001 212.6 98.4001C212.4 98.9001 212.1 99.4001 211.9 99.9001C211.8 99.9001 211.6 99.8001 211.5 99.8001C211.5 96.2001 211.4 92.6001 211.6 89.0001C211.7 87.3001 210.8 85.8001 210.9 84.1001C211 82.4001 211.4 80.5001 210.8 79.0001C210.2 77.3001 210.8 75.6001 209.9 73.9001C209.2 72.5001 209.1 70.8001 208.5 69.3001C208.1 68.4001 207.4 67.6001 206.7 66.9001C205.8 65.9001 205.1 64.9001 205 63.6001C206.5 62.4001 208 61.5001 210 62.1001ZM182.7 97.1001C183.4 96.0001 183.9 94.7001 184.4 93.5001C185.9 90.0001 187.5 86.6001 189 83.1001C190.1 80.5001 191.4 78.0001 191.9 75.1001C192.1 73.8001 192.8 72.3001 193.7 71.3001C195.5 69.3001 197.2 67.2001 199.9 66.2001C200.6 65.9001 201 65.9001 201.7 66.3001C203.1 67.0001 204.1 67.9001 204.7 69.3001C205.9 72.4001 207 75.4001 207.5 78.8001C208 81.8001 207.9 84.8001 207.9 87.8001C207.9 91.6001 208.8 95.2001 208.6 99.0001C208.4 102.7 208.6 106.4 208.6 110.2V112.4C208.4 112.4 208.3 112.4 208.1 112.5C207.9 111.6 207.6 110.7 207.4 109.8C207.2 108.3 206.9 106.7 206.8 105.2C206.7 103.6 207.1 101.9 206.7 100.4C206.3 98.9001 206.3 97.5001 206.2 96.0001C206.1 94.5001 204.2 92.7001 202.8 92.5001C202.4 92.4001 201.9 92.6001 201.6 92.9001C201 93.4001 200.5 93.9001 200.2 94.2001C199 99.1001 199.1 104 197.4 108.7C197 108.4 196.5 108.3 196.4 108C195.3 105.8 193.3 104.5 191.7 102.8C190.3 101.4 188.3 101.2 186.6 100.5C185.3 100 183.8 100 182.3 99.8001C182 98.8001 182.2 98.0001 182.7 97.1001ZM194.8 115.5C194.1 118 193.3 120.4 192.5 122.8C192.3 123.3 191.9 123.7 191.6 124C190.1 123.7 189.9 122.7 190.2 121.8C191 119.4 191.5 117 193.5 115.2C193.7 115 193.9 114.9 194.2 114.8C194.3 114.8 194.4 114.8 194.6 114.8C194.6 115 194.8 115.3 194.8 115.5ZM185.5 146.9C185.2 148.2 184.9 149.5 184.5 150.8C184.3 151.5 184 152 183.3 152.1C181.1 152.3 178.9 152.4 176.7 152.6C176 151.6 175.9 150.5 175.9 149.2C176 146.2 174.9 143.3 175.3 140.3C174.3 138.5 174.6 136.4 174.8 134.5C175.2 131 175.7 127.6 177.4 124.4C178.8 121.8 180.2 119.1 181.4 116.3C182 114.9 182.6 113.5 182.7 112C182.9 108.4 182.5 106.7 180.4 103.9C180.8 102.4 182.2 102.5 183.1 102.8C185.2 103.5 187.4 103.7 189.4 105C190.5 105.7 191.5 106.4 192.4 107.5C193.2 108.6 193.1 109.3 192.6 110.5C191.7 112.4 190.7 114.2 189.5 115.8C187.6 118.3 186.9 121.2 187.3 124.3C187.5 125.3 187.9 126.5 188.6 127.2C190.3 128.8 189.8 130.8 189.4 132.5C188.2 137.3 186.5 142 185.5 146.9ZM199.1 170.4C198.6 170.8 198 170.9 197.5 171.2C196 168.4 195.1 165.6 194.2 162.8C193.4 160.4 192.1 158 190.1 156.2C188 154.2 187.4 151.6 188.1 149.1C188.6 147.1 189 145.1 189.5 143.1C190 141.1 190.6 139.1 190.9 137C191.2 135 192.4 133.2 192.9 131.2C194 126.6 195.8 122.3 197.2 117.8C198 115.3 198.7 112.7 199.7 110.2C200.3 108.7 200.6 107.1 201.1 105.6C201.6 104.1 202 102.4 201.9 100.7C201.8 99.6001 202.5 98.5001 203 96.9001C204.7 99.9001 203.9 102.6 204 105.1C202.8 106.1 203.8 107.7 203 109C202.4 110 202.7 111.5 202.3 112.7C201.8 114.4 201.5 116.2 201 117.9C199.9 121.4 199.9 124.9 200.2 128.4C200.3 129.7 201.4 131.1 202.4 132C203.9 133.2 205.7 134.2 207.8 134.1C210.2 134 212 132.7 213.9 131.4C214.3 131.1 214.8 130.8 215.2 130.5C216.3 132 214.8 133.1 215 134.3C213.1 138.7 212.3 143.5 210.4 147.9C209.5 149.9 208.8 152 208.1 154.1C206.9 157.5 205.1 160.7 203.5 163.9C202.2 166.4 201.1 168.8 199.1 170.4ZM214 307.4C212.3 305 210.6 302.5 210.9 299.3C210.1 297.6 210.7 295.8 210.2 294.1C209.8 292.4 210.1 290.7 209.6 289.2C209 287.6 209.5 286 209.1 284.5C208.6 282.9 208.6 281.4 208.6 279.8C208.6 279.5 208.7 279.1 208.8 278.2C209.8 279.7 210.7 280.6 211.5 281.7C214.3 285.9 216.5 290.3 218.6 294.8C219.3 296.2 219.5 297.9 220.3 299.2C221.2 300.6 221.1 302.3 221.7 303.8C222.4 305.6 221.1 307.3 220.2 308.8C219.8 309.4 219.3 310 219 310.4C216.3 310.3 215 308.9 214 307.4ZM214.9 315.1C214.8 313.7 215.2 313.3 216.6 313.2C218.2 313.1 219.8 312.7 221.3 312C223.5 311 225.3 308.1 224.5 305.8C223.9 304.2 224.6 302.4 223.5 301.1C222.8 296.8 221.1 293 219.2 289.1C217.1 284.7 214.6 280.6 211.9 276.6C211.2 275.6 211.3 274.5 211.8 273.5C212.2 272.8 212.8 272.2 213.1 271.5C214.6 268.7 216.3 266 217.3 262.9C217.8 261.3 218.9 260 219.9 258.2C221.9 260.6 223 262.8 223.9 265.2C224 265.4 224 265.5 224 265.7C224.2 268 224.4 270.3 224.6 272.6C224.7 273.9 225 275.1 225.2 276.4C225.3 277.6 224.9 278.8 225.8 279.9C225.9 280 225.8 280.3 225.8 280.5C226 283.6 226.1 286.7 226.4 289.7C226.5 291 227.1 292.1 227 293.5C226.9 294.8 226.7 296.1 227.5 297.3C227.5 297.4 227.5 297.5 227.5 297.6C227.7 300.7 227.6 303.8 228.2 306.8C228.6 309 228.8 311.2 228.6 313.5C228.4 315.9 228.2 318.3 228 320.7C227.9 321.8 227.7 323 227.5 324.2C227.4 325 227 325.8 226.7 326.5C225 324.8 223.4 323.2 221.9 321.7C220.1 322.1 218.6 321.4 217.3 322.4C217.2 322.5 216.4 322.1 216.2 321.8C215.9 321.3 215.7 320.7 215.6 320.1C215.3 318.4 215 316.8 214.9 315.1ZM218.1 243.2C219 243.4 219.5 243.9 219.5 245C219.6 247.5 219.4 248 218 249.2C217.6 247.1 216.9 245.2 218.1 243.2ZM221.7 245.4C221.7 244.1 221.7 242.9 221.3 241.6C220.8 240.3 221.1 238.7 221.7 237.3C223 234.5 224.5 231.8 225.2 228.7C225.4 227.9 225.8 227 226.4 226.3C227.6 224.7 228.1 222.8 228.8 221C229.4 219.2 230.4 217.5 231.1 215.6C231.9 213.1 233.4 210.8 234.4 208.4C234.8 207.4 235.4 206.4 235.7 205.2C235.9 204.3 236.5 203.1 237.9 202.6C237.9 203 237.9 203.3 237.8 203.5C234.7 209.4 234.6 211.3 233.3 216.2C232.8 217.9 232.5 219.6 231.7 221.3C230.9 222.9 230.9 224.8 230.5 226.5C230.3 227.6 230.3 229 229.7 229.9C228.9 231 230 232.4 228.8 233.3C228.5 233.5 228.8 234.4 228.8 235C228.8 238.2 228.8 241.5 228.8 244.7C228.8 246.6 228.2 248.2 226.8 249.6C225.2 251.2 223.8 252.9 222.2 254.6C221 254 221.1 252.8 221.4 252C222.1 249.9 221.6 247.6 221.7 245.4ZM226.7 346.4C225.9 348 224.9 349.5 223.9 350.9C223.3 351.7 222.4 352.2 221.3 352.2C220.6 352.2 220 352.2 219.4 352.2C216.6 350.5 216.4 347.7 215.5 345.3C214.5 342.7 214.6 340.5 215.6 337.5C216 336.2 216.3 334.9 216.6 333.6C216.8 333 216.9 332.4 217.2 331.8C217.8 330.8 218.3 330.8 219.5 331.1C220.6 331.4 221.2 333 222.6 332.6C223.5 333.5 224.3 333.2 225.3 332.8C227 332.1 228.2 333 228.6 335C228.8 335.9 229.1 336.7 229.2 337.6C229.5 340.9 228.1 343.7 226.7 346.4ZM233 344.7C233.3 344.4 233.6 344.2 233.8 343.9C235.1 342.4 236.6 341.5 238.1 341.9C240.1 342.5 240.2 344.1 240.5 345.2C241 347 241 349 241.1 350.9C241.2 352.4 240.7 352.9 239.4 352.8C236.7 352.4 236.4 353.3 233.7 354.9C232.7 355.5 231.8 356.3 230.9 356.9C229.2 356.1 229.7 354.7 230 353.5C230.4 351.6 231 349.7 231.4 347.8C231.7 346.6 232.1 345.6 233 344.7ZM232.2 322.7C231.7 324.1 231.4 325.6 230.9 327C230.8 327.2 230.4 327.4 230.1 327.5C230 327.2 229.7 326.8 229.8 326.6C231 324.2 230.6 321.5 231.4 319C231.8 317.8 231.5 316.3 231.5 315C231.5 314 231.4 313.1 231.5 312.1C231.9 308.5 230.6 305 230.9 301.4C230.1 299.8 230.7 298 230.2 296.5C229.6 294.9 230.1 293.3 229.7 291.8C229.2 290.1 229.5 288.3 229.1 286.6C228.7 284.9 228.9 283.2 228.5 281.7C228.1 280.3 228.2 279 228 277.6C227.8 276.2 227.6 274.9 227.4 273.5C227 270.6 226.6 267.7 226.2 264.8C225.9 262.5 225.5 260.1 225.2 257.8C225 256.1 225.7 254.7 226.9 253.7C228.6 252.2 230 250.5 230.9 248.5C231.2 247.7 231.6 246.9 231.5 245.9C231.4 243.6 231.5 241.3 231.5 239C231.5 237.7 231.4 236.3 231.5 235C231.6 233.8 232 232.7 232.1 231.5C232.3 230.3 232.3 229 233.1 227.9C232.8 225.5 234.2 223.5 234.5 221.3C234.9 219.2 235.2 217 236 215C237 212.7 236.8 210 238.2 207.9C238.5 207.4 239.1 207.1 239.9 206.4C239.9 208.2 240 209.4 239.9 210.6C239.8 211.8 240.2 212.9 239.5 214.2C239.1 214.9 239.5 216.3 239.7 217.4C240.2 219.5 240.7 221.6 241.1 223.7C241.6 226 242 228.3 242.6 230.5C243.1 232.5 243.2 234.6 242.2 236.5C240.3 240.1 239.3 243.9 239.3 247.9C239.3 252 240.3 255.8 242.2 259.3C242.4 259.7 242.5 260.2 242.8 260.5C243.9 261.6 244.2 262.9 243.9 264.3C243.4 267.3 242.7 270.3 242 273.3C240.9 274.2 242.3 275.8 241 276.6C240.8 278.4 240.6 280.3 240.4 282.1C240.2 283.6 240 285.2 239.8 286.7C239.6 288.2 239.9 289.6 239.3 291.1C238.8 292.4 239 294 238.7 295.4C238.2 298 237.7 300.6 237.2 303.1C236.7 305.5 236 307.9 235.3 310.3C234.7 312.4 234.1 314.4 233.6 316.5C233.4 318.8 232.9 320.8 232.2 322.7ZM247.5 244.9C247.1 246.9 247 249 246.5 251C246.1 252.4 246 254 245.8 255.6C245.7 256.3 245.7 256.3 244.3 257.2C243.2 253.8 241.8 250.4 242.4 246.9C243.1 243.5 243.1 239.7 246 237C247.1 238.2 247.5 239.3 247.4 240.7C247.5 242 247.8 243.5 247.5 244.9ZM245.8 228.3C245.4 228.3 245 228.4 245 228.4C243.9 224.9 243.2 221.3 242.8 217C243.5 218 243.9 218.4 244 218.9C244.2 219.5 244.1 220.2 244.2 220.8C244.8 222.9 245.1 225.1 245.7 227.3C245.9 227.6 245.8 228 245.8 228.3ZM252.5 262.8C253.8 262.3 255.1 263.1 256.3 263.8C257.9 264.6 259.5 265.3 261 266.3C262.5 267.2 262.8 269.2 262.2 271.3C261.6 273.6 260.9 275.7 260.6 278.1C260.4 279.8 259.9 281.5 259.4 283C258.9 284.4 259 285.8 258.4 287.2C257.9 288.3 258.3 289.9 257.7 290.9C256.9 292.1 257.9 293.6 256.7 294.5C256.8 296.6 255.9 298.6 255.4 300.6C254.6 304 254.1 307.5 253.2 310.9C252.9 312 252.8 313.2 252.5 314.4C252.2 315.6 251.9 316.8 251.5 318C251.1 319.1 251.8 320.4 250.8 321.4C251.1 323.1 250.5 324.7 250.2 326.3C249.8 328.2 249.4 330.2 249 332.5C247.6 332.2 246.5 332 245.5 331.6C242.5 330.6 239.4 329.9 236.3 328.8C235.4 328.5 234.8 328 234.3 327.4C233.7 326.7 234.5 326.1 234.6 325.4C235.1 321 237.2 317.1 238.2 312.8C238.7 310.5 239.4 308.3 239.9 306.1C240.5 303.8 240.6 301.3 241.4 299C241.9 297.6 241.6 295.9 242 294.4C242.5 292.3 242.2 289.9 242.7 287.8C243.2 285.7 242.8 283.5 243.3 281.5C243.8 279.7 243.5 277.8 243.9 276.1C244.3 274.3 244.6 272.5 245 270.8C245.4 269.2 245.7 267.6 246.9 266.1C248.7 264.3 250.6 263.6 252.5 262.8ZM271.6 182.3C272.6 183.7 271.7 185.5 272.4 186.9C273.1 188.4 272.7 189.9 272.8 191.3C272.9 192.9 272.8 194.5 272.8 196.2C272.8 197.7 273.1 199.3 272.7 200.8C271.8 204.2 272.4 207.5 272.2 210.9C272.1 212.1 271.8 213.2 271.6 214.4C271.4 215.6 271.9 216.7 271.1 217.9C270.7 218.6 271.1 219.8 271 220.7C270.9 221.8 270.8 222.9 270.4 223.9C270 224.8 269.3 225.6 268 225.5C266.4 225.4 264.8 225.5 263.1 225.5C259.3 225.5 255.7 226 252.3 227.8C251.3 228.3 250 228.3 248.9 228.5C248.3 226.2 247.5 224.1 247.1 221.9C246.8 219.8 246.3 217.8 245.8 215.8C244.9 212.3 244.2 208.7 243 205.2C242.7 204.4 243 203.8 243.6 203.2C244.2 202.6 244.8 202.3 245.6 202.6C245.8 202.7 246 203 246.3 203.1C249.2 204 249.3 204 252.2 202C251.7 201.3 251.2 200.5 250.6 199.6H243.1C242.7 198.5 243 197.7 244.1 197.3C245.4 196.8 246.6 195.9 248 195.6C250.2 195.1 251.9 194 253.3 192.4C251.5 191.2 249.6 191.2 247.7 192.3C246.7 192.8 245.6 193.3 244.6 193.7C244.4 193.8 244 193.4 243.6 193.2C244.7 191.5 245.6 189.8 247.1 188.4C248.6 187 250.1 185.6 251.7 184.4C253.2 183.3 255.2 182.8 256.4 181C252.7 180 250.2 181.9 247.7 183.7C243.6 186.7 241 190.9 238.4 195C235.6 199.4 232.9 203.9 230.7 208.7C229.1 212.3 227.6 215.8 226.3 219.5C224.8 223.7 223 227.7 221 231.6C219.4 234.8 217.4 237.7 215.7 240.9C214 244.2 214 247.5 214.9 251C215.9 251.4 215.2 252.4 215.7 253C217.3 255.1 216.6 257.3 215.7 259.4C214.8 261.3 213.6 263.1 212.9 265.1C212.4 266.6 211.7 267.8 210.9 269.1C210.7 269.4 210.5 269.7 210.3 270C208.8 271.6 208.3 272.2 206.5 270.1C206 269.6 205.4 268.9 205.3 268.3C205.2 266.7 203.9 265.8 203.4 264.5C203.2 263.9 202.2 263.6 201.5 263.1C201.1 264.3 200.8 265 200.7 265.8C200.6 266.4 201 267.1 201.3 268.3C200.2 267.2 199.5 266.5 198.8 265.8C197.5 264.4 197.3 263.2 198.5 261.7C199 261 199.7 260.4 200.3 259.9C202.5 257.9 203.1 255.3 203.4 252.6C203.6 250.6 203.7 248.5 203.4 246.6C202.9 243.9 203.3 241.1 202.8 238.5C202.2 235.7 202.5 232.9 202.4 230.1C202.3 228.4 201.6 226.9 201.8 225.2C202 223.5 202.2 221.7 201.8 220.1C201 217.3 201.7 214.5 201.2 211.7C200.6 208.4 201.1 205.1 200.6 201.9C199.7 196.8 200.4 191.7 200.1 186.6C200 184.8 200.7 183.2 201.2 181.6C202.3 178.5 203.2 175.4 205.2 172.6C206.4 170.9 207.3 170.6 209.3 171.2C211.7 172 213.9 173 216.2 174C220.4 176 224.8 177.6 229 179.8C230.8 180.7 232.8 181.4 234.8 181.6C237.3 181.9 240 182 242.5 181.6C245.3 181.1 248.2 180.2 250.8 178.8C253.5 177.4 256.3 176.4 259.1 175.3C260.8 174.7 262.3 173.8 263.9 173.1C264.7 172.8 265.6 172.6 266.4 172.3C267.9 171.8 269 172.1 269.4 173.6C270 176.7 271.8 179.3 271.6 182.3ZM267.6 119.2C267.4 118.2 267.3 117.1 267.1 116.1C266.9 115 266.7 114 266.5 112.9C266.4 111.8 266.8 110.6 265.9 109.7C265.9 109.6 265.9 109.5 265.9 109.4C265.7 107 265.4 104.6 265.3 102.2C265.2 99.7001 265.3 97.2001 265.3 94.8001C265.3 94.6001 265.3 94.4001 265.3 94.2001C265.5 93.0001 266.7 92.0001 266.2 90.8001C265.6 89.5001 266.1 88.2001 265.9 86.9001C265.7 85.6001 265.4 84.4001 265.3 83.1001C265.2 81.8001 265.6 80.3001 265.2 79.1001C264.3 76.5001 264.9 73.9001 264.8 71.3001C264.8 71.2001 264.9 71.2001 265.2 71.0001C266.7 72.3001 268.3 73.5001 269.3 75.3001C271.2 78.5001 272 82.0001 272.8 85.6001C273.4 88.4001 273.3 91.4001 274.5 94.1001C274.5 98.3001 276.4 102.2 276.8 106.3C277.9 107.8 277.9 109.8 278.9 111.4C279.9 113 280.3 114.8 281.2 117.1C279.3 116.6 277.8 117.5 276.6 116.4C274.6 117.3 272.1 116.9 270.4 118.5C269.5 119.4 268.7 119.4 267.6 119.2ZM287.5 166.9C287.3 167 287.1 167 286.9 167C285.2 165.3 284.2 163.1 283.2 160.9C280.9 155.6 278.1 150.4 275.7 145.1C274 141.2 272 137.5 270.9 133.3C270.2 130.4 269.8 127.5 270 124.5C270.1 123 273.1 120 274.7 119.9C275.8 119.8 276.9 120 278 120.2C279.8 120.5 280.3 122.2 280.8 123.5C282.6 128.4 284.3 133.3 285.7 138.3C286.3 140.6 286.9 143 287.8 145.2C288.6 147.4 288.6 149.8 290 151.7C290.6 155.6 291.9 159.3 293.3 162.9C293.7 163.9 292.9 164.5 292.6 164.4C290.4 164.4 289.1 166 287.5 166.9ZM293 224.4C292.4 223.1 292.8 221.2 292.2 219.9C291.6 218.5 292.1 217 291.1 215.8C291.3 212.9 290.2 210.2 289.8 207.4C289.5 205.2 289.2 202.8 288.3 200.6C287.9 199.5 288.1 198.1 288.3 196.9C288.4 196.4 288.3 195.6 289.7 196.1C291.1 196.6 292.9 197.5 294.5 196.8C295.8 196.2 297 196.3 298.3 196.3C299.1 197.1 299.7 197.8 299.8 199.1C300 200.8 300.6 202.6 300.9 204.3C301.2 206 301.6 207.8 302.1 209.5C302.6 211.2 303 212.9 303.4 214.6C303.9 216.2 303.9 218.1 304.3 219.7C305.2 223 305.9 226.3 306.8 229.5C307.3 231.2 307.7 233 308.1 234.7C308.5 236.2 307.8 236.9 306.1 236.9C304.4 236.9 302.7 236.9 300.9 236.9C300 237.8 299.2 238.7 298.3 239.5C297.5 240.2 298.1 241.9 296.3 242.1C295.8 239.7 295.3 237.3 294.9 234.9C294.5 232.6 294.3 230.3 293.4 228.1C293.1 227 293.6 225.7 293 224.4ZM286.1 320.9C285.7 320.5 284.9 320.1 284.9 319.6C284.8 317.5 284 315.5 283.6 313.5C283 310.8 283 307.9 282 305.3C281.5 304.1 282 302.6 281.5 301.2C280.9 299.5 281.1 297.6 280.8 295.7C280.7 294.7 280.4 293.8 280.2 292.8C280 291.8 280.5 290.7 279.6 289.9C279.8 288.2 279.4 286.6 279 285C278.5 282.8 278.3 280.5 278 278.3C277.7 276.4 277.4 274.5 277.2 272.5C277.1 270.7 276.9 268.9 276.3 267.2C276.1 266.7 275.9 265.9 276.2 265.6C277 264.6 276.5 263.4 276.8 262.4C277.7 262.5 278 263.1 277.9 263.9C277.5 265.6 278.7 267.1 278.5 268.8C278.3 270.5 279 272.1 279.2 273.7C279.5 276 279.9 278.4 280.2 280.7C280.4 281.7 280.6 282.6 280.8 283.6C281 284.7 281.2 285.7 281.4 286.8C281.5 287.8 281.6 288.7 281.9 289.7C282.4 291.6 282.3 293.7 282.6 295.7C282.7 296.6 283 297.5 283.2 298.3C283.4 299.1 283 299.9 283.6 300.7C284 301.2 283.7 302.2 283.8 302.9C283.9 303.6 284.2 304.3 284.3 305C284.5 306.8 284.5 308.7 285 310.5C285.4 311.9 285.2 313.3 285.6 314.6C286 315.9 286 317.1 286.1 318.4C286.1 319.2 287 319.8 286.1 320.9ZM291.1 324.8C289 323.8 289.2 321.7 288.9 320C288.7 318.8 288.5 317.5 288.3 316.2C288.1 315 288.2 313.9 287.8 312.7C287.2 311 287.4 309.1 287.1 307.2C287 306.2 286.7 305.3 286.5 304.3C286.3 303.3 286.4 302.4 286 301.3C285.4 299.7 285.6 297.8 285.3 296.1C284.9 294.1 285.1 291.9 284.3 289.9C284.2 289.6 284.3 289.2 284.2 288.8C284 287.2 283.7 285.5 283.7 283.9C283.6 282.3 282.7 280.9 283.1 279.3C282.2 278.2 282.7 276.8 282.5 275.5C282.4 274.6 282.1 273.7 281.9 272.9C281.7 272.1 282.3 271.2 281.4 270.5C281.3 270.4 281.3 270.2 281.3 270C281.1 267.8 281 265.5 280.7 263.4C280.5 261.9 280 260.5 280.2 259C280.3 258.5 280.6 258 281 257.2C281.5 259 282 260.4 281.9 262C281.9 262.9 282.3 263.7 282.4 264.6C282.6 265.4 282.1 266.3 282.9 267C283.1 267.2 283 267.7 283 268.1C283 269.2 282.9 270.2 283.5 271.3C284 272.2 283.1 273.5 284.1 274.5C284.3 274.7 284.1 275.2 284.1 275.6C284.3 276.8 283.8 277.9 284.6 279.1C285.2 280 284.7 281.3 285.1 282.6C285.7 284.3 285.4 286.3 285.8 288C286.2 289.8 286.1 291.6 286.8 293.3C287.2 294.4 286.9 295.8 287.4 297.1C287.9 298.7 287.7 300.6 288.1 302.3C288.9 305.3 288.7 308.4 289.8 311.4C290.2 312.3 289.4 313.5 290.2 314.4C290.8 315.1 289.9 316.3 291 316.9C291.6 320.5 294.2 322 297.3 322.9C297.5 323 297.7 323.1 298.3 323.5C295.9 325.4 293.4 324.4 291.1 324.8ZM303.9 318.4C302.1 318.7 300.5 319.6 298.7 319.6C295.7 319.6 294 318.4 293.6 315.5C293.2 313 292.2 310.6 292.4 308C292.4 307.2 292 306.4 291.9 305.7C291.7 304.9 292.2 304 291.4 303.3C291.2 303.1 291.4 302.6 291.3 302.2C291.3 301.1 291.4 300.1 290.8 299C290.3 298.1 290.9 296.9 290.3 295.8C289.8 294.8 290.1 293.3 289.7 292.1C289.2 290.5 289.3 288.7 289 286.9C288.9 286 288.6 285.1 288.4 284.3C288.2 283.3 288 282.4 287.8 281.4C287.6 280.5 288.2 279.5 287.3 278.7C287.1 278.5 287.3 278 287.3 277.6C287.3 276.5 287.3 275.5 286.8 274.4C286.3 273.5 286.7 272.3 286.3 271.2C285.7 269.3 286.1 267.1 285.5 265.2C284.7 262.2 285.3 259.2 285 256.3C284.7 253.7 286.2 251.9 287.8 250.3C289.4 248.8 291.5 247.7 294 248.2C294.5 249.2 294.9 250.1 294.8 251.3C294.8 252.2 295.2 253 295.3 253.9C295.4 254.8 295.5 255.6 295.8 256.6C296.2 257.7 296.2 259.1 296.4 260.3C296.7 263.2 297.3 266.1 297.8 269C298.2 271.7 298.2 274.6 299.4 277.2C299.1 278.8 299.7 280.3 300 281.8C300.3 283.7 300.4 285.5 301 287.4C301.4 288.7 301.1 290.1 301.6 291.5C302.1 293.1 301.8 295 302.3 296.7C303.1 299.4 303 302.2 303.9 304.9C304.5 306.7 304 308.8 304.6 310.6C305.3 312.8 304.9 315.1 305.1 317.3C305 317.7 304.5 318.3 303.9 318.4ZM306.7 307.2C306.2 306.2 306.6 304.7 306.1 303.5C305.6 302 305.6 300.2 305.4 298.6C305.2 297.1 304.5 295.8 304.8 294.3C303.5 293.2 305 291.3 303.7 290.2C303.6 290.1 303.7 289.7 303.6 289.4C303.4 288.3 303.9 287.2 303.1 286.1C302.6 285.4 303.5 284 302.4 283.2C302.5 281.7 302 280.3 301.9 278.8C301.8 277 300.8 275.2 301.3 273.3C300.2 272.2 300.8 270.7 300.3 269.4C299.8 268 299.7 266.4 299.5 264.8C299.3 263 299.4 261 298.8 259.3C298 256.9 298.2 254.3 297.2 252C296.8 251 297.4 250 297.9 249.2C298.4 248.4 299.2 247.7 300.5 247.8C301.6 247.9 302.8 247.4 304 247.3C305.1 247.2 306.3 247.3 307.7 247.3C311.2 247.6 314.9 246.4 318.7 246.7C321 246.9 321.7 247.5 321.9 249.8C322 251.3 321.9 252.9 322.6 254.1C323.4 255.4 322.4 257 323.6 258C323.5 259.9 324.2 261.7 324.7 263.5C325 264.5 325.1 265.6 325.3 266.7C325.5 267.8 325.3 269.1 326 269.8C326.8 270.8 325.9 272.2 327.1 272.8C326.8 275.2 327.9 277.5 328.4 279.7C329.2 283.2 329.9 286.9 330.9 290.4C331.5 292.3 331.7 294.4 332.3 296.4C333.2 299.7 333.5 303.3 335 306.4C334.8 308.2 336.2 309.6 336.4 311.3C336.6 312.3 336.5 313 335.7 313.1C334.4 313.3 333 313.5 331.6 313.7C330.7 313.8 329.9 314.1 329 314.3C328.2 314.4 327.4 314.5 326.6 314.8C325 315.3 323.2 315.3 321.4 315.5C319.5 315.8 317.7 316.2 315.8 316.5C313.7 316.8 311.7 317.5 309.5 317.3C308.7 317.2 308.2 316.9 308 316.2C307.7 315.2 307.4 314.1 307.4 313C307.4 311.9 307 311 306.8 310.1C307 309.2 307.3 308.2 306.7 307.2ZM322.5 319.9C317.7 320.9 312.8 322 307.8 322.5C307.6 320.8 309 321 309.6 320.8C310.9 320.4 312.3 320.5 313.6 320.1C316.1 319.3 318.8 319.6 321.2 318.4C321.7 318.2 322.3 318.3 322.9 318.4C324 318.6 324.9 318.1 325.8 317.8C326.7 317.5 327.7 318.2 328.5 317.3C331.3 317.2 334.1 316 337.1 316.8C332.2 318.2 327.3 319 322.5 319.9ZM341.6 310.3C339.9 310.5 339.2 309.7 338.7 308.5C338.1 307 337.4 305.6 337 304C336.5 302 336.4 299.9 335.8 297.9C335.2 296 335.2 294 334.2 292.3C334.3 289.1 332.9 286.1 332.3 283C331.6 279.4 330.8 275.8 329.8 272.3C329.2 270.4 329 268.5 328.5 266.5C327.7 263.4 327.2 260.2 326.3 257.1C325.8 255.4 325.7 253.6 325.1 251.9C324.7 250.7 325.3 249.2 326 248.9C326.8 248.6 327.8 249.2 328.5 250.7C329 251.7 329.6 252.8 329.6 253.9C329.8 257 331 259.9 331.5 262.9C331.9 265.6 332.6 268.3 333.3 271C333.8 273.4 334.4 275.7 334.9 278.1C335.5 280.9 336.1 283.7 336.8 286.5C337.2 287.8 336.8 289.3 337.7 290.4C337.6 292.6 338.9 294.6 338.9 296.8C340 297.9 339.2 299.4 339.9 300.7C340.5 301.8 340 303.6 340.7 304.6C341.5 305.9 340.6 307.4 341.7 308.5C341.8 309 341.6 309.6 341.6 310.3ZM356.5 308.5C354.5 309.7 352.4 310.8 350 311C349 311.1 348.2 311.6 347.1 311.6C345.9 311.5 345.4 311.2 344.9 310C344.2 308.3 343.8 306.6 343.4 304.9C342.8 302.2 342.1 299.5 341.8 296.7C341.4 293.4 340.5 290.1 339.8 286.9C339.2 284.1 338.8 281.3 337.8 278.6C337.4 277.5 337.3 276.1 337.1 274.9C336.5 271.7 335.8 268.6 334.9 265.5C334.3 263.5 334 261.5 333.6 259.4C333 256.4 332.2 253.5 331.3 250.6C330.6 248.7 329.5 247 328.5 245C329.1 244.8 329.6 244.4 330.2 244.4C333.3 244.3 336.3 244.3 339.4 244.4C340.4 244.4 341.6 244.8 342.4 245.4C343.3 246 343.8 246.9 344.2 248.1C344.8 250.2 345.3 252.2 345.8 254.3C346.5 257.2 346.9 260.1 347.8 262.9C348.2 264.1 348.2 265.4 348.5 266.6C348.9 267.8 348.5 269.4 349.2 270.3C350.1 271.5 349 273 350.2 273.9C350 276.3 351 278.6 351.5 280.8C352.4 284.8 352.7 288.9 354.2 292.8C354.6 293.9 354.5 295.1 354.8 296.3C355.4 299 355.5 301.8 356.5 304.5C356.9 305.7 356.5 307.1 356.5 308.5Z" fill="black"/>
</svg>
