<svg width="24" height="25" viewBox="0 0 24 25" fill="none" xmlns="http://www.w3.org/2000/svg">
<path d="M11.8319 0.208546C11.6637 0.410478 11.6637 0.528271 11.7983 0.662892C12.0844 0.948962 12.4209 0.578754 12.219 0.208546C12.0675 -0.0438681 12.0339 -0.0438681 11.8319 0.208546Z" fill="white"/>
<path d="M11.7145 1.28568C11.7818 1.53809 11.6808 1.62223 11.2096 1.7232C10.4187 1.85782 10.2 2.37947 10.5533 3.23768C10.7048 3.57424 10.8226 4.01175 10.8226 4.18003C10.8226 4.4661 10.9572 4.49976 12.0005 4.49976C13.0438 4.49976 13.1785 4.4661 13.1785 4.18003C13.1785 4.01175 13.2962 3.59106 13.4309 3.27134C13.5655 2.93479 13.6833 2.58141 13.6833 2.48044C13.6833 2.16072 13.0102 1.63906 12.6063 1.63906C12.2866 1.63906 12.2193 1.57175 12.2866 1.30251C12.3539 1.03326 12.2866 0.965954 12.0005 0.965954C11.7145 0.965954 11.6471 1.05009 11.7145 1.28568Z" fill="white"/>
<path d="M5.35364 2.98537C5.08439 3.25461 4.73101 3.4902 4.56274 3.4902C4.20936 3.4902 4.14205 4.14647 4.4786 4.48303C4.64688 4.6513 4.61322 4.75227 4.31032 4.9542C3.77184 5.30758 3.82232 5.45903 4.44494 5.37489C4.79832 5.32441 4.94977 5.35806 4.86563 5.47586C4.74784 5.69462 4.91612 6.18262 5.11805 6.18262C5.20219 6.18262 5.25267 6.13213 5.23584 6.048C5.21901 5.98069 5.2695 5.72827 5.33681 5.45903C5.42095 5.17296 5.38729 4.80275 5.2695 4.48303C4.98343 3.79309 5.2695 3.10316 5.82481 3.1873C6.14453 3.23778 6.19502 3.33875 6.19502 4.06234C6.19502 4.75227 6.26233 4.92055 6.61571 5.1393C7.0364 5.40855 7.0364 5.40855 6.7335 5.05517C6.44743 4.71861 6.44743 4.66813 6.68302 4.18013C7.08688 3.42289 7.01957 3.03585 6.44743 2.73295C5.82481 2.41323 5.92577 2.3964 5.35364 2.98537Z" fill="white"/>
<path d="M17.5194 2.74978C16.9809 3.03585 16.9304 3.43971 17.3175 4.18013C17.5531 4.66813 17.5531 4.71861 17.267 5.05517C16.9641 5.40855 16.9641 5.40855 17.3848 5.1393C17.7382 4.92055 17.8055 4.75227 17.8055 4.06234C17.8055 3.33875 17.856 3.23778 18.1757 3.1873C18.7478 3.10316 18.9834 3.70896 18.7142 4.53351C18.5459 5.05517 18.5459 5.27393 18.6973 5.52634C18.8151 5.71144 18.8656 5.9302 18.8151 6.01434C18.7478 6.11531 18.7815 6.18262 18.8656 6.18262C19.0844 6.18262 19.2695 5.69462 19.1349 5.47586C19.0507 5.35806 19.2022 5.32441 19.5555 5.37489C20.1782 5.45903 20.2287 5.30758 19.707 4.9542C19.3873 4.75227 19.3536 4.6513 19.5387 4.48303C19.8584 4.14647 19.7911 3.4902 19.4378 3.4902C19.2695 3.4902 18.9161 3.25461 18.6469 2.98537C18.0915 2.41323 18.1252 2.41323 17.5194 2.74978Z" fill="white"/>
<path d="M8.38278 2.98529C8.3323 3.06943 8.39961 3.15356 8.55106 3.15356C8.70251 3.15356 8.76982 3.06943 8.71934 2.98529C8.66885 2.88432 8.58472 2.81701 8.55106 2.81701C8.51741 2.81701 8.43327 2.88432 8.38278 2.98529Z" fill="white"/>
<path d="M15.2812 2.98529C15.2307 3.06943 15.2981 3.15356 15.4495 3.15356C15.6009 3.15356 15.6683 3.06943 15.6178 2.98529C15.5673 2.88432 15.4832 2.81701 15.4495 2.81701C15.4158 2.81701 15.3317 2.88432 15.2812 2.98529Z" fill="white"/>
<path d="M8.29883 3.57425C8.29883 3.70887 8.38297 3.82666 8.4671 3.82666C8.56807 3.82666 8.63538 3.70887 8.63538 3.57425C8.63538 3.43962 8.56807 3.32183 8.4671 3.32183C8.38297 3.32183 8.29883 3.43962 8.29883 3.57425Z" fill="white"/>
<path d="M15.3652 3.57425C15.3652 3.70887 15.4494 3.82666 15.5335 3.82666C15.6345 3.82666 15.7018 3.70887 15.7018 3.57425C15.7018 3.43962 15.6345 3.32183 15.5335 3.32183C15.4494 3.32183 15.3652 3.43962 15.3652 3.57425Z" fill="white"/>
<path d="M2.25707 4.14636C1.83638 4.90361 2.03831 5.59354 2.96383 6.70416L3.83887 7.78113L2.77873 6.93975C2.18976 6.4854 1.68493 6.04789 1.63445 5.98058C1.43252 5.67768 1.23059 5.87961 1.23059 6.38444C1.23059 6.80513 1.39886 7.07437 2.02148 7.64651L2.79556 8.3701L1.85321 7.94941L0.894034 7.52872V7.93258C0.894034 8.35327 1.19693 8.68982 1.98783 9.09369C2.62728 9.44707 2.47583 9.44707 1.56714 9.12734C0.692102 8.82444 0.725758 8.82444 0.725758 9.11051C0.725758 9.51438 1.39886 10.2211 1.95417 10.3726C2.47583 10.524 2.459 10.524 1.70176 10.5409C1.24741 10.5577 0.894034 10.625 0.894034 10.7091C0.894034 10.9952 1.76907 11.5673 2.22342 11.5842C2.52631 11.601 2.44218 11.6515 1.93735 11.7693C1.23059 11.9207 1.21376 11.9376 1.49983 12.2573C1.65128 12.4424 2.02148 12.577 2.30755 12.577C2.82921 12.5938 2.81238 12.5938 2.07197 12.964C1.43252 13.2838 1.31472 13.4184 1.26424 13.8896C1.21376 14.3607 1.28107 14.4617 1.76907 14.6636C2.25707 14.8824 2.44218 15.1853 3.51914 17.558C4.5288 19.7961 4.69708 20.2841 4.54563 20.6038C4.31004 21.1254 4.62977 21.7985 5.16825 21.9332C5.40384 21.9836 5.65625 22.2361 5.77405 22.5221C5.89184 22.7914 6.04329 23.0101 6.12743 23.0101C6.32936 23.0101 6.31253 22.7241 6.09377 22.2865C5.92549 21.9836 5.95915 21.8827 6.34618 21.5461C6.85101 21.1086 8.26453 20.6543 9.08909 20.6543C9.69488 20.6543 9.72854 20.6206 9.47612 20.1326C9.32467 19.8634 9.35833 19.8129 9.62757 19.8129C10.0819 19.8129 10.2165 19.5268 9.81268 19.4258C9.13957 19.2576 9.57709 18.1974 10.267 18.3321C10.4353 18.3657 10.6709 18.6013 10.7887 18.8705C11.0074 19.3081 10.9906 19.3754 10.5699 19.8129C10.1661 20.2336 10.1492 20.3009 10.4353 20.3514C10.6709 20.4019 10.5699 20.5028 10.0483 20.7721C9.67805 20.974 9.27419 21.2601 9.1564 21.3947C8.87033 21.7481 8.29819 21.7481 8.29819 21.3947C8.29819 20.8899 7.8775 21.2769 7.86067 21.7985C7.86067 22.0846 7.81019 22.3875 7.74288 22.438C7.5746 22.6063 7.60826 23.2121 7.79336 23.515C7.92798 23.7337 7.97846 23.7169 8.19722 23.4308C8.41598 23.1448 8.44964 23.1279 8.46647 23.3803C8.46647 23.7674 9.12274 24.2049 9.56026 24.0871C9.77902 24.0366 10.0146 24.1039 10.1324 24.2554C10.267 24.4068 10.5867 24.5246 10.8728 24.5246C11.1589 24.5246 11.5291 24.6424 11.6974 24.8107C11.9834 25.0631 12.0171 25.0631 12.3032 24.8107C12.4714 24.6424 12.8416 24.5246 13.1277 24.5246C13.4138 24.5246 13.7335 24.4068 13.8681 24.2554C13.9859 24.1039 14.2215 24.0366 14.4403 24.0871C14.8778 24.2049 15.5341 23.7674 15.5341 23.3803C15.5509 23.1279 15.5846 23.1448 15.8033 23.4308C16.0221 23.7169 16.0726 23.7337 16.2072 23.515C16.3923 23.2121 16.4259 22.6063 16.2577 22.438C16.1903 22.3875 16.1399 22.0846 16.1399 21.7985C16.123 21.2769 15.7023 20.8899 15.7023 21.3947C15.7023 21.7481 15.1302 21.7481 14.8441 21.3947C14.7263 21.2601 14.3225 20.974 13.9523 20.7889C13.3633 20.486 13.3128 20.4187 13.5989 20.3177C13.9018 20.2167 13.885 20.1831 13.4643 19.897C12.9426 19.5605 12.8921 19.2071 13.2792 18.6686C13.5821 18.2143 14.1374 18.2311 14.4234 18.6854C14.5749 18.9378 14.5412 19.0556 14.2383 19.2912C13.8345 19.6278 13.885 19.8129 14.3898 19.8129C14.6422 19.8129 14.6759 19.8634 14.5244 20.1326C14.272 20.6206 14.3057 20.6543 14.9114 20.6543C15.7528 20.6543 17.1327 21.1086 17.688 21.5798C18.3275 22.1183 18.8155 22.1183 19.3035 21.5798C19.5222 21.3442 19.8419 21.1591 20.0439 21.1591C20.5824 21.1591 21.0872 20.6206 21.205 19.9475C21.2891 19.409 21.2218 19.2576 20.7843 18.8032C20.128 18.1638 19.3876 18.1301 18.8155 18.7191C18.5799 18.9378 18.3779 19.2576 18.3779 19.4258C18.3611 19.5941 18.3443 19.7624 18.3443 19.8129C18.3443 19.8634 18.1255 20.099 17.8731 20.3345L17.4188 20.7721L16.6783 20.4187C16.2577 20.1999 15.9379 19.9307 15.8874 19.7287C15.837 19.409 15.837 19.409 16.1567 19.6951C16.5606 20.0485 16.7288 20.0653 16.611 19.7287C16.5269 19.5436 16.6279 19.4763 16.9476 19.4763C17.1832 19.4763 17.3851 19.3922 17.3851 19.3081C17.3851 19.2071 17.301 19.1398 17.2168 19.1398C17.099 19.1398 17.0654 18.921 17.1327 18.5845C17.2505 17.9618 16.7288 17.1205 16.224 17.1205C15.1975 17.1205 14.8105 15.7574 15.6687 15.1011L16.123 14.7309L16.224 15.3704C16.325 15.9594 16.8635 16.6156 17.2505 16.6156C17.3515 16.6156 17.3851 16.4137 17.3346 16.1108C17.2 15.505 17.3346 15.4545 17.5534 16.0267C17.688 16.3969 18.4621 16.7839 18.664 16.582C18.6977 16.5315 18.6135 16.1781 18.4789 15.7743C18.3443 15.3872 18.2265 15.0338 18.2265 15.017C18.2265 14.9834 18.4452 15.1853 18.7145 15.4545C19.4213 16.1613 20.2121 16.0603 19.6568 15.3367C19.3708 14.9497 19.3203 14.6131 19.6064 14.8992C19.8251 15.118 20.7506 15.1853 20.7506 14.9834C20.7506 14.916 20.5824 14.6973 20.3804 14.4617L19.9934 14.0747L20.4646 14.2429C20.8179 14.3776 21.0367 14.3776 21.3059 14.2261C21.6425 14.0578 21.6425 14.0242 21.3901 13.8559C21.1377 13.7045 21.1713 13.654 21.6257 13.5025C22.3493 13.2669 22.3829 12.9809 21.7266 12.8294L21.1713 12.6948L21.6762 12.6275C21.9622 12.577 22.3156 12.4256 22.5007 12.2741C22.7868 12.0049 22.7868 11.988 22.1642 11.7861C21.7603 11.6683 21.6425 11.5842 21.8613 11.5842C22.2483 11.5673 23.1065 10.9616 23.1065 10.7091C23.1065 10.625 22.7531 10.5577 22.3156 10.5409C21.5415 10.524 21.5247 10.524 22.0464 10.3726C22.6017 10.2043 23.2748 9.51438 23.2748 9.09369C23.2748 8.84127 23.0728 8.87493 21.9286 9.31245C21.5415 9.46389 21.4406 9.46389 21.6593 9.32927C21.8276 9.21148 22.1978 8.97589 22.5007 8.79079C22.8373 8.57203 23.0392 8.28596 23.0728 7.98306L23.1233 7.52872L22.1642 7.94941L21.205 8.3701L21.9791 7.64651C22.6017 7.07437 22.7699 6.80513 22.7699 6.38444C22.7699 6.08154 22.7195 5.84595 22.669 5.84595C22.6017 5.84595 22.1642 6.16568 21.693 6.56954C20.229 7.79796 20.1448 7.81479 21.0535 6.72099C21.9791 5.59354 22.1642 4.90361 21.7435 4.12954C21.5752 3.80981 21.5079 3.86029 20.9694 4.76899C20.1448 6.14885 19.0006 7.59603 17.6712 8.94224C16.7457 9.86776 16.5437 10.1707 16.6279 10.4567C16.8971 11.3318 16.8971 11.5842 16.6447 11.988C16.3418 12.4592 15.4331 12.577 15.0629 12.2068C14.7937 11.9376 14.8105 11.7356 15.0797 11.7356C15.3321 11.7356 15.8706 11.214 15.8706 10.9952C15.8706 10.9111 15.7528 10.8942 15.6182 10.9616C15.4836 11.012 15.1639 10.9784 14.9283 10.8942L14.4908 10.726L14.8946 10.3894L15.2817 10.0697L14.9114 10.0529C14.0028 10.036 13.7503 9.00955 14.4571 8.08403C14.9788 7.3941 15.8538 7.29313 16.2745 7.89892L16.5437 8.26913V7.91575C16.5437 7.71382 16.3754 7.42775 16.1903 7.29313L15.8201 7.04072L16.2745 6.92292C16.5269 6.87244 16.9139 6.88927 17.1495 7.00706C17.5197 7.17534 17.5534 7.15851 17.5534 6.72099C17.5534 6.14885 17.2841 5.84595 16.7793 5.84595C16.3081 5.84595 16.224 5.61037 16.4428 4.80264C16.5774 4.31464 16.5606 4.11271 16.4091 4.01174C16.2408 3.91078 15.2817 3.89395 14.659 3.97809C14.4739 3.99492 14.5076 4.86995 14.6927 5.17285C14.8273 5.39161 14.6759 5.44209 13.7335 5.5094C12.6229 5.59354 12.6229 5.59354 13.1109 5.84595C13.3801 5.98058 13.6325 6.09837 13.6662 6.13202C13.6999 6.14885 13.4811 6.45175 13.195 6.7883C12.8921 7.12485 12.5219 7.66334 12.3705 7.96624C12.2359 8.28596 12.0507 8.53837 12.0003 8.53837C11.9498 8.53837 11.7647 8.28596 11.6301 7.96624C11.4786 7.66334 11.1084 7.12485 10.8055 6.7883C10.5194 6.45175 10.3007 6.14885 10.3343 6.13202C10.368 6.09837 10.6204 5.98058 10.8896 5.84595C11.3776 5.59354 11.3776 5.59354 10.267 5.5094C9.32467 5.44209 9.17323 5.39161 9.30785 5.17285C9.49295 4.86995 9.52661 3.99492 9.35833 3.97809C8.71888 3.89395 7.75971 3.91078 7.59143 4.01174C7.43998 4.11271 7.42315 4.31464 7.55777 4.80264C7.77653 5.61037 7.69239 5.84595 7.22122 5.84595C6.71639 5.84595 6.44715 6.14885 6.44715 6.72099C6.44715 7.15851 6.48081 7.17534 6.85101 7.00706C7.0866 6.88927 7.47364 6.87244 7.72605 6.92292L8.1804 7.04072L7.81019 7.29313C7.62508 7.42775 7.45681 7.71382 7.45681 7.91575V8.26913L7.72605 7.89892C8.14674 7.29313 9.02178 7.3941 9.56026 8.10086C10.1997 8.94224 10.0987 9.73314 9.32467 9.98555L8.75254 10.1707L9.13957 10.4399L9.52661 10.7091L9.08909 10.8774C8.83667 10.9784 8.51695 11.012 8.38233 10.9616C8.24771 10.8942 8.12991 10.9279 8.12991 11.012C8.12991 11.2308 8.70205 11.7356 8.93764 11.7356C9.19005 11.7356 9.19005 11.9544 8.93764 12.2068C8.56743 12.577 7.65874 12.4592 7.35584 11.988C7.10343 11.5842 7.10343 11.3318 7.37267 10.4231C7.47364 10.1033 7.33901 9.88458 6.58177 9.161C5.25239 7.89892 4.05763 6.45175 3.19942 5.03823C2.50949 3.91078 2.42535 3.82664 2.25707 4.14636ZM3.62011 14.4785C3.41818 14.6973 3.2499 14.916 3.2499 14.9834C3.2499 15.1853 4.17542 15.118 4.39418 14.8992C4.68025 14.6131 4.62977 14.9497 4.3437 15.3367C3.78839 16.0603 4.57928 16.1613 5.28604 15.4545C5.55529 15.1853 5.77405 14.9834 5.77405 15.017C5.77405 15.0338 5.65625 15.3872 5.52163 15.7743C5.21873 16.6156 5.26922 16.6998 5.85818 16.5483C6.1106 16.481 6.37984 16.2286 6.53129 15.892L6.7837 15.3536L6.69956 15.9762C6.64908 16.3296 6.66591 16.6156 6.75005 16.6156C7.15391 16.6156 7.67557 15.9594 7.77653 15.3367L7.89433 14.6805L8.34867 15.1348C8.92081 15.7069 8.95447 16.481 8.43281 16.8512C8.23088 17.0027 7.92798 17.1205 7.77653 17.1205C7.2717 17.1205 6.75005 17.9618 6.86784 18.5845C6.93515 18.921 6.9015 19.1398 6.7837 19.1398C6.69956 19.1398 6.61543 19.2071 6.61543 19.3081C6.61543 19.3922 6.81736 19.4763 7.05294 19.4763C7.37267 19.4763 7.47364 19.5436 7.3895 19.7287C7.2717 20.0653 7.43998 20.0485 7.82702 19.6951C8.11309 19.4427 8.12991 19.4427 8.12991 19.6951C8.12991 20.0148 7.5746 20.4187 6.95198 20.5701C6.63225 20.6374 6.43032 20.5701 6.21156 20.3345C6.02646 20.1326 5.68991 19.9812 5.45432 19.9812C5.05046 19.9812 4.91584 19.7624 3.83887 17.3392C3.19942 15.892 2.66093 14.63 2.66093 14.529C2.66093 14.428 2.79556 14.3607 2.96383 14.3944C3.11528 14.428 3.38452 14.3607 3.5528 14.2766C3.99032 14.0074 4.00714 14.0578 3.62011 14.4785ZM10.5699 21.4452C10.3343 21.7985 10.0651 22.3707 9.96412 22.7241C9.76219 23.4477 9.42564 23.4813 9.3415 22.7745C9.29102 22.4043 9.44247 22.1519 10.0483 21.563C10.4858 21.1591 10.8728 20.8225 10.9233 20.8225C10.957 20.8225 10.8055 21.1086 10.5699 21.4452ZM14.3561 21.95C14.7263 22.4212 14.76 23.1952 14.4066 23.2962C14.2888 23.3467 14.1374 23.0943 14.0364 22.7241C13.9354 22.3707 13.6494 21.7817 13.4138 21.4283L12.9594 20.7552L13.4811 21.1423C13.7672 21.3442 14.171 21.7144 14.3561 21.95ZM11.6469 22.0173C11.5459 22.5221 11.4113 23.1952 11.344 23.515C11.2262 24.0871 11.2262 24.0871 11.0243 23.7337C10.9065 23.515 10.856 23.1616 10.9233 22.8923C11.0916 22.2529 11.6805 20.9403 11.7647 21.0413C11.7983 21.075 11.7479 21.5125 11.6469 22.0173ZM12.6397 21.6976C13.1277 22.7914 13.2119 23.313 12.9931 23.7337C12.7912 24.0703 12.7743 24.0366 12.5724 23.1784C12.0676 20.873 12.0844 20.4692 12.6397 21.6976Z" fill="white"/>
<path d="M10.0648 5.00462C9.50952 5.37482 9.66097 5.44213 10.4519 5.15606C10.7548 5.0551 10.9399 4.90365 10.8894 4.81951C10.7548 4.60075 10.637 4.63441 10.0648 5.00462Z" fill="white"/>
<path d="M13.1108 4.81951C13.0603 4.90365 13.2454 5.0551 13.5483 5.15606C14.3392 5.44213 14.4907 5.37482 13.9354 5.00462C13.3632 4.63441 13.2454 4.60075 13.1108 4.81951Z" fill="white"/>
<path d="M6.14391 7.64646C6.36267 7.9157 6.63191 7.9157 7.00212 7.64646C7.25454 7.47818 7.20405 7.44453 6.63191 7.44453C6.09343 7.4277 5.99246 7.47818 6.14391 7.64646Z" fill="white"/>
<path d="M16.9982 7.64646C17.3684 7.9157 17.6377 7.9157 17.8564 7.64646C18.0079 7.47818 17.9069 7.4277 17.3684 7.44453C16.7963 7.44453 16.7458 7.47818 16.9982 7.64646Z" fill="white"/>
<path d="M19.6403 17.4402C19.7076 17.5243 19.6403 17.6421 19.5393 17.6758C19.371 17.7431 19.371 17.7767 19.5393 17.7767C19.6571 17.7936 19.7076 17.8609 19.6571 17.9619C19.6066 18.046 19.6403 18.1301 19.7244 18.1301C19.8254 18.1301 19.9095 18.046 19.9095 17.945C19.9095 17.8609 19.9936 17.8272 20.0778 17.8777C20.1787 17.9282 20.2461 17.8609 20.2461 17.7094C20.2461 17.558 20.1787 17.4907 20.0778 17.5412C19.9936 17.5916 19.9095 17.558 19.9095 17.4738C19.9095 17.3729 19.8254 17.2887 19.7244 17.2887C19.6403 17.2887 19.5898 17.3561 19.6403 17.4402Z" fill="white"/>
</svg>
