<svg width="29" height="26" viewBox="0 0 29 26" fill="none" xmlns="http://www.w3.org/2000/svg">
<path d="M14.3449 6.87006C14.2554 6.63294 14.1405 6.40882 14.0038 6.20081C14.0282 6.04377 14.0402 5.88309 14.0402 5.71981C14.0402 3.99703 12.6424 2.59977 10.9201 2.59977C10.123 2.59977 9.39546 2.89878 8.84426 3.3907C8.09961 2.8915 7.20416 2.59977 6.24007 2.59977C3.68996 2.59977 1.61514 4.64028 1.56106 7.17739C0.627647 7.71767 0 8.727 0 9.87986C0 11.6021 1.39778 12.9999 3.12003 12.9999H13.5202C15.2424 12.9999 16.6402 11.5995 16.6402 9.87986C16.6402 8.44204 15.6678 7.23147 14.3449 6.87006ZM10.9201 3.63979C11.8764 3.63979 12.6824 4.28511 12.9247 5.16496C12.4157 4.85712 11.8192 4.6798 11.1801 4.6798C10.8468 4.6798 10.5249 4.72816 10.2212 4.81812C10.0554 4.55032 9.86347 4.30123 9.64923 4.07347C9.99971 3.80151 10.4412 3.63979 10.9201 3.63979ZM13.5217 11.9599H3.11847C1.9729 11.9599 1.04001 11.0285 1.04001 9.87986C1.04001 8.89548 1.72486 8.0692 2.64527 7.85391C2.61511 7.66723 2.60003 7.47535 2.60003 7.27983C2.60003 5.26948 4.22973 3.63979 6.24007 3.63979C7.88433 3.63979 9.27378 4.73024 9.72515 6.22681C10.125 5.90909 10.6294 5.71981 11.1801 5.71981C12.3845 5.71981 13.3771 6.62982 13.5061 7.79983H13.5217C14.6673 7.79983 15.6002 8.73116 15.6002 9.87986C15.6002 11.0265 14.6699 11.9599 13.5217 11.9599Z" fill="white"/>
<path d="M14.2338 3.14333L14.9619 2.41481C15.1678 2.20992 15.1693 1.88076 14.966 1.67588C14.7627 1.47308 14.4351 1.47152 14.2266 1.67952L13.4986 2.40805C13.2932 2.61293 13.2906 2.94209 13.4949 3.14697C13.6982 3.34978 14.0258 3.35134 14.2338 3.14333Z" fill="white"/>
<path d="M10.9191 2.08002C11.2067 2.08002 11.4391 1.84966 11.4391 1.55482V0.525206C11.4391 0.235043 11.2087 0 10.9191 0C10.6315 0 10.3991 0.230363 10.3991 0.525206V1.55482C10.3991 1.84498 10.6295 2.08002 10.9191 2.08002Z" fill="white"/>
<path d="M14.562 5.72187C14.562 6.00892 14.7923 6.24188 15.0872 6.24188H16.1168C16.407 6.24188 16.642 6.011 16.642 5.72187C16.642 5.43431 16.4116 5.20187 16.1168 5.20187H15.0872C14.797 5.20187 14.562 5.43223 14.562 5.72187Z" fill="white"/>
<path d="M4.68555 26L2.64941 16.8813H2.56885C2.66162 17.5845 2.70801 18.229 2.70801 18.8149V26H0.862305V15.292H3.92383L5.75488 23.7075H5.81348L7.62988 15.292H10.7354V26H8.8457V18.7417C8.8457 18.1411 8.87988 17.5259 8.94824 16.896H8.88965L6.86084 26H4.68555Z" fill="white"/>
<path d="M17.6934 26L17.0781 23.2974H14.2876L13.6724 26H11.6802L14.3315 15.248H17.0342L19.6929 26H17.6934ZM16.7046 21.5322L16.1333 19.042C16.0991 18.8906 16.021 18.5122 15.8989 17.9067C15.7817 17.2964 15.7109 16.8887 15.6865 16.6836C15.623 17.1035 15.5425 17.5674 15.4448 18.0752C15.3472 18.5781 15.0933 19.7305 14.6831 21.5322H16.7046Z" fill="white"/>
<path d="M20.6377 15.292H22.4834V21.1733C22.4834 21.7837 22.437 22.3867 22.3442 22.9824H22.4248L25.6914 15.292H28.1377V26H26.3066V20.1333C26.3066 19.4106 26.3628 18.7759 26.4751 18.229H26.3799L23.0986 26H20.6377V15.292ZM27.061 12.062C26.9634 12.8823 26.6948 13.4829 26.2554 13.8638C25.8208 14.2446 25.1787 14.4351 24.3291 14.4351C23.499 14.4351 22.8765 14.2495 22.4614 13.8784C22.0464 13.5024 21.7998 12.897 21.7217 12.062H23.3403C23.394 12.5503 23.4966 12.8799 23.6479 13.0508C23.8042 13.2217 24.0459 13.3071 24.373 13.3071C24.6953 13.3071 24.9346 13.2095 25.0908 13.0142C25.252 12.8188 25.3594 12.5015 25.4131 12.062H27.061Z" fill="white"/>
</svg>
